<?xml version="1.0" encoding="utf-8" ?>
<svg xmlns="http://www.w3.org/2000/svg" xmlns:xlink="http://www.w3.org/1999/xlink" width="1434" height="1024">
	<path fill="#FBFBFA" transform="scale(0.999721 0.999721)" d="M0 0L1432.77 0C1433.55 1.35287 1433.84 2.273 1433.92 3.82991C1434.39 14.2948 1434 24.9358 1434 35.4235L1434 96.5893L1434.01 282.797L1434 835.994L1434 973.892C1434.01 983.184 1435.15 1015.65 1433.74 1021.9C1433.56 1022.7 1433.19 1023.31 1432.77 1024L439.768 1024L435.351 1024L287.185 1024L282.258 1024L118.969 1024L114.702 1024L0 1024L0 0Z"/>
	<path fill="#609F9F" transform="scale(0.999721 0.999721)" d="M654.089 199.941C662.207 199.894 685.398 198.462 691.348 200.215C692.539 201.524 692.816 201.684 693.093 203.501L691.872 204.877C684.312 208.251 665.982 206.476 657.284 206.404C657.289 215.308 658.638 239.95 656.383 246.876C654.302 248.246 653.037 248.051 650.656 248.153C642.949 248.074 617.769 249.983 612.073 246.879C610.801 246.186 610.771 245.95 610.459 244.641L611.461 243.075C615.716 240.599 643.802 241.878 650.753 241.904C650.704 235.615 649.421 205.555 651.185 201.876C651.849 200.493 652.776 200.429 654.089 199.941Z"/>
	<path fill="#3C7578" transform="scale(0.999721 0.999721)" d="M774.4 441.452C777.628 441.318 780.881 440.839 783.528 443.025C785.624 447.537 781.538 456.217 780.38 461.111C777.831 460.751 775.192 460.447 772.617 460.415C769.19 460.371 765.622 461.64 763.268 464.194C757.139 470.842 759.629 493.506 759.675 502.897L742.032 502.944C740.57 502.897 740.029 503.13 738.923 502.121C738.237 494.643 738.676 486.968 738.687 479.457L738.64 442.554L756.882 442.544C757.038 445.621 757.475 448.704 757.822 451.766C762.467 445.342 766.618 442.895 774.4 441.452Z"/>
	<path fill="#3C7578" transform="scale(0.999721 0.999721)" d="M553.27 425.396L553.697 425.581C555.57 428.582 554.475 440.063 554.489 444.067L569.032 444.034L569.041 458.765L554.422 458.777C554.508 465.88 552.901 474.634 554.505 481.472C555.026 483.693 556.233 485.762 558.294 486.871C561.625 488.662 565.812 487.064 569.238 486.245C569.192 491.323 569.848 496.432 570.317 501.485C566.327 503.037 562.426 503.827 558.189 504.355Q556.662 504.394 555.134 504.38C549.241 504.318 543.165 503.454 538.943 498.872C531.073 490.331 533.944 469.999 534.027 458.881L523.251 458.975L523.292 444.073L533.905 444.079L533.937 428.835C540.271 427.377 546.859 426.51 553.27 425.396Z"/>
	<path fill="#3C7578" transform="scale(0.999721 0.999721)" d="M955.092 423.703L975.393 423.608L975.356 441.99L988.551 441.972L988.621 457.495L975.11 457.56C975.191 464.602 973.98 472.154 974.763 479.087C975.078 481.873 976.057 484.682 978.444 486.359C981.475 488.49 985.323 487.196 988.629 486.504L988.639 500.268C988.578 501.047 988.75 501.695 988.115 502.257C985.838 504.274 978.341 504.464 975.383 504.513C969.828 504.604 964.273 503.384 960.253 499.27C951.537 490.348 954.443 470.189 954.535 458.678L945.254 458.67L945.333 441.87L955.061 441.789L955.092 423.703Z"/>
	<path fill="#3C7578" transform="scale(0.999721 0.999721)" d="M832.252 441.487Q834.112 441.359 835.975 441.31C841.911 441.176 847.905 442.692 852.24 446.951C862.551 457.08 859.248 488.73 859.209 503.084L839.552 503.04C839.522 493.646 842.39 468.135 836.327 461.106C834.449 458.928 832.164 458.145 829.337 458.111C824.765 458.056 821.855 459.432 818.644 462.569C814.173 472.279 816.308 491.987 816.363 503.094Q805.557 502.999 794.751 503.143L794.727 442.477L814.97 442.399L815.013 451.669C820.612 445.777 824.292 443.242 832.252 441.487Z"/>
	<path fill="#3C7578" transform="scale(0.999721 0.999721)" d="M900.56 441.451Q901.406 441.397 902.253 441.354C912.278 440.844 922.128 443.157 929.689 450.117C937.399 457.215 939.911 466.248 940.249 476.387Q916.079 476.247 891.909 476.378C893.022 479.573 894.114 482.748 896.51 485.235C899.447 488.282 903.368 489.976 907.612 489.858C913.926 489.682 918.191 486.29 922.323 481.914L928.453 485.475C931.568 487.311 934.559 489.377 937.573 491.374C932.216 497.534 926.182 501.603 918.112 503.363C907.644 505.645 895.497 504.598 886.412 498.571Q885.775 498.149 885.159 497.696Q884.544 497.243 883.951 496.76Q883.359 496.277 882.791 495.765Q882.223 495.253 881.682 494.714Q881.14 494.174 880.626 493.609Q880.112 493.043 879.626 492.453Q879.14 491.862 878.685 491.249Q878.229 490.635 877.804 490Q877.379 489.364 876.986 488.708Q876.594 488.052 876.234 487.378Q875.874 486.703 875.548 486.012Q875.222 485.32 874.931 484.614Q874.64 483.907 874.384 483.186Q874.128 482.466 873.908 481.734Q873.688 481.002 873.505 480.26Q873.321 479.517 873.175 478.767C871.53 470.474 873.004 461.838 877.842 454.841C883.387 446.824 891.255 443.218 900.56 441.451Z"/>
	<path fill="#FBFBFA" transform="scale(0.999721 0.999721)" d="M906.198 454.055C908.484 454.196 910.903 454.256 913.03 455.191C917.576 457.189 919.066 461.412 920.7 465.704L907.058 465.726L892.622 465.726C893.219 464.016 893.944 462.453 894.936 460.931C897.708 456.674 901.459 455.057 906.198 454.055Z"/>
	<path fill="#3C7578" transform="scale(0.999721 0.999721)" d="M686.057 441.47C690.317 441.183 694.669 441.037 698.895 441.748C707.405 443.179 715.326 447.275 720.305 454.495C725.016 461.326 725.911 468.649 724.43 476.665C719.295 479.974 688.786 476.084 680.053 478.311C679.834 478.883 679.591 479.448 679.548 480.068C679.446 481.542 680.187 482.963 681.165 484.009C684.158 487.212 689.422 488.91 693.736 489.008C700.222 489.154 704.322 486.328 708.825 482.145L715.066 485.441C718.106 487.041 720.677 488.962 723.363 491.096C718.655 497.307 712.463 501.701 704.832 503.497C695.1 505.787 683.293 505.269 674.643 499.859Q673.99 499.449 673.358 499.007Q672.726 498.566 672.117 498.093Q671.508 497.621 670.923 497.119Q670.338 496.617 669.778 496.087Q669.218 495.557 668.685 494.999Q668.152 494.442 667.647 493.859Q667.143 493.277 666.667 492.67Q666.192 492.063 665.747 491.433Q665.302 490.803 664.889 490.152Q664.476 489.501 664.095 488.831Q663.715 488.16 663.368 487.472Q663.021 486.783 662.708 486.078Q662.395 485.373 662.118 484.654Q661.84 483.935 661.599 483.202Q661.357 482.47 661.152 481.727Q660.946 480.984 660.778 480.231C658.86 471.698 660.101 462.199 664.914 454.809C669.997 447.003 677.17 443.343 686.057 441.47Z"/>
	<path fill="#FBFBFA" transform="scale(0.999721 0.999721)" d="M688.238 454.73C690.279 454.571 692.398 454.398 694.432 454.708C698.292 455.297 702.355 458.446 704.537 461.596C704.907 463.567 705.004 463.613 704.003 465.494C701.712 466.907 698.943 466.42 696.344 466.317C691.67 466.225 684.749 467.83 680.587 465.722C679.775 464.334 679.545 463.688 680.055 462.092C681.29 458.232 684.816 456.297 688.238 454.73Z"/>
	<path fill="#3C7578" transform="scale(0.999721 0.999721)" d="M582.418 406.439L603.362 406.414Q603.035 429.073 603.243 451.733C608.703 446.276 615.312 441.362 623.344 441.3C629.103 441.256 634.711 442.942 638.832 447.112C648.855 457.255 645.512 489.239 645.427 502.944L625.111 502.941L625.003 489.062C624.998 481.47 626.787 467.603 621.882 461.43C620.114 459.205 616.428 457.452 613.591 457.374C611.704 457.322 609.943 458.256 608.646 459.578C600.658 467.721 603.079 492.097 603.013 502.824L582.201 502.871L582.418 406.439Z"/>
	<path fill="#3C7578" transform="scale(0.999721 0.999721)" d="M448.114 410.389L513.846 410.307L513.674 429.023C499.378 429.818 484.816 429.271 470.49 429.248L470.509 445.288L508.322 445.336L508.379 464.409C500.17 464.343 477.751 462.995 471.092 464.878L470.554 466.326L470.566 482.531L516.763 482.619L516.86 502.954L448.099 502.848L448.114 410.389Z"/>
	<path fill="#609F9F" transform="scale(0.999721 0.999721)" d="M967.092 144.526C975.874 144.326 983.951 146.211 991.327 151.134C1000.63 157.341 1006.52 166.745 1008.66 177.666C1010.82 188.702 1008.87 200.303 1002.49 209.65C994.999 220.615 984.665 225.445 971.985 227.78C972.298 261.816 972.125 295.935 971.773 329.972L1089.84 329.877C1089.9 329.761 1089.95 329.644 1090.01 329.529C1094.38 321.238 1087.84 296.269 1091.97 288.795C1093.19 287.686 1094.11 287.118 1095.77 286.933C1101.39 286.308 1108.15 287.142 1113.88 287.123C1123.48 287.091 1133.68 286.15 1143.18 286.822C1144.91 286.944 1145.84 287.159 1147.18 288.272C1147.62 290.031 1147.62 290.379 1147.14 292.125C1146.63 292.496 1146.19 292.97 1145.62 293.237C1142.28 294.807 1102.64 293.508 1096.51 293.508C1096.86 294.178 1097.16 294.766 1097.33 295.512C1098.67 301.523 1098.47 331.296 1095.6 335.941C1094.69 336.136 1093.77 336.305 1092.83 336.336C1069.44 337.135 1045.66 336.243 1022.23 336.228L883.404 336.274L465.351 336.304L382.168 336.338C368.24 336.357 353.989 337.081 340.106 336.353C338.183 336.252 335.466 336.255 334.009 334.88C332.4 327.344 333.687 317.559 333.747 309.801L301.897 309.989C297.423 310.044 291.951 310.927 287.606 310.029C285.422 309.577 284.522 308.768 283.341 306.99C283.486 305.223 283.613 305.207 284.827 303.888C289.557 301.911 332.12 303.002 340.153 303.21C340.733 312.025 340.292 321.115 340.299 329.961L437.972 329.961L455.217 329.946L455.165 226.228C448.359 226.279 428.363 227.652 423.176 225.285C422.169 224.825 421.97 224.673 421.592 223.599C420.234 219.75 419.883 153.806 422.125 149.508C422.699 148.407 423.45 148.121 424.626 147.872C433.009 146.097 450.09 147.735 459.311 147.748C470.096 147.764 481.19 146.94 491.931 147.555C493.412 147.64 495.309 147.732 496.553 148.595C497.718 149.404 498.213 150.489 498.37 151.862C499.388 160.716 498.504 170.729 498.51 179.684C498.52 193.02 499.379 207.048 498.278 220.309C498.145 221.913 498.116 223.262 497.029 224.561C490.364 228.074 470.241 226.196 461.916 226.158L462.073 329.896L780.32 329.973C780.679 315.813 780.507 301.615 780.519 287.45C772.152 287.33 757.672 288.991 750.062 286.76C748.376 286.266 748.361 286.102 747.569 284.54C747.612 282.733 748.031 281.338 748.971 279.777C751.742 275.17 755.384 270.887 758.457 266.447C765.04 256.936 772.887 242.952 780.818 235.21C781.939 234.115 782.284 233.589 783.882 233.612C787.538 236.182 817.555 278.915 818.457 282.754C818.795 284.196 818.256 284.647 817.546 285.841C811.188 290.029 794.743 287.785 786.855 287.633Q786.947 308.863 786.707 330.092L965.542 329.896L965.551 227.972C957.323 226.414 950.324 224.363 943.593 219.103Q942.773 218.474 941.985 217.805Q941.197 217.135 940.444 216.427Q939.691 215.719 938.975 214.973Q938.259 214.228 937.581 213.447Q936.903 212.666 936.266 211.852Q935.629 211.038 935.033 210.193Q934.438 209.348 933.885 208.474Q933.333 207.6 932.826 206.699Q932.319 205.798 931.858 204.873Q931.396 203.948 930.983 203Q930.569 202.053 930.203 201.086Q929.838 200.119 929.521 199.134Q929.205 198.15 928.939 197.151Q928.673 196.152 928.457 195.141Q928.242 194.129 928.078 193.109Q927.913 192.088 927.801 191.06Q927.679 190.014 927.61 188.964Q927.541 187.914 927.525 186.861Q927.509 185.809 927.545 184.757Q927.582 183.705 927.671 182.656Q927.761 181.607 927.903 180.564Q928.045 179.522 928.239 178.487Q928.433 177.453 928.679 176.429Q928.925 175.406 929.222 174.396Q929.519 173.386 929.867 172.393Q930.214 171.399 930.611 170.424Q931.008 169.449 931.453 168.496Q931.899 167.542 932.391 166.612Q932.884 165.682 933.423 164.778Q933.962 163.874 934.545 162.998Q935.129 162.122 935.756 161.276Q936.383 160.431 937.051 159.618C944.832 150.135 955.12 145.806 967.092 144.526Z"/>
	<path fill="#CDE5E1" transform="scale(0.999721 0.999721)" d="M783.56 242.298C793.088 253.855 801.513 268.094 809.412 280.86L782.477 280.85L756.542 280.862C764.826 267.604 774.427 254.991 783.56 242.298Z"/>
	<path fill="#CDE5E1" transform="scale(0.999721 0.999721)" d="M963.481 151.438C971.701 150.855 978.964 151.696 986.158 156.022C993.949 160.708 999.777 168.084 1001.95 176.962C1004.25 186.319 1002.73 196.826 997.715 205.065C992.427 213.753 984.358 218.209 974.705 220.545C966.265 221.208 958.909 220.879 951.384 216.543Q950.633 216.105 949.906 215.63Q949.178 215.155 948.475 214.645Q947.772 214.134 947.095 213.588Q946.419 213.043 945.771 212.464Q945.122 211.886 944.504 211.275Q943.885 210.665 943.298 210.024Q942.711 209.384 942.157 208.714Q941.602 208.045 941.082 207.349Q940.562 206.652 940.078 205.931Q939.593 205.21 939.146 204.465Q938.698 203.72 938.288 202.953Q937.878 202.187 937.507 201.401Q937.136 200.615 936.805 199.811Q936.474 199.008 936.184 198.189Q935.894 197.37 935.645 196.537Q935.396 195.704 935.189 194.86Q934.981 193.994 934.815 193.118Q934.65 192.242 934.528 191.359Q934.407 190.477 934.329 189.589Q934.252 188.701 934.218 187.811Q934.185 186.92 934.196 186.029Q934.207 185.138 934.262 184.249Q934.317 183.359 934.416 182.473Q934.515 181.588 934.658 180.708Q934.801 179.829 934.988 178.957Q935.174 178.086 935.404 177.225Q935.634 176.364 935.906 175.515Q936.178 174.667 936.492 173.833Q936.806 172.999 937.161 172.181Q937.516 171.364 937.911 170.565Q938.306 169.767 938.74 168.989Q939.175 168.211 939.647 167.455C945.196 158.47 953.424 153.842 963.481 151.438Z"/>
	<path fill="#CDE5E1" transform="scale(0.999721 0.999721)" d="M429.48 154.429L491.933 154.431L491.694 219.271L427.695 219.259L427.488 176.654C427.475 169.933 426.57 161.7 427.944 155.164L429.48 154.429Z"/>
	<path transform="scale(0.999721 0.999721)" d="M1051.42 619.165C1055.27 617.109 1083.8 601.874 1085.66 599.934C1094 602.472 1197.85 658.458 1199.32 660.329C1199.73 661.14 1200.03 661.709 1200.17 662.62C1201.14 669.123 1200.31 756.962 1199.03 761.518C1194.23 767.534 1175.09 778.538 1167.56 780.535C1167.23 780.622 1166.9 780.717 1166.58 780.8C1166.38 780.85 1166.18 780.889 1165.98 780.933C1164.21 779.161 1101.06 742.802 1098.99 742.265C1097.37 743.493 1097.06 744.965 1096.77 746.953C1096.21 750.789 1096.07 756.922 1097.31 760.567C1102.11 774.611 1109.73 778.98 1093.14 791.674C1087.54 795.952 1080.86 799.691 1074.06 801.578C1079.33 803.453 1107.78 818.678 1110.17 823.194C1110.24 823.31 1110.27 823.44 1110.32 823.563C1112.08 826.567 1112.57 853.251 1111.47 857.598C1111.32 858.163 1111.05 858.745 1110.8 859.27C1108.75 862.258 1031.87 910.463 1026.67 912.584C1039.36 917.097 1055.06 927.844 1061.02 940.197C1062.37 942.988 1063.92 946.736 1063.54 949.866C1063.65 949.976 1063.77 950.074 1063.86 950.196C1065.35 952.107 1065.61 956.106 1065.25 958.39C1065.03 959.789 1065.06 960.204 1063.92 961.001C1059.46 959.497 1061.62 953.298 1059.03 950.072C1058.93 949.957 1058.83 949.849 1058.74 949.738L1058.57 950.228C1056.62 951.569 893.195 950.545 876.966 950.538L872.566 950.545C875.233 938.289 880.337 926.207 891.284 919.233C903.135 911.685 917.763 910.376 930.959 906.431C920.584 900.211 909.286 894.79 899.385 887.89Q899.039 870.995 899.114 854.096C908.546 847.278 918.948 841.466 928.767 835.185L997.226 791.858C1004.11 787.523 1021.42 778.045 1026.05 773.421C1031.56 775.41 1068.09 795.997 1069.62 798.293C1078.47 796.272 1092.22 789.58 1097.34 781.73C1098.82 779.444 1099.14 777.479 1098.54 774.829C1096.89 767.53 1091.34 760.937 1091.4 753.203C1091.43 748.474 1094.44 743.295 1093.96 739.013C1090.13 734.928 1058.3 717.714 1051.66 714.475C1053.25 710.388 1052.62 621.706 1051.67 619.601C1051.6 619.448 1051.5 619.31 1051.42 619.165Z"/>
	<path fill="#F4C23E" transform="scale(0.999721 0.999721)" d="M1194.19 665.738C1195.3 665.824 1195.35 665.79 1196.17 666.535C1196.91 676.805 1195.82 687.505 1195.84 697.841C1195.88 716.929 1196.73 736.252 1195.91 755.314C1195.84 756.892 1195.64 758.106 1195.03 759.568C1192.19 763.854 1177.53 771.023 1172.48 773.3L1172.29 773.382L1171.52 772.932L1172.14 772.383L1170.82 771.935L1171.43 771.518C1171.41 758.338 1172.91 687.108 1170.55 680.74C1178.09 677.236 1187.5 670.703 1194.19 665.738Z"/>
	<path fill="#EEDA86" transform="scale(0.999721 0.999721)" d="M1085.29 604.799C1085.73 604.813 1086.17 604.82 1086.61 604.854C1089.67 605.094 1189.78 659.051 1191.98 661.499C1191.73 661.998 1191.71 662.108 1191.26 662.568C1188.59 665.297 1168.78 677.26 1165.66 676.95C1164.37 675.307 1064.49 622.266 1057.69 619.963C1064.47 617.537 1079.07 609.064 1085.29 604.799Z"/>
	<path fill="#FBFBFA" transform="scale(0.999721 0.999721)" d="M936.381 909.367C947.111 915.36 980.285 937.788 991.012 934.745C997.866 932.8 1015.42 919.958 1023.6 915.642C1036.86 922.065 1052.89 930.163 1058.14 944.917C1058.76 946.664 1059.01 947.865 1058.74 949.738L1058.57 950.228C1056.62 951.569 893.195 950.545 876.966 950.538C880.661 938.287 884.246 927.794 896.245 921.452C908.588 914.928 923.277 913.923 936.381 909.367Z"/>
	<path fill="#EEDA86" transform="scale(0.999721 0.999721)" d="M1105.4 830.329L1106.9 830.629C1107 830.809 1107.12 830.978 1107.2 831.169C1108.6 834.48 1108.03 853.738 1106.67 856.711C1105.61 858.258 994.738 929.061 989.828 930.389C987.308 931.07 984.62 930.786 982.192 929.912C972.519 926.428 962.869 919.64 953.946 914.485Q929.533 900.326 904.946 886.472C904.792 886.35 904.614 886.255 904.485 886.108C902.515 883.875 903.463 862.928 903.491 858.592C916.848 865.908 974.278 901.561 985.278 902.107C988.148 902.249 990.783 901.387 993.3 900.084C1002.39 895.384 1011.13 889.364 1019.81 883.92L1066.71 854.455C1075.19 849.167 1099.2 835.977 1105.4 830.329Z"/>
	<path fill="#EEDA86" transform="scale(0.999721 0.999721)" d="M1055.84 624.394C1056.8 624.433 1057.75 624.474 1058.66 624.85C1065.68 627.765 1072.69 632.206 1079.44 635.776L1125.56 660.34C1134.19 664.936 1160.09 676.855 1166.38 682.262C1166.62 682.691 1166.67 682.742 1166.86 683.278C1168.39 687.625 1167.76 762.679 1167.11 772.122C1167.02 773.584 1166.63 774.847 1166.01 776.174C1164.27 773.868 1160.87 772.864 1158.26 771.826C1156.83 769.652 1106.56 741.25 1100.84 738.237C1103.83 736.863 1106.81 735.6 1109.03 733.099L1108.84 733.133L1108.95 731.13C1104.07 730.971 1100.89 733.404 1096.87 735.691C1094.16 732.332 1061.38 715.078 1055.57 712.403C1056.32 711.063 1056.39 709.929 1056.47 708.406C1057.31 692.834 1056.5 676.787 1056.47 661.17C1056.45 652.261 1057.86 631.926 1055.84 624.394Z"/>
	<path transform="scale(0.999721 0.999721)" d="M1109.59 703.559C1110.54 703.611 1111.63 703.741 1112.5 704.145C1114.09 704.879 1115.49 706.497 1115.96 708.179Q1116.04 708.478 1116.1 708.785Q1116.15 709.091 1116.17 709.401Q1116.19 709.711 1116.17 710.022Q1116.16 710.332 1116.11 710.64Q1116.06 710.947 1115.98 711.247Q1115.91 711.548 1115.79 711.838Q1115.68 712.128 1115.54 712.405Q1115.4 712.682 1115.23 712.942C1114.09 714.665 1112.45 714.966 1110.54 715.312C1109.89 715.324 1109.8 715.357 1109.07 715.2C1107.55 714.871 1106.07 713.712 1105.4 712.311C1104.63 710.667 1104.76 708.683 1105.52 707.055C1106.38 705.19 1107.78 704.352 1109.59 703.559Z"/>
	<path transform="scale(0.999721 0.999721)" d="M1078.27 668.525C1079.34 668.272 1080.6 667.954 1081.69 668.242C1084.33 668.938 1149.52 702.601 1150.62 703.725C1151.04 704.155 1151.26 704.749 1151.58 705.262L1150.57 707.091C1150.5 707.11 1150.42 707.134 1150.35 707.149C1149.11 707.393 1148.45 707.27 1147.3 706.78C1133.04 700.744 1119.2 692.3 1105.4 685.205C1097.37 681.076 1087.08 677.182 1079.88 672.139C1078.39 671.096 1078.58 670.203 1078.27 668.525Z"/>
	<path transform="scale(0.999721 0.999721)" d="M1078.89 688.149C1081.76 687.923 1084.4 688.357 1086.84 689.966Q1087.35 690.306 1087.83 690.695Q1088.31 691.085 1088.74 691.519Q1089.18 691.953 1089.57 692.428Q1089.96 692.903 1090.3 693.415Q1090.64 693.926 1090.93 694.469Q1091.22 695.011 1091.46 695.58Q1091.69 696.148 1091.87 696.737Q1092.05 697.326 1092.17 697.93C1092.79 701.072 1092.2 704.412 1090.27 707.006C1088.05 709.995 1085.45 710.908 1081.95 711.435C1081.11 711.346 1080.35 711.181 1079.55 710.928C1075.88 709.775 1072.86 707.876 1071.17 704.276C1069.8 701.371 1069.62 698.034 1070.86 695.05C1072.44 691.253 1075.26 689.56 1078.89 688.149Z"/>
	<path fill="#E48524" transform="scale(0.999721 0.999721)" d="M1078.91 692.349C1080.8 692.302 1082.64 692.214 1084.29 693.285C1086.22 694.534 1087.59 696.671 1087.99 698.926C1088.31 700.789 1087.8 702.747 1086.67 704.255C1085.4 705.948 1083.93 706.416 1081.92 706.752C1081.76 706.732 1081.6 706.716 1081.45 706.693C1079.1 706.35 1076.99 705.253 1075.61 703.269C1074.4 701.524 1074.08 699.307 1074.57 697.255C1075.18 694.724 1076.83 693.709 1078.91 692.349Z"/>
	<path transform="scale(0.999721 0.999721)" d="M1127.1 718.268C1129.94 717.752 1132.65 717.721 1135.29 719.045C1138.63 720.721 1141.2 723.928 1142.25 727.499C1143.12 730.454 1142.91 733.753 1141.24 736.397C1139.59 738.995 1137.32 740.279 1134.42 741.017C1133.5 741.215 1132.77 741.304 1131.84 741.194C1128.35 740.786 1124.83 739.315 1122.77 736.365C1120.74 733.444 1120.19 729.369 1120.92 725.925C1121.73 722.131 1124.11 720.328 1127.1 718.268Z"/>
	<path fill="#E48524" transform="scale(0.999721 0.999721)" d="M1128.51 722.469C1129.9 722.392 1131.44 722.199 1132.79 722.631C1135.12 723.376 1137.14 725.5 1138.02 727.738C1138.7 729.443 1138.69 731.383 1137.88 733.043C1136.83 735.217 1135.27 736.071 1133.06 736.804C1132.54 736.854 1132.05 736.867 1131.52 736.833C1129.54 736.705 1127.74 735.734 1126.49 734.188C1125.07 732.438 1124.66 730.315 1124.89 728.108C1125.16 725.443 1126.52 724.101 1128.51 722.469Z"/>
	<path fill="#EEDA86" transform="scale(0.999721 0.999721)" d="M1024.94 778.988C1025.56 778.956 1025.72 778.92 1026.29 778.98C1030.72 779.446 1102.29 820.951 1105.33 824.854C1103.39 827.419 1000.98 890.823 991.762 896.181C990.223 897.076 988.808 897.632 987.061 897.999C973.969 896.047 921.195 863.801 905.631 854.974C919.801 845.981 1021.62 783.299 1024.94 778.988Z"/>
	<path transform="scale(0.999721 0.999721)" d="M1020.85 795.519C1027.72 797.884 1064.89 818.353 1070.77 822.961C1072.71 824.478 1075.06 826.497 1075.38 829.032C1071.32 834.526 1002.47 873.668 990.302 881.825C989.393 881.903 988.423 881.955 987.513 881.847C985.496 881.61 945.034 861.71 940.251 858.905C938.559 857.913 937.155 856.824 935.93 855.274C935.486 853.689 935.246 852.33 935.717 850.71C936.371 848.462 938.89 846.811 940.709 845.506C951.194 837.983 962.939 831.591 973.939 824.781C989.607 815.081 1005.02 804.957 1020.85 795.519Z"/>
	<path fill="#CDE5E1" transform="scale(0.999721 0.999721)" d="M1021.04 800.469C1028.97 804.433 1065.73 823.036 1069.66 827.931C1066.92 831.611 997.062 872.353 988.335 877.571C984.636 877.177 943.878 856.066 938.686 852.661C946.519 845.588 957.727 840.111 966.725 834.547Q994.068 817.804 1021.04 800.469Z"/>
	<path transform="scale(0.999721 0.999721)" d="M126.905 423.164C155.631 394.133 189.347 371.731 231.638 371.559C265.543 371.422 296.317 382.619 324.318 401.292C332.007 406.42 340.18 412.24 346.7 418.803Q347.595 419.705 348.444 420.651C359.379 417.832 389.624 408.53 398.972 413.807C400.614 414.734 401.702 416.089 402.054 417.962C402.763 421.735 400.177 425.821 398.008 428.72C389.237 440.441 376.264 450.358 364.005 458.15C388.8 479.7 390.113 499.547 396.311 529.521C397.753 536.495 399.5 545.04 402.911 551.283C410.351 564.899 427.26 564.986 427.874 573.739C428.129 577.366 425.786 581.297 424.307 584.535C429.622 615.119 430.269 642.781 411.493 669.495C398.123 688.519 377.212 700.774 354.407 704.565C340.429 706.889 326.142 706.726 312.045 707.83C309.595 719.563 306.788 731.227 306.389 743.253C320.687 754.444 332.883 765.918 343.389 780.825C351.702 792.621 357.239 805.61 363.378 818.589C383.824 861.821 399.749 906.334 415.915 951.274C417.445 955.929 419.324 960.676 420.473 965.429C426.703 984.906 432.47 1004.91 439.768 1024L435.351 1024L287.185 1024L282.258 1024L118.969 1024L114.702 1024C117.774 1004.93 119.235 985.58 122.305 966.472C119.549 965.999 116.443 965.295 114.424 963.211C112.798 961.533 112.121 959.322 111.892 957.05C110.571 943.922 111.872 929.545 111.886 916.293L111.915 827.536C100.407 804.368 106.47 776.307 111.309 752.173C106.663 756.715 101.138 761.022 94.6002 762.283C90.1134 763.148 85.6177 762.374 81.8637 759.685C75.3143 754.995 72.6943 745.921 71.3481 738.394C64.024 697.448 91.258 657.518 113.33 625.863L113.596 597.105C111.664 591.781 108.529 586.524 106.136 581.363Q102.475 573.571 99.6487 565.439Q96.8227 557.307 94.8628 548.924C85.2714 507.802 90.4016 477.037 112.579 441.352C117.198 435.158 122.032 429.159 126.905 423.164Z"/>
	<path fill="#E48524" transform="scale(0.999721 0.999721)" d="M113.596 597.105L121.916 613.988L113.33 625.863L113.596 597.105Z"/>
	<path fill="#FBFBFA" transform="scale(0.999721 0.999721)" d="M244.745 635.55C246.009 635.706 247.184 636.019 248.408 636.354C249.729 637.55 250.49 638.576 251.125 640.264C252.806 644.734 251.878 649.736 250.079 653.983C249.027 654.193 248.276 654.145 247.208 654.103C246.334 653.568 245.47 652.999 244.927 652.104C242.358 647.871 243.444 640.103 244.745 635.55Z"/>
	<path fill="#FBFBFA" transform="scale(0.999721 0.999721)" d="M125.757 839.528C132.882 841.043 138.693 839.652 144.816 835.707C147.372 834.059 149.68 832.228 151.923 830.182C140.322 867.651 132.957 906.442 125.728 944.95C123.716 941.05 125.423 850.153 125.757 839.528Z"/>
	<path fill="#E48524" transform="scale(0.999721 0.999721)" d="M111.915 827.536C115.836 833.119 119.177 837.139 125.757 839.528C125.423 850.153 123.716 941.05 125.728 944.95Q124.166 955.735 122.305 966.472C119.549 965.999 116.443 965.295 114.424 963.211C112.798 961.533 112.121 959.322 111.892 957.05C110.571 943.922 111.872 929.545 111.886 916.293L111.915 827.536Z"/>
	<path fill="#EEDA86" transform="scale(0.999721 0.999721)" d="M241.842 720.356C264.778 725.672 286.171 734.104 305.372 747.932C319.507 758.112 330.787 770.606 340.857 784.744C342.746 787.396 345.841 790.929 346.362 794.165L345.275 793.753C316.14 766.011 276.578 749.907 238.249 739.845C239.717 733.386 240.786 726.892 241.842 720.356Z"/>
	<path fill="#E48524" transform="scale(0.999721 0.999721)" d="M386.069 416.968C389.73 416.654 394.58 415.691 397.825 417.731C398.211 418.795 398.516 419.107 398.242 420.26C396.587 427.215 379.885 441.362 373.861 445.984C361.671 455.337 348.202 463.322 335.266 471.616Q306.603 489.84 278.363 508.715C275.048 511.035 271.622 513.048 268.105 515.043C280.449 494.921 297.253 479.001 313.709 462.393Q331.317 444.696 347.533 425.714C359.707 421.317 373.296 418.942 386.069 416.968Z"/>
	<path fill="#745669" transform="scale(0.999721 0.999721)" d="M271.761 517.549C272.275 518.028 272.455 518.346 272.611 519.039C273.474 522.876 272.237 528.633 271.079 532.36C261.957 561.728 228.926 557.269 222.435 568.198C222.956 568.482 223.111 568.618 223.783 568.689C232.74 569.625 252.883 558.941 260.518 554.172C263.233 562.395 265.735 571.532 264.857 580.239C264.437 584.414 263.358 590.31 259.824 592.977C253.982 597.385 237.336 585.722 229.281 584.587C223.967 583.838 217.379 584.386 213.052 587.832C208.396 591.54 206.117 598.752 205.439 604.455C204.395 613.241 207.275 622.549 212.815 629.41C218.448 636.388 225.543 638.717 234.163 639.664Q234.589 641.426 234.979 643.196C242.814 678.854 242.338 739.029 221.798 770.513C214.989 780.948 206.723 787.206 194.53 789.76C194.431 789.724 194.333 789.687 194.234 789.653C188.029 787.505 185.116 784.744 180.646 780.068C193.443 747.668 206.726 704.609 204.229 669.542C204.068 667.284 203.938 664.04 202.149 662.471C201.741 662.553 201.257 662.468 200.924 662.717C200.809 662.803 200.469 664.439 200.437 664.596C199.3 670.104 199.975 677.174 199.847 682.844C199.685 690.02 198.94 697.076 197.808 704.162C192.302 738.621 176.113 792.584 154.844 820.216C149.005 827.802 142.034 834.66 132.175 835.929L131.421 835.874C127.995 835.646 125.614 835.222 122.673 833.215C103.169 819.905 109.96 766.075 117.505 746.924C120.961 738.155 131.689 724.37 136.81 714.765C149.608 690.758 158.64 663.774 165.003 637.394C166.099 632.852 168.495 625.988 167.334 621.455C167.006 620.175 166.882 620.397 165.849 619.791C162.079 623.594 159.832 640.99 158.289 646.856C152.328 669.519 143.408 692.278 132.63 713.049C125.906 726.006 110.218 753.774 95.5873 757.951C92.0642 758.956 88.4419 758.566 85.3041 756.631C79.6022 753.115 76.9886 745.828 75.7425 739.588C66.7065 694.342 100.987 652.563 124.428 617.758C125.08 617.719 125.723 617.659 126.374 617.606C140.743 616.438 206.926 565.426 222.478 553.564C238.31 541.489 254.358 527.105 271.761 517.549Z"/>
	<path fill="#E48524" transform="scale(0.999721 0.999721)" d="M227.512 375.716C230.111 375.422 232.858 375.564 235.478 375.621C266.254 376.285 293.883 386.575 319.569 403.089C328.191 408.632 336.84 414.77 343.947 422.198C335.089 438.281 301.288 467.64 287.694 482.554C281.795 489.026 276.188 496.023 271.056 503.119C266.685 509.163 263.111 516.008 257.517 521.017C245.198 532.048 230.95 541.845 217.688 551.79Q190.623 572.318 162.673 591.624C151.348 599.465 139.781 608.333 126.963 613.534C123.628 608.427 121.023 602.539 118.278 597.075C109.866 580.33 102.489 564.344 98.3975 545.941C89.5429 506.113 94.9835 476.98 116.695 442.855Q121.838 435.814 127.579 429.251Q133.32 422.688 139.614 416.654L139.315 417.927C130.763 454.794 135.798 495.423 146.893 531.23C148.331 535.87 149.984 544.442 152.768 548.327C153.64 549.544 154.071 549.423 155.444 549.561C156.576 544.277 147.596 519.313 145.967 512.237C138.466 479.651 135.999 445.277 145.28 412.859C185.178 408.812 206.864 414.844 241.678 434.317C248.22 437.977 254.224 444.067 260.895 447.076C262.485 447.793 264.062 448.324 265.754 447.687L265.765 446.614C264.6 445.057 263.282 443.878 261.745 442.701C254.754 437.351 246.944 432.986 239.307 428.636C210.246 412.083 182.51 404.181 148.96 408.397C170.206 388.773 198.991 377.94 227.512 375.716Z"/>
	<path fill="#8E7649" transform="scale(0.999721 0.999721)" d="M360.521 460.722C364.789 463.234 368.782 467.601 371.856 471.421C390.707 494.846 386.991 524.136 398.143 550.312C403.11 561.969 411.816 567.337 423.083 571.824L422.805 572.796L423.345 571.933L424.294 572.487C424.744 577.219 421.215 580.166 418.875 583.896C417.779 585.644 417.608 586.379 418.042 588.374C418.902 588.767 420.12 589.267 420.673 590.065C424.921 596.189 423.476 623.935 422.129 631.438C402.706 635.813 395.603 624.448 389.659 624.974L388.789 626.197C389.305 627.838 389.513 628.134 390.853 629.221C399.361 636.128 411.156 637.151 421.535 636.077C412.114 678.088 379.453 699.347 338.244 702.329C331.416 702.824 314.289 701.792 309.015 705.449C305.176 711.13 302.663 733.189 301.991 740.735C297.494 737.779 292.787 735.169 288.115 732.503Q282.688 729.721 277.079 727.327Q271.47 724.932 265.708 722.937Q259.945 720.942 254.057 719.355Q248.169 717.768 242.184 716.598C245.442 696.261 243.85 674.387 241.453 654.038C242.99 655.663 244.558 657.344 246.775 657.995C248.388 658.469 250.166 658.259 251.568 657.319C254.092 655.629 255.285 652.491 255.784 649.613C256.58 645.013 255.875 638.711 252.9 634.961C251.734 633.491 250.086 632.499 248.208 632.305C244.556 631.928 241.93 633.879 239.279 636.039C234.474 635.961 229.613 635.389 225.205 633.369C218.465 630.28 213.786 624.849 211.329 617.884C209.012 611.317 208.452 603.201 211.751 596.857C213.738 593.034 217.057 590.28 221.226 589.149C232.137 586.191 244.526 594.858 253.752 599.843C259.464 598.045 263.906 595.18 266.752 589.748C272.811 578.184 267.785 562.98 264.16 551.366Q265.695 549.929 267.124 548.386C276.33 538.308 277.084 527.516 276.415 514.571C304.858 497.461 332.496 478.544 360.521 460.722Z"/>
	<path transform="scale(0.999721 0.999721)" d="M231.906 603.744C232.271 603.752 232.637 603.754 233.001 603.79C236.11 604.094 240.004 605.052 241.985 607.664C243.205 609.274 243.396 610.543 243.074 612.446L241.655 613.187C239.557 612.326 239.223 611.208 238.081 609.373C232.325 607.159 227.859 612.553 224.917 611.472L224.577 609.843C225.974 606.579 228.802 605.041 231.906 603.744Z"/>
	<path transform="scale(0.999721 0.999721)" d="M371.899 534.832C372.655 535.213 373.407 535.622 374.065 536.161C377.702 539.138 379.933 546.73 380.49 551.314C380.872 554.464 380.327 555.883 378.383 558.397C377.497 558.014 376.585 557.602 375.812 557.016C371.993 554.124 369.889 546.057 369.476 541.471C369.199 538.402 369.953 537.186 371.899 534.832Z"/>
	<path transform="scale(0.999721 0.999721)" d="M355.447 491.457C357.326 491.371 358.5 491.718 360.127 492.684C363.223 494.522 366.892 497.198 367.822 500.809C367.613 501.334 367.547 501.943 367.194 502.384C366.521 503.225 350.85 509.268 347.763 511.081Q346.754 511.818 345.724 512.526C343.713 513.902 342.368 514.572 339.949 514.112L339.336 512.636C340.841 504.444 349.174 496.361 355.447 491.457Z"/>
	<path fill="#EEDA86" transform="scale(0.999721 0.999721)" d="M237.235 744.014C276.924 754.064 324.549 774.622 351.801 806.372C332.012 798.169 296.902 791.244 276.606 799.569C266.593 803.676 245.249 830.252 241.093 840.458C240.492 841.932 240.376 842.153 240.841 843.656C241.813 843.942 241.901 844.193 242.882 843.704C245.639 842.331 248.434 836.697 250.257 834.127C256.701 825.046 263.511 813.924 272.363 807.115C287.333 795.6 317.318 800.489 334.4 804.835C341.177 806.56 347.853 808.845 354.509 810.99C363.829 826.644 370.846 844.281 377.794 861.107Q397.791 909.481 413.973 959.263C421.076 980.759 427.248 1002.87 435.351 1024L287.185 1024L282.258 1024L118.969 1024C124.805 978.763 131.725 934.167 141.156 889.526C145.5 868.962 149.955 846.886 157.263 827.175C160.134 819.432 165.026 812.633 168.995 805.438C172.822 798.499 175.965 791.188 179.14 783.936C183.026 788.858 187.356 792.859 193.888 793.57C201.347 794.382 208.856 789.834 214.336 785.236C227.02 774.593 232.931 759.533 237.235 744.014Z"/>
	<path transform="scale(0.999721 0.999721)" d="M282.258 1024C276.781 1007.09 236.626 880.173 239.822 873.029C239.922 872.807 240.048 872.599 240.161 872.384L241.222 872.248C244.054 875.089 250.809 903.528 252.421 909.423C262.927 947.855 273.745 986.479 287.185 1024L282.258 1024Z"/>
	<path fill="#FBFBFA" transform="scale(0.999721 0.999721)" d="M0 0L1432.77 0C1433.55 1.35287 1433.84 2.273 1433.92 3.82991C1434.39 14.2948 1434 24.9358 1434 35.4235L1434 96.5893L1434.01 282.797L1434 835.994L1434 973.892C1434.01 983.184 1435.15 1015.65 1433.74 1021.9C1433.56 1022.7 1433.19 1023.31 1432.77 1024L439.768 1024C432.47 1004.91 426.703 984.906 420.473 965.429C419.324 960.676 417.445 955.929 415.915 951.274C568.112 949.699 720.37 952.377 872.566 950.545L876.966 950.538C893.195 950.545 1056.62 951.569 1058.57 950.228L1058.74 949.738C1058.83 949.849 1058.93 949.957 1059.03 950.072C1061.62 953.298 1059.46 959.497 1063.92 961.001C1065.06 960.204 1065.03 959.789 1065.25 958.39C1065.61 956.106 1065.35 952.107 1063.86 950.196C1063.77 950.074 1063.65 949.976 1063.54 949.866C1069.97 952.121 1126.22 950.653 1139.57 950.645L1306.78 950.551C1307.03 950.171 1307.19 949.974 1307.35 949.57C1309.09 945.207 1307.97 816.118 1307.97 800.054L1307.95 294.44L1307.96 151.351C1307.97 127.438 1309.1 102.92 1307.87 79.0611C1307.8 77.5793 1307.51 76.4483 1306.9 75.094C1292.79 74.3538 1278.32 74.9448 1264.18 74.9589L1185.38 75.007L935.231 75.0277L126.763 75.4358L126.733 314.381L126.595 384.698C126.55 397.302 125.582 410.659 126.905 423.164C122.032 429.159 117.198 435.158 112.579 441.352C90.4016 477.037 85.2714 507.802 94.8628 548.924Q96.8227 557.307 99.6487 565.439Q102.475 573.571 106.136 581.363C108.529 586.524 111.664 591.781 113.596 597.105L113.33 625.863C91.258 657.518 64.024 697.448 71.3481 738.394C72.6943 745.921 75.3143 754.995 81.8637 759.685C85.6177 762.374 90.1134 763.148 94.6002 762.283C101.138 761.022 106.663 756.715 111.309 752.173C106.47 776.307 100.407 804.368 111.915 827.536L111.886 916.293C111.872 929.545 110.571 943.922 111.892 957.05C112.121 959.322 112.798 961.533 114.424 963.211C116.443 965.295 119.549 965.999 122.305 966.472C119.235 985.58 117.774 1004.93 114.702 1024L0 1024L0 0Z"/>
	<path fill="#E48524" transform="scale(0.999721 0.999721)" d="M112.579 441.352L112.654 182.07L112.575 107.682C112.551 95.0391 111.722 81.7595 112.785 69.2002C113.002 66.6381 113.674 65.2583 115.495 63.3904C119.893 58.8801 132.828 60.3625 138.718 60.3944L964.043 60.4958L1188.32 60.6778C1227.37 60.6554 1266.5 59.7738 1305.55 60.3878C1309.65 60.4523 1316.37 60.04 1319.26 63.125C1322.67 66.7446 1322.53 72.4285 1322.46 77.0671C1321.42 147.07 1322.53 217.265 1322.55 287.287L1322.45 693.672L1322.49 864.877L1322.27 921.043C1322.22 931.122 1322.61 941.392 1321.95 951.439C1321.73 954.768 1321.49 960.871 1318.78 963.143C1316.26 965.26 1309.49 965.085 1306.22 965.178C1274.36 966.087 1242.24 965.119 1210.35 965.097L1030.77 965.101L571.577 965.229L472.231 965.239C455.064 965.249 437.602 964.578 420.473 965.429C419.324 960.676 417.445 955.929 415.915 951.274C568.112 949.699 720.37 952.377 872.566 950.545L876.966 950.538C893.195 950.545 1056.62 951.569 1058.57 950.228L1058.74 949.738C1058.83 949.849 1058.93 949.957 1059.03 950.072C1061.62 953.298 1059.46 959.497 1063.92 961.001C1065.06 960.204 1065.03 959.789 1065.25 958.39C1065.61 956.106 1065.35 952.107 1063.86 950.196C1063.77 950.074 1063.65 949.976 1063.54 949.866C1069.97 952.121 1126.22 950.653 1139.57 950.645L1306.78 950.551C1307.03 950.171 1307.19 949.974 1307.35 949.57C1309.09 945.207 1307.97 816.118 1307.97 800.054L1307.95 294.44L1307.96 151.351C1307.97 127.438 1309.1 102.92 1307.87 79.0611C1307.8 77.5793 1307.51 76.4483 1306.9 75.094C1292.79 74.3538 1278.32 74.9448 1264.18 74.9589L1185.38 75.007L935.231 75.0277L126.763 75.4358L126.733 314.381L126.595 384.698C126.55 397.302 125.582 410.659 126.905 423.164C122.032 429.159 117.198 435.158 112.579 441.352Z"/>
</svg>
