<?xml version="1.0" encoding="utf-8" ?>
<svg xmlns="http://www.w3.org/2000/svg" xmlns:xlink="http://www.w3.org/1999/xlink" width="1434" height="1024">
	<path fill="#FEFEFE" transform="scale(0.999721 0.999721)" d="M0 0L1432.77 0C1433.55 1.35287 1433.84 2.273 1433.92 3.82991C1434.39 14.2948 1434 24.9358 1434 35.4235L1434 96.5893L1434.01 282.797L1434 835.994L1434 973.892C1434.01 983.184 1435.15 1015.65 1433.74 1021.9C1433.56 1022.7 1433.19 1023.31 1432.77 1024L0 1024L0 0Z"/>
	<path fill="#F5B534" transform="scale(0.999721 0.999721)" d="M687.392 281.825C687.949 281.942 688.516 282.059 689.058 282.231C691.094 282.877 691.707 283.918 692.545 285.703C692.61 287.966 691.922 289.4 690.914 291.392C689.944 291.224 688.825 291.093 687.913 290.722C686.417 290.113 686.035 289.01 685.428 287.638C685.471 285.301 686.266 283.834 687.392 281.825Z"/>
	<path fill="#F5B534" transform="scale(0.999721 0.999721)" d="M528.758 345.698C531.113 346.269 532.878 346.725 534.368 348.723C534.947 350.907 534.138 352.348 533.302 354.34C532.517 354.192 531.725 354.044 530.951 353.843C528.712 353.262 527.704 352.533 526.562 350.597C526.781 348.233 527.427 347.61 528.758 345.698Z"/>
	<path fill="#F5B534" transform="scale(0.999721 0.999721)" d="M688.373 307.778C689.029 308.031 689.842 308.288 690.423 308.712C691.727 309.664 692.593 311.076 692.658 312.705C692.745 314.915 691.267 316.509 689.88 318.027C688.861 317.62 687.873 317.098 686.883 316.625C686.052 315.473 685.428 314.89 685.357 313.387C685.247 311.039 686.878 309.366 688.373 307.778Z"/>
	<path fill="#F5B534" transform="scale(0.999721 0.999721)" d="M686.541 255.368C687.56 255.406 688.722 255.385 689.711 255.635C691.308 256.039 691.774 257 692.518 258.333C692.644 260.597 692.06 262.194 691.235 264.28C690.286 264.283 689.186 264.346 688.261 264.13C686.627 263.75 686.141 262.744 685.368 261.4C685.32 259.094 685.696 257.507 686.541 255.368Z"/>
	<path fill="#F5B534" transform="scale(0.999721 0.999721)" d="M574.327 819.221C575.606 819.3 577.129 819.252 578.352 819.628C579.978 820.127 580.487 821.087 581.158 822.516C581.041 824.564 580.436 825.452 579.226 827.076C578.556 827.052 577.881 827.029 577.214 826.959C574.957 826.725 574.116 826.219 572.767 824.469C572.599 822.288 573.306 821.109 574.327 819.221Z"/>
	<path fill="#F5B534" transform="scale(0.999721 0.999721)" d="M687.708 227.905C688.445 228.052 689.302 228.195 689.973 228.54C691.728 229.444 692.069 230.44 692.719 232.152C692.565 234.657 691.728 235.901 690.232 237.868L687.607 237.363C686.511 236.411 685.919 236.081 685.566 234.605C684.98 232.147 686.474 229.894 687.708 227.905Z"/>
	<path fill="#F5B534" transform="scale(0.999721 0.999721)" d="M972.15 702.764C974.781 703.693 977.824 704.843 979.462 707.179C979.724 709.536 979.313 709.646 978.02 711.532C976.841 711.484 975.644 711.211 974.512 710.886C972.255 710.238 971.578 709.373 970.546 707.44C970.494 705.394 971.065 704.464 972.15 702.764Z"/>
	<path fill="#F5B534" transform="scale(0.999721 0.999721)" d="M552.2 808.767C552.756 808.796 553.314 808.814 553.867 808.885C556.014 809.158 557.365 809.77 558.699 811.466C559.395 813.854 558.763 815.375 557.986 817.607C556.996 817.573 555.868 817.578 554.913 817.307C552.937 816.747 552.23 815.811 551.16 814.229C550.706 811.997 551.243 810.782 552.2 808.767Z"/>
	<path fill="#F5B534" transform="scale(0.999721 0.999721)" d="M456.308 310.686C456.926 310.785 457.544 310.89 458.152 311.046C460.342 311.608 461.804 312.493 462.963 314.427C463.063 316.945 462.618 317.446 461.331 319.665C460.236 319.56 458.991 319.504 457.942 319.17C456.222 318.622 455.652 317.648 454.787 316.178C454.582 313.817 455.162 312.723 456.308 310.686Z"/>
	<path fill="#F5B534" transform="scale(0.999721 0.999721)" d="M534.429 794.637C534.979 794.819 535.541 795.004 536.068 795.246C538.2 796.224 538.895 797.442 539.597 799.505C538.911 801.892 538.367 802.323 536.552 804.074C535.559 803.693 534.46 803.315 533.558 802.751C531.801 801.651 531.348 800.785 530.746 798.876C531.649 796.514 532.371 796.185 534.429 794.637Z"/>
	<path fill="#F5B534" transform="scale(0.999721 0.999721)" d="M993.888 715.362C996.366 716.198 998.761 716.947 1000.41 719.086C1001.26 721.36 1000.83 722.767 1000.25 725.03Q998.949 724.735 997.659 724.398C994.898 723.665 993.647 722.829 992.255 720.419C992.151 718.218 992.683 717.172 993.888 715.362Z"/>
	<path fill="#F5B534" transform="scale(0.999721 0.999721)" d="M481.039 321.847C481.636 322.011 482.244 322.177 482.822 322.398C485.054 323.25 485.887 324.319 486.791 326.366C486.285 328.847 485.693 329.423 484.028 331.385C483.946 331.361 483.865 331.336 483.784 331.313C482.659 330.995 481.335 330.711 480.311 330.143C478.693 329.244 478.4 328.165 478.012 326.493C478.467 324.278 479.445 323.391 481.039 321.847Z"/>
	<path fill="#F5B534" transform="scale(0.999721 0.999721)" d="M491.959 731.868C493.218 731.831 494.479 731.893 495.738 731.928C497.487 732.948 497.785 733.202 498.773 734.961C498.984 737.28 498.451 738.639 497.46 740.715L494.676 741.054C493.352 740.449 492.516 740.271 491.755 738.904C490.524 736.69 491.208 734.101 491.959 731.868Z"/>
	<path fill="#F5B534" transform="scale(0.999721 0.999721)" d="M515.158 777.039C516.45 777.216 518.035 777.511 519.168 778.212C520.608 779.102 521.547 780.257 521.776 781.964C522.043 783.956 520.587 785.575 519.443 787.022C518.676 786.8 517.91 786.596 517.194 786.233C515.684 785.467 513.853 784.113 513.504 782.34C513.058 780.079 514.083 778.927 515.158 777.039Z"/>
	<path fill="#F5B534" transform="scale(0.999721 0.999721)" d="M1224.49 482.928C1226.05 482.585 1226.87 482.486 1228.43 482.848C1230.27 484.408 1231.61 485.739 1231.79 488.266C1231.94 490.303 1231.84 490.448 1230.54 492.041C1230.15 492.303 1230 492.438 1229.49 492.554C1227.89 492.911 1227.13 492.262 1226.02 491.275C1224.75 488.483 1224.64 485.946 1224.49 482.928Z"/>
	<path fill="#F5B534" transform="scale(0.999721 0.999721)" d="M743.248 686C744.343 686.148 745.656 686.248 746.681 686.664C748.368 687.348 748.747 688.636 749.318 690.159C749.236 692.509 748.383 693.853 747.124 695.79C745.901 695.643 744.728 695.367 743.527 695.102C742.377 694.082 741.687 693.702 741.328 692.089C740.828 689.841 742.035 687.78 743.248 686Z"/>
	<path fill="#F5B534" transform="scale(0.999721 0.999721)" d="M505.016 333.119C506.112 333.351 507.375 333.654 508.351 334.224C510.088 335.236 510.369 336.152 510.972 337.931C510.815 340.175 509.88 341.2 508.498 342.912C507.36 342.54 505.913 342.176 504.869 341.564C503.143 340.55 502.836 339.911 502.274 338.048C502.648 335.879 503.63 334.782 505.016 333.119Z"/>
	<path fill="#F5B534" transform="scale(0.999721 0.999721)" d="M951.146 689.474C953.918 690.11 956.73 691.079 958.442 693.444C958.905 695.784 958.538 696.369 957.677 698.64C956.264 698.54 954.639 698.379 953.303 697.887C951.418 697.193 950.44 696.251 949.611 694.47C949.653 692.082 949.935 691.561 951.146 689.474Z"/>
	<path fill="#F5B534" transform="scale(0.999721 0.999721)" d="M907.869 663.569C909.616 663.547 911.576 663.833 913.108 664.715C914.361 665.437 915.33 666.419 915.648 667.861C916.085 669.843 915.276 671.169 914.252 672.796C911.296 672.023 908.41 671.299 906.777 668.525C906.529 666.253 906.904 665.684 907.869 663.569Z"/>
	<path fill="#F5B534" transform="scale(0.999721 0.999721)" d="M743.379 711.164C744.344 711.26 745.474 711.318 746.386 711.652C748.153 712.3 748.69 713.371 749.493 714.905C749.618 717.27 749.009 718.595 747.886 720.646C746.742 720.682 745.095 720.693 744.02 720.277C742.287 719.606 741.969 718.535 741.38 716.981C741.508 714.579 742.129 713.202 743.379 711.164Z"/>
	<path fill="#F5B534" transform="scale(0.999721 0.999721)" d="M928.597 676.961C929.809 676.961 931.116 676.938 932.315 677.152C934.366 677.519 935.545 678.464 936.714 680.106C937.388 682.342 937.054 683.401 936.271 685.566C935.219 685.559 934.118 685.56 933.082 685.361C931.312 685.021 929.501 684.113 928.612 682.489C927.585 680.611 928.083 678.919 928.597 676.961Z"/>
	<path fill="#F5B534" transform="scale(0.999721 0.999721)" d="M434.879 300.348C436.183 300.617 438.012 300.914 439.124 301.656C440.633 302.663 440.803 303.566 441.063 305.253C440.441 307.39 439.418 308.411 437.868 309.968C436.692 309.457 435.167 308.932 434.137 308.172C432.668 307.087 432.414 306.152 432.033 304.44C432.677 302.501 433.358 301.693 434.879 300.348Z"/>
	<path fill="#F5B534" transform="scale(0.999721 0.999721)" d="M743.489 761.223C744.805 761.24 746.071 761.485 747.363 761.706C748.516 762.608 749.34 762.991 749.767 764.492C750.415 766.774 749.013 768.967 747.886 770.835C746.721 770.593 745.37 770.326 744.303 769.797C742.546 768.926 742.121 767.969 741.393 766.293C741.421 764.046 742.158 762.981 743.489 761.223Z"/>
	<path fill="#F5B534" transform="scale(0.999721 0.999721)" d="M499.471 756.376C500.66 756.269 501.923 756.121 503.115 756.226C504.969 756.389 506.013 757.347 507.119 758.726C507.934 760.99 507.735 762.52 507.294 764.854C506.245 764.932 505.17 765.02 504.119 764.956C502.185 764.836 501.207 764.184 499.902 762.826C498.923 760.53 499.182 758.763 499.471 756.376Z"/>
	<path fill="#F5B534" transform="scale(0.999721 0.999721)" d="M1191.67 413.588C1192.73 413.397 1193.82 413.326 1194.89 413.214C1196.56 414.016 1198.12 415.08 1199.25 416.59C1199.98 417.562 1200.39 418.805 1200.21 420.017C1200.03 421.205 1199.15 421.509 1198.24 422.204L1196.68 423.055C1195.21 422.668 1194.78 422.537 1193.79 421.364C1191.84 419.042 1191.41 416.514 1191.67 413.588Z"/>
	<path fill="#F5B534" transform="scale(0.999721 0.999721)" d="M1215.96 459.116L1219.06 458.816C1220.35 459.335 1221.17 459.82 1222.12 460.856C1223.28 462.11 1224.04 463.382 1223.87 465.134C1223.69 467.059 1223.32 467.116 1221.87 468.228C1221.03 468.476 1220.33 468.412 1219.46 468.393C1218.36 467.806 1217.53 467.357 1216.86 466.262C1215.48 464.001 1215.42 461.628 1215.96 459.116Z"/>
	<path fill="#F5B534" transform="scale(0.999721 0.999721)" d="M503.523 654.765C505.049 654.599 506.108 654.646 507.615 654.936C508.711 655.897 509.313 656.119 509.465 657.704C509.702 660.166 507.835 662.127 506.357 663.86C505.075 664.06 503.282 663.918 502.21 663.111C501.164 662.322 500.84 661.431 500.787 660.148C500.699 658.012 502.27 656.318 503.523 654.765Z"/>
	<path fill="#F5B534" transform="scale(0.999721 0.999721)" d="M744.439 735.695C745.407 735.891 746.585 736.067 747.455 736.537C748.89 737.313 749.814 738.68 749.959 740.295C750.154 742.469 748.555 744.281 747.313 745.882C745.847 745.593 743.768 745.118 742.689 744.042C741.748 743.103 741.26 742.141 741.346 740.776C741.479 738.665 743.06 737.123 744.439 735.695Z"/>
	<path fill="#F5B534" transform="scale(0.999721 0.999721)" d="M1206.18 434.602C1208.15 435 1208.77 435.149 1210.31 436.537C1212.08 438.133 1212.76 439.665 1212.83 442.022C1211.84 444.226 1211.6 444.048 1209.31 444.929C1208.19 444.737 1207.65 444.377 1206.66 443.831C1205.39 442.152 1204.45 440.585 1204.4 438.41C1204.36 436.431 1204.92 435.918 1206.18 434.602Z"/>
	<path fill="#F5B534" transform="scale(0.999721 0.999721)" d="M495.726 679.016C496.817 679.14 498.386 679.359 499.302 680.043C500.374 680.844 501.011 681.935 501.114 683.255C501.314 685.806 499.531 687.832 497.983 689.631C496.78 689.233 495.31 688.784 494.259 688.08C492.846 687.132 492.707 685.936 492.447 684.39C493.016 682.022 494.122 680.758 495.726 679.016Z"/>
	<path fill="#F5B534" transform="scale(0.999721 0.999721)" d="M491.941 704.377C493.031 704.715 494.311 705.033 495.301 705.6C496.451 706.259 497.137 707.476 497.399 708.737C497.9 711.144 496.251 713.39 494.956 715.246C493.401 714.954 492.182 714.61 490.76 713.91C489.913 712.941 489.01 711.927 488.97 710.563C488.896 708.009 490.278 706.134 491.941 704.377Z"/>
	<path fill="#F5B534" transform="scale(0.999721 0.999721)" d="M1234.91 587.991C1235.41 587.905 1236.18 587.756 1236.67 587.764C1238.26 587.79 1239.25 588.415 1240.16 589.694C1241.09 591.004 1241.16 592.786 1240.83 594.304C1240.31 596.669 1239.17 597.406 1237.24 598.504L1235.6 598.546C1234.67 597.864 1234.11 597.7 1233.68 596.58C1232.67 593.882 1233.88 590.53 1234.91 587.991Z"/>
	<path fill="#F5B534" transform="scale(0.999721 0.999721)" d="M1176.09 392.575C1176.34 392.523 1176.59 392.462 1176.84 392.42C1179.13 392.038 1180.56 392.435 1182.41 393.833C1184.03 395.051 1184.66 396.216 1184.95 398.189C1184.27 400.366 1184.04 400.564 1182.25 402.001C1181.84 402.239 1181.07 402.123 1180.59 402.128C1179.12 401.23 1178.1 400.308 1177.15 398.845C1175.55 396.364 1175.57 395.331 1176.09 392.575Z"/>
	<path fill="#F5B534" transform="scale(0.999721 0.999721)" d="M1232.01 508.845C1233.19 508.652 1234.35 508.587 1235.54 508.508C1236.97 509.279 1237.83 510.018 1238.69 511.435C1239.61 512.975 1239.61 514.3 1239.16 516C1238.74 517.607 1238.05 517.649 1236.68 518.464C1236.6 518.516 1236.53 518.585 1236.44 518.622C1235.02 519.224 1234.47 519.212 1233.1 518.612C1231.25 515.557 1231.55 512.228 1232.01 508.845Z"/>
	<path fill="#F5B534" transform="scale(0.999721 0.999721)" d="M1235.9 562.078C1238.19 561.68 1239.03 561.3 1241.23 562.187C1242.17 563.257 1243.14 564.353 1243.18 565.854C1243.24 568.42 1242.3 570.174 1240.58 571.887C1239.37 572.773 1239.17 572.929 1237.7 573.062C1237.53 572.897 1237.34 572.743 1237.17 572.567C1235.15 570.426 1235.83 564.805 1235.9 562.078Z"/>
	<path fill="#F5B534" transform="scale(0.999721 0.999721)" d="M1236.92 534.759C1237.41 534.707 1238.14 534.604 1238.61 534.672C1240.24 534.904 1241.06 535.868 1241.79 537.258C1242.71 539.019 1242.66 541.348 1242.06 543.203C1241.41 545.206 1240.52 545.486 1238.8 546.364C1237.6 546.337 1237.12 545.863 1236.2 545.152C1235.55 543.83 1235.02 542.607 1234.92 541.12C1234.75 538.412 1235.13 536.683 1236.92 534.759Z"/>
	<path fill="#F5B534" transform="scale(0.999721 0.999721)" d="M1157.2 372.262C1158.13 372.041 1159.33 371.69 1160.29 371.776C1162.25 371.95 1165.12 374.12 1166.22 375.701C1167.27 377.204 1167.23 378.126 1167.07 379.882L1165.24 381.379L1164.09 382.272C1162.67 381.981 1162.2 381.965 1161.12 380.996C1158.31 378.467 1157.39 375.932 1157.2 372.262Z"/>
	<path fill="#F5B534" transform="scale(0.999721 0.999721)" d="M1230.91 614.607C1231.25 614.616 1231.58 614.605 1231.91 614.635C1233.8 614.81 1234.34 615.499 1235.57 616.802C1236.07 618.435 1236.15 619.635 1235.59 621.279C1234.75 623.738 1233.49 624.969 1231.17 626.036C1230.17 625.739 1229.41 625.14 1228.55 624.573C1227.91 623.549 1227.4 622.749 1227.43 621.505C1227.48 618.732 1229.09 616.528 1230.91 614.607Z"/>
	<path fill="#E06928" transform="scale(0.999721 0.999721)" d="M500.592 466.243C501.297 466.231 502.053 466.187 502.756 466.279C504.612 466.523 505.069 466.942 506.276 468.335C506.507 471.233 493.859 531.468 492.17 536.221C490.659 536.043 489.483 535.619 488.081 535.038C487.589 534.353 486.933 533.744 486.822 532.895C485.706 524.362 495.755 472.566 500.592 466.243Z"/>
	<path fill="#E06928" transform="scale(0.999721 0.999721)" d="M634.84 480.25C635.921 480.904 636.851 481.689 637.323 482.898C638.71 486.447 636.861 490.791 635.434 494.041C632.974 494.328 630.058 494.721 627.821 495.853C620.389 499.611 615.458 521.764 612.271 529.944C611.144 532.838 609.875 535.583 606.972 536.894L605.808 535.811C604.898 533.317 604.93 531.211 604.996 528.614C606.247 519.991 612.335 487.926 618.6 483.143L620.103 483.428C622.546 486.962 620.813 493.408 620.207 497.49C624.224 490.86 627.575 483.741 634.84 480.25Z"/>
	<path fill="#E06928" transform="scale(0.999721 0.999721)" d="M811.702 480.999C813.138 481.54 813.738 482.022 814.776 483.089C815.115 484.248 815.292 485.318 815.13 486.531C814.734 489.51 813.357 493.869 810.969 495.769C809.689 495.845 808.38 495.919 807.12 496.164C793.474 498.817 794.202 526.01 787.868 534.527C786.787 535.979 785.807 536.433 784.065 536.709L782.705 535.684C781.685 533.377 781.795 531.822 782.136 529.356Q782.477 527.031 782.909 524.722C784.205 517.737 790.897 484.125 795.856 480.723L796.64 481.211C799.266 486.465 798.702 491.216 798.193 496.833C802.012 490.769 805.486 484.837 811.702 480.999Z"/>
	<path fill="#E06928" transform="scale(0.999721 0.999721)" d="M719.459 482.606C721.353 482.473 723.219 482.317 725.014 483.063C727.019 483.896 729.265 485.208 730.091 487.28C728.617 493.042 719.572 490.119 715.232 493.739C709.824 498.249 707.669 508.369 706.918 514.987C706.55 518.224 706.164 523.061 708.51 525.646C711.071 528.468 717.666 526.871 721.187 527.138C722.545 528.639 722.363 529.726 722.608 531.703Q721.375 532.802 719.963 533.658Q718.55 534.513 717.005 535.096C713.477 536.461 709.673 536.98 706.18 535.208C702.584 533.384 700.216 529.73 698.937 526.002C695.969 517.352 698.195 506.817 702.08 498.815C705.857 491.036 711.238 485.451 719.459 482.606Z"/>
	<path fill="#F5B534" transform="scale(0.999721 0.999721)" d="M686.292 327.149C688.693 327.03 690.895 327.091 693.197 327.873Q693.928 328.121 694.629 328.444Q695.33 328.766 695.993 329.16Q696.657 329.554 697.276 330.015Q697.895 330.476 698.463 330.998Q699.03 331.521 699.541 332.1Q700.051 332.679 700.498 333.308Q700.946 333.937 701.325 334.609Q701.704 335.281 702.012 335.989Q702.308 336.689 702.53 337.416Q702.752 338.143 702.898 338.889Q703.044 339.635 703.111 340.392Q703.179 341.149 703.168 341.91Q703.157 342.67 703.067 343.424Q702.978 344.179 702.811 344.921Q702.643 345.662 702.4 346.383Q702.157 347.103 701.841 347.794C699.749 352.395 696.148 354.883 691.577 356.519C689.486 356.603 687.493 356.395 685.49 355.751C681.437 354.448 678.036 351.803 676.215 347.888Q675.899 347.2 675.657 346.483Q675.415 345.766 675.249 345.028Q675.084 344.29 674.996 343.538Q674.908 342.787 674.899 342.03Q674.891 341.273 674.961 340.52Q675.032 339.766 675.18 339.024Q675.329 338.282 675.555 337.56Q675.78 336.838 676.08 336.143C678.111 331.382 681.687 328.938 686.292 327.149Z"/>
	<path fill="#E06928" transform="scale(0.999721 0.999721)" d="M863.776 482.662C865.214 482.734 866.655 482.824 868.061 483.151C870.322 483.677 872.859 484.684 874.009 486.845C874.597 487.951 874.416 487.797 874.105 488.868C871.358 490.524 867.341 490.454 864.18 490.949C861.759 491.328 860.048 491.82 858.553 493.868C858.366 501.471 867.197 508.979 868.87 516.652C869.821 521.013 869.578 526.057 866.983 529.836C864.185 533.912 857.287 535.687 852.636 536.347C849.689 535.925 844.828 535.189 842.57 533.065C841.155 531.733 841.219 530.789 841.139 529.012C843.799 525.734 851.341 529.458 855.471 528.233C857.199 527.72 858.715 526.67 859.537 525.024C862.69 518.708 852.867 508.363 850.876 502.261C849.666 498.553 849.384 494.121 851.345 490.619C853.59 486.612 859.482 483.703 863.776 482.662Z"/>
	<path fill="#E06928" transform="scale(0.999721 0.999721)" d="M564.242 470.262C573.766 473.236 565.436 479.274 568.659 484.481Q571.316 484.619 573.957 484.937L574.846 486.132C574.709 487.926 574.7 488.163 573.567 489.684C570.95 490.906 567.927 490.498 565.096 490.435C563.19 498.181 556.955 518.367 558.223 525.08C559.254 530.541 565.619 526.604 568.602 528.54C568.407 530.419 567.815 530.94 566.719 532.44C563.837 534.344 560.784 536.135 557.256 536.431C555.522 536.575 553.867 536.151 552.626 534.888C544.176 526.279 555.974 501.63 555.886 491.004C554.634 490.249 553.579 489.49 552.463 488.545C552.365 486.896 552.315 486.809 553.219 485.443C560.368 482.772 559.46 475.498 564.242 470.262Z"/>
	<path fill="#F5B534" transform="scale(0.999721 0.999721)" d="M881.793 631.769C883.996 631.682 886.233 631.557 888.394 632.073C892.903 633.148 897.171 636.006 899.506 640.047C901.646 643.751 902.265 648.242 900.919 652.33C898.977 658.229 895.016 660.591 889.772 663.084C886.67 663.463 883.936 663.222 881.011 662.165C876.679 660.599 873.07 657.556 871.171 653.293Q870.855 652.586 870.613 651.85Q870.37 651.114 870.204 650.357Q870.038 649.601 869.95 648.831Q869.862 648.061 869.853 647.287Q869.844 646.512 869.914 645.741Q869.983 644.969 870.131 644.209Q870.279 643.448 870.504 642.707Q870.729 641.966 871.028 641.251C873.219 636.026 876.915 633.925 881.793 631.769Z"/>
	<path fill="#E06928" transform="scale(0.999721 0.999721)" d="M656.983 463.763C660.02 463.54 662.641 463.629 665.559 464.606C667.721 465.331 668.73 465.873 669.742 467.867C668.182 475.321 660.775 469.685 656.81 472.779C653.686 475.217 652.665 482.854 652.144 486.595C654.061 486.644 656.288 486.533 658.159 486.911C659.891 487.261 660.56 487.995 661.604 489.331L661.309 490.79C658.222 493.922 654.883 493.602 650.781 493.637C647.101 508.219 644.083 522.911 640.081 537.417C639.082 540.187 638.034 544.306 635.814 546.355C634.527 547.542 633.732 547.494 632.058 547.44C631.138 546.684 630.614 546.5 630.454 545.247C629.76 539.801 637.398 511.094 639.184 503.759C639.935 500.673 641.879 495.756 641.505 492.668C640.383 491.18 639.254 490.021 639.153 488.101C640.326 486.333 640.77 486.503 642.751 485.961C645.092 482.765 646.041 478.473 647.251 474.754C649.067 469.171 651.885 466.378 656.983 463.763Z"/>
	<path fill="#F5B534" transform="scale(0.999721 0.999721)" d="M548.93 343.233C552.399 343.019 555.419 342.894 558.767 344.075C563.267 345.662 567.164 349.191 569.052 353.58Q569.225 353.983 569.376 354.395Q569.528 354.806 569.659 355.225Q569.789 355.644 569.898 356.069Q570.007 356.494 570.094 356.924Q570.18 357.354 570.245 357.787Q570.31 358.221 570.352 358.658Q570.394 359.094 570.414 359.533Q570.434 359.971 570.432 360.409Q570.429 360.848 570.404 361.286Q570.379 361.724 570.331 362.16Q570.284 362.596 570.214 363.029Q570.144 363.462 570.052 363.891Q569.96 364.32 569.846 364.743Q569.733 365.167 569.597 365.584Q569.462 366.001 569.305 366.411Q569.148 366.821 568.971 367.222C566.688 372.271 562.633 374.985 557.621 376.863C554.93 377.037 552.14 377.194 549.508 376.502C544.54 375.197 540.05 372.1 537.609 367.508Q537.234 366.806 536.932 366.071Q536.629 365.335 536.402 364.573Q536.175 363.811 536.026 363.03Q535.876 362.248 535.806 361.456Q535.736 360.664 535.745 359.868Q535.755 359.073 535.844 358.283Q535.933 357.492 536.102 356.715Q536.27 355.938 536.515 355.181C538.563 348.882 543.321 345.961 548.93 343.233Z"/>
	<path fill="#F5B534" transform="scale(0.999721 0.999721)" d="M742.842 643.053C745.943 642.795 748.8 642.671 751.762 643.799Q752.536 644.09 753.278 644.456Q754.019 644.822 754.721 645.259Q755.424 645.695 756.08 646.199Q756.736 646.702 757.34 647.267Q757.944 647.832 758.49 648.453Q759.036 649.075 759.518 649.747Q760.001 650.418 760.415 651.134Q760.83 651.85 761.172 652.603C763.179 656.983 763.456 662.244 761.573 666.713C759.087 672.612 754.887 674.828 749.297 677.04C744.976 677.426 741.132 677.171 737.223 675.084Q736.845 674.886 736.478 674.668Q736.111 674.451 735.755 674.215Q735.4 673.979 735.057 673.724Q734.714 673.47 734.385 673.199Q734.055 672.927 733.74 672.639Q733.426 672.351 733.126 672.047Q732.826 671.743 732.543 671.424Q732.259 671.105 731.992 670.772Q731.726 670.439 731.477 670.092Q731.227 669.746 730.996 669.387Q730.765 669.028 730.553 668.658Q730.341 668.287 730.148 667.907Q729.955 667.526 729.782 667.136Q729.609 666.745 729.456 666.347Q729.304 665.948 729.172 665.542Q729.04 665.136 728.929 664.724Q728.715 663.921 728.579 663.101Q728.443 662.281 728.387 661.452Q728.33 660.623 728.352 659.792Q728.375 658.961 728.477 658.136Q728.579 657.311 728.759 656.5Q728.939 655.689 729.196 654.898Q729.453 654.108 729.785 653.346Q730.116 652.584 730.519 651.857C733.359 646.767 737.409 644.6 742.842 643.053Z"/>
	<path fill="#F5B534" transform="scale(0.999721 0.999721)" d="M516.313 609.486C519.469 609.44 522.392 609.517 525.371 610.752C529.932 612.642 533.514 616.051 535.234 620.708Q535.523 621.506 535.731 622.329Q535.939 623.152 536.064 623.992Q536.189 624.832 536.23 625.68Q536.271 626.528 536.227 627.375Q536.183 628.223 536.055 629.062Q535.927 629.902 535.717 630.724Q535.506 631.546 535.214 632.344Q534.922 633.141 534.553 633.905C531.732 639.748 527.166 642.32 521.231 644.366C517.552 644.394 514.397 644.05 511.068 642.366Q510.291 641.975 509.556 641.508Q508.822 641.041 508.139 640.502Q507.456 639.963 506.83 639.358Q506.204 638.753 505.643 638.088Q505.082 637.423 504.59 636.705Q504.099 635.987 503.682 635.223Q503.266 634.459 502.928 633.656Q502.591 632.854 502.336 632.022Q502.082 631.171 501.915 630.299Q501.747 629.427 501.669 628.542Q501.591 627.658 501.603 626.77Q501.614 625.882 501.716 624.999Q501.817 624.117 502.007 623.25Q502.196 622.382 502.473 621.538Q502.749 620.694 503.109 619.883Q503.47 619.071 503.91 618.3C506.694 613.409 510.985 610.837 516.313 609.486Z"/>
	<path fill="#E06928" transform="scale(0.999721 0.999721)" d="M594.935 481.843C595.12 481.842 595.304 481.838 595.489 481.84C598.479 481.872 601.393 482.9 603.415 485.206C605.066 487.088 605.378 489.492 605.146 491.898C604.24 501.283 597.177 508.733 589.022 512.678C586.6 513.85 583.599 514.326 581.529 516.052C581.349 517.017 581.181 517.999 581.154 518.983C581.084 521.601 581.689 525.022 583.742 526.847C586.317 529.136 592.718 527.614 596.033 527.324C598.221 528.343 598.34 529.513 599.302 531.584C598.629 532.066 597.986 532.479 597.239 532.839C592.504 535.126 586.359 537.513 581.191 535.427C577.82 534.067 575.634 531.189 574.335 527.888C570.94 519.262 573.782 507.543 577.461 499.463C581.153 491.353 586.464 484.95 594.935 481.843Z"/>
	<path fill="#FEFEFE" transform="scale(0.999721 0.999721)" d="M593.974 488.663C595.149 488.759 595.839 489.389 596.776 490.043C597.721 492.003 597.956 493.05 597.216 495.23C595.272 500.958 590.91 505.008 585.601 507.542C584.65 507.811 584.211 507.714 583.274 507.427C583.118 506.786 583.006 506.372 583.093 505.708C583.921 499.397 589.086 492.486 593.974 488.663Z"/>
	<path fill="#E06928" transform="scale(0.999721 0.999721)" d="M536.835 481.79C538.669 482.116 540.662 483.031 541.975 484.369C544.255 486.693 544.767 490.153 544.623 493.281C544.399 498.151 534.803 534.201 532.176 536.387C531.291 537.123 531.038 536.847 529.965 536.764C521.52 528.534 539.63 502.688 534.622 492.832C533.511 491.985 533.246 491.462 531.773 491.762C527.685 492.592 523.615 499.55 521.616 502.766C517.342 510.729 515.656 519.629 512.734 528.1C511.665 531.198 510.648 533.766 507.574 535.225L506.14 534.59C504.553 532.46 504.172 530.616 504.29 527.956C504.467 523.985 513.62 492.563 515.592 487.761C516.416 485.756 517.216 484.151 518.826 482.651L519.794 482.783C522.187 486.892 521.77 492.044 521.455 496.598C525.75 490.064 529.161 484.525 536.835 481.79Z"/>
	<path fill="#E06928" transform="scale(0.999721 0.999721)" d="M832.124 481.934C834.467 481.769 836.769 481.844 838.785 483.183C840.812 484.528 842.019 486.713 842.412 489.084C843.261 494.193 840.861 500.345 837.914 504.44C832.935 511.356 826.659 513.195 818.589 514.538C818.538 518.271 817.871 523.813 820.625 526.808C824.142 530.633 831.093 526.665 835.554 526.75C837.255 528.158 837.273 528.992 837.922 531.059C836.357 532.073 834.735 532.912 833.044 533.692C828.462 535.804 823.009 537.321 818.107 535.339C814.725 533.971 812.368 531.063 811.092 527.709C808.084 519.802 810.406 509.704 813.563 502.206C817.584 492.653 822.451 485.951 832.124 481.934Z"/>
	<path fill="#FEFEFE" transform="scale(0.999721 0.999721)" d="M830.96 489.964C831.91 490.065 832.71 490.345 833.626 490.623C834.749 492.204 835.022 492.712 834.661 494.672C833.566 500.62 827.828 505.641 822.966 508.59C822.098 508.745 821.506 508.697 820.638 508.616C820.453 508.023 820.28 507.533 820.373 506.899C821.233 501 826.783 493.911 830.96 489.964Z"/>
	<path fill="#E06928" transform="scale(0.999721 0.999721)" d="M750.145 481.917C752.97 481.811 755.049 481.774 757.439 483.573C759.601 485.201 760.696 487.585 760.873 490.257C761.243 495.837 758.628 502.03 755.022 506.192C749.958 512.036 744.027 513.697 736.588 514.32C736.557 517.737 736.193 521.6 737.863 524.705C741.632 531.712 748.4 525.383 753.514 527.115C754.551 528.643 754.538 529.824 754.598 531.636Q753.107 532.718 751.465 533.552C747.07 535.822 741.459 537.711 736.59 535.934C732.992 534.621 730.652 531.805 729.184 528.354C725.688 520.135 728.627 509.033 731.937 501.238C735.764 492.225 741.011 485.674 750.145 481.917Z"/>
	<path fill="#FEFEFE" transform="scale(0.999721 0.999721)" d="M749.999 489.286C751.29 489.241 751.927 489.881 752.936 490.594C753.606 492.626 753.438 493.217 752.837 495.26C751.007 501.476 745.854 505.882 740.384 508.843C739.373 508.973 739.311 508.855 738.412 508.502C738.327 507.797 738.268 507.326 738.408 506.622C739.69 500.215 744.816 493.136 749.999 489.286Z"/>
	<path fill="#E06928" transform="scale(0.999721 0.999721)" d="M897.396 482.705C899.219 482.887 900.914 483.229 902.607 483.958C904.851 484.924 906.298 486.56 907.109 488.853C908.671 493.267 908.609 499.073 906.473 503.238C902.293 511.393 892.098 514.085 884.115 516.833C883.729 517.745 883.61 518.299 883.669 519.313C883.851 522.427 884.487 524.998 886.887 527.08C890.446 528.651 895.517 527.232 899.253 526.65C901.15 527.52 901.221 528.223 902.19 530.019C899.387 532.898 896.207 535.203 892.248 536.157C889.091 536.917 886.025 536.433 883.286 534.674C879.687 532.363 877.451 528.48 876.488 524.388C874.214 514.727 877.635 500.896 882.933 492.68C886.532 487.099 890.969 484.126 897.396 482.705Z"/>
	<path fill="#FEFEFE" transform="scale(0.999721 0.999721)" d="M895.923 490.823C896.694 490.823 897.579 490.791 898.327 490.988C900.113 491.459 900.648 492.321 901.599 493.747C901.697 495.14 901.695 496.173 901.146 497.482C899.18 502.179 895.448 505.137 890.917 507.13C889.134 507.688 888.28 508.323 886.506 507.628C886.336 506.935 886.177 506.321 886.236 505.601C886.647 500.608 892.037 493.777 895.923 490.823Z"/>
	<path fill="#E06928" transform="scale(0.999721 0.999721)" d="M962.862 482.247C964.809 482.643 966.06 482.985 967.672 484.167C969.235 488.45 959.122 513.862 958.33 522.083C958.139 524.069 958.237 524.862 959.463 526.413C960.214 526.432 960.254 526.48 961.096 526.236C971.774 523.145 977.411 496.847 981.719 487.651C982.81 485.322 983.689 484.336 986.049 483.474C987.33 484.005 988.013 484.123 988.761 485.371C991.035 489.167 986.503 502.399 985.407 506.911C984.096 512.83 982.031 530.066 978.219 534.105C977.285 535.094 976.903 535.009 975.631 535.073C975.011 534.613 974.388 534.18 973.915 533.557C970.983 529.692 972.362 525.448 973.291 521.172C969.356 526.513 963.949 535.222 956.787 536.267C955.422 536.465 954.039 536.121 952.985 535.214C950.553 533.123 949.853 529.224 949.642 526.164C948.904 515.451 955.789 490.481 962.862 482.247Z"/>
	<path fill="#E06928" transform="scale(0.999721 0.999721)" d="M685.09 481.81Q687.163 481.746 689.214 482.059C691.577 482.428 692.928 483.275 694.273 485.21C695.094 488.344 688.442 526.387 687.048 530.717C686.289 533.073 685.524 534.611 683.325 535.703L681.879 534.884C680.661 533.121 680.17 531.89 679.956 529.75L679.521 525.463C678.104 527.743 676.416 529.807 674.748 531.903Q673.309 532.937 671.809 533.878C669.616 535.239 666.782 536.107 664.218 535.351C662.258 534.774 660.909 533.32 660.011 531.534C656.775 525.097 658.494 515.782 660.654 509.289C664.963 496.332 673.016 487.792 685.09 481.81Z"/>
	<path fill="#FEFEFE" transform="scale(0.999721 0.999721)" d="M686.663 488.072C686.712 488.305 686.768 488.537 686.81 488.772C687.833 494.619 678.807 517.522 675.533 522.198C673.49 525.115 671.696 526.473 668.152 527.054C666.683 523.457 667.29 518.313 668.008 514.576C670.121 503.58 677.513 494.152 686.663 488.072Z"/>
	<path fill="#E06928" transform="scale(0.999721 0.999721)" d="M936.497 482.651C939.814 482.492 943.24 482.263 946.082 484.291C946.581 484.647 947.067 485.719 947.196 486.31C947.927 489.646 938.928 518.059 938.649 525.474C938.533 528.567 939.55 531.019 940.079 533.987C938.878 535.209 937.582 536.236 935.762 536.181C934.034 536.129 932.59 535.334 931.541 533.974C929.379 531.172 930.502 525.277 930.772 521.948L926.991 527.69C924.987 530.761 922.234 533.93 918.853 535.506C917.087 536.329 915.195 536.547 913.379 535.758C910.95 534.705 909.363 532.075 908.554 529.662C905.929 521.83 909.037 512.072 912.46 504.971C917.512 494.492 925.458 486.549 936.497 482.651Z"/>
	<path fill="#FEFEFE" transform="scale(0.999721 0.999721)" d="M936.317 489.333C937.514 489.401 937.322 489.482 938.13 490.248C938.166 491.216 938.131 492.183 937.946 493.135C935.714 504.636 928.086 520.275 918.383 527.217C917.726 526.577 917.178 526.016 916.727 525.211C915.26 522.595 915.868 518.395 916.578 515.572C919.304 504.723 926.788 494.977 936.317 489.333Z"/>
	<path fill="#45444B" transform="scale(0.999721 0.999721)" d="M683.768 76.6301C701.786 75.8799 718.204 80.161 732.418 91.7791Q733.696 92.8395 734.921 93.9613Q736.146 95.083 737.314 96.2634Q738.482 97.4438 739.591 98.6801Q740.701 99.9164 741.748 101.205Q742.795 102.495 743.778 103.833Q744.761 105.172 745.677 106.558Q746.593 107.943 747.44 109.372Q748.288 110.801 749.064 112.269Q749.84 113.737 750.543 115.242Q751.247 116.747 751.876 118.284Q752.504 119.822 753.057 121.388Q753.61 122.954 754.086 124.546Q754.561 126.137 754.958 127.75Q755.355 129.363 755.672 130.994Q755.99 132.624 756.227 134.268Q756.464 135.912 756.621 137.566Q756.8 139.34 756.891 141.12Q756.981 142.901 756.984 144.684Q756.986 146.467 756.9 148.247Q756.814 150.028 756.641 151.803Q756.466 153.577 756.205 155.34Q755.943 157.104 755.595 158.852Q755.246 160.601 754.811 162.33Q754.376 164.059 753.856 165.764Q753.336 167.469 752.733 169.147Q752.129 170.824 751.443 172.47Q750.757 174.115 749.99 175.725Q749.223 177.334 748.378 178.903Q747.532 180.473 746.61 181.999Q745.688 183.524 744.691 185.002Q743.694 186.48 742.626 187.907Q741.557 189.334 740.419 190.706C729.196 204.073 712.144 213.189 694.76 214.734C694.455 214.802 694.152 214.882 693.844 214.939C678.979 217.684 658.738 208.729 647.43 199.624Q646.153 198.576 644.928 197.467Q643.703 196.358 642.532 195.192Q641.362 194.026 640.249 192.804Q639.136 191.583 638.083 190.309Q637.031 189.036 636.04 187.713Q635.05 186.39 634.124 185.021Q633.199 183.653 632.34 182.241Q631.481 180.829 630.692 179.377Q629.902 177.926 629.183 176.438Q628.464 174.95 627.818 173.429Q627.171 171.908 626.599 170.358Q626.026 168.808 625.529 167.232Q625.031 165.656 624.61 164.058Q624.19 162.46 623.846 160.844Q623.502 159.227 623.237 157.596Q622.972 155.965 622.785 154.323C620.69 134.867 625.732 116.594 638.044 101.339C649.841 86.7204 665.212 78.687 683.768 76.6301Z"/>
	<path fill="#FEFEFE" transform="scale(0.999721 0.999721)" d="M686.507 82.2214C700.989 81.8352 714.87 85.9108 726.474 94.7088C740.077 105.022 748.553 120.239 750.776 137.111Q750.986 138.675 751.117 140.248Q751.248 141.82 751.302 143.397Q751.354 144.975 751.329 146.552Q751.303 148.13 751.199 149.705Q751.095 151.279 750.913 152.847Q750.731 154.414 750.47 155.971Q750.21 157.527 749.873 159.069Q749.536 160.611 749.122 162.133Q748.709 163.656 748.22 165.157Q747.731 166.657 747.168 168.131Q746.605 169.605 745.969 171.05Q745.333 172.494 744.627 173.905Q743.92 175.316 743.144 176.689Q742.368 178.063 741.524 179.397Q740.681 180.73 739.772 182.02Q738.863 183.31 737.891 184.553C726.946 198.798 711.565 207.045 693.922 209.362C677.637 209.218 663.432 205.452 650.694 194.798Q649.484 193.776 648.325 192.695Q647.167 191.614 646.063 190.478Q644.959 189.341 643.912 188.152Q642.866 186.962 641.879 185.723Q640.892 184.483 639.968 183.197Q639.043 181.91 638.183 180.58Q637.323 179.249 636.529 177.878Q635.736 176.506 635.01 175.098Q634.285 173.689 633.63 172.246Q632.975 170.803 632.392 169.33Q631.809 167.857 631.299 166.357Q630.789 164.856 630.354 163.333Q629.918 161.809 629.558 160.266Q629.198 158.723 628.915 157.164Q628.631 155.605 628.424 154.034Q628.218 152.463 628.089 150.884C626.72 133.28 632.613 116.492 644.234 103.273C655.126 90.8822 670.019 83.2976 686.507 82.2214Z"/>
	<path fill="#45444B" transform="scale(0.999721 0.999721)" d="M683.803 121.382C689.557 120.695 695.698 121.298 701.311 122.66C708.078 124.302 721.634 128.158 725.277 134.209C723.243 141.247 699.208 172.088 693.318 179.515C691.949 180.957 690.776 182.502 688.754 182.589C681.388 175.561 658.713 142.781 652.623 132.939C662.401 126.255 672.25 123.241 683.803 121.382Z"/>
	<path fill="#FEFEFE" transform="scale(0.999721 0.999721)" d="M689.067 161.561C691.669 163.038 693.987 165.042 696.344 166.879L690.478 174.678L689.656 174.902C687.178 172.945 685.38 169.447 683.655 166.796L689.067 161.561Z"/>
	<path fill="#FEFEFE" transform="scale(0.999721 0.999721)" d="M685.489 127.086C696.22 125.062 709.986 130.636 719.341 135.463C712.418 144.484 705.864 153.844 699.146 163.021L692.268 156.486C691.316 155.918 690.705 155.587 689.591 155.624C686.463 155.729 682.509 160.947 680.407 163.161Q669.737 148.977 659.557 134.438C667.892 130.403 676.28 128.032 685.489 127.086Z"/>
	<path fill="#45444B" transform="scale(0.999721 0.999721)" d="M682.474 135.259C688.504 134.697 694.472 134.904 700.345 136.57C703.071 137.344 707.109 138.576 708.539 141.178L707.654 142.057C704.483 142.985 701.127 141.712 698.021 140.943C689.131 139.257 679.753 142.429 671.346 140.604C671.351 139.756 671.179 139.427 671.74 138.726C673.79 136.164 679.468 135.773 682.474 135.259Z"/>
	<path fill="#45444B" transform="scale(0.999721 0.999721)" d="M674.255 754.344C676.09 754.193 677.665 754.429 679.432 754.893C704.907 761.589 733.773 772.349 759.103 780.858C779.301 787.643 799.948 793.405 819.951 800.706C820.572 820.095 820.291 839.645 820.19 859.044C807.296 866.704 793.438 873.338 780.098 880.221C769.222 885.833 758.109 892.456 746.576 896.55C743.776 897.544 741.521 898.028 738.527 897.786C729.381 896.14 593.917 849.555 592.255 847.65C590.346 845.463 591.374 807.852 591.386 802.788C599.744 796.019 610.84 790.863 620.18 785.496L674.255 754.344Z"/>
	<path fill="#FEFEFE" transform="scale(0.999721 0.999721)" d="M813.359 807.547L813.991 808.162C815.816 818.755 814.573 843.45 814.502 855.723C793.87 867.67 771.835 878.488 750.316 888.765C749.709 883.472 750.133 877.777 750.129 872.434L750.092 839.855L813.359 807.547Z"/>
	<path fill="#FEFEFE" transform="scale(0.999721 0.999721)" d="M596.679 808.96C639.038 821.968 680.829 837.115 723.07 850.573C723.156 856.384 722.643 863.604 724.453 869.099C724.688 869.814 724.994 869.761 725.632 870.085C729.207 866.058 727.648 856.507 727.608 851.172C733.098 848.201 738.74 845.464 744.306 842.634L744.28 864.807Q744.454 873.167 744.492 881.529C744.475 885.189 744.364 889.47 741.628 892.19C732.888 891.89 715.221 883.918 706.185 880.878C669.891 868.668 633.737 855.355 597.137 844.145L596.679 808.96Z"/>
	<path fill="#45444B" transform="scale(0.999721 0.999721)" d="M613.293 824.131C620.835 824.412 636.815 829.249 642.053 834.842C643.669 836.568 644.609 838.373 644.409 840.777C644.139 844.019 642.323 845.804 640.062 847.84C632.051 845.491 620.696 843.362 613.836 838.715C611.706 837.272 609.795 835.201 609.487 832.546C609.077 829.009 611.162 826.614 613.293 824.131Z"/>
	<path fill="#45444B" transform="scale(0.999721 0.999721)" d="M655.946 836.814C661.077 836.004 708.417 853.08 715.077 856.655C716.219 859.8 717.516 863.234 717.095 866.638C716.736 869.538 715.261 871.255 713.093 873.058C712.638 873.046 712.183 873.013 711.73 872.969C705.123 872.341 655.19 855.531 652.924 852.459C651.036 849.898 650.491 847.185 651.011 844.081C651.67 840.155 652.835 839.015 655.946 836.814Z"/>
	<path fill="#FEFEFE" transform="scale(0.999721 0.999721)" d="M656.342 842.11C663.604 843.765 708.87 858.535 711.064 861.88C711.616 864 711.352 865.514 710.886 867.631Q693.697 861.418 676.365 855.614C670.026 853.457 663.248 851.653 657.297 848.596C655.999 846.697 656.34 844.328 656.342 842.11Z"/>
	<path fill="#FEFEFE" transform="scale(0.999721 0.999721)" d="M675.912 759.967C691.871 763.155 709.052 770.246 724.629 775.37L809.923 803.341C783.77 814.296 756.738 830.705 730.484 842.969C728.556 843.834 726.498 844.915 724.335 844.664C715.198 843.607 704.571 838.518 695.72 835.661C678.53 830.113 661.317 824.599 644.207 818.811C629.339 813.781 614.72 808.437 599.621 804.101C609.863 797.509 620.841 791.78 631.399 785.69C646.247 777.126 660.909 768.259 675.912 759.967Z"/>
	<path fill="#45444B" transform="scale(0.999721 0.999721)" d="M249.59 124.968C253.508 124.547 257.82 124.864 261.703 125.454C276.951 127.771 288.285 137.087 297.158 149.17C308.403 138.86 320.553 132.732 336.189 133.091C350.669 133.423 364.913 140.061 374.812 150.577C385.451 161.879 389.767 176.638 389.276 191.9C405.337 196.569 418.872 204.594 428.999 218.2C440.495 233.645 444.68 252.328 441.876 271.301C439.044 290.459 430.078 307.062 414.28 318.545C403.014 326.735 387.109 332.606 373.042 331.934C367.016 331.646 360.723 330.194 354.748 329.266C351.147 332.392 347.299 335.363 343.144 337.716C330.255 345.012 316.955 345.107 302.955 341.293C295.445 338.723 289.481 334.771 282.951 330.382Q281.241 332.856 279.275 335.131Q277.309 337.406 275.11 339.457Q272.911 341.508 270.504 343.31Q268.098 345.112 265.511 346.645Q264.342 347.36 263.138 348.016Q261.935 348.672 260.7 349.267Q259.465 349.863 258.202 350.396Q256.94 350.928 255.652 351.398Q254.364 351.867 253.054 352.271Q251.745 352.676 250.416 353.015Q249.088 353.353 247.745 353.625Q246.402 353.897 245.046 354.102Q243.691 354.307 242.327 354.443Q240.964 354.58 239.595 354.649Q238.226 354.718 236.855 354.718Q235.485 354.718 234.116 354.65Q232.747 354.582 231.383 354.446Q230.019 354.31 228.664 354.106Q227.308 353.902 225.965 353.63Q224.621 353.359 223.293 353.021C208.016 349.166 197.466 339.887 189.619 326.543C178.503 331.891 166.406 333.98 154.362 330.465Q153.298 330.144 152.252 329.772Q151.205 329.399 150.178 328.975Q149.151 328.552 148.146 328.078Q147.141 327.604 146.161 327.082Q145.18 326.559 144.226 325.989Q143.273 325.419 142.348 324.803Q141.424 324.186 140.531 323.525Q139.638 322.864 138.779 322.16Q137.919 321.456 137.095 320.71Q136.272 319.964 135.485 319.179Q134.699 318.394 133.953 317.571Q133.206 316.748 132.501 315.889Q131.796 315.031 131.134 314.138Q130.471 313.246 129.854 312.322Q129.236 311.398 128.665 310.445Q128.094 309.492 127.57 308.512Q127.014 307.487 126.51 306.436Q126.005 305.384 125.555 304.309Q125.104 303.233 124.708 302.137Q124.311 301.04 123.97 299.925Q123.63 298.81 123.345 297.679Q123.061 296.548 122.833 295.404Q122.606 294.26 122.436 293.107Q122.266 291.953 122.155 290.792Q122.043 289.631 121.989 288.466Q121.936 287.301 121.941 286.135Q121.946 284.969 122.01 283.805Q122.073 282.64 122.195 281.48Q122.317 280.321 122.497 279.169Q122.677 278.016 122.914 276.875Q123.152 275.733 123.446 274.605Q123.74 273.476 124.091 272.364C128.437 258.465 138.017 248.764 150.721 242.145C149.179 236.18 147.701 230.324 147.38 224.137Q147.319 222.957 147.316 221.776Q147.313 220.595 147.369 219.415Q147.425 218.235 147.54 217.059Q147.654 215.883 147.827 214.715Q147.999 213.546 148.23 212.387Q148.46 211.229 148.748 210.083Q149.035 208.937 149.38 207.807Q149.724 206.677 150.124 205.566Q150.523 204.454 150.978 203.364Q151.432 202.274 151.94 201.207Q152.448 200.141 153.009 199.101Q153.569 198.061 154.18 197.05Q154.791 196.039 155.452 195.06Q156.113 194.081 156.821 193.136Q157.529 192.191 158.284 191.282Q159.038 190.373 159.837 189.503C171.209 177.089 184.165 174.318 200.22 173.678C201.792 161.446 204.752 151.013 213.244 141.667C222.683 131.277 235.69 125.677 249.59 124.968Z"/>
	<path fill="#FEFEFE" transform="scale(0.999721 0.999721)" d="M249.391 130.485C263.91 129.727 278.591 135.131 287.646 146.846C289.979 149.865 293.007 156.051 296.434 157.276C299.379 156.339 301.008 153.276 303.181 151.201C311.715 143.052 325.078 138.325 336.812 138.84Q338.003 138.897 339.19 139.012Q340.377 139.128 341.557 139.302Q342.737 139.475 343.906 139.707Q345.076 139.939 346.233 140.229Q347.39 140.518 348.531 140.864Q349.672 141.21 350.795 141.612Q351.918 142.014 353.02 142.471Q354.121 142.928 355.199 143.439Q356.276 143.949 357.328 144.513Q358.379 145.076 359.401 145.691Q360.423 146.305 361.414 146.969Q362.404 147.633 363.361 148.346Q364.317 149.058 365.238 149.817Q366.158 150.575 367.04 151.378Q367.922 152.182 368.763 153.027Q369.604 153.873 370.402 154.759C381.198 166.736 383.991 180.104 383.213 195.748C405.065 204.082 418.4 208.194 430.157 230.979C437.977 246.134 438.943 265.178 433.744 281.328C428.59 297.337 417.069 311.606 402.036 319.28C386.271 327.327 369.605 327.349 353.01 322.085L351.481 323.946C348.22 327.931 344.534 330.871 339.955 333.261C328.209 339.391 316.283 339.09 303.919 335.212C295.947 332.039 290.138 326.482 282.638 322.78C276.553 326.873 273.021 334.416 266.951 338.724C255.731 346.686 241.912 350.502 228.28 348.145C216.823 346.164 205.284 340.001 198.75 330.11C196.475 326.665 195.007 322.807 192.63 319.385C189.848 318.426 178.821 324.395 174.93 325.318Q173.353 325.693 171.749 325.923Q170.145 326.153 168.527 326.236Q166.909 326.319 165.29 326.255Q163.671 326.19 162.064 325.979C151.854 324.719 142.814 319.95 136.499 311.763Q135.868 310.942 135.278 310.091Q134.688 309.239 134.141 308.36Q133.594 307.48 133.092 306.575Q132.589 305.669 132.133 304.739Q131.676 303.81 131.265 302.859Q130.855 301.908 130.493 300.938Q130.13 299.967 129.816 298.98Q129.502 297.993 129.238 296.992Q128.973 295.991 128.759 294.977Q128.544 293.964 128.38 292.941Q128.216 291.919 128.103 290.889Q127.99 289.859 127.928 288.825Q127.867 287.792 127.856 286.756Q127.846 285.72 127.887 284.685Q127.928 283.65 128.02 282.618Q128.113 281.587 128.256 280.561C129.744 269.545 136.284 258.693 145.58 252.5C149.015 250.21 153.202 248.541 156.384 245.965C159.805 243.196 154.361 233.13 153.606 229.358C152.933 225.992 153.119 221.921 153.336 218.517Q153.404 217.503 153.521 216.494Q153.639 215.485 153.806 214.482Q153.973 213.48 154.189 212.487Q154.405 211.494 154.67 210.513Q154.935 209.532 155.248 208.566Q155.561 207.599 155.921 206.649Q156.281 205.699 156.688 204.767Q157.094 203.836 157.546 202.926Q157.998 202.016 158.495 201.13Q158.991 200.243 159.53 199.382Q160.07 198.521 160.651 197.687Q161.232 196.854 161.853 196.05Q162.475 195.247 163.135 194.474Q163.796 193.702 164.493 192.964Q165.191 192.225 165.924 191.522Q166.657 190.818 167.424 190.152C178.842 180.079 191.471 178.802 206.013 179.81C206.571 168.489 207.847 158.97 214.636 149.47C223.062 137.678 235.571 132.894 249.391 130.485Z"/>
	<path fill="#F5B534" transform="scale(0.999721 0.999721)" d="M282.187 258.509C284.826 258.466 287.302 258.346 289.81 259.356Q290.47 259.617 291.101 259.942Q291.733 260.266 292.329 260.651Q292.925 261.036 293.481 261.477Q294.037 261.918 294.547 262.412Q295.057 262.905 295.517 263.447Q295.976 263.988 296.38 264.571Q296.784 265.155 297.129 265.775Q297.474 266.396 297.757 267.047Q298.021 267.659 298.22 268.295Q298.419 268.931 298.551 269.585Q298.684 270.238 298.747 270.901Q298.811 271.565 298.805 272.231Q298.8 272.898 298.725 273.56Q298.651 274.223 298.508 274.874Q298.365 275.525 298.156 276.158Q297.946 276.79 297.672 277.398C295.854 281.438 292.623 283.563 288.687 285.167C286.355 285.345 283.681 285.406 281.425 284.726C277.921 283.668 274.751 281.194 273.081 277.908Q272.782 277.313 272.546 276.691Q272.31 276.068 272.139 275.425Q271.968 274.782 271.863 274.125Q271.758 273.467 271.721 272.803Q271.685 272.138 271.716 271.473Q271.747 270.808 271.846 270.15Q271.945 269.492 272.111 268.847Q272.277 268.202 272.508 267.578C274.267 262.782 277.727 260.419 282.187 258.509Z"/>
	<path fill="#F5B534" transform="scale(0.999721 0.999721)" d="M281.502 240.397C283.328 240.243 285.145 240.138 286.976 240.261C298.373 241.028 306.968 247.104 314.332 255.385C312.204 257.782 309.802 259.983 307.511 262.227C301.43 256.672 296.539 253.42 288.47 251.547C277.573 251.322 270.809 255.665 262.587 262.247C260.867 260.708 257.82 258.305 257.021 256.139C256.61 255.026 257.01 254.092 257.597 253.104C261.365 246.758 274.505 241.69 281.502 240.397Z"/>
	<path fill="#F5B534" transform="scale(0.999721 0.999721)" d="M282.46 221.6C286.068 221.238 289.946 221.567 293.517 222.124C307.399 224.29 319.672 230.864 328.028 242.268C325.825 244.957 323.649 247.131 320.926 249.292C311.308 239.834 302.07 234.969 288.838 232.496L288.037 232.469C272.601 232.015 260.368 239.875 249.613 250.116L242.464 242.739C253.584 230.166 265.691 223.224 282.46 221.6Z"/>
	<path fill="#F5B534" transform="scale(0.999721 0.999721)" d="M280.233 203.395C282.986 203.045 286.044 203.098 288.831 203.16C310.017 203.631 326.374 213.5 340.707 228.289L333.924 235.014C321.378 223.634 307.546 215.517 290.372 214.234Q288.987 214.143 287.601 214.083C267.012 213.195 251.545 223.259 236.966 236.555C234.339 234.26 232.128 231.941 229.942 229.223C243.856 214.477 259.804 205.231 280.233 203.395Z"/>
	<path fill="#45444B" transform="scale(0.999721 0.999721)" d="M1078.16 618.805C1079.24 618.717 1080.01 618.707 1081.05 619.026C1104.15 626.083 1126.84 634.897 1149.77 642.521C1160.6 646.12 1187.17 653.537 1195.9 658.156C1204.65 655.861 1213.74 649.055 1221.66 644.625L1262.38 621.906C1270.43 623.448 1300.48 633.547 1307.2 637.445C1309.47 641.819 1309.24 789.669 1307.66 805.177C1304.66 808.384 1257.63 834.03 1251.37 836.309C1247.74 839.796 1199.79 865.485 1195.48 866.79L1077.67 823.953C1066.38 819.837 1025.45 806.39 1017.63 800.327C1015.93 795.195 1016.37 695.206 1016.89 682.342C1017.09 677.436 1017.58 672.56 1018.78 667.789C1026.4 637.394 1054.38 633.104 1077.68 619.103L1078.16 618.805Z"/>
	<path fill="#FEFEFE" transform="scale(0.999721 0.999721)" d="M1045.73 725.23L1048.86 725.276C1049.64 726.025 1049.96 726.24 1050.26 727.279C1051.65 732.023 1051.65 747.92 1049.48 751.924L1047.47 751.415C1043.98 747.022 1047.48 731.547 1045.73 725.23Z"/>
	<path fill="#FEFEFE" transform="scale(0.999721 0.999721)" d="M1155.45 800.211C1161.79 799.324 1185.53 807.832 1193.4 810.217C1194.36 811.771 1194.33 813.256 1194.38 815.027C1194.54 820.778 1195.32 854.17 1194.11 857.234C1193.96 857.641 1192.92 858.496 1192.58 858.86C1180.17 855.192 1168.03 849.027 1155.48 846.221C1155.54 846.087 1155.62 845.957 1155.67 845.818C1157.31 841.649 1157.41 804.321 1155.45 800.211Z"/>
	<path fill="#45444B" transform="scale(0.999721 0.999721)" d="M1169.73 815.625C1172.6 815.119 1175.15 815.057 1177.88 816.236C1181.79 817.918 1184.85 821.464 1186.25 825.444C1187.32 828.484 1187.36 831.848 1185.77 834.722C1184.27 837.441 1182.18 838.763 1179.29 839.652C1178.58 840.115 1177.65 840.2 1176.81 840.198C1173.33 840.19 1170.74 839.063 1168.44 836.44C1165.74 833.35 1164.2 828.627 1164.55 824.53C1164.89 820.564 1166.7 818.033 1169.73 815.625Z"/>
	<path fill="#F5B534" transform="scale(0.999721 0.999721)" d="M1171.92 820.527C1173.09 820.4 1174.22 820.359 1175.36 820.669C1177.64 821.289 1179.68 823.247 1180.83 825.258C1181.77 826.913 1182.08 828.913 1181.47 830.741C1180.85 832.619 1179.63 833.371 1177.92 834.161C1177.78 834.204 1177.64 834.268 1177.49 834.291C1176.25 834.48 1174.66 833.83 1173.63 833.184C1171.22 831.681 1170.17 829.371 1169.75 826.643C1169.32 823.919 1170.31 822.645 1171.92 820.527Z"/>
	<path fill="#FEFEFE" transform="scale(0.999721 0.999721)" d="M1155.6 745.58C1159.78 744.981 1189.29 753.613 1193.37 755.874C1193.71 756.434 1194 756.908 1194.14 757.56C1195.19 762.568 1195.22 799.478 1193.27 802.887C1189.6 804.168 1161.99 794.467 1155.52 793.16C1155.63 792.92 1155.75 792.684 1155.85 792.44C1157.28 788.972 1157.23 749.252 1155.6 745.58Z"/>
	<path fill="#45444B" transform="scale(0.999721 0.999721)" d="M1163.73 775.241C1164.3 772.861 1164.85 770.4 1165.85 768.157C1166.99 765.596 1169.44 763.613 1172.07 762.693C1174.33 761.903 1176.72 762.233 1178.85 763.255C1181.17 764.372 1183.1 766.034 1183.98 768.435C1186.06 769.89 1186.75 771.431 1187.17 773.934Q1187.27 774.534 1187.3 775.141Q1187.34 775.748 1187.31 776.356Q1187.28 776.963 1187.18 777.564Q1187.09 778.164 1186.93 778.751Q1186.77 779.339 1186.55 779.906Q1186.33 780.473 1186.05 781.013Q1185.77 781.554 1185.44 782.062Q1185.11 782.57 1184.72 783.039C1182.94 785.242 1180.37 786.751 1177.51 786.902C1174.3 787.071 1171.15 785.433 1168.85 783.303C1166.44 781.069 1165.28 778.064 1163.73 775.241Z"/>
	<path fill="#F5B534" transform="scale(0.999721 0.999721)" d="M1168.54 775.962C1168.82 775.132 1168.73 775.492 1168.87 774.692C1169.12 773.247 1169.3 771.423 1170.25 770.24C1171.66 768.476 1173.31 767.272 1175.55 766.861C1178.1 767.641 1179.03 768.932 1180.29 771.238C1181.64 773.019 1182.53 775.309 1182.22 777.597C1182.04 778.915 1181.35 779.369 1180.47 780.283C1178.4 781.066 1176.26 781.18 1174.16 780.35C1172.08 779.529 1170.17 777.463 1168.54 775.962Z"/>
	<path fill="#FEFEFE" transform="scale(0.999721 0.999721)" d="M1156.37 690.252C1161.69 690.391 1187.87 698.223 1193.44 700.638C1193.77 701.17 1194.05 701.617 1194.17 702.238C1195.2 707.24 1195.06 745.466 1193.25 748.684C1190.02 749.762 1162.04 739.75 1155.74 738.623C1158.01 732.786 1156.89 698.347 1156.37 690.252Z"/>
	<path fill="#45444B" transform="scale(0.999721 0.999721)" d="M1171.72 707.061C1174.77 706.743 1177.26 707.008 1179.97 708.547Q1180.63 708.932 1181.25 709.383Q1181.87 709.833 1182.44 710.346Q1183.01 710.858 1183.53 711.426Q1184.04 711.994 1184.5 712.612Q1184.95 713.229 1185.34 713.891Q1185.73 714.552 1186.04 715.25Q1186.36 715.947 1186.61 716.674Q1186.85 717.4 1187.02 718.148C1187.74 721.315 1187.36 724.714 1185.45 727.405C1183.68 729.9 1181.51 731.033 1178.57 731.588C1177.53 731.754 1176.4 731.795 1175.36 731.634C1171.85 731.088 1168.43 728.861 1166.61 725.817Q1166.25 725.203 1165.95 724.557Q1165.64 723.911 1165.41 723.238Q1165.17 722.565 1165.01 721.872Q1164.84 721.179 1164.74 720.472Q1164.64 719.766 1164.61 719.054Q1164.58 718.341 1164.62 717.629Q1164.67 716.917 1164.78 716.213Q1164.89 715.509 1165.07 714.819C1166.06 711.105 1168.49 708.896 1171.72 707.061Z"/>
	<path fill="#F5B534" transform="scale(0.999721 0.999721)" d="M1171.45 712.664C1172.57 712.438 1173.79 712.253 1174.94 712.356C1177.01 712.542 1178.95 714.068 1180.25 715.604C1181.45 717.031 1182.21 718.924 1181.98 720.814C1181.7 723.286 1180.38 724.256 1178.57 725.642L1177.96 726.124C1176.79 726.265 1175.6 726.634 1174.48 726.176C1173.02 725.576 1171.97 724.133 1171.35 722.733C1169.62 718.832 1169.86 716.577 1171.45 712.664Z"/>
	<path fill="#FEFEFE" transform="scale(0.999721 0.999721)" d="M1076.75 625.808C1078.65 625.302 1080.01 625.2 1081.89 625.708C1103.14 631.451 1126.33 640.75 1147.47 647.918C1161.18 652.569 1176.49 656.098 1189.62 661.985C1187.44 665.039 1165.16 676.465 1160.6 678.345C1159.45 679.79 1157.46 680.357 1155.79 681.047C1133.34 672.323 1110.72 663.869 1088.36 654.936C1075.61 649.839 1062.58 643.219 1049.43 639.415C1056.92 637.124 1070.77 630.64 1076.75 625.808Z"/>
	<path fill="#FEFEFE" transform="scale(0.999721 0.999721)" d="M1262.25 628.616C1262.54 628.563 1262.83 628.499 1263.12 628.457C1266.31 627.997 1293.04 637.242 1295.88 639.417C1295.48 639.945 1295.17 640.363 1294.62 640.764C1286.3 646.914 1267.49 656.339 1257.63 661.877L1219.19 683.273C1212.6 686.911 1205.98 691.052 1199.14 694.149C1197.64 694.83 1196.22 695.001 1194.58 694.821C1183.35 691.424 1171.81 687.131 1160.31 684.955C1169.4 681.679 1178.34 675.504 1186.8 670.813Q1214.87 655.533 1242.59 639.631C1248.75 636.136 1256.81 633.011 1262.25 628.616Z"/>
	<path fill="#FEFEFE" transform="scale(0.999721 0.999721)" d="M1300.49 755.391C1301.47 755.31 1301.97 755.374 1302.91 755.573C1303.38 762.94 1304.42 796.797 1301.93 801.646C1299.66 804.521 1212.85 852.071 1200.66 857.655C1198.24 856.443 1201.3 815.908 1198.81 810.034C1205.83 807.908 1298.25 757.335 1300.49 755.391Z"/>
	<path fill="#FEFEFE" transform="scale(0.999721 0.999721)" d="M1301.09 700.059L1302.54 700.583C1303.66 705.78 1303.28 744.515 1301.49 747.914C1299.86 750.691 1209.19 798.591 1200.13 803.022C1196.89 798.58 1202.32 763.857 1198.76 755.522C1208.53 752.208 1226.65 740.626 1236.69 735.191L1278.96 712.329C1286.3 708.351 1294.15 704.646 1301.09 700.059Z"/>
	<path fill="#FEFEFE" transform="scale(0.999721 0.999721)" d="M1300.43 644.026L1302.06 644.367C1302.14 644.545 1302.24 644.717 1302.3 644.902C1303.61 648.925 1303.2 689.416 1301.66 693.145C1300.13 695.194 1210.46 742.916 1200.63 748.051L1200.47 748.049C1197.85 745.186 1201.66 709.403 1198.63 700.861C1206.72 697.855 1214.84 692.466 1222.4 688.261L1267.39 663.013C1275.66 658.359 1294.58 649.254 1300.43 644.026Z"/>
	<path fill="#45444B" transform="scale(0.999721 0.999721)" d="M1278.44 674.844C1279.25 674.664 1280.12 674.442 1280.95 674.401C1282.46 674.326 1283.14 674.573 1284.27 675.521L1284.04 677.228C1279.63 683.242 1233.34 708.749 1225.47 711.603C1225.13 711.84 1224.45 711.962 1224.04 712.083C1222.54 711.191 1222.19 711.257 1221.66 709.53C1224.48 702.638 1269.42 683.097 1278.44 674.844Z"/>
	<path fill="#FEFEFE" transform="scale(0.999721 0.999721)" d="M1071.01 655.925C1072.44 655.809 1073.6 655.702 1075.01 656.099C1089.82 660.277 1104.76 667.179 1119.11 672.755C1127.61 676.059 1142.97 680.711 1150.3 685.512C1150.54 686.098 1150.79 686.66 1150.97 687.269C1152.49 692.287 1152.04 732.888 1149.86 736.792C1145.68 733.854 1138.65 732.13 1133.74 730.734C1126.31 726.92 1112.42 723.235 1104 720.298Q1087.46 714.549 1070.97 708.635C1063.63 706.021 1055.93 702.656 1048.25 701.393C1050.49 697.6 1049.61 685.498 1050.64 680.344C1052.03 673.417 1056.42 665.225 1062.3 661.118C1064.95 659.272 1067.95 657.977 1070.64 656.173L1071.01 655.925Z"/>
	<path fill="#FEFEFE" transform="scale(0.999721 0.999721)" d="M1041.83 643.998C1042.3 643.897 1042.36 643.873 1042.9 643.822C1047.05 643.43 1062.1 649.303 1065.26 651.958C1062.88 655.591 1056 658.136 1052.77 662.436C1046.05 671.387 1044.34 682.267 1043.94 693.136C1043.8 696.977 1043.97 701.023 1043.09 704.777C1043.05 704.949 1043 705.12 1042.95 705.291C1056.13 708.412 1069.73 714.633 1082.59 719.088L1127.56 734.504C1134.45 736.871 1144.09 739.029 1150.11 742.919C1150.33 743.319 1150.59 743.73 1150.74 744.17C1152.03 748.007 1151.65 787.191 1150.16 790.868C1146.56 788.194 1128.57 783.074 1123.47 781.261Q1101.17 773.194 1079.05 764.653C1071.3 761.688 1063.37 758.049 1055.35 755.93C1055.48 755.651 1055.62 755.378 1055.73 755.094C1056.58 752.987 1056.78 723.517 1055.62 721.909C1054.6 720.479 1051.56 719.466 1049.89 718.887C1047.28 717.975 1044.33 716.896 1041.7 718.189C1037.49 726.61 1042.86 745.83 1040.16 755.968C1040.11 756.123 1040.06 756.275 1040.02 756.428C1042.87 757.058 1045.84 757.504 1048.31 759.152C1057.33 761.241 1070.13 767.558 1079.29 771Q1098.65 778.411 1118.11 785.536C1127.53 788.903 1141.77 792.349 1149.97 797.668C1150.2 798.08 1150.53 798.589 1150.69 799.056C1152.07 803.061 1151.56 841.004 1149.9 844.506C1148.3 842.783 1038.01 802.927 1023 797.256L1022.98 796.275L1022.65 722.155C1022.6 708.028 1021.69 693.38 1022.82 679.333C1023.31 673.189 1024.6 666.582 1026.95 660.867C1029.99 653.472 1036.12 650.082 1041.28 644.599C1041.46 644.401 1041.64 644.198 1041.83 643.998Z"/>
	<path fill="#45444B" transform="scale(0.999721 0.999721)" d="M1042.19 763.778C1045.92 763.437 1052.65 766.273 1055.68 768.362C1058.07 773.138 1057.07 792.059 1056.51 797.738C1056.28 800.03 1056.09 800.238 1054.42 801.644C1051.48 802.666 1043.41 797.982 1040.01 797.12C1044.38 787.449 1037.95 773.751 1042.19 763.778Z"/>
	<path fill="#FEFEFE" transform="scale(0.999721 0.999721)" d="M1045.81 771.466C1047.01 771.411 1048.02 771.297 1049.14 771.842C1050.07 772.297 1050.36 773.314 1050.63 774.25C1051.88 778.509 1051.94 789.462 1049.72 793.261C1049.03 794.016 1048.92 793.807 1047.94 793.87C1044.26 789.651 1047.49 777.343 1045.81 771.466Z"/>
	<path fill="#45444B" transform="scale(0.999721 0.999721)" d="M982.37 70.9776C985.29 70.775 988.283 70.6196 991.173 71.1919C1000.83 73.105 1027.87 85.2702 1038.71 89.5979C1058.54 97.5174 1078.24 105.767 1098.14 113.538C1117.6 121.141 1137.46 128.32 1156.61 136.657C1160.92 138.53 1164.41 141.722 1168.65 143.611C1182.2 149.647 1196.99 153.154 1210.25 159.908C1214.04 161.84 1217.27 164.622 1219.62 168.191C1221.67 171.313 1223.75 175.524 1224.23 179.254C1225.05 185.7 1224.86 324.096 1224.02 327.54C1222.74 332.877 1218.86 338.248 1214.08 340.948C1209.56 343.502 1204.19 345.077 1198.97 344.748C1184.58 343.84 1156.2 328.037 1140.05 323.516L1139.27 323.302C1140.79 326.521 1140.95 334.141 1140.01 337.589C1145.45 338.356 1152.82 340.795 1157.3 343.944C1157.52 344.341 1157.7 344.624 1157.85 345.039C1158.84 347.72 1159.13 353.171 1157.96 355.68C1155.8 360.296 1151.8 361.566 1147.37 363.163C1145.01 365.682 1105.13 384.594 1099.58 386.814C1096.66 387.981 1092.93 389.399 1089.77 389.514C1083.98 389.725 993.459 353.167 989.843 349.527C986.255 345.914 987.129 340.668 987.258 336.018Q1009.07 326.671 1030.71 316.931C1038.9 313.269 1047.83 309.882 1055.56 305.335C1055.91 304.755 1056.04 304.613 1056.22 303.864C1057.06 300.479 1056.97 292.86 1055.42 289.879C1050.05 286.068 1040.93 283.747 1034.66 281.28C1018.06 274.745 1001.38 268.339 984.869 261.566C975.543 257.74 965.512 252.044 961.733 242.108C959.482 236.19 960.049 109.584 960.783 93.9642C960.939 90.6413 961.119 86.5509 962.541 83.4931C965.875 76.3223 975.539 73.3972 982.37 70.9776Z"/>
	<path fill="#FEFEFE" transform="scale(0.999721 0.999721)" d="M1061.42 292.409C1065.23 292.413 1096.01 304.711 1099.28 307.161C1099.56 307.727 1099.8 308.298 1100 308.901C1101.35 313.039 1100.99 331.748 1099.06 335.57C1096.02 338.465 1091.07 340.108 1087.12 341.419C1084.85 343.737 1065.53 352.343 1060.83 354.407C1063.02 350.809 1062.06 300.05 1061.42 292.409Z"/>
	<path fill="#FEFEFE" transform="scale(0.999721 0.999721)" d="M1105.11 309.926C1108.98 309.747 1130.6 318.75 1134.18 321.169C1136.04 325.468 1136.1 338.757 1134.5 343.285C1138.93 343.89 1146.06 344.137 1149.42 347.335L1149.37 348.57C1141.79 353.75 1094.36 377.291 1088.42 376.045C1080.19 374.319 1072.19 370.571 1064.36 367.519L1018.26 349.034C1010.75 345.857 1002.52 343.017 995.516 338.871C1003.82 335.382 1050.33 315.44 1055.39 311.352C1059.98 319.677 1053.08 350.552 1057.24 359.428C1058.19 359.718 1058.76 359.767 1059.76 359.658C1065.31 359.054 1101.67 342.625 1104.62 338.941C1107 333.904 1106.05 315.619 1105.11 309.926Z"/>
	<path fill="#FEFEFE" transform="scale(0.999721 0.999721)" d="M975.22 80.5256C983.411 80.8752 1082.54 122.419 1098.16 128.664L1170.18 157.563C1180.17 161.669 1190.96 165.279 1200.5 170.281C1204.63 172.452 1207.88 175.953 1209.21 180.48C1212.42 191.357 1210.67 205.86 1210.63 217.224L1210.51 262.034C1210.51 282.641 1211.66 303.876 1210.5 324.398C1210.32 327.583 1209.94 331.056 1208.31 333.86C1206.71 336.616 1204.68 337.972 1201.68 338.864C1199.76 339.324 1198.17 339.014 1196.32 338.423C1184.79 334.736 1173.4 329.845 1162.1 325.468L1079.5 292.537L1012.02 265.936C1000.97 261.542 988.709 257.634 978.261 252.022C974.476 249.989 969.068 244.985 967.335 241.03C966.202 238.443 966.113 234.17 966.001 231.365C964.999 206.275 966.077 180.67 966.219 155.527C966.332 135.659 965.412 115.417 966.324 95.615C966.48 92.2279 966.937 88.2397 968.528 85.1954C970.046 82.2893 972.324 81.5072 975.22 80.5256Z"/>
	<path fill="#45444B" transform="scale(0.999721 0.999721)" d="M981.851 115.936C984.056 116.131 986.365 116.899 988.417 117.708C1027.38 133.067 1065.89 149.753 1104.69 165.54C1115.97 170.13 1185.38 196.547 1189.43 200.073C1190.29 201.374 1190.26 202.587 1190.32 204.074C1191.19 227.198 1190.27 250.608 1190.36 273.767C1190.39 283.451 1191.81 308.284 1190.09 316.107C1189.69 317.928 1188.92 318.083 1187.48 319.039C1176.44 316.543 1165.01 311.087 1154.48 306.866L1108.95 288.882L1030.07 257.464C1017.46 252.455 991.422 243.589 981.059 236.247C980.03 224.437 979.832 120.412 981.851 115.936Z"/>
	<path fill="#FEFEFE" transform="scale(0.999721 0.999721)" d="M986.427 123.263L1102.39 170.963L1157.62 193.097C1164.85 195.993 1177.73 199.657 1183.72 204.216C1183.9 204.562 1184.2 205.113 1184.32 205.515C1185.69 210.064 1185.19 296.883 1184.64 307.522C1184.57 308.972 1184.31 310.023 1183.68 311.336C1177.81 311.118 1114.55 284.639 1102.65 279.836L986.399 233.034L986.427 123.263Z"/>
	<path fill="#F5B534" transform="scale(0.999721 0.999721)" d="M1104.97 199.702C1110.15 200.193 1135.17 209.288 1138.24 212.187C1136.47 215.21 1138.87 218.54 1136.76 222.189C1137.36 220.148 1137.73 217.147 1136.75 215.182C1136.67 215.036 1136.56 214.911 1136.47 214.775C1128.14 210.472 1117.27 205.852 1108.06 203.941C1110.02 207.383 1109.94 243.67 1108.83 247.892C1108.64 248.631 1108.62 248.612 1108.35 249.196C1112.78 250.379 1134.22 259.905 1136.45 259.222C1135.83 261.039 1135.6 261.286 1134.24 262.495C1125.67 257.964 1114.33 254.245 1104.97 251.613C1105.24 251.141 1105.37 250.954 1105.55 250.383C1106.7 246.657 1106.56 207.563 1105.98 202.429C1105.87 201.456 1105.45 200.546 1104.97 199.702Z"/>
	<path fill="#FEFEFE" transform="scale(0.999721 0.999721)" d="M1108.06 203.941C1117.27 205.852 1128.14 210.472 1136.47 214.775C1136.56 214.911 1136.67 215.036 1136.75 215.182C1137.73 217.147 1137.36 220.148 1136.76 222.189C1138.81 227.121 1138.12 253.662 1136.45 259.222C1134.22 259.905 1112.78 250.379 1108.35 249.196C1108.62 248.612 1108.64 248.631 1108.83 247.892C1109.94 243.67 1110.02 207.383 1108.06 203.941Z"/>
	<path fill="#F5B534" transform="scale(0.999721 0.999721)" d="M1138.24 212.187C1146.15 213.654 1156.95 217.163 1164.11 220.935C1165.91 224.773 1166.11 266.926 1164.74 271.491C1164.5 272.266 1164.05 272.994 1163.67 273.705C1157.93 269.99 1140.98 264.243 1134.24 262.495C1135.6 261.286 1135.83 261.039 1136.45 259.222C1138.12 253.662 1138.81 227.121 1136.76 222.189C1138.87 218.54 1136.47 215.21 1138.24 212.187Z"/>
	<path fill="#F5B534" transform="scale(0.999721 0.999721)" d="M1000.03 155.109C1007.89 157.045 1035.57 166.266 1040.9 170.802C1045.68 171.841 1065.44 178.374 1068.63 181.385C1070.04 183.854 1070.22 226.009 1069.23 230.575C1069.06 231.404 1068.65 232.018 1068.18 232.708Q1059.53 229.88 1051 226.735C1044.84 224.186 1005.57 210.638 1002.64 207.72C1001.04 206.126 1000.33 204.093 999.933 201.914C998.466 193.881 999.937 165.323 1000.03 155.109Z"/>
	<path fill="#FEFEFE" transform="scale(0.999721 0.999721)" d="M1002.96 158.917C1014.98 162.839 1026.84 167.797 1038.65 172.337C1045.07 174.716 1061.07 179.221 1065.51 183.483C1067.48 186.974 1067.72 221.916 1066.27 226.926C1066.06 227.675 1065.7 228.309 1065.29 228.969C1062.47 226.992 1058.35 225.832 1054.94 225.452C1053.26 222.874 1010.01 207.93 1002.88 205.124C1002.49 189.729 1003.3 174.323 1002.96 158.917Z"/>
	<path fill="#45444B" transform="scale(0.999721 0.999721)" d="M304.015 396.201C306.458 398.697 308.571 402.247 309.869 405.481C313.769 415.193 310.95 424.414 307.076 433.566C309.342 439.756 306.906 446.267 308.77 452.288C310.025 456.341 315.025 460.565 314.383 465.004C313.045 467.042 310.838 467.734 308.694 468.715C308.618 474.479 308.455 480.571 306.624 486.081C305.123 490.598 302.323 494.257 297.985 496.397C290.992 499.847 282.323 497.936 275.325 495.625C273.281 498.914 271.047 502.079 268.845 505.263C273.203 509.543 278.357 512.746 282.003 517.773C291.062 530.266 302.636 573.17 308.047 590.196C318.099 585.115 327.827 578.643 337.498 572.845C330.518 572.758 317.767 575.453 312.255 570.743L313.116 569.414L312.424 570.421L312.126 569.731C313.373 561.408 343.858 488.686 347.916 485.94C352.577 482.788 404.57 483.406 411.23 485.508C414.535 488.77 414.382 494.787 414.858 499.206C409.547 511.003 403.524 522.581 397.948 534.267C393.474 543.642 389.346 553.559 384.332 562.638C382.905 565.221 379.593 566.706 378.284 568.997C377.12 571.031 377.746 573.948 376.89 576.152C376.735 576.552 376.471 577.016 376.227 577.367C371.556 584.075 362.293 584.669 355.861 588.808C351.739 591.461 347.981 594.823 343.976 597.679Q331.648 606.306 319.211 614.774C314.722 617.84 309.986 621.566 304.927 623.587C301.953 624.775 298.224 625.693 295.202 624.177C287.188 620.159 278.468 588.434 275.448 579.213C274.984 590.267 274.662 601.888 275.624 612.91C276.889 627.394 279.941 641.916 282.084 656.297C283.877 668.335 285.141 680.581 287.419 692.526C288.736 699.425 291.128 706.043 292.389 712.942C289.926 715.911 284.587 714.928 281.571 718.459C280.703 720.5 280.646 721.892 280.848 724.087C281.809 722.583 282.026 721.954 283.656 721.148L285.676 721.94C286.823 720.189 287.834 718.777 289.418 717.399L290.497 717.792C290.662 718.197 290.887 718.709 291.014 719.143C292.68 724.81 292.974 731.991 289.976 737.28C288.862 739.243 287.331 741.111 285.09 741.726C285.069 741.732 283.986 741.99 283.91 742.03C281.988 743.049 286.324 764.715 286.92 767.8C290.495 786.302 295.985 804.788 298.428 823.451C300.131 836.464 303.492 940.67 301.108 946.44Q299.337 947.043 297.546 947.581L297.097 949.365C299.123 952.201 329.606 954.854 335.302 955.942C338.462 956.546 341.699 957.224 343.61 960.033C343.855 962.876 343.43 965.803 341.914 968.271C337.505 975.447 320.622 977.23 312.799 979.01C296.362 982.791 281.273 985.137 265.765 976.898C266.107 972.204 266.308 967.352 267.277 962.743C268.034 959.141 269.653 955.026 269.9 951.406C269.957 950.583 269.787 950.049 269.564 949.267C268.096 947.468 266.876 947.601 264.713 947.163C260.805 942.838 259.213 856.641 255.921 842.049C254.219 834.507 250.164 827.826 246.512 821.1C239.618 828.046 233.792 836.58 227.554 844.151Q210.702 864.308 193.546 884.207C185.952 893.082 178.565 902.441 170.258 910.654L163.74 906.112L155.232 917.588C155.67 925.714 157.146 934.976 161.056 942.154C166.267 945.758 176.665 948.363 178.754 954.731C179.554 957.17 180.019 960.53 178.642 962.853C177.51 964.764 175.374 965.623 173.293 966.056C163.363 968.122 141.444 967.378 133.029 961.999C120.1 953.735 116.947 931.357 114.046 917.464C119.129 906.71 128.351 903.513 136.622 896.244C138.749 894.375 140.412 891.681 142.039 889.376Q140.606 887.723 139.236 886.016C139.548 880.2 188.646 815.225 196.151 806.629C193.94 774.608 190.25 742.618 187.515 710.625C185.915 710.041 183.594 709.456 182.401 708.206C181.663 707.432 181.832 707.17 181.922 706.165C182.403 700.821 184.061 695.094 185.122 689.811L191.279 658.353Q200.433 611.844 210.463 565.517C213.414 551.8 215.3 535.985 220.474 523.026C223.431 515.62 228.629 510.15 234.578 505.036C216.791 497.947 207.364 486.302 197.653 470.456C207.773 466.778 218.341 463.442 224.467 453.951C225.114 444.125 226.238 433.969 230.772 425.085C235.694 415.441 244.038 408.515 254.373 405.322C268.983 400.808 282.113 404.439 295.153 411.376C298.473 406.652 301.162 401.233 304.015 396.201Z"/>
	<path fill="#FEFEFE" transform="scale(0.999721 0.999721)" d="M275.573 948.334C279.876 948.477 285.126 947.422 289.273 948.52C290.875 948.943 290.882 949.172 291.636 950.548C291.472 952.206 291.163 953.21 290.453 954.719C287.813 955.618 285.031 956.271 282.283 956.737C279.995 957.125 278.781 956.772 276.922 955.456C275.248 953.279 275.559 950.951 275.573 948.334Z"/>
	<path fill="#FEFEFE" transform="scale(0.999721 0.999721)" d="M146.674 892.043Q153.237 897.467 159.956 902.696L152.688 910.75C150.143 910.784 143.043 902.832 140.718 900.642C143.129 897.904 144.919 895.24 146.674 892.043Z"/>
	<path fill="#FEFEFE" transform="scale(0.999721 0.999721)" d="M322.971 554.363C325.533 556.175 327.616 558.5 329.778 560.757C333.054 560.417 336.998 559.796 340.16 560.779L340.469 563.073C342.341 564.325 345.68 563.687 348.027 564.03L348.908 565.276L348.253 566.626L346.637 567.102Q332.257 567.445 317.873 567.389C319.49 563.02 321.267 558.699 322.971 554.363Z"/>
	<path fill="#FEFEFE" transform="scale(0.999721 0.999721)" d="M359.917 553.668C360.412 553.876 360.579 553.926 361.08 554.252C362.904 555.438 363.002 556.175 363.499 558.181C364.427 561.922 368.87 564.821 371.454 567.619C373.034 569.329 373.462 570.372 373.402 572.688C370.765 576.514 361.621 579.544 357.331 581.573L351.708 583.917L345.273 575.46C357.615 571.705 354.318 563.308 359.917 553.668Z"/>
	<path fill="#FEFEFE" transform="scale(0.999721 0.999721)" d="M137.585 904.147C141.984 908.174 145.983 913.244 150.07 917.629C150.7 926.258 151.113 937.953 156.121 945.266C159.951 950.857 171.79 951.531 174.179 958.365L173.047 959.507C170.255 960.676 167.335 960.406 164.371 960.345C161.914 960.391 159.483 960.423 157.076 959.83C141.133 955.904 139.62 935.812 135.012 922.877C133.382 918.3 130.967 914.242 128.482 910.096C131.315 907.856 134.513 906.041 137.585 904.147Z"/>
	<path fill="#FEFEFE" transform="scale(0.999721 0.999721)" d="M298.006 956.896C301.789 956.853 336.433 961.823 338.047 962.887C337.918 963.814 337.954 964.376 337.416 965.18C335.045 968.725 315.218 972.6 310.01 973.866C296.502 976.595 285.064 977.981 271.566 974.238C272.142 969.674 272.477 965.065 272.901 960.484C283.132 963.216 288.758 961.518 298.006 956.896Z"/>
	<path fill="#FEFEFE" transform="scale(0.999721 0.999721)" d="M302.416 439.085C303.561 443.248 301.748 447.423 302.573 451.441C303.248 454.732 306.242 457.587 307.218 460.754C307.889 462.93 305.86 463.259 304.886 464.8C303.518 466.965 304.128 470.7 302.339 473.195C299.728 476.837 294.572 470.74 290.596 471.301C289.051 472.46 288.252 473.147 287.522 474.957C288.937 478.895 296.812 479.215 300.334 481.388C301.843 482.318 301.979 483.091 302.26 484.745C301.476 487.165 299.779 489.319 297.748 490.863C290.347 496.492 281.049 490.069 273.549 488.723C270.572 491.234 268.464 495.789 266.237 499.045C266.032 499.301 265.87 499.598 265.622 499.813C264.197 501.052 258.495 498.645 256.58 498.039C261.785 493.049 270.242 480.167 272.452 473.234C273.382 470.316 263.707 466.026 262.068 462.474C261.5 461.242 261.44 459.873 261.98 458.606C262.723 456.859 264.334 455.393 266.155 454.852C267.784 454.367 267.975 454.539 269.477 455.331C270.196 456.799 270.73 458.213 272.082 459.215C280.787 457.008 296.036 445.405 302.416 439.085Z"/>
	<path fill="#45444B" transform="scale(0.999721 0.999721)" d="M298.308 444.403C298.733 444.628 298.911 444.704 299.327 445.023C300.655 446.036 301.246 447.261 301.242 448.949C301.235 451.054 299.761 452.807 298.47 454.309C297.91 454.037 297.56 453.892 297.033 453.505C295.92 452.687 295.472 451.684 295.329 450.355C295.075 447.994 296.898 446.071 298.308 444.403Z"/>
	<path fill="#FEFEFE" transform="scale(0.999721 0.999721)" d="M325.653 548.94C329.597 538.581 345.115 497.076 351.491 491.092C359.226 487.755 395.073 489.962 406.188 490.325C401.347 503.931 385.642 538.898 377.688 550.143C381.973 541.417 398.675 507.538 399.502 499.731C399.681 498.036 399.392 496.136 398.198 494.84C394.261 490.562 362.794 492.515 355.422 492.575C355.199 494.213 354.883 495.298 354.095 496.757C365.09 498.495 383.723 497.329 395.388 497.395C391.572 508.22 379.266 540.107 371.33 546.506C366.385 550.493 365.957 546.512 361.262 546.032C356.977 547.715 353.239 552.551 350.139 555.861L333.456 555.488C330.688 553.473 328.186 551.24 325.653 548.94Z"/>
	<path fill="#45444B" transform="scale(0.999721 0.999721)" d="M354.095 496.757C349.729 505.096 346.859 514.166 342.581 522.59L343.662 523.515L342.29 522.838L341.547 524.405L339.729 523.148C338.713 520.072 346.486 501.585 348.453 497.915C350.108 494.826 352.167 493.637 355.422 492.575C355.199 494.213 354.883 495.298 354.095 496.757Z"/>
	<path fill="#45444B" transform="scale(0.999721 0.999721)" d="M347.369 518.39C356.4 518.303 371.009 516.822 379.313 518.706C380.424 520.391 380.144 520.925 380.018 522.889C369.895 523.052 358.636 524.171 348.655 522.717C347.291 521.102 347.506 520.452 347.369 518.39Z"/>
	<path fill="#45444B" transform="scale(0.999721 0.999721)" d="M352.199 505.749C362.156 505.729 375.635 504.43 385.062 506.572C386.081 508.18 385.908 509.424 386.019 511.303C375.164 509.464 362.83 512.84 352.325 510.199C351.291 508.385 351.788 507.745 352.199 505.749Z"/>
	<path fill="#45444B" transform="scale(0.999721 0.999721)" d="M336.729 531.066C349.096 530.835 361.983 530.428 374.312 531.213C375.122 533.114 374.377 533.921 373.692 535.819C365.794 535.971 344.98 536.645 337.989 535.274C336.673 533.716 336.875 533.056 336.729 531.066Z"/>
	<path fill="#F5B534" transform="scale(0.999721 0.999721)" d="M193.552 713.13C225.252 723.719 244.461 726.919 277.242 718.838C277.504 742.225 280.253 763.809 284.973 786.669C287.446 798.647 290.817 810.596 292.397 822.729C294.506 838.925 293.748 855.797 294.201 872.118C294.84 895.172 296.304 918.412 296.058 941.468C287.047 942.38 277.917 942.093 268.878 941.906Q267.101 907.924 264.774 873.976C263.942 862.225 264.164 848.068 260.821 836.797C257.643 826.083 250.914 815.515 245.866 805.514L214.907 744.532C211.766 738.345 208.586 729.422 204.05 724.325C202.838 722.962 202.241 722.561 200.478 722.431L199.166 723.903C198.724 725.904 199.032 727.348 199.762 729.26C202.871 737.404 208.134 745.589 212.097 753.451L243.653 815.4C235.446 824.24 228.087 834.182 220.369 843.476C203.705 863.541 186.814 883.84 169.133 903.005C161.905 896.858 154.71 890.475 146.921 885.046Q164.426 858.187 183.419 832.36C186.723 827.903 190.115 822.132 194.127 818.364C196.283 816.339 198.88 815.586 201.639 814.738C202.798 812.507 202.647 809.884 202.583 807.427C202.168 791.4 199.69 775.032 198.095 759.073C196.572 743.834 195.84 728.255 193.552 713.13Z"/>
</svg>
