<?xml version="1.0" encoding="utf-8" ?>
<svg xmlns="http://www.w3.org/2000/svg" xmlns:xlink="http://www.w3.org/1999/xlink" width="1434" height="1024">
	<path fill="#F6F3E7" transform="scale(0.999721 0.999721)" d="M0 0L1432.77 0C1433.55 1.35287 1433.84 2.273 1433.92 3.82991C1434.39 14.2948 1434 24.9358 1434 35.4235L1434 96.5893L1434.01 282.797L1434 835.994L1434 973.892C1434.01 983.184 1435.15 1015.65 1433.74 1021.9C1433.56 1022.7 1433.19 1023.31 1432.77 1024L0 1024L0 0Z"/>
	<path fill="#B72823" transform="scale(0.999721 0.999721)" d="M973.475 428.799C974.573 428.937 975.711 429.071 976.776 429.384C978.934 430.019 980.994 431.586 982.054 433.583C982.943 435.255 983.214 437.025 982.633 438.844C981.64 441.949 979.278 443.504 976.486 444.849C974.804 444.611 972.982 444.426 971.368 443.885C969.245 443.173 967.402 441.324 966.494 439.304C965.679 437.49 965.695 435.862 966.536 434.061C967.984 430.955 970.501 429.959 973.475 428.799Z"/>
	<path fill="#B72823" transform="scale(0.999721 0.999721)" d="M967.717 447.639L981.581 447.319C981.39 463.001 982.353 479.007 981.263 494.632C976.773 494.922 972.145 494.587 967.644 494.486Q967.459 471.062 967.717 447.639Z"/>
	<path fill="#B72823" transform="scale(0.999721 0.999721)" d="M898.194 447.117C901.096 446.96 907.691 445.988 910.225 447.564C911.162 448.146 911.037 449.191 911.222 450.223L911.84 450.582Q913.178 449.448 914.568 448.38C916.392 446.989 917.9 446.049 920.269 446.452C921.991 446.744 923.365 447.685 924.277 449.18C925.772 451.634 926.01 455.248 925.116 457.945C923.027 464.252 918.521 460.857 914.182 462.921C911.043 466.78 912.262 474.614 912.287 479.431C912.364 482.737 912.571 486.17 912.342 489.468C912.224 491.161 911.734 492.845 910.348 493.909C907.534 496.069 901.2 494.706 897.747 494.375C897.659 484.308 896.074 454.895 898.194 447.117Z"/>
	<path fill="#B72823" transform="scale(0.999721 0.999721)" d="M420.367 429.427C423.896 429.248 431.405 428.145 434.334 429.947C435.171 430.462 435.039 430.596 435.233 431.516C436.605 438.008 436.847 484.576 435.795 491.476C435.589 492.828 435.078 493.912 434.351 495.054C430.111 495.28 424.323 496.124 420.359 494.422C420.23 494.11 420.061 493.74 419.97 493.405C418.603 488.387 418.602 438.872 419.204 433.166C419.35 431.788 419.715 430.641 420.367 429.427Z"/>
	<path fill="#B72823" transform="scale(0.999721 0.999721)" d="M802.261 447.063C806.767 446.895 811.296 446.929 815.805 446.874C818.887 454.985 821.773 463.019 825.553 470.844L833.725 447.062C837.319 446.967 842.536 446.246 845.906 447.337C847.623 447.893 848.033 448.356 848.77 449.951C848.364 454.72 844.358 461.118 842.36 465.649C837.962 475.264 834.573 485.308 830.003 494.842L819.564 495.029C815.721 486.378 812.306 477.448 808.637 468.713C806.323 463.203 803.189 457.251 801.547 451.528C800.927 449.366 801.183 448.854 802.261 447.063Z"/>
	<path fill="#B72823" transform="scale(0.999721 0.999721)" d="M940.505 446.332C949.192 446.094 953.597 447.272 960.925 451.97C959.288 455.761 956.933 459.297 954.813 462.835C950.527 460.911 946.632 458.917 941.91 460.479C940.671 460.888 940.748 460.918 940.169 462.075C943.14 466.268 951.516 464.862 955.895 467.436C959.089 469.313 961.462 473.067 962.219 476.666C962.983 480.295 961.941 483.838 959.84 486.827C956.156 492.071 950.836 494.5 944.732 495.652C943.619 495.664 942.571 495.579 941.468 495.433C936.272 494.748 929.255 493.542 925.874 489.111C925.153 485.577 928.454 481.382 930.196 478.27C933.986 480.113 938.936 482.909 943.216 482.959C945.038 482.981 945.707 482.428 947.001 481.251L946.989 479.749C943.835 476.357 937.219 475.935 933.078 474.044C930.265 472.76 927.277 470.727 926.24 467.677C924.863 463.625 926.875 458.109 928.862 454.517C931.507 449.737 935.471 447.745 940.505 446.332Z"/>
	<path fill="#B72823" transform="scale(0.999721 0.999721)" d="M1058.5 446.506C1062.74 446.095 1066.93 446.394 1070.57 448.858C1074.09 451.233 1075.99 455.116 1076.87 459.154C1077.99 464.332 1078.81 490.724 1076.42 494.468C1071.82 495.103 1066.95 494.711 1062.31 494.619C1062.46 494.347 1062.63 494.082 1062.77 493.804C1064.7 490.035 1064.18 468.79 1062.52 464.421C1061.6 461.986 1060.67 461.299 1058.46 460.256C1056.22 460.19 1054.87 460.859 1052.91 461.905C1049.02 470.548 1054.73 487.867 1050.38 494.704C1046.03 495.143 1041.53 494.797 1037.16 494.677C1039.05 490.989 1037.45 460.461 1037.53 453.804C1037.56 451.381 1037.31 448.422 1039.11 446.663C1042.56 446.312 1046.73 445.916 1049.84 447.681C1050.01 448.627 1050.14 449.257 1050.7 450.053C1053.26 448.682 1055.78 447.541 1058.5 446.506Z"/>
	<path fill="#B72823" transform="scale(0.999721 0.999721)" d="M780.419 446.33C785.039 446.434 789.474 447.248 792.881 450.647C801.087 458.836 797.923 483.727 797.675 494.846C794.032 495.067 788.209 496.015 784.953 494.16C780.574 487.478 785.279 474.237 783.217 466.19C782.784 464.499 781.982 462.915 780.331 462.142C778.195 461.141 776.129 461.554 773.991 462.25C768.557 469.027 771.934 479.556 771.955 487.497C771.961 489.699 771.442 491.926 769.78 493.472C766.795 496.251 761.239 495.098 757.464 494.837C757.054 479.029 757.343 463.011 757.677 447.2C761.714 446.967 766.478 446.392 770.418 447.284L771.274 449.246C772.977 449.631 777.616 447.095 779.72 446.516L780.419 446.33Z"/>
	<path fill="#B72823" transform="scale(0.999721 0.999721)" d="M866.195 447.024C868.574 446.727 870.952 446.574 873.35 446.667C878.328 446.858 883.299 449.08 886.66 452.774C892.641 459.348 892.941 468.085 892.547 476.477C884.664 476.381 876.513 475.914 868.665 476.422C867.182 476.518 865.654 476.428 864.648 477.57C864.946 478.195 864.944 478.263 865.447 478.894C871.123 486.006 877.468 479.568 884.295 479.909C886.278 480.701 887.193 482.623 888.328 484.337C889.593 485.956 890.35 486.52 890.541 488.6C889.08 490.594 886.99 491.656 884.787 492.683C878.345 495.686 870.782 496.447 864.053 493.916Q863.525 493.714 863.009 493.486Q862.492 493.258 861.987 493.005Q861.483 492.751 860.992 492.472Q860.5 492.194 860.024 491.89Q859.547 491.587 859.087 491.261Q858.626 490.934 858.182 490.584Q857.739 490.235 857.313 489.864Q856.888 489.492 856.481 489.1Q856.075 488.708 855.689 488.295Q855.303 487.883 854.938 487.452Q854.573 487.021 854.23 486.572Q853.888 486.123 853.568 485.657Q853.248 485.191 852.952 484.71Q852.656 484.229 852.385 483.734Q852.114 483.238 851.868 482.73Q851.622 482.221 851.402 481.701C848.58 475.17 848.726 467.424 851.357 460.861C854.261 453.616 859.217 449.966 866.195 447.024Z"/>
	<path fill="#F6F3E7" transform="scale(0.999721 0.999721)" d="M870.34 460.134C871.603 460.083 873.332 459.975 874.495 460.533C876.264 461.381 877.16 462.265 877.94 463.994C876.625 465.463 875.933 465.125 874.019 465.245C871.37 465.321 868.884 465.432 866.281 464.842C865.517 464.669 865.568 464.404 865.168 463.774C866.464 461.932 868.394 461.153 870.34 460.134Z"/>
	<path fill="#B72823" transform="scale(0.999721 0.999721)" d="M1007.1 446.305C1011.66 446.097 1016.2 446.675 1020.24 448.947C1025.5 451.912 1028.93 456.937 1030.53 462.696C1032.51 469.799 1031.92 478.173 1028.16 484.61C1024.46 490.959 1019.13 493.594 1012.25 495.332C1007.63 495.277 1002.92 494.676 998.808 492.452C993.355 489.5 989.597 484.543 987.963 478.583C986.131 471.902 987.071 463.722 990.518 457.701C994.258 451.168 1000.04 448.141 1007.1 446.305Z"/>
	<path fill="#F6F3E7" transform="scale(0.999721 0.999721)" d="M1008.26 460.091C1009.4 460.108 1010.63 460.103 1011.73 460.432C1013.58 460.982 1014.85 462.383 1015.73 464.038C1017.75 467.827 1017.77 472.102 1016.29 476.09C1015.1 479.32 1013.46 480.49 1010.39 481.863C1010.07 481.817 1009.75 481.776 1009.43 481.726C1006.97 481.339 1005.18 480.756 1003.73 478.585C1001.49 475.226 1001.18 471.375 1002.19 467.541C1003.22 463.67 1005 462.071 1008.26 460.091Z"/>
	<path fill="#B72823" transform="scale(0.999721 0.999721)" d="M727.065 446.298C732.19 446.218 737.087 447.007 741.458 449.857C746.929 453.425 750.262 459.41 751.493 465.725C752.826 472.563 751.738 480.148 747.775 485.974C743.819 491.791 738.561 494.421 731.825 495.744C726.257 496.172 720.428 494.882 715.843 491.622C710.431 487.775 707.397 481.838 706.389 475.368C705.296 468.347 706.411 460.891 710.764 455.122C715.007 449.499 720.296 447.321 727.065 446.298Z"/>
	<path fill="#F6F3E7" transform="scale(0.999721 0.999721)" d="M724.995 460.907L725.449 460.869C728.648 460.631 731.328 460.891 733.796 463.192C735.774 465.036 736.761 467.471 736.801 470.159C736.868 474.694 734.94 477.708 731.899 480.779C731.573 480.854 731.248 480.936 730.92 481.005C728.635 481.483 726.266 481.124 724.381 479.692C722.308 478.117 721.348 475.482 721.097 472.97C720.624 468.233 721.957 464.539 724.995 460.907Z"/>
	<path fill="#B72823" transform="scale(0.999721 0.999721)" d="M681.375 427.549C687.558 427.693 697.026 429.059 701.525 433.762C702.819 435.115 703.532 436.739 703.333 438.628C702.836 443.333 697.6 447.456 694.14 450.258C692.839 449.031 691.519 447.765 690.092 446.687C686.878 444.259 682.106 442.948 678.134 443.746C674.409 444.494 671.397 446.854 669.354 450.004C666.254 454.782 665.379 461.186 666.582 466.706C667.93 472.89 671.253 476.421 676.466 479.749C678.253 479.958 680.044 480.137 681.846 480.13C688.016 480.103 691.485 477.498 695.635 473.342C697.564 475.402 699.804 477.183 701.941 479.023C703.574 480.608 704.608 481.634 705.29 483.833C705.125 485.59 704.76 486.674 703.637 488.071C699.5 493.217 691.033 495.12 684.796 495.55C676.069 496.152 667.161 494.437 660.466 488.484C653.633 482.407 650.538 473.403 650.01 464.458C649.4 454.136 651.434 444.698 658.467 436.857C664.661 429.951 672.389 427.953 681.375 427.549Z"/>
	<path fill="#B72823" transform="scale(0.999721 0.999721)" d="M601.221 429.332C606.602 429.035 611.929 429.165 617.312 429.312C617.74 438.865 615.603 461.262 618.278 468.79C620.266 469.008 621.542 469.189 623.229 470.298C624.062 471.607 624.487 472.749 624.663 474.303C624.958 476.9 625.211 480.638 623.479 482.73C621.967 483.108 620.691 483.214 619.131 483.211L618.578 483.207C615.98 486.166 618.12 489.304 617.694 492.822C616.213 494.316 615.487 494.611 613.369 494.916C609.87 495.419 604.419 495.286 601.509 493.244L601.637 483.282C594.408 483.448 583.234 485.1 576.603 482.765C575.525 481.686 574.933 480.919 574.761 479.361C574.367 475.787 575.534 471.861 576.935 468.615C579.193 463.382 582.882 458.583 585.864 453.736C590.873 445.594 595.505 436.995 601.221 429.332Z"/>
	<path fill="#F6F3E7" transform="scale(0.999721 0.999721)" d="M600.95 455.024C601.042 455.338 601.153 455.646 601.226 455.964C602.111 459.807 602.48 464.774 600.523 468.257C598.231 469.597 596.618 469.173 594.028 469.1C593.709 465.762 599.156 458.145 600.95 455.024Z"/>
	<path fill="#B72823" transform="scale(0.999721 0.999721)" d="M496.366 429.358Q505.055 429.143 513.746 429.254C519.927 440.738 523.723 454.797 527.796 467.205C532.388 456.336 534.725 443.945 539.92 433.515C541.007 431.332 541.744 430.749 544.062 430.046C547.572 428.98 554.925 428.016 558.2 429.875C559.368 435.217 553.763 445.968 551.711 451.253C546.162 465.727 541.475 480.755 535.123 494.879C530.191 495.217 525.24 495.013 520.302 494.906C516.186 482.163 496.736 438.641 496.366 429.358Z"/>
	<path fill="#B72823" transform="scale(0.999721 0.999721)" d="M446.632 429.445C458.98 428.965 480.163 426.473 489.675 435.425C493.559 439.081 495.499 444.188 495.552 449.478C495.606 454.953 493.704 460.1 489.846 464.02C484.381 469.573 477.631 470.523 470.182 470.617L461.121 470.546C461.174 475.756 462.958 489.937 460.365 493.791C457.364 495.333 453.926 495.437 450.614 495.202C448.195 495.031 446.454 494.736 444.858 492.861C443.675 484.154 443.531 442.959 444.667 434.425C444.926 432.475 445.592 431.102 446.632 429.445Z"/>
	<path fill="#F6F3E7" transform="scale(0.999721 0.999721)" d="M461.34 445.212C465.408 445.169 470.418 444.63 474.353 445.643C476.477 446.19 477.107 447.123 478.096 448.903C478.417 451.301 477.644 452.745 476.591 454.82C472.205 456.491 466.02 455.759 461.366 455.706L461.34 445.212Z"/>
	<path fill="#DE5348" transform="scale(0.999721 0.999721)" d="M1323.51 42.6739C1332.07 37.6343 1322.57 31.5839 1340.62 30.6053C1344.14 30.4147 1348.39 30.2013 1351.82 31.1127C1353.19 31.4769 1354.03 32.2893 1354.91 33.3493C1355.74 35.9972 1355.73 39.6706 1358.41 41.0179C1359.09 41.361 1359.79 41.6552 1360.5 41.947L1360.99 42.6686C1366.59 44.0692 1368.96 46.286 1374.78 44.0197C1380.07 44.5361 1385.99 51.1884 1389.16 55.0813C1391.14 57.5205 1394.46 62.0181 1394.13 65.2944C1393.92 67.3401 1392.75 68.2371 1391.23 69.3138C1390.49 74.3816 1394.1 81.8275 1392.38 86.1262C1394.73 87.2411 1398 88.4865 1399.3 90.8375C1401.24 95.2234 1398.76 103.989 1397.14 108.322C1396.45 110.16 1395.5 112.327 1393.63 113.203C1390.73 114.559 1387.2 113.663 1384.49 115.594C1383.96 118.568 1380.64 121.266 1378.21 122.866C1377.98 123.017 1377.74 123.156 1377.51 123.301C1378.6 125.852 1378.77 129.198 1377.61 131.765C1376.65 133.887 1375.12 135.163 1372.93 135.856C1372.8 135.896 1372.67 135.919 1372.55 135.951C1370.89 138.07 1367.06 140.42 1364.43 140.841C1359.64 141.606 1355.43 137.39 1350.92 138.527C1350.67 138.59 1350.42 138.636 1350.17 138.701C1340.03 141.346 1342.87 146.508 1330.27 142.977C1318.71 139.756 1323.89 138.615 1319.02 130.741C1318.93 130.596 1318.83 130.455 1318.74 130.312C1317.62 126.717 1308.64 120.589 1305.35 118.45C1300.29 118.432 1298.24 118.452 1294.45 114.952C1294.36 113.963 1294.47 114.32 1294.12 113.469C1291.76 107.734 1290.97 99.3128 1287.59 94.5054C1290.01 93.2027 1293.12 91.007 1294.22 88.4386C1294.34 88.273 1294.48 88.12 1294.58 87.9419C1296.22 84.9881 1296.41 76.8151 1295.4 73.5966C1295.57 70.8709 1292.49 69.3797 1292.37 66.8992C1291.99 59.13 1301.78 52.485 1306.07 46.9007L1306.66 46.1208C1309.4 46.3482 1311.74 47.2272 1314.29 48.1562C1317.57 46.7825 1320.54 44.6107 1323.51 42.6739Z"/>
	<path fill="#F6F3E7" transform="scale(0.999721 0.999721)" d="M1325.68 44.9209C1331.29 43.6359 1329.68 39.5032 1333.05 36.4173C1336.99 32.7989 1345.61 34.4248 1350.58 34.743C1352.39 36.808 1352.31 39 1353.44 41.3238C1354.38 43.231 1355.42 43.4716 1357.25 44.1858C1361.48 45.3152 1364.85 48.0321 1368.89 49.2666C1371.66 50.1117 1373.63 48.0851 1376.17 48.2709C1380.97 48.6207 1386.92 57.4475 1389.01 61.1579C1389.96 62.8212 1390.41 63.925 1389.69 65.7907C1389.47 66.3683 1389.3 66.6324 1389.02 67.1448C1386.59 74.7739 1391.22 81.8065 1389.48 88.1449C1391.74 89.2598 1394.21 90.1546 1395.5 92.4624C1396.47 95.3621 1396.22 101.509 1394.87 104.276C1391.92 110.299 1385.55 110.034 1381.71 114.501C1381.4 114.863 1381.06 115.195 1380.73 115.541L1380.01 116.312C1379.44 117.209 1378.9 118.083 1378.25 118.923C1375.69 122.202 1374.81 127.235 1373.97 131.256C1373.17 132 1372.63 132.537 1371.67 133.07C1368.3 135.288 1364.5 137.2 1360.54 138.095C1358.41 136.322 1356.07 135.375 1353.48 134.474L1344.66 135.873C1343.27 138.056 1341.84 140.091 1339.16 140.668C1336.55 141.228 1333.52 140.627 1330.9 140.236C1322.63 137.344 1325.42 134.757 1321.82 128.435C1321.74 128.285 1321.65 128.137 1321.56 127.989C1320.5 124.841 1309.69 117.102 1306.6 114.81C1303.28 114.785 1300.4 114.844 1297.29 113.512C1297.33 110.486 1293.11 99.0353 1291.31 96.3592Q1292.83 95.4871 1294.22 94.4179C1296.06 92.9901 1297.3 91.4495 1297.56 89.1139C1297.83 88.767 1298.09 88.4716 1298.28 88.0772C1299.71 85.0677 1300.13 75.5173 1298.95 72.4976C1298.77 69.6983 1296.56 67.791 1294.79 65.8055C1297.81 63.3302 1299.92 58.0285 1302.47 54.8694C1306.95 49.3215 1311.01 51.0926 1317.13 50.1457C1319.7 49.7477 1324.15 47.04 1325.68 44.9209Z"/>
	<path fill="#DE5348" transform="scale(0.999721 0.999721)" d="M1363.46 119.235L1362.81 120.299C1357.65 123.632 1351.55 124.893 1345.45 125.075Q1344.54 125.101 1343.62 125.082Q1342.7 125.063 1341.79 124.998Q1340.88 124.932 1339.97 124.822Q1339.06 124.711 1338.16 124.555Q1337.26 124.398 1336.36 124.197Q1335.47 123.996 1334.59 123.751Q1333.71 123.505 1332.84 123.215Q1331.97 122.926 1331.12 122.593Q1330.27 122.261 1329.43 121.886Q1328.6 121.511 1327.78 121.095Q1326.97 120.679 1326.17 120.222Q1325.38 119.766 1324.61 119.27Q1323.84 118.774 1323.1 118.241Q1322.35 117.707 1321.64 117.137Q1320.92 116.567 1320.23 115.961Q1319.55 115.356 1318.89 114.717C1311.82 107.822 1306.98 97.5437 1306.91 87.5967C1306.84 77.7769 1311.26 67.353 1318.2 60.4358C1325 53.648 1334.87 50.2005 1344.4 50.3669C1355.05 50.5525 1364.64 54.8851 1371.92 62.6558C1374.39 65.2899 1376.47 67.8029 1376.33 71.5313C1379.72 74.4764 1380.93 80.2764 1381.2 84.5955C1381.82 94.4512 1378.77 105.153 1372.17 112.62C1369.81 115.292 1366.79 117.911 1363.46 119.235Z"/>
	<path fill="#F6F3E7" transform="scale(0.999721 0.999721)" d="M1364.16 114.889C1359.52 119.232 1352.54 121.46 1346.28 121.604Q1345.41 121.619 1344.55 121.591Q1343.68 121.563 1342.82 121.493Q1341.96 121.423 1341.1 121.311Q1340.24 121.199 1339.39 121.045Q1338.54 120.891 1337.69 120.696Q1336.85 120.5 1336.02 120.264Q1335.18 120.028 1334.36 119.751Q1333.54 119.474 1332.74 119.158Q1331.93 118.841 1331.14 118.486Q1330.35 118.13 1329.58 117.736Q1328.81 117.343 1328.06 116.912Q1327.31 116.481 1326.58 116.014Q1325.85 115.547 1325.15 115.044Q1324.44 114.542 1323.76 114.006Q1323.08 113.47 1322.43 112.902Q1321.77 112.333 1321.15 111.733C1314.58 105.355 1310.05 96.5158 1310.06 87.2359C1310.06 78.132 1314.5 69.2027 1320.99 62.9552Q1321.59 62.3821 1322.21 61.84Q1322.84 61.2979 1323.49 60.7881Q1324.15 60.2783 1324.82 59.8022Q1325.5 59.3261 1326.2 58.8849Q1326.9 58.4436 1327.62 58.0384Q1328.35 57.6332 1329.09 57.265Q1329.83 56.8968 1330.59 56.5665Q1331.35 56.2363 1332.13 55.9449Q1332.9 55.6535 1333.69 55.4017Q1334.48 55.1498 1335.28 54.9382Q1336.08 54.7266 1336.89 54.5557Q1337.7 54.3848 1338.52 54.2551Q1339.34 54.1255 1340.16 54.0373Q1340.98 53.9491 1341.81 53.9027Q1342.64 53.8563 1343.46 53.8517Q1344.29 53.8472 1345.12 53.8845C1354.07 54.2217 1362.98 58.3957 1369.06 64.98C1371.71 67.8599 1375.73 72.999 1375.54 77.0573C1378.73 82.0015 1378.38 89.3098 1377.17 94.8509C1375.53 102.305 1371.21 110.58 1364.52 114.678C1364.4 114.751 1364.28 114.819 1364.16 114.889Z"/>
	<path fill="#F6A518" transform="scale(0.999721 0.999721)" d="M99.3793 347.085C104.409 347.181 108.164 349.524 112.454 351.854C112.052 356.887 112.182 362.003 112.141 367.051C116.608 369.181 119.809 372.997 123.193 376.497C128.446 376.63 133.823 376.249 139.088 376.14C141.918 380.423 143.692 384.874 145.013 389.816C141.783 393.693 137.383 396.648 133.405 399.718C134.399 405.187 134.572 410.399 134.6 415.937C137.159 417.44 140.024 419.123 142.238 421.09C144.095 422.74 145.471 425.901 145.561 428.361Q145.576 428.772 145.547 429.183Q145.518 429.594 145.445 429.999Q145.373 430.404 145.257 430.799Q145.142 431.195 144.986 431.575Q144.829 431.956 144.633 432.318Q144.437 432.68 144.204 433.019Q143.971 433.358 143.703 433.671Q143.435 433.983 143.135 434.265C138.792 438.373 133.454 437.351 128.062 437.02C125.589 441.049 122.868 444.121 119.384 447.316C120.225 452.785 120.966 458.219 121.49 463.729C118.185 467.138 114.392 468.933 110.064 470.727C105.535 467.422 101.581 462.984 97.5734 459.066C92.3959 459.97 87.0926 460.456 81.8753 461.112C78.0514 465.041 75.4433 470.123 70.9792 473.411C66.8555 472.236 62.8401 470.859 58.8017 469.422L58.8021 453.181C54.7863 450.518 51.1134 447.497 47.3946 444.445C42.9615 444.76 34.9984 447.419 31.1395 445.176C27.9281 443.309 26.8933 437.966 25.8139 434.632C28.7749 430.168 32.4091 425.915 35.6636 421.643C34.0243 416.549 34.0765 410.917 33.7475 405.608C30.6222 402.489 24.6274 399.13 23.5488 394.69C22.5207 390.457 26.1502 385.829 28.234 382.366L40.6248 382.5Q46.1205 376.356 51.8015 370.384C50.6106 365.633 49.8239 360.767 48.9319 355.952C52.6789 353.19 56.9117 351.135 61.0148 348.958C65.4157 352.605 69.3832 356.465 73.3512 360.57C78.4636 359.651 83.3162 359.265 88.4906 359.092L99.3793 347.085Z"/>
	<path fill="#F6F3E7" transform="scale(0.999721 0.999721)" d="M101.753 351.378C104.044 352.107 105.958 353.571 107.942 354.896L107.794 368.904C113.101 372.976 117.839 377.746 123.248 381.664C126.911 381.042 133.511 379.058 136.714 381.264C139.05 382.873 139.359 386.411 139.919 388.998C136.212 391.748 132.726 394.491 129.383 397.69C130.653 404.737 130.362 411.651 130.068 418.761C133.2 420.493 138.472 423.031 140.119 426.317C140.955 427.984 140.749 428.64 140.103 430.313C136.118 433.602 131.31 432.766 126.466 432.661C122.547 436.633 119.079 441.279 115.28 445.408C115.801 450.979 116.653 456.51 117.14 462.094L111.083 465.21C106.943 461.664 103.334 457.927 99.8457 453.752C93.3706 455.289 86.7266 455.812 80.0919 455.988C76.7938 459.144 75.0802 463.8 71.6266 466.615C69.5473 468.31 67.5741 467.789 65.0933 467.685C64.9282 467.578 64.7432 467.496 64.5979 467.364C61.8823 464.886 63.3817 454.4 63.5319 450.68C57.6151 447.536 53.5871 443.624 49.0038 438.85C44.6955 439.69 36.699 442.101 32.9047 439.678C31.6687 438.889 31.736 438.34 31.4685 437.011C32.6609 431.698 37.1585 427.962 40.8201 424.21C39.0516 416.67 37.8334 409.665 38.5754 401.871C34.5532 399.824 31.1589 397.416 27.5953 394.679C28.5129 392.084 29.2238 389.422 29.9764 386.776C34.4182 387 38.7356 387.41 43.1325 388.082C47.2018 381.877 51.8452 376.992 57.2077 371.934C55.634 367.186 54.1843 362.585 53.2871 357.647Q56.9261 356.135 60.5228 354.525C64.3355 357.75 67.516 361.179 70.7509 364.956C77.6327 364.271 84.3398 363.71 91.2622 363.855C95.0763 360.101 98.3834 355.55 101.753 351.378Z"/>
	<path fill="#F6A518" transform="scale(0.999721 0.999721)" d="M82.2939 377.039C88.6436 376.358 94.9355 378.069 100.329 381.429C108.199 386.33 113.14 394.1 115.085 403.094C116.874 411.367 115.552 420.3 110.889 427.43C105.811 435.194 98.6004 439.321 89.6758 441.15C80.9946 442.064 73.4277 440.79 66.2207 435.542Q65.5788 435.083 64.9605 434.593Q64.3421 434.104 63.7487 433.584Q63.1553 433.064 62.5884 432.515Q62.0215 431.967 61.4824 431.391Q60.9433 430.815 60.4334 430.213Q59.9234 429.611 59.4439 428.984Q58.9644 428.358 58.5164 427.708Q58.0685 427.059 57.6532 426.388Q57.2379 425.717 56.8564 425.026Q56.4748 424.336 56.1279 423.627Q55.7809 422.918 55.4695 422.194Q55.158 421.469 54.8828 420.729Q54.6076 419.99 54.3693 419.237Q54.131 418.485 53.9302 417.722Q53.7295 416.959 53.5667 416.187Q53.4039 415.415 53.2795 414.636C51.953 405.987 53.9017 396.687 59.1185 389.609C65.0574 381.55 72.6734 378.397 82.2939 377.039Z"/>
	<path fill="#F6F3E7" transform="scale(0.999721 0.999721)" d="M80.7087 381.826C87.36 381.628 93.1922 382.469 98.9404 386.045C104.925 389.769 109.238 395.457 110.809 402.361Q110.966 403.052 111.089 403.749Q111.212 404.447 111.301 405.149Q111.39 405.852 111.444 406.558Q111.499 407.264 111.519 407.972Q111.539 408.68 111.525 409.388Q111.511 410.097 111.462 410.803Q111.413 411.51 111.33 412.213Q111.247 412.917 111.13 413.615Q111.013 414.314 110.862 415.005Q110.711 415.697 110.526 416.381Q110.342 417.065 110.124 417.739Q109.907 418.413 109.657 419.076Q109.407 419.738 109.125 420.388Q108.843 421.038 108.529 421.673Q108.216 422.308 107.872 422.927Q107.529 423.546 107.155 424.148C102.709 431.194 96.4328 434.95 88.4756 436.809C82.0931 437.486 76.1417 436.454 70.5846 433.154Q70.0043 432.813 69.4423 432.443Q68.8802 432.073 68.3378 431.675Q67.7954 431.276 67.274 430.851Q66.7527 430.425 66.2538 429.974Q65.7549 429.522 65.2797 429.045Q64.8046 428.569 64.3544 428.068Q63.9043 427.568 63.4803 427.046Q63.0563 426.523 62.6595 425.979Q62.2628 425.435 61.8944 424.872Q61.526 424.309 61.1869 423.728Q60.8478 423.146 60.5388 422.548Q60.2299 421.95 59.9519 421.337Q59.6739 420.724 59.4276 420.098Q59.1813 419.472 58.9674 418.833Q58.7535 418.195 58.5725 417.547Q58.3914 416.899 58.2438 416.242C56.5062 408.795 57.7829 400.336 61.8686 393.844C66.2719 386.847 72.865 383.532 80.7087 381.826Z"/>
	<path fill="#DE5348" transform="scale(0.999721 0.999721)" d="M105.379 170.073C109.496 154.388 117.648 148.125 108.061 131.41C103.95 124.241 95.5079 116.617 97.9983 107.648C99.0129 103.994 100.965 101.472 104.399 99.794C111.819 96.1682 121.245 97.5791 128.323 93.0826C139.501 85.9803 139.767 69.6571 149.291 63.884C151.91 62.2966 154.912 61.9471 157.776 63.0742C168.312 67.22 171.615 81.4956 183.992 84.3407C195.418 86.9668 215.072 79.1466 219.434 90.7752C223.622 101.94 210.889 115.251 213.671 128.325C216.018 139.355 233.525 148.353 228.007 160.343C226.171 164.331 222.869 166.611 218.779 167.885C207.375 171.439 196.055 168.257 189.17 180.786C185.88 186.775 183.868 196.514 178.344 200.614C178.274 200.666 178.205 200.721 178.135 200.774L171.562 203.384C158.436 200.667 158.702 192.38 149.56 185.958C141.161 180.058 129.714 182.093 120.329 183.769C115.566 183.207 112.116 182.172 109.032 178.147C107.187 175.738 106.353 172.899 105.379 170.073Z"/>
	<path fill="#F6F3E7" transform="scale(0.999721 0.999721)" d="M119.867 179.895C119.664 179.873 119.46 179.854 119.258 179.827C116.372 179.454 113.755 178.284 112.056 175.811C110.335 173.306 110.495 169.941 111.165 167.1C114.973 150.954 121.156 145.198 111.154 128.651C108.204 123.77 99.8481 114.882 101.541 108.769C102.164 106.518 104.221 104.811 106.211 103.771C116.847 98.2136 129.656 100.098 138.238 89.8141C142.842 84.2974 146.25 64.4398 155.67 67.2925C162.642 69.4041 170.507 83.8542 182.456 88.2036C191.725 91.5776 209.174 84.3952 215.655 91.3932C217.481 95.7535 216.226 99.3843 214.528 103.52C210.403 113.565 206.855 122.682 211.228 133.409C213.976 140.152 227.124 151.78 224.908 158.267C224.072 160.717 221.349 162.209 219.086 163.116C204.519 168.96 191.82 163.756 183.416 182.753C182.434 184.974 179.517 190.356 179.835 192.721C176.542 197.14 173.881 198.01 168.639 199.442C160.038 193.516 155.744 183.526 145.563 179.272C138.299 176.237 127.058 176.844 119.867 179.895Z"/>
	<path fill="#DE5348" transform="scale(0.999721 0.999721)" d="M159.357 96.8961C168.242 96.0467 176.346 97.6596 183.75 102.877Q184.532 103.429 185.286 104.019Q186.04 104.61 186.763 105.237Q187.485 105.865 188.176 106.528Q188.867 107.191 189.523 107.888Q190.179 108.585 190.8 109.314Q191.42 110.044 192.003 110.803Q192.586 111.563 193.13 112.35Q193.674 113.138 194.178 113.952Q194.682 114.767 195.144 115.605Q195.607 116.444 196.026 117.304Q196.446 118.165 196.821 119.046Q197.197 119.926 197.528 120.825Q197.859 121.723 198.145 122.637Q198.43 123.551 198.669 124.478Q198.909 125.405 199.101 126.343Q199.293 127.281 199.438 128.228Q199.585 129.158 199.687 130.094Q199.788 131.03 199.843 131.97Q199.898 132.909 199.907 133.851Q199.915 134.792 199.877 135.733Q199.84 136.674 199.755 137.611Q199.671 138.549 199.541 139.481Q199.411 140.414 199.235 141.339Q199.058 142.263 198.837 143.178Q198.615 144.093 198.349 144.996Q198.083 145.899 197.772 146.788Q197.461 147.677 197.107 148.549Q196.753 149.421 196.357 150.275Q195.96 151.129 195.522 151.962Q195.083 152.795 194.605 153.605Q194.126 154.416 193.608 155.202Q193.089 155.988 192.533 156.747C185.913 165.691 176.932 169.754 166.189 171.395C166.1 171.407 166.01 171.423 165.92 171.431C156.862 172.224 146.996 169.443 139.853 163.798Q139.126 163.213 138.429 162.594Q137.732 161.974 137.065 161.321Q136.399 160.668 135.766 159.984Q135.132 159.299 134.533 158.584Q133.934 157.869 133.371 157.125Q132.807 156.382 132.281 155.612Q131.755 154.841 131.267 154.046Q130.779 153.251 130.33 152.433Q129.882 151.615 129.474 150.776Q129.066 149.937 128.7 149.079Q128.333 148.221 128.009 147.347Q127.686 146.472 127.405 145.582Q127.124 144.692 126.887 143.79Q126.651 142.888 126.458 141.975Q126.266 141.062 126.119 140.141Q125.971 139.219 125.869 138.292Q125.767 137.363 125.711 136.429Q125.654 135.496 125.645 134.561Q125.635 133.626 125.671 132.692Q125.708 131.758 125.79 130.827Q125.873 129.896 126.002 128.97Q126.131 128.044 126.305 127.125Q126.48 126.207 126.699 125.298Q126.919 124.389 127.184 123.492Q127.448 122.596 127.757 121.713Q128.065 120.831 128.417 119.965Q128.769 119.099 129.164 118.251Q129.558 117.403 129.994 116.576Q130.43 115.75 130.907 114.945Q131.383 114.141 131.899 113.361Q132.414 112.581 132.968 111.828Q133.522 111.075 134.112 110.35C140.466 102.434 149.336 97.9277 159.357 96.8961Z"/>
	<path fill="#F6F3E7" transform="scale(0.999721 0.999721)" d="M162.134 100.372C167.963 99.7279 175.343 102.196 180.238 105.285C187.819 110.069 193.237 118.291 195.168 127C197.116 135.785 195.154 145.118 190.222 152.605C184.372 161.483 176.114 165.434 166.008 167.476C157.461 167.688 149.73 165.904 142.727 160.749C135.545 155.462 131.165 147.373 129.947 138.598C128.708 129.67 131.302 120.983 136.794 113.885C143.395 105.353 151.712 101.799 162.134 100.372Z"/>
	<path fill="#F6A518" transform="scale(0.999721 0.999721)" d="M391.769 373.651L1142.52 374.045C1142.89 374.751 1143.18 375.404 1143.35 376.19C1144.43 381.401 1143.59 388.311 1143.56 393.71L1143.51 428.322L1143.44 511.162C1143.42 525.03 1143.86 539.068 1143.36 552.918C1143.3 554.45 1143.03 555.586 1142.22 556.899C1101.06 556.098 1059.81 557.447 1018.64 557.495Q900.038 556.642 781.434 557.318L478.742 557.39Q433.588 557.118 388.433 557.37C387.473 557.327 386.448 556.97 385.51 556.743C384.691 555.98 384.129 555.709 383.809 554.6C383.185 552.439 383.625 549.877 384.766 547.983C391.516 546.22 420.717 547.626 430.53 547.646L549.364 547.662L1133.07 547.817C1133.36 547.333 1133.51 547.141 1133.7 546.551C1135.17 542.049 1133.96 498.821 1133.96 489.545C1133.94 455.669 1134.86 421.577 1133.99 387.728C1133.96 386.224 1133.74 385.118 1133.02 383.794L622.892 383.789L466.162 383.811L415.743 383.813C408.153 383.803 399.936 384.405 392.426 383.735C390.366 383.552 389.258 382.844 387.954 381.283C387.449 379.432 387.08 378.377 387.966 376.519C388.724 374.932 390.198 374.197 391.769 373.651Z"/>
	<path fill="#F6A518" transform="scale(0.999721 0.999721)" d="M1217.02 128.523C1241.7 127.147 1265.93 133.633 1285.16 149.601C1305.41 166.417 1316.97 190.427 1319.3 216.486Q1319.41 217.707 1319.48 218.93Q1319.56 220.153 1319.6 221.378Q1319.65 222.602 1319.67 223.828Q1319.68 225.053 1319.67 226.278Q1319.65 227.504 1319.61 228.728Q1319.56 229.953 1319.49 231.176Q1319.41 232.399 1319.31 233.62Q1319.2 234.841 1319.07 236.059Q1318.93 237.277 1318.76 238.491Q1318.6 239.705 1318.4 240.915Q1318.21 242.125 1317.98 243.33Q1317.76 244.534 1317.5 245.733Q1317.25 246.932 1316.96 248.124Q1316.68 249.316 1316.37 250.5Q1316.05 251.685 1315.71 252.861Q1315.37 254.038 1315 255.206Q1314.62 256.373 1314.22 257.532Q1313.82 258.69 1313.39 259.838Q1312.97 260.986 1312.51 262.123Q1312.05 263.26 1311.57 264.385Q1311.08 265.51 1310.57 266.623Q1310.06 267.737 1309.52 268.837Q1308.98 269.937 1308.41 271.023Q1307.84 272.109 1307.25 273.182Q1306.66 274.254 1306.04 275.311Q1305.42 276.368 1304.77 277.409Q1304.13 278.451 1303.46 279.476Q1302.78 280.501 1302.09 281.51Q1301.39 282.518 1300.67 283.509Q1299.95 284.5 1299.21 285.472Q1298.46 286.445 1297.69 287.399Q1296.92 288.353 1296.13 289.288Q1295.37 290.206 1294.58 291.104Q1293.8 292.002 1292.99 292.881Q1292.18 293.759 1291.35 294.617Q1290.52 295.475 1289.67 296.313Q1288.82 297.15 1287.95 297.966Q1287.08 298.781 1286.19 299.575Q1285.29 300.369 1284.38 301.14Q1283.47 301.911 1282.54 302.66Q1281.61 303.408 1280.67 304.133Q1279.72 304.858 1278.75 305.56Q1277.79 306.261 1276.8 306.938Q1275.82 307.615 1274.82 308.267Q1273.82 308.919 1272.81 309.546Q1271.79 310.174 1270.76 310.775Q1269.73 311.377 1268.69 311.953Q1267.64 312.529 1266.58 313.078Q1265.52 313.628 1264.45 314.151Q1263.38 314.674 1262.29 315.17Q1261.21 315.666 1260.11 316.135Q1259.01 316.604 1257.9 317.046Q1256.79 317.487 1255.67 317.901Q1254.56 318.315 1253.43 318.701Q1252.3 319.087 1251.16 319.444Q1250.02 319.802 1248.87 320.131Q1247.73 320.46 1246.57 320.76Q1245.42 321.061 1244.25 321.332Q1243.09 321.604 1241.92 321.846Q1240.76 322.089 1239.58 322.302Q1238.41 322.516 1237.23 322.7Q1236.05 322.884 1234.87 323.039Q1233.68 323.193 1232.5 323.318Q1231.31 323.443 1230.12 323.539Q1227.95 323.661 1225.79 323.685Q1223.62 323.708 1221.45 323.632Q1219.28 323.556 1217.12 323.381Q1214.96 323.206 1212.81 322.932Q1210.66 322.658 1208.52 322.286Q1206.38 321.914 1204.27 321.445Q1202.15 320.976 1200.06 320.41Q1197.96 319.844 1195.9 319.183Q1193.83 318.522 1191.8 317.767Q1189.76 317.012 1187.77 316.165Q1185.77 315.318 1183.82 314.381Q1181.86 313.443 1179.95 312.417Q1178.04 311.391 1176.18 310.278Q1174.31 309.166 1172.51 307.969Q1170.7 306.773 1168.94 305.495Q1167.19 304.217 1165.5 302.86C1144.98 286.582 1132.32 262.038 1129.44 236.152C1126.65 211.065 1134.15 183.505 1150.07 163.736C1166.85 142.916 1190.81 131.442 1217.02 128.523Z"/>
	<path fill="#F6F3E7" transform="scale(0.999721 0.999721)" d="M1213.24 134.127C1213.38 134.116 1213.52 134.103 1213.67 134.094C1238.85 132.395 1263.49 137.524 1282.99 154.504C1301.69 170.797 1312.39 193.66 1314.1 218.339Q1314.18 219.537 1314.24 220.737Q1314.29 221.936 1314.32 223.137Q1314.34 224.338 1314.34 225.538Q1314.33 226.739 1314.3 227.94Q1314.26 229.14 1314.19 230.339Q1314.13 231.538 1314.03 232.735Q1313.94 233.932 1313.81 235.127Q1313.68 236.321 1313.53 237.512Q1313.37 238.702 1313.19 239.889Q1313 241.075 1312.79 242.257Q1312.57 243.438 1312.33 244.614Q1312.08 245.789 1311.81 246.959Q1311.53 248.128 1311.23 249.29Q1310.93 250.452 1310.59 251.605Q1310.26 252.759 1309.9 253.905Q1309.54 255.05 1309.15 256.186Q1308.76 257.321 1308.34 258.447Q1307.92 259.573 1307.48 260.688Q1307.03 261.802 1306.56 262.906Q1306.08 264.009 1305.58 265.1Q1305.08 266.191 1304.55 267.269Q1304.02 268.347 1303.46 269.411Q1302.91 270.476 1302.33 271.526Q1301.74 272.576 1301.14 273.612Q1300.53 274.647 1299.89 275.666Q1299.26 276.686 1298.6 277.689Q1297.94 278.693 1297.25 279.679Q1296.57 280.666 1295.86 281.635Q1295.15 282.604 1294.42 283.555Q1293.69 284.506 1292.93 285.439Q1292.17 286.371 1291.39 287.284Q1290.61 288.197 1289.81 289.09C1276.63 303.994 1252.33 316.664 1232.24 318.003C1231.88 318.108 1231.54 318.217 1231.18 318.291C1213.51 321.862 1188.9 312.677 1174.16 302.767C1153.29 288.727 1139.8 265.734 1135.19 241.211C1130.66 217.086 1137.25 190.99 1151.27 170.946C1166.19 149.608 1188.32 138.665 1213.24 134.127Z"/>
	<path fill="#F6A518" transform="scale(0.999721 0.999721)" d="M1232.04 266.505C1235.18 266.165 1238.93 266.442 1241.74 268.042Q1242.35 268.391 1242.91 268.798Q1243.48 269.205 1244.01 269.665Q1244.53 270.126 1245.01 270.637Q1245.48 271.147 1245.91 271.702Q1246.33 272.257 1246.7 272.851Q1247.07 273.445 1247.38 274.072Q1247.68 274.699 1247.93 275.354Q1248.17 276.009 1248.35 276.684Q1248.53 277.359 1248.65 278.05Q1248.76 278.74 1248.8 279.438Q1248.85 280.136 1248.82 280.835Q1248.8 281.535 1248.7 282.228Q1248.61 282.921 1248.44 283.6Q1248.28 284.28 1248.04 284.94Q1247.81 285.6 1247.52 286.234Q1247.22 286.867 1246.86 287.468C1244.61 291.163 1241.43 293.011 1237.35 294.042C1235.8 294.325 1234.53 294.297 1232.98 293.934C1229.4 293.096 1226.16 291.634 1224.22 288.358C1222.22 284.991 1221.88 280.821 1222.86 277.079C1224.28 271.677 1227.43 269.113 1232.04 266.505Z"/>
	<path fill="#F6F3E7" transform="scale(0.999721 0.999721)" d="M1231.96 272.108C1233.93 271.806 1236.23 271.176 1238.13 272.032Q1238.57 272.232 1238.99 272.475Q1239.41 272.719 1239.8 273.003Q1240.19 273.288 1240.55 273.611Q1240.91 273.934 1241.23 274.292Q1241.55 274.65 1241.84 275.039Q1242.13 275.428 1242.37 275.844Q1242.62 276.26 1242.82 276.699Q1243.02 277.139 1243.18 277.596C1243.87 279.708 1243.64 282.093 1242.64 284.066C1241.27 286.761 1239.52 287.8 1236.71 288.654C1236.46 288.725 1236.22 288.839 1235.96 288.865C1233.91 289.076 1231.48 288.415 1229.83 287.254C1228.27 285.14 1227.79 283.512 1227.79 280.88C1227.77 276.779 1229.23 274.85 1231.96 272.108Z"/>
	<path fill="#F6A518" transform="scale(0.999721 0.999721)" d="M1165.53 205.569L1165.97 205.533C1169.39 205.231 1171.72 205.577 1174.66 207.526C1177.84 209.624 1179.82 212.924 1180.5 216.643C1181.24 220.765 1180.33 225.004 1177.75 228.332C1174.84 232.098 1171.17 233.074 1166.7 233.566C1166.29 233.622 1165.92 233.701 1165.5 233.674C1162.88 233.503 1159.29 231.342 1157.66 229.388C1153.22 224.047 1154.81 217.92 1155.27 211.8L1155.3 211.318C1158.82 208.905 1161.37 206.851 1165.53 205.569Z"/>
	<path fill="#F6F3E7" transform="scale(0.999721 0.999721)" d="M1165.14 211.172C1167.26 211.005 1169.2 210.959 1171.17 211.9C1173.17 212.857 1174.74 214.56 1175.39 216.696C1176.03 218.824 1175.75 221.063 1174.66 222.994C1173.17 225.652 1170.9 226.922 1168.09 227.804C1167.33 228.062 1166.37 227.961 1165.58 227.82C1163.66 227.476 1162.04 226.774 1160.94 225.105C1159.49 222.893 1159.24 219.875 1159.83 217.334C1160.57 214.16 1162.56 212.799 1165.14 211.172Z"/>
	<path fill="#F6A518" transform="scale(0.999721 0.999721)" d="M1277.12 220.278C1280.28 219.963 1282.95 220.057 1285.83 221.576Q1286.45 221.9 1287.03 222.286Q1287.61 222.673 1288.14 223.117Q1288.68 223.562 1289.17 224.059Q1289.65 224.557 1290.09 225.103Q1290.52 225.648 1290.9 226.236Q1291.27 226.824 1291.58 227.447Q1291.89 228.07 1292.14 228.722Q1292.38 229.375 1292.56 230.049Q1292.76 230.785 1292.88 231.538Q1293 232.29 1293.04 233.051Q1293.08 233.812 1293.05 234.574Q1293.01 235.335 1292.9 236.089Q1292.79 236.842 1292.6 237.581Q1292.41 238.319 1292.14 239.033Q1291.88 239.748 1291.54 240.432Q1291.2 241.116 1290.8 241.762C1288.45 245.514 1284.93 247.463 1280.77 248.5C1279.88 248.65 1279.1 248.567 1278.21 248.436C1268.09 246.949 1270.2 241.542 1265.44 235.646C1265.24 235.403 1265.03 235.171 1264.83 234.933C1270.51 228.256 1265.14 225.938 1277.12 220.278Z"/>
	<path fill="#F6F3E7" transform="scale(0.999721 0.999721)" d="M1275.04 226.582C1277.62 226.18 1280.26 225.586 1282.73 226.776C1284.97 227.855 1287.17 230.205 1287.94 232.59C1288.47 234.252 1288.38 236.212 1287.54 237.76C1286.31 240.038 1284.56 240.987 1282.19 241.767C1281.77 242.048 1281.57 242.218 1281.03 242.355C1279.08 242.841 1276.62 242.918 1274.98 241.655C1273.18 240.262 1272.46 237.551 1272.16 235.408C1271.62 231.659 1272.94 229.476 1275.04 226.582Z"/>
	<path fill="#F6A518" transform="scale(0.999721 0.999721)" d="M1200.9 160.743C1204.26 160.289 1207.44 159.837 1210.7 161.159Q1211.35 161.428 1211.97 161.761Q1212.6 162.095 1213.18 162.489Q1213.77 162.882 1214.31 163.333Q1214.85 163.784 1215.35 164.287Q1215.85 164.789 1216.29 165.339Q1216.73 165.889 1217.12 166.481Q1217.5 167.072 1217.83 167.699Q1218.15 168.327 1218.41 168.983C1219.86 172.685 1219.78 177.06 1217.95 180.614C1215.91 184.573 1212.79 186.555 1208.66 187.726C1207.2 188.768 1204.44 188.645 1202.73 188.374C1199.59 187.88 1197.02 185.478 1195.36 182.89Q1194.91 182.202 1194.53 181.472Q1194.15 180.743 1193.85 179.979Q1193.54 179.215 1193.32 178.424Q1193.09 177.633 1192.94 176.824Q1192.8 176.015 1192.73 175.195Q1192.67 174.375 1192.68 173.553Q1192.7 172.73 1192.8 171.914Q1192.9 171.097 1193.08 170.295C1194.16 165.668 1197.08 163.14 1200.9 160.743Z"/>
	<path fill="#F6F3E7" transform="scale(0.999721 0.999721)" d="M1203.19 165.645C1205.68 165.486 1207.73 165.358 1209.95 166.745C1211.88 167.948 1213.26 170.073 1213.76 172.276C1214.3 174.708 1213.89 177.31 1212.38 179.331C1210.85 181.381 1209.04 182.463 1206.55 182.872C1205.94 182.895 1205.6 182.932 1205.03 182.884C1202.85 182.705 1200.49 181.481 1199.15 179.748C1197.5 177.622 1197.28 174.886 1197.84 172.331C1198.58 168.965 1200.52 167.462 1203.19 165.645Z"/>
	<path fill="#DE5348" transform="scale(0.999721 0.999721)" d="M472.63 767.81C475.534 767.608 477.684 767.782 480.286 769.25C487.164 773.128 489.006 784.321 490.992 791.27C503.365 789.962 515.76 793.112 527.497 796.693C530.835 791.249 534.442 783.646 540.532 780.948C543.595 779.591 547.047 779.379 550.159 780.712C553.257 782.038 555.671 784.69 556.925 787.796C560.092 795.648 554.812 803.651 551.57 810.609C561.674 818.134 568.804 827.176 575.525 837.701C581.591 835.873 592.729 831.16 598.9 834.183C601.702 835.555 603.506 838.244 604.373 841.179C605.506 845.01 605.22 849.538 603.244 853.054C599.885 859.032 590.284 860.436 584.169 862.061C586.182 874.496 587.3 884.985 585.061 897.529C590.936 900.528 600.302 902.604 604.061 908.279C605.87 911.012 606.293 914.312 605.517 917.473Q605.346 918.16 605.108 918.826Q604.87 919.493 604.566 920.132Q604.263 920.771 603.897 921.378Q603.532 921.984 603.108 922.55Q602.684 923.117 602.205 923.639Q601.727 924.16 601.199 924.632Q600.672 925.103 600.1 925.52Q599.528 925.936 598.917 926.294C592.196 930.176 582.679 925.574 575.911 923.532C569.724 933.612 563.53 941.731 554.45 949.419C557.115 954.561 562.453 962.519 562.109 968.405C561.897 972.019 559.383 975.614 556.709 977.896C553.995 980.213 550.439 982.004 546.781 981.526C540.096 980.653 534.375 969.438 530.811 964.493C525.77 966.312 520.663 967.733 515.499 969.144C509.401 970.47 503.354 970.78 497.145 970.879C495.358 977.955 495.252 990.402 488.485 994.698C485.272 996.739 481.025 996.851 477.4 995.965C473.317 994.967 471.461 991.932 469.399 988.599L468.985 968.298C458.754 964.134 448.881 959.677 439.844 953.237C434.598 957.404 427.559 962.811 420.733 963.721C417.298 964.179 413.465 963.528 410.766 961.229C408.653 959.429 407.626 956.738 407.474 954.007C407.017 945.816 414.648 938.571 419.7 932.963C413.557 922.732 409.848 913.034 406.251 901.713C399.674 901.315 390.52 901.676 384.616 898.629C382.064 897.312 380.145 895.172 379.344 892.39C378.341 888.913 378.499 884.846 380.483 881.737C384.818 874.946 396.922 874.325 404.043 873.039C405.919 861.078 409.304 850.922 414.144 839.877C409.85 835.435 402.745 829.498 401.044 823.51C400.176 820.455 400.937 817.091 402.535 814.414C404.472 811.169 407.834 808.6 411.526 807.736C418.552 806.092 426.38 812.657 432.003 816.199C441.939 807.719 451.661 801.886 463.413 796.274C462.407 789.776 460.281 781.388 463.144 775.167C465.061 771.002 468.559 769.261 472.63 767.81Z"/>
	<path fill="#F6F3E7" transform="scale(0.999721 0.999721)" d="M471.197 772.559C473.702 772.412 476.474 772.033 478.716 773.404C484.897 777.185 485.918 789.225 487.309 795.711C502.487 793.721 514.992 797.329 529.167 802.163C532.845 796.862 535.85 789.499 541.266 785.765C543.058 784.53 545.146 783.903 547.302 784.445C549.687 785.044 552.493 787.177 553.587 789.391C556.386 795.055 549.46 802.965 547.902 808.373C547.418 810.053 547.465 811.762 548.458 813.224C550.787 816.651 555.705 819.282 558.785 822.259C564.964 828.231 569.362 835.5 573.668 842.853C579.884 840.731 589.756 835.977 596.192 837.839C597.946 838.346 599.463 839.477 600.195 841.181C601.281 843.706 601.361 847.015 600.097 849.492C596.864 855.831 585.415 857.773 579.118 859.617C583.186 873.738 582.701 885.994 580.933 900.358C586.746 902.805 596.939 905.699 600.785 910.616C601.716 913.009 601.684 916.152 600.987 918.635C600.518 920.305 599.43 921.653 597.885 922.433C591.644 925.584 580.3 920.487 574.136 918.555C566.355 930.937 560.198 938.594 549.487 948.652C551.714 954.655 557.684 961.736 557.437 968.193C557.334 970.912 555.885 973.139 553.822 974.831C552.067 976.27 549.998 977.365 547.664 977.009C541.504 976.069 535.341 964.01 531.764 959.033C527.521 960.896 523.143 962.349 518.762 963.845C510.471 965.978 502.592 966.967 494.057 967.304C491.57 974.58 492.051 985.249 486.556 991.073C485.278 992.429 483.696 993.236 481.807 993.167C478.095 993.031 475.624 990.392 473.271 987.884C473.316 980.135 473.07 972.497 472.537 964.766C461.197 961.386 449.01 955.644 440.4 947.501C435.067 952.035 427.694 958.098 420.692 959.444C418.454 959.875 415.61 959.91 413.685 958.501C412.31 957.494 411.554 956.031 411.47 954.316C411.09 946.492 420.065 938.446 425.144 933.315C417.141 921.554 413.011 910.223 409.626 896.498C402.214 896.662 392.029 897.762 385.553 893.555C383.544 892.25 382.64 890.895 382.075 888.61C382.332 887.027 382.673 885.973 383.736 884.733C389.054 878.527 400.27 878.287 407.743 877.422C409.681 863.802 411.835 850.659 419.667 838.961C416.408 835.874 407.059 827.803 405.698 824.009C404.935 821.881 405.416 818.32 406.433 816.362C407.483 814.341 408.968 812.673 411.238 812.073C417.75 810.352 427.711 818.246 432.963 821.525C443.535 810.723 454.117 805.015 467.994 799.426C467.084 793.321 465.413 786.45 466.214 780.288C466.726 776.346 468.244 774.864 471.197 772.559Z"/>
	<path fill="#DE5348" transform="scale(0.999721 0.999721)" d="M490.924 812.741C490.987 812.731 491.049 812.718 491.112 812.712C507.13 811.076 523.928 816.578 536.687 826.16C552.113 837.744 561.094 854.79 563.756 873.76C566.063 890.207 560.879 908.152 550.911 921.332C537.71 938.787 520.55 946.488 499.414 949.438C483.764 950.687 466.942 945.162 454.558 935.704C439.656 924.324 429.581 908.239 427.207 889.526Q426.979 887.843 426.837 886.15Q426.694 884.458 426.637 882.76Q426.581 881.063 426.61 879.365Q426.639 877.666 426.754 875.972Q426.869 874.277 427.07 872.591Q427.27 870.904 427.556 869.23Q427.842 867.556 428.212 865.898Q428.582 864.24 429.035 862.603Q429.489 860.967 430.024 859.355Q430.56 857.743 431.176 856.161Q431.793 854.578 432.488 853.029Q433.184 851.479 433.957 849.967Q434.73 848.455 435.579 846.984Q436.428 845.513 437.35 844.087Q438.272 842.66 439.265 841.283Q440.258 839.905 441.319 838.579C454.343 822.177 470.618 815.165 490.924 812.741Z"/>
	<path fill="#F6F3E7" transform="scale(0.999721 0.999721)" d="M489.155 816.928C504.448 814.816 520.656 819.898 532.989 828.845Q534.324 829.816 535.609 830.852Q536.894 831.889 538.126 832.988Q539.357 834.088 540.532 835.248Q541.707 836.407 542.823 837.624Q543.938 838.841 544.992 840.113Q546.045 841.384 547.033 842.706Q548.022 844.029 548.943 845.399Q549.864 846.769 550.715 848.184Q551.567 849.598 552.346 851.054Q553.126 852.509 553.832 854.002Q554.538 855.494 555.168 857.02Q555.799 858.546 556.352 860.102Q556.905 861.658 557.38 863.239Q557.855 864.82 558.25 866.423Q558.646 868.027 558.96 869.647Q559.275 871.268 559.508 872.903C561.958 889.664 556.968 906.672 546.717 920.043C535.596 934.548 519.297 942.716 501.404 945.03C501.166 945.077 500.93 945.136 500.69 945.171C486.228 947.311 468.336 940.867 456.941 932.173C443.299 921.766 433.672 906.574 431.373 889.465Q431.161 887.895 431.028 886.316Q430.894 884.737 430.84 883.153Q430.785 881.57 430.81 879.986Q430.834 878.401 430.938 876.82Q431.042 875.239 431.224 873.665Q431.406 872.091 431.667 870.528Q431.927 868.965 432.266 867.417Q432.604 865.869 433.019 864.34Q433.434 862.811 433.924 861.304Q434.415 859.798 434.981 858.318Q435.546 856.838 436.184 855.387Q436.823 853.937 437.533 852.521Q438.242 851.104 439.022 849.725Q439.802 848.346 440.649 847.007Q441.497 845.669 442.41 844.374Q443.323 843.079 444.3 841.832C455.7 827.144 470.901 819.307 489.155 816.928Z"/>
	<path fill="#DE5348" transform="scale(0.999721 0.999721)" d="M492.598 849.766C499.431 849.19 505.898 850.365 511.73 854.144C518.961 858.831 523.753 866.401 525.437 874.805Q525.597 875.587 525.718 876.376Q525.839 877.165 525.921 877.96Q526.003 878.754 526.045 879.551Q526.087 880.348 526.089 881.147Q526.092 881.945 526.054 882.743Q526.017 883.54 525.94 884.335Q525.863 885.129 525.747 885.919Q525.63 886.709 525.475 887.492Q525.319 888.275 525.125 889.05Q524.931 889.824 524.698 890.588Q524.466 891.351 524.195 892.103Q523.925 892.854 523.618 893.591Q523.31 894.327 522.967 895.048Q522.623 895.769 522.244 896.471Q521.865 897.174 521.451 897.857Q521.038 898.54 520.591 899.201C515.362 906.871 508.027 910.251 499.123 911.841C491.094 912.198 483.814 911.1 477.144 906.299Q476.522 905.845 475.923 905.36Q475.324 904.876 474.749 904.363Q474.174 903.85 473.626 903.309Q473.077 902.768 472.555 902.201Q472.034 901.634 471.54 901.042Q471.047 900.45 470.584 899.835Q470.12 899.219 469.687 898.582Q469.255 897.944 468.854 897.286Q468.453 896.628 468.085 895.952Q467.716 895.275 467.382 894.581Q467.047 893.887 466.747 893.177Q466.447 892.467 466.182 891.744Q465.917 891.02 465.688 890.284Q465.459 889.549 465.266 888.803Q465.074 888.057 464.918 887.302Q464.762 886.547 464.643 885.786Q464.519 885.032 464.432 884.273Q464.346 883.514 464.297 882.751Q464.249 881.989 464.238 881.225Q464.227 880.461 464.254 879.697Q464.281 878.934 464.346 878.173Q464.411 877.411 464.514 876.654Q464.616 875.897 464.756 875.146Q464.897 874.395 465.074 873.652Q465.251 872.909 465.465 872.175Q465.679 871.442 465.929 870.72Q466.179 869.998 466.464 869.289Q466.75 868.58 467.07 867.887Q467.39 867.193 467.745 866.516Q468.099 865.839 468.486 865.181Q468.874 864.522 469.294 863.884Q469.713 863.246 470.164 862.629C475.708 855.038 483.472 851.216 492.598 849.766Z"/>
	<path fill="#F6F3E7" transform="scale(0.999721 0.999721)" d="M492.661 853.921Q493.634 853.792 494.615 853.74Q495.595 853.689 496.577 853.716Q497.558 853.744 498.534 853.849Q499.511 853.955 500.475 854.138Q501.44 854.321 502.387 854.581Q503.334 854.84 504.257 855.175Q505.18 855.51 506.073 855.917Q506.967 856.324 507.825 856.801C514.315 860.381 518.885 866.793 520.826 873.88Q521.015 874.563 521.17 875.255Q521.325 875.947 521.445 876.646Q521.565 877.344 521.65 878.048Q521.734 878.752 521.784 879.459Q521.834 880.167 521.848 880.875Q521.863 881.584 521.841 882.293Q521.82 883.002 521.764 883.708Q521.707 884.415 521.616 885.118Q521.524 885.821 521.397 886.518Q521.271 887.216 521.109 887.906Q520.948 888.597 520.752 889.278Q520.557 889.959 520.327 890.63Q520.098 891.301 519.835 891.96Q519.572 892.618 519.277 893.263Q518.982 893.907 518.655 894.536Q518.328 895.165 517.97 895.777C513.996 902.442 507.921 905.935 500.564 907.828C493.34 908.136 487.003 907.621 480.779 903.578Q480.215 903.209 479.671 902.814Q479.126 902.419 478.601 901.997Q478.076 901.576 477.572 901.129Q477.068 900.683 476.586 900.212Q476.105 899.742 475.646 899.248Q475.188 898.755 474.755 898.24Q474.321 897.725 473.913 897.189Q473.505 896.654 473.123 896.099Q472.742 895.544 472.388 894.971Q472.034 894.399 471.708 893.809Q471.382 893.22 471.085 892.616Q470.788 892.011 470.521 891.393Q470.254 890.775 470.017 890.145Q469.781 889.514 469.575 888.873Q469.369 888.232 469.195 887.581Q469.021 886.931 468.878 886.273Q468.742 885.631 468.637 884.983Q468.533 884.335 468.461 883.683Q468.389 883.031 468.349 882.376Q468.309 881.721 468.302 881.065Q468.294 880.409 468.319 879.753Q468.344 879.097 468.402 878.443Q468.46 877.79 468.549 877.14Q468.639 876.49 468.761 875.845Q468.883 875.2 469.036 874.562Q469.19 873.924 469.375 873.295Q469.56 872.665 469.776 872.045Q469.992 871.426 470.238 870.817Q470.484 870.209 470.76 869.614Q471.036 869.019 471.342 868.438Q471.647 867.857 471.98 867.292Q472.314 866.727 472.675 866.179C477.373 859.13 484.57 855.536 492.661 853.921Z"/>
	<path transform="scale(0.999721 0.999721)" d="M319.879 415.774C320.196 415.895 321.263 416.594 321.477 416.848C323.525 419.286 327.151 428.232 328.866 431.577Q347.993 469.261 366.043 507.474C354.273 511.916 342.101 513.413 329.751 515.464Q309.197 518.698 288.858 523.087C290.635 525.547 298.598 539.181 298.792 539.34C300.471 540.719 302.904 540.668 304.245 542.769C308.58 549.563 298.944 553.623 297.949 559.424C299.516 561.86 301.769 561.682 303.813 563.457C304.817 564.33 305.174 565.256 305.126 566.57C304.959 571.056 298.374 576.682 296.773 581.285C292.812 592.673 289.697 630.895 280.829 637.577C274.194 642.576 258.056 637.629 250.306 636.179C249.494 637.235 248.695 638.322 247.806 639.316C246.352 640.94 245.472 641.399 243.284 641.502C241.947 641.565 241.106 641.651 239.855 642.122C237.959 653.201 249.597 674.086 248.095 682.503C247.92 683.483 246.265 684.152 245.444 684.675C243.921 687.811 246.611 706.566 246.941 711.094C248.916 738.204 249.405 765.35 249.777 792.518C250.205 823.808 246.9 850.925 244.091 881.88C241.888 906.161 240.39 930.735 236.733 954.841C246.818 959.394 275.542 968.256 282.249 973.965C284.895 976.217 286.7 979.993 286.953 983.442C287.086 985.249 286.769 987.322 285.501 988.702C284.216 990.101 282.612 990.418 280.783 990.6C273.079 991.364 264.717 990.634 256.936 990.613L206.031 990.516C205.145 976.136 209.801 965.356 209.92 951.895C210.086 933.174 208.164 913.947 207.263 895.224C206.232 873.805 206.385 851.767 204.085 830.477C202.933 819.805 200.664 809.209 198.68 798.664C197.327 791.478 196.382 783.781 194.024 776.869C191.345 788.571 188.63 812.7 184.943 822.046C181.264 831.373 172.732 840.675 166.966 849.061C148.636 875.721 129.669 901.933 111.738 928.868L115.197 932.581C121.614 942.311 142.579 967.364 143.172 977.296C143.42 981.456 140.008 984.507 137.401 987.288C127.245 981.426 117.403 974.411 107.555 968.02C93.8405 959.119 79.7736 950.465 66.6419 940.725C71.1117 930.896 80.3113 920.856 89.8387 915.769C96.1049 904.514 100.119 891.28 105.417 879.463Q116.335 855.245 127.508 831.143C131.176 823.254 136.899 813.781 138.868 805.348C141.15 795.579 139.635 782.985 139.622 772.938Q139.518 757.276 140.835 741.67C141.566 731.909 142.285 722.035 143.775 712.358C144.794 705.74 147.791 697.607 147.585 691.065L145.632 689.97C144.195 687.582 149.092 660.855 149.52 655.438C151.726 627.512 149.94 598.358 156.304 570.965C158.197 562.814 161.593 553.556 169.13 548.996C172.081 547.211 175.193 546.044 178.631 546.95C178.83 547.003 179.027 547.066 179.225 547.124C181.455 544.227 179.368 534.959 178.939 531.274Q176.636 531.363 174.356 531.024C167.423 530.033 160.841 525.246 156.735 519.746C149.949 510.657 146.163 496.285 147.958 485.06C149.604 474.773 155.896 464.764 164.433 458.799C173.573 452.414 187.343 449.197 198.335 451.304C205.143 452.61 210.543 456.775 214.365 462.466C222.414 474.451 221.903 488.878 219.273 502.485C220.363 504.546 221.324 506.564 221.97 508.813C223.447 513.952 224.901 520.085 221.961 524.991C218.508 530.755 211.576 531.753 205.584 533.082L206.799 547.647C222.051 550.762 235.128 570.349 244.849 581.748C248.668 576.266 252.261 568.244 257.135 563.823C258.341 562.73 259.663 563.171 261.194 563.232C262.629 561.248 262.629 556.76 262.952 554.221C265.101 551.519 267.708 549.22 270.209 546.853C269.399 541.528 269.203 531.972 265.402 527.964C260.359 526.483 250.68 532.159 245.357 533.654C239.642 524.618 235.004 513.659 230.595 503.889C243.045 492.815 254.775 480.971 266.65 469.29C284.623 451.61 302.377 433.923 319.879 415.774Z"/>
	<path fill="#F6A518" transform="scale(0.999721 0.999721)" d="M294.122 553.903L294.851 554.876C294.958 561.423 298.426 567.978 297.662 574.302L296.816 574.664Q293.317 572.978 289.84 571.246C285.973 569.951 282.536 569.419 278.467 569.123C283.551 563.918 288.544 558.587 294.122 553.903Z"/>
	<path fill="#F6F3E7" transform="scale(0.999721 0.999721)" d="M97.2981 905.49Q107.361 910.345 117.087 915.843Q113.369 921.356 109.787 926.957L109.191 927.752C108.551 927.925 108.336 928.032 107.588 927.949C101.618 927.287 95.1599 921.785 91.4407 917.471Q94.4708 911.53 97.2981 905.49Z"/>
	<path fill="#F6F3E7" transform="scale(0.999721 0.999721)" d="M212.006 942.807C219.815 942.607 227.639 942.746 235.45 942.795C235.388 947.688 235.918 951.721 232.697 955.744C229.27 957.636 225.978 958.936 222.026 959.163C219.402 959.314 217.044 958.726 215.139 956.824C211.294 952.986 212.002 947.774 212.006 942.807Z"/>
	<path fill="#F6A518" transform="scale(0.999721 0.999721)" d="M248.387 491.485C252.272 494.287 261.686 517.585 263.991 523.267C259.201 525.65 254.421 527.803 249.448 529.773C248.679 530.033 247.785 529.986 246.975 530.028C242.248 525.896 236.846 510.784 233.986 504.553C238.643 500.06 243.568 495.806 248.387 491.485Z"/>
	<path fill="#F6F3E7" transform="scale(0.999721 0.999721)" d="M268.973 978.834C272.507 978.332 278.702 977.649 282.13 978.438C283.065 978.653 283.533 978.977 283.895 979.894C284.663 981.834 284.215 985.265 283.279 987.053C279.516 989.691 230.943 988.077 223.537 988.045C218.569 987.819 213.59 988.02 208.62 988.141C208.276 985.474 208.203 982.745 208.036 980.06C228.336 979.344 248.668 979.546 268.973 978.834Z"/>
	<path fill="#F6A518" transform="scale(0.999721 0.999721)" d="M319.552 419.322C323.936 425.598 327.221 433.615 330.684 440.447C340.773 460.352 350.004 480.67 360.087 500.576C361.07 502.519 362.264 503.979 361.567 506.113L359.2 506.779C342.587 488.193 324.919 448.379 314.608 424.822L319.552 419.322Z"/>
	<path fill="#F6F3E7" transform="scale(0.999721 0.999721)" d="M74.15 932.475C74.7918 932.741 74.8708 932.757 75.576 933.149C85.6018 938.723 95.3092 946.351 104.902 952.739C115.675 959.913 127.251 966.581 137.605 974.302C139.038 975.371 140.085 975.891 140.602 977.655C140.109 980.113 138.645 981.826 137.203 983.811C132.394 982.411 77.2314 945.395 70.2405 939.874C71.3065 937.272 72.7355 934.896 74.15 932.475Z"/>
	<path fill="#F6F3E7" transform="scale(0.999721 0.999721)" d="M284.623 528.372C285.284 528.408 285.956 528.454 286.601 528.614C288.858 529.173 292.116 532.55 293.313 534.514C296.373 539.534 295.093 545.423 293.587 550.664C288.742 555.075 276.541 569.666 271.965 571.608Q269.989 570.414 268.182 568.976C258.857 561.639 271.213 555.447 272.472 547.794C273.136 543.755 271.076 536.706 270.564 532.511C271.586 531.316 277.503 533.487 279.865 532.924C282.449 532.307 283.228 530.395 284.623 528.372Z"/>
	<path fill="#F6F3E7" transform="scale(0.999721 0.999721)" d="M207.153 549.977C221.417 554.752 233.47 572.47 243.133 583.671L236.932 593.609C235.344 589.617 233.716 585.131 231.051 581.734L230.367 582.444L230.955 584.985C232.3 588.611 235.323 594.151 233.758 597.837C229.214 594.192 225.454 589.106 221.229 585.007C215.471 579.42 208.962 574.363 203.457 568.559C202.366 567.409 201.006 566.256 200.789 564.673C203.425 564.526 204.968 564.636 206.999 562.798C209.262 558.6 207.996 554.402 207.153 549.977Z"/>
	<path fill="#DE5348" transform="scale(0.999721 0.999721)" d="M262.245 477.696C264.249 482.529 267.192 487.066 269.749 491.631C275.851 502.527 282.513 513.607 287.87 524.847C285.889 525.541 284.128 526.041 282.684 527.65C281.762 528.678 280.735 529.608 279.744 530.569L278.525 530.391C275.819 529.294 273.22 529.189 270.341 529.018C268.81 527.928 252.608 493.856 250.189 489.45C253.799 485.088 257.948 481.351 262.245 477.696Z"/>
	<path fill="#DE5348" transform="scale(0.999721 0.999721)" d="M235.723 956.791C250.909 962.905 267.263 968.477 281.653 976.166L249.795 976.679C236.127 977.332 222.374 977.362 208.691 977.669C209.118 970.987 209.758 965.534 212.712 959.422C214.812 960.115 217.022 960.759 219.194 961.169C225.506 962.364 230.597 960.358 235.723 956.791Z"/>
	<path fill="#DE5348" transform="scale(0.999721 0.999721)" d="M88.8949 919.469C96.5396 925.125 100.151 928.633 109.937 930.018C116.421 936.713 134.515 963.22 139.013 971.974C136.292 970.489 133.657 968.782 131.007 967.17C112.677 955.216 94.6565 942.794 76.2418 930.975C80.0722 926.547 84.0031 922.721 88.8949 919.469Z"/>
	<path fill="#F6F3E7" transform="scale(0.999721 0.999721)" d="M278.501 571.525C284.868 572.238 289.584 573.386 294.958 576.94C293.102 586.757 285.932 630.606 279.363 635.477C274.656 638.967 265.215 636.098 259.967 635.083L251.493 633.461C257.263 623.542 262.097 613.101 267.116 602.788C267.32 604.236 267.512 605.701 267.813 607.132C268.246 609.19 268.888 610.011 270.594 611.082C271.247 607.034 269.582 603.008 268.278 599.248C270.616 593.102 277.04 580.912 275.108 574.7C275.039 574.48 274.958 574.264 274.882 574.045C275.895 572.321 276.697 572.288 278.501 571.525Z"/>
	<path fill="#F6F3E7" transform="scale(0.999721 0.999721)" d="M217.604 487.551C217.811 488.222 217.775 488.051 217.906 488.652C217.947 488.84 217.982 489.031 218.025 489.219C219.014 493.601 215.924 494.986 215.866 498.66C215.736 506.918 224.126 515.534 220.087 524.173C219.026 526.443 217.081 527.735 214.792 528.589C207.612 531.266 199.948 531.378 193.006 528.368L191.968 528.908L191.91 530.281C194.207 533.007 199.722 533.203 203.04 533.527C203.321 538.783 206.398 557.274 204.205 560.624C203.528 561.657 203.026 561.975 201.803 562.124C196.619 562.758 186.455 552.147 182.506 548.815C182.926 543.4 182.515 538.248 181.857 532.881C181.114 527.48 177.578 521.571 178.173 516.295C178.253 515.585 178.27 514.9 178.272 514.187L177.087 513.316C176.224 513.745 175.29 514.272 174.362 514.532C172.917 514.938 171.547 514.425 170.399 513.533C168.06 511.718 167.098 508.051 166.902 505.25C166.741 502.949 166.949 500.987 168.509 499.238L169.79 499.277C173.02 501.792 174.438 506.661 175.651 510.411C175.035 509.567 174.451 508.772 173.963 507.846C173.589 507.136 173.238 506.369 172.748 505.728C171.805 504.493 170.738 503.151 169.187 502.974C169.324 507.178 173.022 510.417 175.756 513.207L181.083 509.663C181.574 503.276 176.409 496.604 177.304 490.035C183.933 486.283 201.154 497.732 217.604 487.551Z"/>
	<path transform="scale(0.999721 0.999721)" d="M195.434 495.717C196.17 496.511 197.07 497.376 197.617 498.31C198.656 500.084 197.771 501.574 197.177 503.308C195.702 502.646 195.019 502.008 194.002 500.761C193.864 498.418 194.392 497.769 195.434 495.717Z"/>
	<path fill="#DE5348" transform="scale(0.999721 0.999721)" d="M185.531 454.091C192.697 453.161 200.019 452.87 206.184 457.183C214.298 462.861 217.527 473.54 219.227 482.777C217.221 484.264 214.99 486.165 212.667 487.083C201.866 491.351 187.372 484.002 176.348 486.814C175.931 487.37 175.549 487.862 175.339 488.535C173.896 493.16 176.486 502.057 178.602 506.266C178.708 506.477 178.82 506.686 178.93 506.895L178.058 507.016C175.904 503.531 173.911 499.379 170.72 496.745C169.575 496.414 169.01 495.999 167.853 496.483C165.27 497.564 164.479 500.97 163.645 503.388C163.683 503.589 163.716 503.791 163.758 503.991C165.442 512.037 168.061 515.059 174.87 519.478C176.286 522.471 177.317 525.723 178.459 528.833C173.023 528.229 168.71 526.88 164.311 523.562C156.266 517.495 151.679 506.971 150.305 497.204C148.856 486.897 151.454 477.274 157.784 469.004C164.826 459.805 174.297 455.679 185.531 454.091Z"/>
	<path fill="#F6A518" transform="scale(0.999721 0.999721)" d="M312.721 427.121C316.453 431.408 319.788 442.055 322.439 447.641C332.133 468.074 342.32 490.602 356.715 508.131C350.106 509.92 343.067 510.594 336.301 511.679C326.365 513.273 316.453 515.047 306.539 516.768Q297.338 518.638 288.068 520.134C278.883 506.282 272.64 490.185 263.641 476.047Q288.518 451.923 312.721 427.121Z"/>
	<path fill="#F6F3E7" transform="scale(0.999721 0.999721)" d="M173.15 549.827C174.352 549.785 175.575 549.745 176.774 549.875C185.11 550.773 225.254 592.3 232.054 600.961C231.143 601.866 229.897 602.912 229.207 603.991C228.327 605.365 228.597 606.273 228.895 607.788C232.803 608.427 252.852 570.499 260.062 565.543C263.069 566.756 269.446 574.069 273.163 576.516C270.903 587.798 253.314 631.477 244.359 637.939C243.107 638.842 241.794 639.207 240.282 638.919C231.218 637.192 199.62 616.709 190.748 610.51C187.546 608.273 178.261 600.278 175.167 599.741C174.281 600.906 174.531 601.102 174.693 602.582C183.943 608.975 192.9 615.685 202.426 621.688C213.381 628.592 224.916 634.645 236.226 640.946C238.146 654.451 242.167 667.767 245.33 681.027C215.469 696.575 179.185 695.143 147.368 687.535C151.052 669.535 152.75 651.008 153.47 632.652C154.256 612.595 153.812 592.002 158.618 572.369C160.962 562.795 164.519 555.026 173.15 549.827Z"/>
	<path fill="#F6A518" transform="scale(0.999721 0.999721)" d="M241.99 685.755C244.367 689.32 244.311 708.387 244.615 713.961Q247.069 752.083 247.048 790.285C247.148 801.47 247.521 812.782 247.037 823.956C246.388 838.96 244.093 854.061 242.665 869.027C240.388 892.881 238.615 916.798 236.156 940.63Q224.001 940.147 211.836 940.145Q209.637 905.567 208.506 870.938C207.979 857.316 208.204 843.296 206.683 829.769C205.113 815.8 201.645 801.668 198.977 787.866C197.71 781.311 195.944 774.305 196.073 767.607C196.217 760.164 198.22 752.503 199.605 745.201L206.191 710.755C208.685 710.008 213.393 709.14 214.712 706.798C210.995 705.82 204.276 708.42 201.006 710.363C200.225 710.827 200.523 710.508 200.248 711.552C201.135 711.845 201.492 712.112 202.116 712.804C203.6 721.03 197.891 741.794 196.1 750.991Q191.997 771.987 188.119 793.025C186.505 802.118 185.678 812.853 182.457 821.446C179.256 829.987 169.937 840.2 164.6 847.883L118.475 914.274C112.143 909.959 105.169 906.496 98.3806 902.976C106.89 879.939 117.976 857.362 128.326 835.094C132.523 826.063 139.029 815.581 141.357 805.939C143.944 795.227 141.789 776.695 142.116 764.935C142.806 740.103 145.15 715.644 150.142 691.287C181.459 698.115 211.937 697.111 241.99 685.755Z"/>
	<path transform="scale(0.999721 0.999721)" d="M1242.6 506.746C1244.48 506.37 1246.41 505.971 1248.32 506.281C1253.81 507.17 1258.83 511.595 1263.82 513.921C1270.37 516.972 1277.59 518.978 1283.85 522.613C1286.71 524.272 1289.58 526.44 1291.56 529.121C1297.27 536.852 1293.02 544.912 1291.74 553.245C1287.78 579.009 1312.17 577.996 1322.97 593.326C1327.73 600.069 1327.33 609.412 1325.84 617.147Q1325.69 617.949 1325.51 618.742Q1325.32 619.536 1325.09 620.319Q1324.87 621.102 1324.6 621.873Q1324.34 622.645 1324.04 623.401Q1323.74 624.158 1323.4 624.899Q1323.06 625.64 1322.68 626.363Q1322.3 627.087 1321.89 627.79Q1321.48 628.494 1321.03 629.176Q1320.59 629.858 1320.11 630.517Q1319.63 631.176 1319.12 631.81Q1318.61 632.445 1318.06 633.053Q1317.52 633.661 1316.95 634.241Q1316.38 634.822 1315.77 635.373Q1315.17 635.924 1314.55 636.444Q1313.92 636.965 1313.27 637.454Q1312.62 637.942 1311.94 638.398C1302.21 644.921 1290.45 646.026 1279.18 643.852C1277.54 648.026 1273.63 654.413 1270.05 657.04C1273.19 660.966 1275.42 673.845 1277.13 679.276C1282.25 695.54 1289.37 711.382 1294.07 727.731C1294.33 728.634 1294.33 729.613 1294.29 730.544C1292.38 733.375 1287.05 735.019 1283.92 736.028C1287.97 743.552 1288.81 786.462 1289.63 798.799C1290.01 804.556 1289.8 811.449 1291.75 816.937C1294.26 823.998 1300.27 830.987 1304.51 837.199C1310.15 845.474 1343.38 892.549 1343.99 896.849C1342.09 899.279 1335.73 901.838 1332.83 903.015C1333.18 903.319 1333.54 903.615 1333.87 903.941C1340.42 910.338 1345.57 923.801 1350.41 931.93C1353.66 937.378 1357.74 942.463 1360.78 947.995C1361.6 949.485 1362.31 950.798 1362.33 952.537C1361.27 953.769 1360.14 954.625 1358.79 955.507C1353.17 959.179 1346.6 961.872 1340.55 964.782Q1324.92 972.385 1309.14 979.665C1303.16 982.445 1297.24 986.176 1291.01 988.304C1288.94 989.008 1287.28 989.173 1285.15 988.718C1283.8 987.707 1283.13 987.326 1282.53 985.672C1277.79 972.47 1294.84 954.367 1303.33 945.787C1305.73 943.353 1310.64 939.621 1312.03 936.621C1312.13 936.385 1312.23 936.144 1312.33 935.905C1312.34 935.695 1312.38 935.485 1312.37 935.276C1312.1 931.778 1305.53 922.027 1302.82 919.54C1300.06 922.373 1293.92 925.157 1290.26 926.743C1289.96 923.774 1255.42 873.068 1251.02 866.503C1245.41 858.141 1238.02 849.358 1234.6 839.833C1229.64 826.014 1226.79 782.67 1221.7 775.845C1221.62 782.807 1193.7 819.425 1189.31 833.577C1186.73 841.885 1183.9 864.974 1179.82 870.252C1179.9 870.584 1180.05 871.077 1180.08 871.443C1180.42 875.786 1171.29 912.521 1168.62 915.524L1157.88 915.389C1159.96 921.72 1154.37 929.713 1153.73 936.149C1153.32 940.351 1154.46 945.176 1154.52 949.474C1154.6 955.356 1155.33 967.048 1150.83 971.186C1149.1 972.776 1146.64 973.143 1144.38 973.192C1138.37 973.324 1131.87 971.909 1125.8 971.456L1074.35 967.731C1072.15 967.575 1070.06 967.39 1068.58 965.568C1067.59 964.342 1067.16 963.11 1067.48 961.516C1068.66 955.715 1076.28 949.487 1080.97 946.493C1087.82 942.124 1111.28 928.898 1118.7 930.725C1118.86 930.764 1119.02 930.811 1119.17 930.854C1119.83 930.498 1120.25 930.433 1120.61 929.754C1122.54 926.145 1125.04 916.996 1123.79 913.119C1123.75 912.983 1123.69 912.851 1123.64 912.717L1112.35 911.925C1112.56 911.669 1112.78 911.422 1112.97 911.159C1115.05 908.352 1133.13 827.231 1136.78 814.479C1141.5 797.99 1150.54 782.245 1157.61 766.63C1160.57 760.095 1180.81 724.713 1180.34 720.91C1176.44 722.153 1172.24 722.813 1168.24 723.68C1167.05 721.955 1163.71 721.125 1161.8 720.47C1159.94 724.322 1154.06 728.3 1150.1 729.728C1140.25 733.281 1131.99 731.011 1122.95 726.692C1117.09 731.21 1107.56 736.617 1100.1 737.138C1096.69 737.376 1093.97 736.908 1091.36 734.604C1085.47 729.396 1060.32 690.561 1056.58 682.374C1055.62 680.282 1055.43 677.525 1055.29 675.244C1054.47 662.201 1059.14 661.467 1066.48 652.981C1066.66 652.773 1066.84 652.562 1067.01 652.352C1067.13 650.155 1065.79 648.099 1065.11 646.038C1064.19 643.269 1064.59 641.094 1066.03 638.587C1068.94 633.541 1133.18 597.158 1141.09 595.456C1143.23 594.995 1144.18 595.163 1145.96 596.451C1148.06 597.974 1149.83 600.121 1151.35 602.205C1155.19 607.476 1178.98 644.846 1179.37 647.255C1183.84 647.578 1188.7 648.957 1193.14 648.275C1196.51 643.775 1192.24 636.54 1194.12 631.245C1197.15 622.743 1206.33 615.759 1211.34 608.191C1212.14 605.901 1211.68 603.104 1212.19 600.665C1213.93 592.469 1220.6 591.964 1226.61 587.852C1228.97 586.235 1229.18 585.157 1229.67 582.523C1227.2 580.193 1222.34 580.869 1219.2 578.044C1215.75 574.949 1214.88 570.106 1214.69 565.697C1213.98 548.939 1218.23 535.6 1229.61 523.19C1230.15 522.574 1230.09 522.789 1230.28 522.148C1232.6 514.239 1235.8 511.226 1242.6 506.746Z"/>
	<path fill="#F6F3E7" transform="scale(0.999721 0.999721)" d="M1161.93 709.16L1164.85 708.736L1165.78 709.612C1166.25 714.213 1167.91 716.472 1169.21 720.666C1167.77 721.052 1166.1 720.158 1164.68 719.674C1162.78 716.619 1158.59 716.101 1157.33 713.072C1158.29 710.988 1160.03 710.254 1161.93 709.16Z"/>
	<path fill="#F6F3E7" transform="scale(0.999721 0.999721)" d="M1245.95 586.592C1246.55 586.494 1247.16 586.381 1247.77 586.359C1249.35 586.304 1250.15 586.167 1251.31 587.234C1246.35 596.711 1240.78 606.988 1234.38 615.552L1231.46 613.217C1231.44 612.588 1231.48 612.45 1231.23 611.828C1230.18 609.258 1227.16 608.149 1224.82 607.067C1227.88 603.539 1233.8 594.588 1234.35 590.091C1238.17 589.329 1242.48 588.381 1245.95 586.592Z"/>
	<path fill="#9A5115" transform="scale(0.999721 0.999721)" d="M1153.91 710.563L1155.07 710.612C1155.14 711.912 1154.46 713.208 1154.03 714.427L1154.84 715.504Q1155.76 715.601 1156.67 715.73C1158.74 716.04 1159.91 716.143 1161.15 717.835C1160.98 719.527 1159.41 720.97 1158.16 721.993C1151.66 727.302 1143.54 730.29 1135.18 729.429C1131.65 728.544 1127.98 726.693 1124.56 725.366C1132.48 722.838 1145.33 714.429 1153.91 710.563Z"/>
	<path fill="#F6F3E7" transform="scale(0.999721 0.999721)" d="M1222.92 609.704C1224.02 609.58 1224.95 609.438 1226.03 609.759C1227.86 610.302 1230.21 612.746 1231.05 614.42C1231.7 615.74 1232.17 617.62 1231.85 619.091C1230.86 623.591 1227.67 628.811 1225.82 633.093C1223.03 639.555 1220.57 646.088 1217.95 652.61C1216.95 655.101 1215.89 655.379 1213.55 656.361C1212.95 656.355 1212.93 656.387 1212.25 656.205C1210.36 655.696 1208.93 653.752 1208.12 652.087C1201.71 638.83 1212.46 627.201 1219.17 616.55C1220.33 614.711 1222.07 612.498 1222.71 610.436C1222.79 610.193 1222.85 609.948 1222.92 609.704Z"/>
	<path fill="#9A5115" transform="scale(0.999721 0.999721)" d="M1329.61 904.578C1331 904.424 1331.24 904.415 1332.51 904.981C1335.45 909.317 1342.39 918.97 1342.11 924.021C1335.59 928.643 1324.94 933.616 1317.28 935.886L1316.55 936.129C1312.02 930.948 1310.13 923.151 1305.2 918.336C1309.95 916.511 1326.41 907.62 1329.61 904.578Z"/>
	<path fill="#9A5115" transform="scale(0.999721 0.999721)" d="M1126.08 913.679C1134.12 912.12 1147.26 914.376 1155.77 914.995C1156.03 915.705 1156.2 916.401 1156.16 917.163C1155.87 921.9 1153.07 935.182 1149.91 938.202C1144.09 939.178 1127.84 937.675 1122.93 934.398C1119.76 929.508 1127.88 920.792 1126.31 914.471C1126.24 914.204 1126.15 913.943 1126.08 913.679Z"/>
	<path fill="#F6F3E7" transform="scale(0.999721 0.999721)" d="M1353.5 945.203L1355.42 945.438C1357.8 947.442 1358.62 949.415 1358.9 952.483C1356.59 955.642 1295.17 984.016 1287.84 986.53C1287.09 986.955 1286.96 986.721 1286.15 986.518C1284.78 984.861 1284.19 983.959 1283.92 981.806C1284.45 979.547 1285.4 978.464 1287.27 977.097C1290.9 974.453 1295.63 973.096 1299.69 971.197C1308.47 967.09 1349.48 949.41 1353.5 945.203Z"/>
	<path fill="#F6F3E7" transform="scale(0.999721 0.999721)" d="M1072.48 955.703C1080.78 954.578 1091.05 956.445 1099.5 957.12L1150.62 961.195C1151.43 962.861 1151.35 965.79 1150.75 967.556C1150.06 969.614 1149.65 969.702 1147.83 970.641C1141.24 970.542 1074.54 965.946 1072.02 964.819C1071.55 964.61 1071.27 964.114 1070.9 963.762C1070.41 961.027 1071.9 959.127 1072.35 956.526C1072.4 956.252 1072.44 955.977 1072.48 955.703Z"/>
	<path fill="#DE5348" transform="scale(0.999721 0.999721)" d="M1215.05 608.878L1215.19 608.949C1214.48 606.914 1214.01 604.874 1214.21 602.701C1214.93 594.916 1224.81 592.902 1229.87 588.594C1230 588.478 1230.13 588.356 1230.27 588.237C1232.59 600.333 1204.53 626.332 1203.52 642.516C1203.08 649.531 1207.7 654.646 1208.42 661.13C1208.45 661.449 1208.48 661.77 1208.51 662.09C1209.06 664.915 1208.42 667.187 1206.78 669.599C1206.02 670.716 1205.24 671.47 1204.17 672.272C1203.25 675.576 1199.13 683.491 1196.75 685.86C1195.8 686.804 1194.5 687.042 1193.19 686.987C1191.93 686.933 1190.54 686.213 1189.78 685.205C1182.59 675.67 1197.59 653.809 1197.88 645.722C1197.89 645.424 1197.88 645.125 1197.88 644.826C1198.24 642.103 1195.94 638.531 1195.89 635.47C1195.75 627.584 1209.94 614.44 1215.05 608.878Z"/>
	<path fill="#DE5348" transform="scale(0.999721 0.999721)" d="M1112.72 933.293C1119.73 932.318 1121.66 937.802 1128.04 939.197C1135.55 940.839 1143.77 940.309 1151.45 941.14C1151.65 941.505 1151.93 941.972 1152.06 942.385C1153.12 945.809 1152.43 956.633 1150.55 959.731C1141.14 956.856 1128.94 957.102 1119.08 956.268C1104.21 955.376 1089.37 953.433 1074.47 953.233C1079.56 951.136 1084.59 947.435 1089.55 944.856C1097.18 940.886 1105.25 937.548 1112.72 933.293Z"/>
	<path fill="#DE5348" transform="scale(0.999721 0.999721)" d="M1342.1 925.591C1343.05 925.645 1343.68 925.923 1344.54 926.327C1347.11 930.109 1353.35 938.45 1353.46 942.909C1352.45 944.506 1297.3 969.987 1292.35 971.825C1290.64 973.977 1286.57 974.992 1284.06 975.927C1286.52 973.494 1287.69 969.778 1289.5 966.826C1296.64 955.198 1306.48 942.105 1319.56 937.257C1324.76 935.328 1339.96 930.275 1342.1 925.591Z"/>
	<path fill="#9A5115" transform="scale(0.999721 0.999721)" d="M1232.28 524.255C1232.97 524.119 1233.63 523.987 1234.33 523.937C1236.63 523.773 1239.29 524.265 1240.97 525.962C1241.8 526.801 1242.34 527.846 1242.71 528.956C1243.84 532.346 1243.69 536.381 1244.46 539.921C1245.75 545.897 1248.87 550.097 1248.85 556.503C1250.53 555.62 1252.05 554.607 1253.67 553.652C1255.56 552.542 1256.93 552.59 1258.92 553.183C1259.91 554.145 1260.37 554.863 1260.8 556.197C1261.67 558.929 1261.62 561.644 1259.14 563.493C1255.97 565.86 1251.29 565.891 1248.12 568.333C1242.9 572.361 1248.28 579.572 1246.04 584.097L1243.65 584.763C1239.49 586.798 1233.93 587.594 1229.38 588.395C1231.61 585.67 1233.4 583.105 1233.45 579.447C1228.45 578.74 1223.89 577.543 1219.07 575.989C1219.1 575.074 1219.14 575.332 1219.02 574.587L1218.6 572.238C1217.7 567.247 1217.65 562.156 1217.71 557.095C1217.84 543.772 1222.85 533.556 1232.28 524.255Z"/>
	<path fill="#F6F3E7" transform="scale(0.999721 0.999721)" d="M1137.71 598.497C1139.88 598.027 1142.42 597.774 1144.48 598.752C1145.57 599.267 1146.33 599.965 1147.03 600.939C1150.8 606.264 1178.23 648.336 1179.05 650.705C1183.49 650.461 1187.94 650.658 1192.39 650.777C1193.38 656.624 1187.18 665.828 1186.12 671.939C1185.33 676.474 1187.81 681.061 1187.13 685.214C1185.07 683.681 1182.61 682.858 1180.79 680.941C1173.85 673.625 1160.68 649.05 1154.23 638.994C1152.01 635.536 1149.81 631.29 1146.64 628.616C1146.39 627.209 1145.53 626.211 1144.56 625.175C1133.2 613.042 1086.63 654.94 1071.91 653.946C1071.45 653.475 1071.23 653.275 1070.84 652.789C1068.8 650.222 1066.97 646.16 1067.55 642.861C1069.02 634.462 1127.66 606.149 1136.94 599.098C1137.2 598.9 1137.45 598.697 1137.71 598.497Z"/>
	<path fill="#DE5348" transform="scale(0.999721 0.999721)" d="M1268.31 660.835C1269.12 661.077 1269.4 661.331 1270.04 661.864C1274.88 684.278 1284.57 704.673 1290.92 726.491C1291.25 727.648 1291.25 728.202 1291.01 729.349C1290.83 729.571 1290.69 729.828 1290.48 730.016C1282.24 737.29 1266.05 737.9 1255.62 738.56C1248.96 739.654 1239.87 738.067 1233.04 737.362C1234.68 734.451 1234.83 704.137 1233.83 700.418C1243.84 694.619 1262.71 670.697 1268.31 660.835Z"/>
	<path fill="#363636" transform="scale(0.999721 0.999721)" d="M1243.26 508.847C1244.28 508.653 1245.31 508.468 1246.34 508.407C1252.18 508.064 1259.95 514.821 1265.26 517.274C1272.17 520.466 1280.62 521.825 1286.45 526.954C1297.2 536.406 1288.42 550.363 1289.29 562.105C1290.45 577.937 1307.82 581.993 1317.82 590.841C1322.45 594.934 1324.3 599.781 1324.63 605.846C1325.14 615.055 1322.4 624.413 1316.16 631.307C1309.51 638.644 1300.68 641.878 1290.98 642.441C1287.43 642.595 1283.72 642.284 1280.16 642.193C1280.61 641.784 1281.05 641.363 1281.43 640.882C1285.98 635.193 1288.36 623.202 1287.56 616.045C1285.97 601.884 1273.48 595.25 1261.92 589.629C1258.73 588.077 1254.92 586.657 1252.24 584.325C1250.05 582.414 1248.42 578.944 1248.3 576.043C1248.01 568.573 1258.37 568.163 1262.28 563.695C1263.79 561.966 1264.3 559.803 1263.95 557.556C1263.58 555.222 1262.84 552.73 1260.83 551.303C1258.32 549.518 1255.12 549.962 1252.28 550.432L1251.44 550.573C1245.58 544.891 1248.28 534.13 1245.63 527.189C1243.84 522.486 1237.04 522.256 1233.03 520.592L1233.08 518.646C1235.36 514.17 1239.17 511.537 1243.26 508.847Z"/>
	<path fill="#DE5348" transform="scale(0.999721 0.999721)" d="M1252.57 588.213C1255.82 589.33 1261.95 591.95 1264.14 594.543C1270.62 596.006 1277.92 600.929 1281.51 606.564C1285.34 612.583 1285.93 619.739 1284.27 626.571C1279.59 645.961 1246.15 690.249 1228.37 700.883C1220.35 705.68 1180.53 721.755 1173.88 719.716C1172.05 719.153 1170.78 717.771 1169.97 716.077C1168.87 713.803 1167.56 708.47 1168.56 706.118C1172.24 697.462 1198.98 692.852 1200.7 683.55C1200.81 683.435 1200.92 683.328 1201.01 683.205C1203.04 680.588 1204.46 675.541 1204.17 672.272C1205.24 671.47 1206.02 670.716 1206.78 669.599C1208.42 667.187 1209.06 664.915 1208.51 662.09C1210.13 661.051 1209.99 660.913 1210.5 659.155C1212.09 657.973 1215.33 658.713 1217.42 657.723C1218.67 656.387 1219.06 655.708 1219.52 653.935C1219.62 653.819 1219.73 653.709 1219.82 653.585C1222.71 649.687 1229.75 630.103 1232.78 624.022C1237.53 614.48 1243.99 605.627 1249.32 596.381C1250.71 593.96 1252.9 591.066 1252.57 588.213Z"/>
	<path fill="#F6A518" transform="scale(0.999721 0.999721)" d="M1219.52 653.935C1221.42 654.424 1223.32 655.432 1224.51 657.069C1224.62 657.23 1224.7 657.414 1224.8 657.586L1224.36 658.968C1225.25 661.744 1222.64 670.72 1221.21 673.434C1220.96 673.925 1220.89 673.975 1220.57 674.341C1215.95 677.944 1208.18 683.901 1202.34 684.56L1200.7 683.55C1200.81 683.435 1200.92 683.328 1201.01 683.205C1203.04 680.588 1204.46 675.541 1204.17 672.272C1205.24 671.47 1206.02 670.716 1206.78 669.599C1208.42 667.187 1209.06 664.915 1208.51 662.09C1210.13 661.051 1209.99 660.913 1210.5 659.155C1212.09 657.973 1215.33 658.713 1217.42 657.723C1218.67 656.387 1219.06 655.708 1219.52 653.935Z"/>
	<path fill="#F6F3E7" transform="scale(0.999721 0.999721)" d="M1132.64 625.814C1135.2 625.38 1138.9 625.069 1141.27 626.328C1145.19 628.412 1181.27 685.698 1183.75 692.684C1181.24 696.796 1162.46 703.209 1157.15 705.621C1145.92 710.715 1135.4 716.864 1124.69 722.944C1118.56 726.425 1112.04 730.884 1105.32 732.981C1103.32 734.505 1100.18 734.764 1097.78 734.401C1092.41 733.589 1089.37 728.541 1086.5 724.374C1081.05 716.446 1061.53 687.822 1058.9 680.41C1057.86 677.475 1057.74 673.222 1058.39 670.156C1058.89 667.804 1059.31 666.769 1061.23 665.271C1066.58 661.074 1074.33 657.955 1080.39 654.737C1097.63 645.586 1116.05 636.893 1132.27 626.061L1132.64 625.814Z"/>
	<path fill="#F6A518" transform="scale(0.999721 0.999721)" d="M1214.04 710.564C1215.07 710.46 1216.13 710.486 1217.17 710.466C1218.3 716.208 1216.63 723.032 1216.94 728.964C1217.39 737.577 1223.34 764.862 1221.61 770.324C1222.26 776.013 1199.83 807.279 1195.85 813.993C1193.2 818.476 1190.84 823.093 1188.96 827.96C1183.02 843.381 1172.15 906.04 1167.16 913.196L1127.14 910.608L1115.37 910.128C1119.2 904.342 1121.98 885.709 1123.71 878.35C1128.85 856.587 1134.6 827.336 1141.99 806.957C1147.28 792.356 1155.22 777.079 1162.16 763.151C1166.12 755.199 1183.39 726.335 1183.75 720.399C1193.5 717.311 1205 715.288 1214.04 710.564Z"/>
	<path fill="#F6A518" transform="scale(0.999721 0.999721)" d="M1229.58 702.859L1231.28 703.151C1234.25 708.341 1227.94 730.594 1231.99 738.493C1232.5 739.47 1234.2 740.041 1235.2 740.325C1244.86 743.068 1273.57 741.643 1282.17 736.615C1286.6 744.002 1284.32 802.765 1289.46 817.873C1291.97 825.274 1298.59 832.972 1303.05 839.441C1307.76 846.287 1339.35 891.115 1339.89 895.764C1338.24 898.844 1323.04 906.387 1319.27 907.718C1315.96 911.515 1296.54 920.961 1290.92 923.44C1290.9 921.886 1289.59 920.414 1288.77 919.156L1254.57 867.478C1248.81 858.776 1240.91 849.164 1237.13 839.433C1232.68 828.011 1231.55 814.383 1229.62 802.316C1227.16 786.964 1224.54 771.595 1222.59 756.169C1221.46 747.262 1219.97 737.873 1219.7 728.918C1219.51 722.461 1221.05 714.605 1219.69 708.384C1219.66 708.239 1219.62 708.096 1219.59 707.952C1222.99 707.114 1226.94 705.155 1229.58 702.859Z"/>
</svg>
