<?xml version="1.0" encoding="utf-8" ?>
<svg xmlns="http://www.w3.org/2000/svg" xmlns:xlink="http://www.w3.org/1999/xlink" width="1434" height="1024">
	<path fill="#F6F7EF" transform="scale(0.999721 0.999721)" d="M0 0L538.798 0L544.46 0L646.122 0L650.997 0L1432.77 0C1434.08 2.27853 1433.94 4.17232 1433.98 6.7274C1434.66 58.9788 1434 111.334 1434 163.6L1434 475.86L1434.01 583.721C1434.01 591.324 1435.2 616.884 1433.62 622.949C1433.5 623.429 1433.4 623.611 1433.21 624.098C1434.17 627.204 1434.33 629.453 1433.11 632.498C1433.66 633.797 1433.9 634.908 1433.95 636.307C1434.32 647.711 1434.84 772.406 1433.47 775.939C1433.37 776.195 1433.25 776.444 1433.14 776.697C1434.1 779.634 1434.39 781.596 1432.98 784.409C1433.79 786.134 1433.93 787.511 1433.97 789.397C1434.39 808.474 1434.03 827.641 1434.03 846.726L1434.03 957.638C1434.03 965.788 1435.11 1017.76 1433.62 1022.11C1433.4 1022.78 1433.13 1023.39 1432.77 1024L811.8 1024L806.918 1024L653.843 1024L648.204 1024L0 1024L0 578.072L0 566.474L0 393.849L0 382.503L0 0Z"/>
	<path fill="#F2CF85" transform="scale(0.999721 0.999721)" d="M118.022 360.179L119.622 365.379C112.884 372.511 107.183 381.661 101.502 389.682Q90.8706 404.804 80.9122 420.377Q70.9537 435.95 61.6874 451.945Q52.4211 467.94 43.8646 484.326Q35.3082 500.712 27.4782 517.457Q18.2029 537.639 9.21432 557.95C6.36199 564.389 3.81287 572.196 0 578.072L0 566.474C4.13211 559.436 7.31226 551.423 10.7452 544.004C18.0102 528.304 25.063 512.476 32.491 496.856C43.1291 474.485 56.2483 453.066 68.8379 431.746Q87.9204 400.138 110.28 370.758C112.531 367.75 116.936 363.644 118.022 360.179Z"/>
	<path fill="#F2CF85" transform="scale(0.999721 0.999721)" d="M648.204 1024C655.845 1016.36 662.262 1006.8 669.477 998.637C684.783 981.318 700.817 964.981 717.494 948.985C786.829 882.488 898.901 818.415 993.501 801.007L992.781 803.944C881.538 833.153 787.023 886.117 705.004 966.915C688.707 982.97 666.648 1005.4 653.843 1024L648.204 1024Z"/>
	<path fill="#F2CF85" transform="scale(0.999721 0.999721)" d="M646.122 0L650.997 0C643.446 13.7259 635.802 27.6543 627.252 40.782C578.819 115.15 517.777 158.918 438.173 194.971C409.306 208.045 379.704 219.403 350.801 232.439C320.416 246.143 292.093 261.399 264.466 280.058C257.699 284.629 250.348 289.145 244.146 294.415L241.694 291.874C254.227 282.996 265.892 273.274 278.935 265.038C319.425 239.471 364.597 221.225 408.783 203.143C496.431 167.275 569.94 121.506 622.43 40.4025C630.667 27.6759 640.277 13.9422 646.122 0Z"/>
	<path fill="#AC582E" transform="scale(0.999721 0.999721)" d="M498.096 418.488C503.902 418.407 509.585 418.517 515.376 418.966C517.21 420.184 518.74 421.568 520.348 423.057C520.373 443.007 523.774 563.396 517.886 570.221C514.975 573.595 510.037 573.564 505.951 573.746C500.21 573.708 490.608 574.815 485.498 571.999C484.04 568.33 483.749 563.798 483.573 559.885C483.176 551.069 483.663 542.095 483.696 533.264Q483.704 506.283 483.995 479.304C484.138 465.456 482.464 433.127 485.858 421.331C489.082 418.064 493.82 418.623 498.096 418.488Z"/>
	<path fill="#AC582E" transform="scale(0.999721 0.999721)" d="M692.034 420.246C692.98 420.274 693.677 420.326 694.576 420.66C696.974 421.55 697.929 423.009 699.189 425.178C704.741 434.737 708.699 446.154 713.326 456.262C722.285 475.836 731.674 495.225 740.499 514.853Q752.659 487.586 764.408 460.138C768.641 450.288 772.466 439.935 777.353 430.398C778.796 427.581 780.331 425.063 782.637 422.868C787.221 421.523 794.168 424.622 798.597 426.269C801.987 427.529 810.727 430.133 811.919 433.483C814.812 441.615 796.487 477.202 792.544 485.983Q777.516 520.168 763.254 554.679C760.327 561.568 756.739 570.388 749.273 573.271C744.097 575.269 737.719 574.8 732.696 572.576C729.17 571.015 726.65 568.606 724.517 565.454C717.15 554.573 711.951 540.777 706.427 528.849C693.348 500.608 680.329 471.987 668.916 443.033C668.037 440.802 665.958 436.238 667.01 433.975C670.153 427.216 685.24 422.64 692.034 420.246Z"/>
	<path fill="#AC582E" transform="scale(0.999721 0.999721)" d="M917.902 417.151C917.985 417.157 918.07 417.154 918.153 417.169C921.664 417.818 923.669 420.718 925.573 423.438C926.63 443.543 924.945 463.957 924.578 484.092C924.463 490.36 923.517 498.113 924.644 504.207C925.853 510.742 935.293 505.642 939.314 508.769C942.141 510.969 942.911 518.192 943.121 521.55C943.4 526.034 944.15 533.746 940.696 537.247C937.488 540.498 929.831 540.017 925.516 540.278C926.414 548.432 927.461 558.429 926.707 566.588C926.556 568.222 926.124 570.498 924.671 571.512C918.836 575.58 902.693 574.028 895.635 573.15C893.449 572.878 890.472 572.518 888.704 571.132C881.468 565.46 890.746 546.849 885.302 539.759L882.421 539.58Q864.874 538.823 847.315 538.457C840.846 538.272 833.775 538.575 827.438 537.344C824.118 536.699 820.324 535.376 817.977 532.856C813.208 527.735 814.227 518.76 814.268 512.288C820.702 500.825 836.61 484.423 845.666 473.529C858.676 457.878 871.058 441.477 884.502 426.23C886.149 424.363 887.905 422.348 890.069 421.066C896.713 417.129 910.22 417.617 917.902 417.151Z"/>
	<path fill="#F6F7EF" transform="scale(0.999721 0.999721)" d="M889.646 469.799C889.894 482.27 889.775 494.769 889.954 507.248C880.582 507.804 871.151 507.761 861.764 507.893C860.115 508.032 859.65 508.162 858.115 507.433C861.136 501.581 883.871 476.31 889.646 469.799Z"/>
	<path fill="#AC582E" transform="scale(0.999721 0.999721)" d="M578.453 417.855C596.356 417.044 614.249 416.922 630.679 425.308C643.085 431.64 651.811 442.036 656.033 455.305Q656.47 456.727 656.837 458.168Q657.203 459.61 657.499 461.067Q657.794 462.525 658.017 463.996Q658.24 465.466 658.391 466.946Q658.541 468.426 658.618 469.911Q658.696 471.397 658.7 472.884Q658.704 474.371 658.635 475.857Q658.566 477.343 658.424 478.823Q658.281 480.304 658.067 481.776Q657.852 483.248 657.565 484.707Q657.278 486.166 656.919 487.61Q656.56 489.053 656.131 490.478Q655.702 491.902 655.203 493.303Q654.704 494.704 654.137 496.079Q653.57 497.454 652.936 498.799Q652.302 500.145 651.602 501.457C641.847 519.796 622.642 530.717 602.289 532.94C595.833 533.646 587.835 533.035 581.695 534.868L581.344 535.989C582.049 544.525 585.643 564.136 580.548 571.16C579.433 572.698 578.261 573.349 576.402 573.673C569.451 574.884 553.365 575.512 547.66 571.155C545.415 569.441 545.156 565.936 544.856 563.314C543.846 554.49 543.952 545.354 543.628 536.476Q542.574 513.826 542.024 491.158C541.455 471.875 539.615 451.826 540.483 432.616C540.573 430.619 540.669 427.873 541.988 426.312C547.832 419.394 569.658 418.785 578.453 417.855Z"/>
	<path fill="#F6F7EF" transform="scale(0.999721 0.999721)" d="M584.892 450.074C590.96 449.526 596.95 449.4 602.921 450.81C610.09 452.503 617.779 456.231 621.696 462.772C624.794 467.946 625.35 474.722 623.834 480.493C621.984 487.539 617.513 492.376 611.361 495.982C600.583 500.748 590.025 500.87 578.478 500.773C578.465 493.247 576.067 456.176 578.309 451.85C580.231 450.09 582.42 450.246 584.892 450.074Z"/>
	<path fill="#F1F0C7" transform="scale(0.999721 0.999721)" d="M1433.21 624.098C1434.17 627.204 1434.33 629.453 1433.11 632.498C1433.66 633.797 1433.9 634.908 1433.95 636.307C1434.32 647.711 1434.84 772.406 1433.47 775.939C1433.37 776.195 1433.25 776.444 1433.14 776.697C1434.1 779.634 1434.39 781.596 1432.98 784.409C1428.78 790.462 1422.6 795.583 1417.17 800.53C1392.97 822.577 1366.88 840.683 1336.94 854.083C1324.5 859.653 1310.92 863.216 1298.75 869.199C1294.55 867.318 1283.52 870.965 1278.41 871.151C1257.84 875.591 1236.43 876.967 1215.57 879.648C1215.54 876.058 1206.07 849.767 1204.38 843.441C1201.37 832.181 1198.52 804.382 1194.99 796.534C1197.98 796.403 1203.38 796.491 1205.68 794.565C1205.48 789.617 1199.57 772.447 1196.28 769.107C1199.43 768.435 1202.44 767.227 1205.47 766.14C1209.34 764.803 1213.29 762.509 1216.62 760.136C1220.12 757.638 1224.39 753.913 1225.12 749.446L1226.54 750.278C1234.86 750.735 1245.79 745.709 1253.65 742.826C1312.38 721.255 1371.19 689.074 1415.51 644.336C1421.12 638.669 1429.83 631.406 1433.21 624.098Z"/>
	<path fill="#F2CF85" transform="scale(0.999721 0.999721)" d="M1278.41 871.151C1285.65 867.36 1294.74 865.418 1302.57 862.855Q1316.18 858.322 1329.37 852.665C1364.79 837.648 1389.89 820.275 1417.65 793.989C1422.69 789.217 1430.52 783.139 1433.14 776.697C1434.1 779.634 1434.39 781.596 1432.98 784.409C1428.78 790.462 1422.6 795.583 1417.17 800.53C1392.97 822.577 1366.88 840.683 1336.94 854.083C1324.5 859.653 1310.92 863.216 1298.75 869.199C1294.55 867.318 1283.52 870.965 1278.41 871.151Z"/>
	<path fill="#F2CF85" transform="scale(0.999721 0.999721)" d="M1433.21 624.098C1434.17 627.204 1434.33 629.453 1433.11 632.498C1428.87 638.569 1421.74 643.641 1416.57 649.053C1377.7 689.741 1319.9 722.541 1267.36 742.465C1253.63 747.674 1239.62 751.171 1225.75 755.767C1218.91 758.033 1215.96 764.67 1208.75 766.073C1207.61 766.295 1206.61 766.244 1205.47 766.14C1209.34 764.803 1213.29 762.509 1216.62 760.136C1220.12 757.638 1224.39 753.913 1225.12 749.446L1226.54 750.278C1234.86 750.735 1245.79 745.709 1253.65 742.826C1312.38 721.255 1371.19 689.074 1415.51 644.336C1421.12 638.669 1429.83 631.406 1433.21 624.098Z"/>
	<path fill="#F1F0C7" transform="scale(0.999721 0.999721)" d="M653.843 1024C666.648 1005.4 688.707 982.97 705.004 966.915C787.023 886.117 881.538 833.153 992.781 803.944C993.653 808.952 994.681 812.758 999.241 815.762C1004.32 819.106 1011.28 818.477 1016.9 817.089Q1017.89 816.842 1018.88 816.558C1009.78 841.393 1007.47 867.514 1005.48 893.692C1004.76 903.244 1003.72 912.913 1003.96 922.498L1003.91 928.192C992.97 924.579 916.998 958.821 902.817 965.967C870.348 982.328 840.683 1001.98 811.8 1024L806.918 1024L653.843 1024Z"/>
	<path fill="#F2CF85" transform="scale(0.999721 0.999721)" d="M806.918 1024C814.231 1017 823.051 1010.76 831.241 1004.82Q838.334 999.694 845.593 994.806Q852.853 989.918 860.27 985.274Q867.688 980.63 875.256 976.235Q882.823 971.84 890.533 967.699Q898.242 963.558 906.085 959.676Q913.928 955.793 921.895 952.173Q929.862 948.553 937.945 945.199Q946.028 941.846 954.218 938.763C970.603 932.56 987.439 928.199 1003.96 922.498L1003.91 928.192C992.97 924.579 916.998 958.821 902.817 965.967C870.348 982.328 840.683 1001.98 811.8 1024L806.918 1024Z"/>
	<path fill="#050101" transform="scale(0.999721 0.999721)" d="M118.022 360.179Q117.461 356.595 117.029 352.994C114.903 333.785 119.987 314.695 132.153 299.579Q133.363 298.078 134.645 296.638Q135.927 295.197 137.278 293.821Q138.629 292.446 140.045 291.137Q141.462 289.829 142.94 288.592Q144.419 287.354 145.956 286.19Q147.493 285.026 149.086 283.939Q150.678 282.852 152.321 281.844Q153.965 280.835 155.655 279.909Q157.346 278.982 159.08 278.139Q160.814 277.296 162.587 276.539Q164.36 275.781 166.168 275.111Q167.975 274.442 169.814 273.861Q171.652 273.28 173.517 272.79Q175.381 272.3 177.268 271.902Q179.154 271.503 181.057 271.197Q182.961 270.891 184.877 270.679C207.25 268.392 224.997 278.263 241.694 291.874L244.146 294.415C256.448 306.734 266.489 322.322 266.547 340.261C266.589 353.181 262.062 364.322 252.9 373.447C245.805 380.514 237.335 385.206 228.512 389.707C235.358 397.927 242.229 406.416 247.235 415.925C260.803 423.336 275 430.96 287.311 440.325C293.454 428.377 312.538 400.661 313.869 389.988C314.175 387.528 313.344 384.882 312.602 382.563C310.467 375.893 307.121 369.523 305.345 362.77C306.096 360.114 306.944 357.342 307.341 354.604C308.297 348.01 307.583 332.51 314.304 328.938C318.508 326.704 324.357 327.521 328.801 325.735C339.18 321.562 348.373 312.405 357.538 306.079Q366.905 298.76 376.16 291.299C378.84 288.978 382.871 284.843 386.728 285.089C389.206 285.247 390.437 286.454 391.87 288.362C399.709 298.803 406.957 314.132 413.381 325.83C415.472 329.639 417.391 333.904 419.949 337.408C425.163 344.552 432.277 336.98 434.145 357.021C414.566 366.495 396.347 378.716 376.883 388.31C379.998 395.461 383.613 404.25 380.434 411.987C378.53 416.622 375.202 418.964 371.059 421.422C374.338 426.125 377.437 430.779 380.21 435.805C371.009 451.354 360.681 466.22 350.542 481.166C344.015 490.788 337.698 501.342 329.805 509.881C326.907 513.016 323.614 516.32 319.336 517.355C316.915 517.941 314.156 517.768 311.67 517.883C317.812 546.407 327.625 574.605 335.125 602.848Q347.453 647.67 356.465 693.275C359.03 706.461 362.007 720.074 362.655 733.505C363.933 760.013 355.481 787.812 349.353 813.388C340.063 852.156 330.013 890.569 317.401 928.41C332.346 931.989 345.648 937.592 353.943 951.337C356.197 955.073 359.399 961.311 358.751 965.773C357.14 968.098 355.324 968.552 352.617 969.057C337.99 971.788 282.275 973.793 270.255 965.975C267.958 962.287 270.176 953.026 271.119 948.986C273.265 939.793 276.988 930.856 278.635 921.568C280.6 910.487 280.66 898.406 281.715 887.138L287.479 827.774C288.781 813.862 289.66 799.814 291.563 785.969C287.427 787.156 283.135 788.182 279.134 789.761C271.596 804.001 262.701 817.576 254.104 831.193Q234.168 863.084 212.848 894.065C203.481 907.571 192.132 921.276 183.885 935.377C196.827 937.535 209.721 943.978 217.419 954.944C220.201 958.907 224.071 967.013 222.909 971.959C222.557 973.458 221.618 974.173 220.304 974.894C208.649 981.294 169.892 975.415 157.284 970.912C148.737 967.859 139.583 963.787 133.657 956.752C138.297 940.614 149.328 928.124 155.485 912.898C158.344 905.829 160.343 898.255 162.652 890.98Q169.033 870.681 175.657 850.46Q181.761 831.909 188.372 813.532C191.186 805.759 194.437 797.975 196.808 790.06C190.847 788.367 170.725 784.137 167.825 778.179C166.232 774.907 182.677 733.082 184.916 726.193C197.711 686.829 210.694 647.358 220.165 607.03C207.956 613.072 193.227 621.216 179.289 616.315C174.074 614.481 169.101 610.518 166.638 605.5C166.03 604.262 165.565 602.943 165.11 601.642L165.115 601.663C157.544 599.471 151.937 596.977 147.988 589.809C138.931 573.369 145.614 538.186 148.999 520.4C141.136 526.335 127.183 534.406 116.973 532.958C115.894 532.805 115.092 532.317 114.184 531.752L113.567 530.699C117.255 526.733 121.753 523.457 125.253 519.354C136.059 506.684 137.971 488.851 137.419 472.897C136.35 441.986 128.082 426.588 143.764 396.528C131.339 388.795 123.915 379.594 119.622 365.379L118.022 360.179Z"/>
	<path fill="#F2CF85" transform="scale(0.999721 0.999721)" d="M286.484 443.463C288.971 445.443 290.693 447.097 293.904 447.389C298.063 453.025 300.807 459.989 304.105 466.168C296.991 462.926 290.004 458.888 283.242 454.951C284.428 451.16 285.416 447.29 286.484 443.463Z"/>
	<path fill="#F2CF85" transform="scale(0.999721 0.999721)" d="M253.537 423.424C263.108 426.824 276.807 437.024 285.22 443.32L282.313 447.458C281.586 448.899 280.832 450.127 279.861 451.413C274.26 445.28 268.356 441.454 261.226 437.397C258.833 432.606 256.321 428.001 253.537 423.424Z"/>
	<path fill="#F6F7EF" transform="scale(0.999721 0.999721)" d="M309.455 359.454C311.574 352.854 310.163 337.922 315.031 333.633C319.325 329.85 326.931 331.232 332.192 331.523L333.746 333.181L333.693 334.571C331.135 336.582 326.559 336.663 323.376 337.049C319.717 342.839 319.371 350.806 317.155 357.307L309.455 359.454Z"/>
	<path fill="#F6F7EF" transform="scale(0.999721 0.999721)" d="M224.832 391.579C228.129 392.878 236.523 405.952 238.89 409.527C231.556 405.948 223.832 404.662 215.818 403.702C210.842 401.886 203.363 404.261 198.577 400.833C197.646 400.166 197.827 400 197.598 398.968C199.719 397.211 206.249 397.355 209.244 396.639C214.512 395.379 219.714 393.354 224.832 391.579Z"/>
	<path fill="#F6F7EF" transform="scale(0.999721 0.999721)" d="M335.716 360.064C337.788 360.629 339.551 361.002 341.175 362.515C341.447 363.753 341.66 363.857 340.958 364.907C339.474 367.129 336.944 368.176 334.612 369.297C331.06 370.404 327.143 371.06 325.139 374.433C326.496 377.26 329.899 378.053 331.749 380.728C329.377 384.772 329.785 390.725 327.194 393.812C324.192 394.316 321.113 393.156 318.209 392.408C316.672 381.352 311.328 372.131 308.904 361.391C317.887 361.678 326.767 360.776 335.716 360.064Z"/>
	<path fill="#76BB88" transform="scale(0.999721 0.999721)" d="M298.985 515.092L308.286 517.668C309.944 522.64 326.05 584.162 326.05 584.428L324.69 585.064C320.912 586.424 317.058 587.524 313.207 588.653C310.124 563.499 305.21 539.632 298.985 515.092Z"/>
	<path fill="#F6F7EF" transform="scale(0.999721 0.999721)" d="M140.745 947.279C160.742 962.599 182.462 964.697 206.891 964.533C209.738 964.514 212.595 963.918 215.384 963.925C216.538 963.929 217.378 964.349 218.179 965.132C219.367 966.295 219.905 967.693 219.82 969.361C219.737 970.984 219.6 971.04 218.354 972.086C215.551 972.643 212.636 972.952 209.788 973.209C186.621 975.297 155.976 971.827 137.642 956.38C138.495 953.273 139.615 950.293 140.745 947.279Z"/>
	<path fill="#F6F7EF" transform="scale(0.999721 0.999721)" d="M273.272 955.653C299.731 960.673 326.521 956.047 353.143 956.125C354.076 958.681 355.729 962.018 355.204 964.721L354.401 964.885C340.129 967.685 283.564 970.233 272.843 963.025C272.065 960.601 272.824 958.099 273.272 955.653Z"/>
	<path fill="#EBAD47" transform="scale(0.999721 0.999721)" d="M197.069 404.075C206.02 409.953 220.894 407.013 231.245 410.49C245.142 415.157 252.602 427.761 258.824 440.148L239.91 428.425C232.952 423.612 225.125 417.263 216.39 416.534C205.296 415.607 194.169 428.18 186.236 434.811C186.531 419.131 186.153 415.966 197.069 404.075Z"/>
	<path fill="#F2CF85" transform="scale(0.999721 0.999721)" d="M252.769 496.29Q260.141 499.958 267.621 503.402C266.805 530.147 253.774 559.077 235.51 578.296C232.7 580.696 230.083 582.864 228.082 586.008C228.466 580.51 227.339 572.28 229.01 567.197C229.252 566.459 236.524 556.354 237.767 554.215C248.761 535.3 252.648 517.99 252.769 496.29Z"/>
	<path fill="#AC582E" transform="scale(0.999721 0.999721)" d="M361.538 378.806C372.521 372.84 383.287 366.517 394.195 360.42C404.617 354.595 418.38 349 426.727 340.393C428.121 345.233 429.281 350.364 431.293 354.982C412.441 364.644 394.314 375.618 375.55 385.417C372.37 383.26 370.586 382.278 366.591 383.093C360.323 384.371 354.263 388.786 348.79 391.975L339.733 383.322L337.54 381.511L337.602 380.451C339.378 379.236 340.99 377.922 342.612 376.509C344.37 375.817 344.632 375.532 346.521 376.028C347.2 377.071 347.807 377.951 348.233 379.131C352.636 380.338 355.33 378.466 359.218 376.55C359.881 378.181 359.922 378.054 361.538 378.806Z"/>
	<path fill="#160708" transform="scale(0.999721 0.999721)" d="M348.233 379.131C352.636 380.338 355.33 378.466 359.218 376.55C359.881 378.181 359.922 378.054 361.538 378.806C356.95 381.451 350.472 385.651 344.92 384.373C344.654 384.311 344.393 384.229 344.129 384.157L346.609 382.93C347.322 381.454 347.291 381.186 347.131 379.54L348.233 379.131Z"/>
	<path fill="#22806F" transform="scale(0.999721 0.999721)" d="M342.612 376.509C344.37 375.817 344.632 375.532 346.521 376.028C347.2 377.071 347.807 377.951 348.233 379.131L347.131 379.54C347.291 381.186 347.322 381.454 346.609 382.93L344.129 384.157C342.7 383.762 341.196 383.571 339.733 383.322L337.54 381.511L337.602 380.451C339.378 379.236 340.99 377.922 342.612 376.509Z"/>
	<path fill="#F6F7EF" transform="scale(0.999721 0.999721)" d="M313.399 402.13C316.095 404.014 323.043 409.056 326.373 408.387C327.165 408.228 327.921 407.888 328.649 407.549L329.07 406.704C326.053 402.384 315.109 403.709 315.536 396.642L316.474 395.278C317.818 395.115 318.273 395.394 319.406 395.983C322.596 397.642 328.261 396.488 330.489 398.896C332.77 410.4 310.728 455.277 304.105 466.168C300.807 459.989 298.063 453.025 293.904 447.389C292.981 445.618 291.093 442.882 291.648 440.847C294.303 431.119 307.668 411.61 313.399 402.13Z"/>
	<path fill="#AC582E" transform="scale(0.999721 0.999721)" d="M160.044 910.783C163.319 912.36 166.447 914.765 169.624 916.593C175.23 919.819 181.035 922.18 187.086 924.43C185.384 927.236 183.418 931.087 180.762 933.068C178.553 934.715 175.49 934.771 173.735 936.937L174.033 938.045C176.862 939.318 185.039 939.087 189.152 940.139C198.631 942.563 210.127 948.997 215.061 957.794C215.813 959.136 216.062 959.392 215.644 960.843L213.735 961.157C188.603 962 162.071 961.397 141.882 944.58C147.469 933.175 153.452 921.64 160.044 910.783Z"/>
	<path fill="#AC582E" transform="scale(0.999721 0.999721)" d="M282.444 918.219C294.112 918.661 305.814 918.223 317.484 917.988Q315.521 922.997 313.681 928.052C310.536 928.329 304.824 928.682 302.536 930.935C307.094 932.606 312.676 931.925 317.497 932.282C330.205 933.223 341.504 941.227 349.534 950.621L349.712 952.292C347.178 953.99 341.036 953.518 337.726 953.754C316.132 955.293 295.167 956.109 273.611 953.265C275.675 941.461 279.457 929.828 282.444 918.219Z"/>
	<path fill="#EBAD47" transform="scale(0.999721 0.999721)" d="M183.943 438.992C183.974 439.131 184.014 439.268 184.035 439.409C184.722 443.968 183.478 460.96 183.505 467.146C183.622 494.647 187.064 571.433 171.658 591.793C169.915 594.096 167.459 596.296 164.466 596.59C160.343 596.997 157.716 595.601 154.665 593.126C150.865 589.107 149.289 585.047 148.404 579.676C145.96 564.849 147.559 530.147 154.117 516.425C158.86 506.5 164.489 501.894 168.279 489.338C172.837 474.239 175.006 451.365 183.943 438.992Z"/>
	<path fill="#F6F7EF" transform="scale(0.999721 0.999721)" d="M216.883 279.837C223.121 281.829 228.316 285.818 233.433 289.756C231.39 292.517 230.626 294.331 230.8 297.912C230.88 299.561 230.795 299.746 232.026 300.831C234.832 299.601 236.052 296.095 239.078 295.539C243.072 296.985 245.857 300.861 248.394 304.091C257.747 315.997 264.752 329.537 262.732 345.088C259.275 371.715 231.693 387.388 207.812 393.269C204.471 394.091 194.764 394.578 192.369 396.423L192.412 397.441C193.537 398.218 194.39 398.9 195.315 399.928C194.015 403.59 187.969 408.412 185.116 411.387C182.989 419.344 185.074 428.816 181.714 436.136C180.407 438.985 177.843 441.744 176.154 444.469C174.721 449.286 173.889 454.44 172.833 459.366C170.235 443.018 155.084 423.522 155.873 409.436C156.034 406.567 157.171 403.497 157.991 400.741C165.736 400.809 173.162 399.801 180.545 397.385C196.773 392.074 210.289 382.212 218.01 366.823C215.775 366.195 213.507 365.561 211.365 364.658C208.291 363.363 207.04 361.296 205.839 358.321C204.858 355.893 204.119 352.997 205.333 350.508C209.118 342.756 220.654 345.574 227.155 343.34C231.012 332.809 221.248 290.913 216.883 279.837Z"/>
	<path fill="#050101" transform="scale(0.999721 0.999721)" d="M241.701 342.897C244.258 344.119 244.976 348.339 246.556 350.747C248.563 353.808 251.518 354.289 254.883 354.881L255.491 354.983L255.325 356.525C253.903 357.389 252.708 357.801 251.096 358.194C249.674 358.014 248.598 357.729 247.456 356.812C243.526 353.656 242.196 347.668 241.701 342.897Z"/>
	<path fill="#050101" transform="scale(0.999721 0.999721)" d="M239.098 304.575C241.469 304.464 243.651 304.548 245.742 305.808Q246.266 306.123 246.755 306.489Q247.244 306.856 247.694 307.269Q248.143 307.683 248.549 308.14Q248.955 308.596 249.313 309.092Q249.671 309.587 249.977 310.116Q250.283 310.645 250.535 311.202Q250.786 311.759 250.98 312.338Q251.174 312.918 251.309 313.514C252.117 317.219 251.685 319.57 249.712 322.766C248.277 322.613 246.708 322.49 245.361 321.942C242.576 320.809 239.846 317.573 238.78 314.835C237.273 310.967 237.449 308.341 239.098 304.575Z"/>
	<path fill="#F6F7EF" transform="scale(0.999721 0.999721)" d="M240.565 307.084C241.14 307.299 241.714 307.524 242.248 307.831C246.073 310.03 247.144 315.768 248.02 319.721C246.848 319.241 245.743 318.629 244.779 317.793C241.459 314.914 240.755 311.202 240.565 307.084Z"/>
	<path fill="#76BB88" transform="scale(0.999721 0.999721)" d="M387.457 287.036C398.076 305.511 407.956 324.804 419.238 342.851Q396.461 355.408 373.896 368.343C369.076 371.119 363.896 373.583 359.218 376.55C355.33 378.466 352.636 380.338 348.233 379.131C347.807 377.951 347.2 377.071 346.521 376.028C344.632 375.532 344.37 375.817 342.612 376.509C339.482 377.596 337.278 378.969 333.978 377.533C332.491 376.885 332.392 376.863 331.824 375.344C333.069 373.368 334.154 373.176 336.182 372.273L334.612 369.297C336.944 368.176 339.474 367.129 340.958 364.907C341.66 363.857 341.447 363.753 341.175 362.515C339.551 361.002 337.788 360.629 335.716 360.064L336.103 357.078C330.953 356.376 325.281 357.444 320.136 358.026L324.61 339.928L323.376 337.049C326.559 336.663 331.135 336.582 333.693 334.571L333.746 333.181L332.192 331.523C332.223 330.203 332.063 328.908 331.94 327.594C341.866 322.755 351.392 314.92 360.055 308.111L357.538 306.079Q366.905 298.76 376.16 291.299C377.198 292.809 377.049 292.951 378.95 293.31C381.704 291.111 384.401 288.808 387.457 287.036Z"/>
	<path fill="#160708" transform="scale(0.999721 0.999721)" d="M332.192 331.523C332.223 330.203 332.063 328.908 331.94 327.594C334.277 328.775 336.942 330.216 337.786 332.901C338.121 333.967 337.83 334.716 337.636 335.784C336.045 337.952 334.119 339.216 331.428 339.632C329.196 339.977 326.864 339.924 324.61 339.928L323.376 337.049C326.559 336.663 331.135 336.582 333.693 334.571L333.746 333.181L332.192 331.523Z"/>
	<path fill="#160708" transform="scale(0.999721 0.999721)" d="M376.16 291.299C377.198 292.809 377.049 292.951 378.95 293.31C372.722 298.346 366.487 303.338 360.055 308.111L357.538 306.079Q366.905 298.76 376.16 291.299Z"/>
	<path fill="#160708" transform="scale(0.999721 0.999721)" d="M336.103 357.078C338.946 357.21 341.776 357.715 343.873 359.832C344.977 360.946 345.603 362.432 345.523 364.005Q345.504 364.371 345.449 364.733Q345.394 365.095 345.305 365.45Q345.216 365.805 345.093 366.15Q344.97 366.495 344.814 366.827Q344.659 367.158 344.472 367.473Q344.285 367.788 344.069 368.084Q343.853 368.379 343.609 368.652Q343.365 368.926 343.096 369.174C341.32 370.786 338.428 371.519 336.182 372.273L334.612 369.297C336.944 368.176 339.474 367.129 340.958 364.907C341.66 363.857 341.447 363.753 341.175 362.515C339.551 361.002 337.788 360.629 335.716 360.064L336.103 357.078Z"/>
	<path fill="#EBAD47" transform="scale(0.999721 0.999721)" d="M197.817 430.619C198.196 430.969 198.527 431.696 198.795 432.145C196.342 445.912 207.243 473.917 211.266 487.918Q215.439 502.351 218.596 517.039C222.698 535.802 225.113 554.575 224.948 573.815C224.88 581.767 225.135 592.035 221.392 599.203C217.056 607.506 203.317 611.124 194.861 613.852C190.604 614.424 186.369 614.959 182.171 613.738C175.027 611.659 170.85 606.036 167.41 599.803C168.871 598.94 170.355 598.067 171.705 597.034C188.805 583.943 187.694 508.058 187.339 486.429C187.119 473.047 185.266 457.926 187.408 444.762C188.623 437.301 191.918 434.813 197.817 430.619Z"/>
	<path fill="#C1C0C0" transform="scale(0.999721 0.999721)" d="M271.479 790.981C272.375 790.806 273.125 790.923 274.027 791.003C273.717 798.818 197.721 910.531 188.883 921.918C182.893 919.293 176.955 916.695 171.214 913.551Q166.021 910.57 161.057 907.22C164.159 894.311 169.459 881.219 173.563 868.533C181.957 842.586 189.887 816.298 200.173 791.032C224.456 795.976 247.228 795.197 271.479 790.981Z"/>
	<path fill="#C1C0C0" transform="scale(0.999721 0.999721)" d="M326.895 587.723C327.051 587.941 327.235 588.141 327.364 588.376C328.905 591.192 329.594 596.469 330.465 599.713Q336.425 621.85 341.755 644.146C347.66 668.576 358.461 712.317 359.178 736.485C359.881 760.203 352.44 785.197 346.968 808.124Q334.652 861.484 318.614 913.846C311.649 915.231 303.933 915.036 296.833 915.321C292.123 915.614 287.296 914.906 282.606 914.464C285.881 871.096 291.221 827.768 295.13 784.433C308.269 779.633 322.075 774.969 332.681 765.552C330.758 744.401 330.042 723.116 328.218 701.936Q323.281 646.724 313.896 592.092C318.368 590.849 322.602 589.507 326.895 587.723Z"/>
	<path fill="#F6F7EF" transform="scale(0.999721 0.999721)" d="M334.485 384.958C339.617 387.545 343.654 392.394 347.592 396.487C352.687 393.085 358.793 389.501 364.469 387.189C366.494 386.364 368.762 385.894 370.814 386.917C375.428 389.219 377.764 399.463 379.486 404.101C377.381 405.935 373.472 409.074 372.95 411.843C374.971 411.846 376.033 411.01 377.755 410.071L378.582 410.396C378.359 411.327 378.172 412.118 377.538 412.866C374.788 416.11 370.104 416.378 366.201 416.712Q364.148 415.272 361.989 413.996C357.649 411.463 344.237 403.889 339.699 405.101C340.171 407.832 347.424 410.027 349.81 411.152C361.85 416.829 370.011 424.237 376.399 435.87C366.169 450.287 332.11 508.511 320.128 512.931C303.658 519.006 260.138 496.948 245.752 487.882C235.902 481.676 226.932 472.921 216.252 468.262L215.32 467.862C215.756 468.382 216.201 468.885 216.648 469.395C222.514 476.095 230.654 482.109 238.015 487.079C241.305 489.3 245.864 491.574 248.615 494.377C249.919 495.706 249.656 496.45 249.693 498.163C248.875 522.69 241.874 542.602 228.438 563.035C227.655 548.836 226.214 534.593 223.255 520.671C220.209 506.337 216.23 492.073 212.024 478.038C208.111 464.978 203.068 451.096 201.976 437.417C201.673 433.61 201.891 429.5 203.847 426.112C206.212 422.016 210.313 421.021 214.52 419.79C228.218 422.683 240.195 432.968 251.798 440.428C265.666 449.343 290.503 465.339 305.053 470.982C305.917 475.181 304.763 485.175 307.382 487.977L308.52 487.963C309.504 487.02 310.272 486.524 310.566 485.1C311.703 479.605 309.898 473.794 307.117 469.173C314.583 455.041 321.359 440.772 327.189 425.88C329.045 421.138 332.197 408.436 334.358 404.93C335.434 403.185 336.838 404.856 338.454 403.801C337.832 401.973 336.544 401.758 334.891 400.847C332.95 395.736 332.48 390.102 334.485 384.958Z"/>
	<path fill="#76625A" transform="scale(0.999721 0.999721)" d="M185.662 274.136C195.306 273.318 204.759 274.356 213.493 278.722Q214.762 282.459 215.882 286.243Q217.002 290.028 217.972 293.854Q218.942 297.679 219.76 301.54Q220.578 305.401 221.243 309.291Q221.908 313.182 222.419 317.095Q222.93 321.009 223.286 324.94Q223.642 328.87 223.843 332.812Q224.043 336.753 224.088 340.7C221.191 340.528 217.875 340.232 215.012 340.793C210.898 341.6 206.697 344.452 204.516 348.001Q204.154 348.578 203.852 349.189Q203.55 349.799 203.312 350.438Q203.074 351.076 202.901 351.735Q202.729 352.394 202.624 353.067Q202.52 353.741 202.484 354.421Q202.448 355.101 202.481 355.782Q202.515 356.462 202.617 357.136Q202.719 357.809 202.889 358.469C204.382 364.159 208.16 366.718 212.808 369.645C212.084 370.764 211.322 371.823 210.49 372.864C199.861 386.18 184.48 394.28 167.616 396.42C162.815 397.029 158.006 396.715 153.222 397.253L152.551 398.564C152.71 398.724 152.873 398.881 153.028 399.045C153.349 399.387 154.301 400.417 154.379 400.899C154.951 404.467 149.667 407.969 154.244 421.727C159.04 436.139 169.543 448.073 169.165 463.953C168.713 482.923 161.2 504.187 147.49 517.389C139.273 524.309 131.251 527.451 120.764 529.051C164.446 486.129 119.159 441.094 148.589 395.838C145.323 393.776 142.072 391.568 139.072 389.137C127.412 379.693 121.665 364.987 120.123 350.363C118.278 332.866 124.113 315.093 135.152 301.535Q136.306 300.096 137.53 298.716Q138.754 297.336 140.045 296.019Q141.336 294.701 142.691 293.45Q144.046 292.198 145.461 291.016Q146.877 289.833 148.349 288.722Q149.822 287.612 151.348 286.575Q152.874 285.539 154.449 284.58Q156.025 283.621 157.646 282.742Q159.267 281.863 160.93 281.065Q162.593 280.267 164.293 279.553Q165.994 278.839 167.728 278.211Q169.462 277.582 171.225 277.04Q172.988 276.499 174.775 276.046Q176.563 275.592 178.371 275.229Q180.179 274.865 182.003 274.592Q183.827 274.318 185.662 274.136Z"/>
	<path fill="#F6F7EF" transform="scale(0.999721 0.999721)" d="M270.726 505.087C279.08 507.9 287.31 511.474 295.623 514.48C302.449 540.834 306.689 567.841 310.94 594.699Q317.907 636.895 322.336 679.432Q326.765 721.969 328.64 764.695C299.723 784.528 261.764 791.205 227.388 790.734C207.881 789.607 187.253 786.405 170.153 776.39C184.883 739.594 197.098 702.168 208.389 664.205C215.768 639.396 223.328 614.07 227.871 588.559C230.194 587.3 232.474 585.815 234.521 584.139C255.951 566.59 268.345 531.89 270.726 505.087Z"/>
	<path fill="#050101" transform="scale(0.999721 0.999721)" d="M290.598 632.162C291.105 632.244 291.51 632.28 291.994 632.502C293.268 633.087 294.107 634.993 294.687 636.212C301.363 650.243 301.409 697.298 296.171 712.039C294.178 717.647 290.872 720.692 285.572 723.185C268.052 731.428 240.352 729.862 222.597 723.588Q218.635 722.079 215.019 719.866C212.502 718.324 209.605 716.229 208.97 713.189C208.669 711.747 209.031 710.618 209.837 709.399C215.17 701.337 235.949 688.664 244.511 682.295C251.469 677.119 258.361 671.603 264.731 665.718C275.556 655.715 282.308 644.128 290.598 632.162Z"/>
	<path fill="#F6F7EF" transform="scale(0.999721 0.999721)" d="M291.334 637.109C297.691 652.53 298.329 693.617 293.355 709.456C291.818 714.349 288.508 717.781 284.002 720.055C267.625 728.32 240.697 725.954 223.751 720.293C221.945 719.584 220.228 718.727 218.525 717.799C215.942 716.389 213.459 715.092 212.577 712.091C214.22 706.153 246.044 685.61 252.95 680.385Q260.852 674.524 267.981 667.743C277.466 658.626 284.854 648.517 291.334 637.109Z"/>
	<path fill="#050101" transform="scale(0.999721 0.999721)" d="M1076.15 636.108C1068.02 635.67 1060.14 634.961 1052.6 631.603C1042.96 627.314 1036.01 620.019 1032.37 610.111C1026.52 594.194 1029.22 576.336 1036.23 561.266C1041.44 550.09 1049.1 539.654 1058.58 531.718C1061.74 529.071 1065.5 526.927 1068.47 524.095C1069.93 522.707 1070.63 520.955 1071.92 519.48C1074.55 516.46 1079.05 514.36 1082.77 513.053C1098.82 507.406 1118.39 507.96 1133.77 515.372C1149.12 522.769 1162.37 536.553 1167.85 552.827C1173.13 568.484 1171.62 586.596 1164.11 601.27C1157.4 614.376 1148.39 621.083 1135.19 626.724C1132.86 627.719 1130.49 629.238 1128.03 629.845C1125.68 630.424 1123.5 629.699 1121.11 630.485C1121.53 631.587 1128.97 635.309 1130.57 637.131C1136.98 635.534 1143.62 634.085 1150.2 633.539C1165.74 632.247 1179.47 636.92 1191.33 647.048C1212.42 665.07 1226.29 697.674 1228.25 725.016C1228.73 731.733 1229.71 744.188 1225.12 749.446C1224.39 753.913 1220.12 757.638 1216.62 760.136C1213.29 762.509 1209.34 764.803 1205.47 766.14C1202.44 767.227 1199.43 768.435 1196.28 769.107C1199.57 772.447 1205.48 789.617 1205.68 794.565C1203.38 796.491 1197.98 796.403 1194.99 796.534C1198.52 804.382 1201.37 832.181 1204.38 843.441C1206.07 849.767 1215.54 876.058 1215.57 879.648C1236.43 876.967 1257.84 875.591 1278.41 871.151C1283.52 870.965 1294.55 867.318 1298.75 869.199C1310.92 863.216 1324.5 859.653 1336.94 854.083C1366.88 840.683 1392.97 822.577 1417.17 800.53C1422.6 795.583 1428.78 790.462 1432.98 784.409C1433.79 786.134 1433.93 787.511 1433.97 789.397C1434.39 808.474 1434.03 827.641 1434.03 846.726L1434.03 957.638C1434.03 965.788 1435.11 1017.76 1433.62 1022.11C1433.4 1022.78 1433.13 1023.39 1432.77 1024L811.8 1024C840.683 1001.98 870.348 982.328 902.817 965.967C916.998 958.821 992.97 924.579 1003.91 928.192L1003.96 922.498C1003.72 912.913 1004.76 903.244 1005.48 893.692C1007.47 867.514 1009.78 841.393 1018.88 816.558Q1017.89 816.842 1016.9 817.089C1011.28 818.477 1004.32 819.106 999.241 815.762C994.681 812.758 993.653 808.952 992.781 803.944L993.501 801.007C994.683 797.827 996.511 794.952 999.024 792.662C1004.77 787.431 1011.92 787.721 1019.14 788.019C1025.37 779.229 1061.57 729.969 1061.55 722.993C1060.34 720.325 1054.35 718.235 1051.8 717.169C1052.84 716.529 1053.62 715.919 1054.44 715.017C1058.97 710.064 1081.81 672.057 1081.64 666.826C1081.94 666.183 1082.01 666.122 1082.15 665.306C1082.95 660.466 1079.01 639.79 1076.15 636.108Z"/>
	<path fill="#F6F7EF" transform="scale(0.999721 0.999721)" d="M1291.57 873.06C1292.81 872.841 1294.18 872.563 1295.43 872.734C1298.71 873.178 1301.89 877.343 1303.81 879.808C1311.76 889.992 1321.99 910.159 1319.83 923.222C1319.48 925.332 1318.93 926.391 1317.26 927.698C1315.22 924.78 1315.07 917.623 1314.05 913.958C1312.94 909.99 1311.41 905.98 1309.7 902.234C1306.62 895.515 1302.55 889.041 1297.95 883.252C1295.58 880.272 1292.6 877.335 1290.75 874.022L1291.57 873.06Z"/>
	<path fill="#F6F7EF" transform="scale(0.999721 0.999721)" d="M1027.81 955.655C1029.5 955.447 1031.05 955.106 1032.69 955.711C1033.79 957.305 1034.18 957.707 1034.35 959.691C1033.96 960.532 1033.62 961.233 1032.89 961.837C1024.79 968.534 985.849 967.12 974.498 966.23C972.665 966.154 970.741 966.31 969.22 965.144C968.448 963.442 968.338 963.324 968.717 961.386C969.803 960.022 970.788 959.011 972.586 958.693C975.774 958.129 983.949 959.93 988.129 959.92C1001.54 959.889 1014.67 958.189 1027.81 955.655Z"/>
	<path fill="#76BB88" transform="scale(0.999721 0.999721)" d="M1282.24 875.162C1283.36 874.972 1284.32 874.971 1285.45 875.04C1294.71 881.373 1302.48 895.04 1307.14 905.243C1309.64 910.719 1313.35 918.367 1311.12 924.343C1309.63 921.018 1304.35 916.762 1301.22 914.921C1299.22 910.731 1291.01 904.961 1287.28 901.961C1282.82 898.364 1281.64 896.297 1275.55 896.963C1270.13 891.915 1269.74 883.944 1265.19 878.794C1264.96 878.539 1264.73 878.294 1264.5 878.043C1270.35 877.368 1276.52 876.543 1282.24 875.162Z"/>
	<path fill="#F6F7EF" transform="scale(0.999721 0.999721)" d="M1089.84 740.68C1092.88 740.622 1100.92 745.1 1103.14 747.223C1103.51 747.892 1103.79 748.378 1103.96 749.133C1104.84 752.926 1105.26 761.122 1103.4 764.506C1099.06 767.818 1059.77 786.809 1053.23 789.305C1050.67 792.46 1044.47 794.197 1040.78 795.529C1052.63 789.16 1085.11 753.554 1089.84 740.68Z"/>
	<path fill="#76BB88" transform="scale(0.999721 0.999721)" d="M1124.88 705.659C1130.57 706.354 1152.83 722.141 1160.25 725.984C1165.58 728.74 1171.92 729.607 1177.04 732.688C1179.92 734.848 1182.53 739.787 1184.18 743.054C1185.05 744.782 1185.79 746.474 1185.13 748.308L1182.07 747.969C1179.29 746.229 1172.95 745.529 1169.56 744.63C1157.27 741.371 1145.54 734.903 1135.02 727.823C1130.34 724.673 1125.66 720.97 1120.65 718.407C1120.48 718.321 1120.31 718.239 1120.14 718.155C1122.5 714.734 1124.3 709.761 1124.88 705.659Z"/>
	<path fill="#76BB88" transform="scale(0.999721 0.999721)" d="M1031.15 922.098C1033.47 922.021 1035.8 922.024 1038.13 921.991C1038.69 923.979 1034.97 947.336 1033.75 950.964C1017.17 953.418 1000.88 957.532 983.95 956.831L974.402 956.357C985.001 950.028 996.335 944.939 1006.64 938.108C1007.33 932.9 1007.33 927.839 1007.27 922.601C1015.22 922.701 1023.2 922.328 1031.15 922.098Z"/>
	<path fill="#7B5B39" transform="scale(0.999721 0.999721)" d="M1064.69 725.266C1070.02 725.75 1083.72 734.512 1087.1 738.481C1087.04 739.296 1086.84 740.057 1086.45 740.776C1079.18 754.039 1028.29 809.783 1015.37 813.67C1012.43 814.546 1009.03 815.268 1005.98 814.801C1002.86 814.325 999.949 812.827 998.244 810.106C996.721 807.677 996.394 804.703 997.094 801.945C998.026 798.276 1000.67 795.333 1003.91 793.491C1009.21 790.479 1014.78 790.783 1020.42 792.362C1030.22 777.326 1060.11 739.216 1064.69 725.266Z"/>
	<path fill="#76BB88" transform="scale(0.999721 0.999721)" d="M1119 722.467C1119.84 722.473 1120.58 722.466 1121.37 722.813C1124.86 724.36 1128.68 727.947 1131.95 730.144C1139.45 735.182 1147.68 740.262 1155.89 744.014C1165.52 748.42 1176.05 750.448 1186.41 752.281C1190.34 756.349 1199.79 785.202 1201.7 791.712L1201.2 792.443C1197.14 793.447 1192.24 792.938 1188.06 792.927C1165.92 790.985 1147.27 782.467 1126.81 774.571C1121.1 772.367 1113.41 770.488 1108.46 766.963C1107.49 761.759 1107.3 754.874 1107.96 749.618C1108.79 749.171 1109.64 748.754 1110.39 748.163C1112.23 746.711 1118.54 726.27 1118.96 722.881C1118.98 722.743 1118.99 722.605 1119 722.467Z"/>
	<path fill="#76BB88" transform="scale(0.999721 0.999721)" d="M1105.06 653.131C1107.12 652.873 1109.47 652.697 1111.54 653.008C1124.44 654.952 1136.89 672.602 1144.34 682.296C1149.18 688.584 1174.64 722.713 1173.92 728.32C1169.64 725.101 1159.38 720.915 1154.05 717.892C1144.65 712.56 1135.7 706.084 1126.22 701.036C1126.79 700.433 1127.21 699.991 1127.57 699.239C1128.9 696.522 1130.19 692.284 1129.33 689.484L1128.06 689.168C1125.27 692.194 1125.43 696.455 1122.82 699.577C1122.72 699.691 1122.62 699.798 1122.52 699.909C1122.57 700.15 1122.65 700.387 1122.66 700.633C1122.88 704.253 1109.58 742.437 1107.45 745.06C1106.37 743.793 1061.44 717.667 1057.46 715.806C1065.44 710.104 1076.88 685.004 1082.19 675.46C1087.41 666.072 1094.19 656.236 1105.06 653.131Z"/>
	<path fill="#F1F0C7" transform="scale(0.999721 0.999721)" d="M1074.19 843.813C1081.92 843.123 1090.06 840.737 1097.66 839.111Q1114.82 835.453 1132.1 832.457C1134.27 834.898 1143.87 861.379 1146.33 866.526C1148.76 871.589 1161.3 890.833 1161.5 894.247C1161.52 894.497 1161.52 894.747 1161.52 894.997C1159.36 896.467 1089.38 904.906 1078.35 906.7C1069.25 908.18 1053.74 912.06 1045.02 911.75C1046.7 909.678 1060.71 870.352 1063.53 863.75C1066.49 856.845 1071.43 850.787 1074.19 843.813Z"/>
	<path fill="#76625A" transform="scale(0.999721 0.999721)" d="M1096.82 513.051Q1099.08 512.903 1101.34 512.792C1119.37 511.93 1135.4 517.544 1148.73 529.815Q1149.78 530.785 1150.78 531.806Q1151.78 532.826 1152.73 533.895Q1153.69 534.964 1154.58 536.079Q1155.48 537.193 1156.32 538.351Q1157.16 539.508 1157.94 540.706Q1158.72 541.903 1159.45 543.138Q1160.17 544.372 1160.83 545.641Q1161.49 546.91 1162.09 548.21Q1162.68 549.509 1163.22 550.837Q1163.75 552.165 1164.21 553.517Q1164.68 554.869 1165.08 556.243Q1165.48 557.617 1165.81 559.009Q1166.14 560.4 1166.4 561.807Q1166.66 563.213 1166.85 564.63Q1167.05 566.048 1167.17 567.473Q1167.29 568.898 1167.34 570.328C1167.92 585.105 1163.08 600.453 1152.84 611.32C1143.72 621 1131.53 626.34 1118.31 626.788L1117.21 627.36C1113.57 626.497 1111.11 625.164 1108.51 622.4C1106.67 620.432 1105.9 619.143 1106.01 616.473C1108.57 612.725 1115.04 611.393 1118.73 608.677C1122.85 605.647 1125.96 601.192 1126.63 596.042Q1126.71 595.443 1126.74 594.84Q1126.77 594.236 1126.75 593.633Q1126.73 593.029 1126.66 592.429Q1126.58 591.829 1126.46 591.237Q1126.34 590.646 1126.17 590.066Q1126 589.487 1125.78 588.924Q1125.56 588.361 1125.3 587.818Q1125.03 587.276 1124.72 586.757C1119.72 578.272 1109.07 582.004 1102.7 574.948C1093.29 564.524 1085.52 551.472 1078.77 539.209C1076.27 534.652 1074.3 528.936 1071.18 524.868C1073.43 523.536 1075.15 521.366 1077.34 519.889C1083.1 516.003 1090.17 514.614 1096.82 513.051Z"/>
	<path fill="#76BB88" transform="scale(0.999721 0.999721)" d="M1152.08 637.023C1160.93 636.661 1169.45 638.279 1177.37 642.299C1198.46 653.016 1211.42 675.886 1218.44 697.692C1223.38 713.045 1229.41 734.416 1221.41 749.523C1216.34 759.095 1205.14 762.599 1195.43 765.484C1195.45 765.353 1195.49 765.223 1195.5 765.089C1195.61 762.995 1193.87 760.629 1192.54 759.153C1193.56 755.748 1189.47 746.833 1188.02 743.671C1177.9 721.56 1148.4 677.797 1130.99 660.997C1125.92 656.105 1120.77 652.123 1114.15 649.623C1117.29 648.117 1120.18 646.064 1123.31 644.506C1132.4 639.98 1142.1 638.151 1152.08 637.023Z"/>
	<path fill="#7B5B39" transform="scale(0.999721 0.999721)" d="M1067.47 529.149C1070.84 529.902 1072.82 536.731 1074.62 539.782C1084.29 556.201 1093.21 568.061 1104.97 582.842L1103.85 585.188L1104.62 586.251C1107.21 586.418 1110.76 584.359 1112.82 582.884C1115.28 583.647 1117.96 584.445 1119.89 586.23C1121.88 588.075 1122.81 592.085 1122.95 594.695C1123.68 608.623 1107.48 606.786 1101.85 614.001C1100.9 615.22 1100.52 616.584 1100.77 618.113C1102.68 630.031 1118.68 632.098 1126.64 637.923C1126.78 638.025 1126.91 638.132 1127.05 638.236C1124.84 640.586 1115.38 645.419 1111.88 647.849C1109.05 649.815 1106.44 649.6 1103.11 649.629L1102.46 649.947C1095.29 653.513 1090.9 658.726 1084.42 662.966C1084.83 662.133 1085.11 661.445 1085.14 660.505C1085.36 653.771 1082.65 637.277 1078.06 632.307Q1075.41 632.334 1072.76 632.32C1061.77 632.249 1051.14 629.447 1043.28 621.314C1035.35 613.102 1032.44 601.056 1032.78 589.915C1033.27 573.225 1040.95 554.786 1052.49 542.628C1056.99 537.883 1062.17 534.148 1066.88 529.71L1067.47 529.149Z"/>
	<path fill="#050101" transform="scale(0.999721 0.999721)" d="M1057.11 557.86C1058.48 557.624 1059.68 557.255 1060.99 557.875C1062.02 560.157 1062.88 562.077 1062.49 564.662C1062.14 567.009 1060.8 567.986 1058.94 569.249C1058.89 569.277 1058.85 569.314 1058.8 569.333C1057.31 569.879 1056.57 570.191 1055.09 569.639C1054.69 568.841 1054.24 567.976 1054.06 567.098C1053.25 563.325 1055.02 560.715 1057.11 557.86Z"/>
	<path fill="#050101" transform="scale(0.999721 0.999721)" d="M1035.52 589.729L1035.49 588.437C1039.62 585.414 1057.42 589.965 1064.88 583.559C1065.27 588.959 1063.25 595.844 1059.73 600.033C1057.65 602.502 1053.64 605.562 1050.28 605.943C1047.68 606.239 1044.79 605.885 1042.17 605.733C1042.03 605.507 1041.9 605.279 1041.76 605.055C1039.45 601.354 1034.89 598.716 1035.35 593.742C1035.36 593.6 1035.41 593.463 1035.44 593.324C1037.44 596.049 1039.19 599.36 1041.85 601.488C1044.02 603.218 1046.52 604.145 1049.3 603.725C1052.83 603.192 1056.03 600.607 1058.09 597.783C1060.18 594.921 1062.09 591.445 1061.57 587.818C1052.97 591.034 1044.44 589.74 1035.52 589.729Z"/>
	<path fill="#F6F7EF" transform="scale(0.999721 0.999721)" d="M1035.52 589.729C1044.44 589.74 1052.97 591.034 1061.57 587.818C1062.09 591.445 1060.18 594.921 1058.09 597.783C1056.03 600.607 1052.83 603.192 1049.3 603.725C1046.52 604.145 1044.02 603.218 1041.85 601.488C1039.19 599.36 1037.44 596.049 1035.44 593.324C1035.79 592.137 1035.61 590.944 1035.52 589.729Z"/>
	<path fill="#8D8B8B" transform="scale(0.999721 0.999721)" d="M1100.27 770.095C1107.47 768.142 1151.36 788.924 1162.46 792.229C1171.95 795.051 1181.34 796.445 1191.23 796.522C1194.23 801.341 1195.46 817.763 1196.62 824.244C1198.44 834.448 1207.26 876.31 1214.45 882.282C1220.13 884.477 1254.56 878.704 1262.25 877.767C1262.71 878.258 1262.87 879.28 1263.06 879.948C1264.39 884.749 1266.48 889.908 1268.91 894.264C1270.42 896.987 1273.16 900.067 1276.17 900.88L1275.65 900.688L1276.61 900.725C1276.32 901.319 1276.1 901.823 1275.58 902.259C1267.05 909.459 1217.5 929.999 1206.46 929.472C1185.48 928.472 1164.14 892.225 1155.54 875.648C1152.67 870.121 1148.89 859.634 1144.99 855.312C1144.76 855.061 1144.52 854.819 1144.29 854.573C1144.37 853.979 1144.43 853.85 1144.31 853.172C1143.64 849.285 1137.26 834.24 1134.64 831.957C1142.2 831.031 1150.57 829.981 1157.81 827.626C1158.92 826.504 1158.81 826.577 1158.81 824.984C1156.4 824.272 1153.72 824.893 1151.29 825.306C1139.95 827.234 1077.02 837.678 1072.23 842.047C1063.21 850.281 1053.01 879.768 1048.41 892.148C1046.75 896.607 1042.15 915.005 1040.43 917.246C1040.27 917.448 1040.1 917.642 1039.94 917.84C1029.13 919.526 1017.85 918.691 1006.92 919.613C1009.73 889.509 1009.83 857.627 1018.47 828.445C1020.49 821.627 1023.32 814.561 1028.23 809.273C1038.98 797.681 1084.07 778.969 1100.27 770.095Z"/>
	<path fill="#F1F0C7" transform="scale(0.999721 0.999721)" d="M1298.75 869.199C1310.92 863.216 1324.5 859.653 1336.94 854.083C1366.88 840.683 1392.97 822.577 1417.17 800.53C1422.6 795.583 1428.78 790.462 1432.98 784.409C1433.79 786.134 1433.93 787.511 1433.97 789.397C1434.39 808.474 1434.03 827.641 1434.03 846.726L1434.03 957.638C1434.03 965.788 1435.11 1017.76 1433.62 1022.11C1433.4 1022.78 1433.13 1023.39 1432.77 1024L811.8 1024C840.683 1001.98 870.348 982.328 902.817 965.967C916.998 958.821 992.97 924.579 1003.91 928.192C1003.62 930.542 1003.8 932.869 1003.91 935.227C992.819 942.183 975.233 949.041 966.643 958.301C965.206 959.85 963.511 961.853 963.714 964.102Q963.738 964.349 963.788 964.591Q963.838 964.834 963.914 965.07Q963.99 965.306 964.091 965.532Q964.192 965.758 964.317 965.972Q964.442 966.186 964.589 966.385Q964.736 966.585 964.904 966.767Q965.072 966.949 965.259 967.112Q965.445 967.275 965.648 967.417C973.491 972.937 1015.89 969.88 1026.34 968.06C1030.39 967.355 1034.64 966.947 1037.11 963.427C1037.17 952.732 1038.61 941.622 1040.82 931.163C1041.72 926.907 1044.77 919.631 1043.98 915.553C1045.14 913.841 1045.08 913.7 1045.02 911.75C1053.74 912.06 1069.25 908.18 1078.35 906.7C1089.38 904.906 1159.36 896.467 1161.52 894.997C1162.94 896.14 1164.02 896.616 1164.33 898.551C1164.37 898.794 1164.33 899.044 1164.34 899.291C1167.66 901.109 1180.77 920.909 1190.45 927.391C1197.1 931.846 1205.17 934.109 1213.11 932.533C1225.97 929.985 1274.88 910.812 1281.11 901.553C1292.21 909.87 1301.45 920.417 1312.06 929.286C1314.03 930.928 1315.42 932.009 1318.07 931.696C1319.36 931.544 1320.46 930.937 1321.23 929.874C1323.94 926.129 1323.38 918.668 1322.83 914.329C1320.88 898.898 1311.33 878.895 1298.75 869.199Z"/>
	<path fill="#F2CF85" transform="scale(0.999721 0.999721)" d="M1161.52 894.997C1162.94 896.14 1164.02 896.616 1164.33 898.551C1164.37 898.794 1164.33 899.044 1164.34 899.291C1152.34 900.222 1140.43 902.277 1128.51 903.835C1113.18 905.839 1097.82 907.49 1082.53 909.835C1070.12 911.74 1056.49 915.72 1043.98 915.553C1045.14 913.841 1045.08 913.7 1045.02 911.75C1053.74 912.06 1069.25 908.18 1078.35 906.7C1089.38 904.906 1159.36 896.467 1161.52 894.997Z"/>
	<path fill="#F1F0C7" transform="scale(0.999721 0.999721)" d="M0 0L538.798 0L544.46 0L646.122 0C640.277 13.9422 630.667 27.6759 622.43 40.4025C569.94 121.506 496.431 167.275 408.783 203.143C364.597 221.225 319.425 239.471 278.935 265.038C265.892 273.274 254.227 282.996 241.694 291.874C224.997 278.263 207.25 268.392 184.877 270.679Q182.961 270.891 181.057 271.197Q179.154 271.503 177.268 271.902Q175.381 272.3 173.517 272.79Q171.652 273.28 169.814 273.861Q167.975 274.442 166.168 275.112Q164.36 275.781 162.587 276.539Q160.814 277.296 159.08 278.139Q157.346 278.982 155.655 279.909Q153.965 280.835 152.321 281.844Q150.678 282.852 149.086 283.939Q147.493 285.026 145.956 286.19Q144.419 287.354 142.94 288.592Q141.462 289.829 140.045 291.137Q138.629 292.446 137.278 293.821Q135.927 295.197 134.645 296.638Q133.363 298.078 132.153 299.579C119.987 314.695 114.903 333.785 117.029 352.994Q117.461 356.595 118.022 360.179C116.936 363.644 112.531 367.75 110.28 370.758Q87.9204 400.138 68.8379 431.746C56.2483 453.066 43.1291 474.485 32.491 496.856C25.063 512.476 18.0102 528.304 10.7452 544.004C7.31226 551.423 4.13211 559.436 0 566.474L0 393.849L0 382.503L0 0Z"/>
	<path fill="#F2CF85" transform="scale(0.999721 0.999721)" d="M538.798 0L544.46 0C515.605 25.705 482.964 44.1201 448.295 60.7354C317.026 123.646 174.134 141.113 76.3621 261.795Q67.9175 272.373 60.0841 283.412Q52.2506 294.45 45.0533 305.914Q37.856 317.378 31.3178 329.23Q24.7796 341.082 18.9215 353.285C14.2672 362.754 9.92211 372.398 5.51083 381.983C3.76119 385.785 2.21727 390.363 0 393.849L0 382.503C7.40333 371.194 12.3523 357.401 18.6213 345.343C35.0832 313.678 53.1578 283.768 75.8809 256.106C182.977 125.732 346.849 116.168 483.505 38.2023C503.047 27.0533 521.183 13.9476 538.798 0Z"/>
	<path fill="#F1F0C7" transform="scale(0.999721 0.999721)" d="M0 0L538.798 0C521.183 13.9476 503.047 27.0533 483.505 38.2023C346.849 116.168 182.977 125.732 75.8809 256.106C53.1578 283.768 35.0832 313.678 18.6213 345.343C12.3523 357.401 7.40333 371.194 0 382.503L0 0Z"/>
</svg>
