<?xml version="1.0" encoding="utf-8" ?>
<svg xmlns="http://www.w3.org/2000/svg" xmlns:xlink="http://www.w3.org/1999/xlink" width="1434" height="1024">
	<path fill="#F9F9F2" transform="scale(0.999721 0.999721)" d="M0 0L1432.77 0C1433.55 1.35287 1433.84 2.273 1433.92 3.82991C1434.39 14.2948 1434 24.9358 1434 35.4235L1434 96.5893L1434.01 282.797L1434 835.994L1434 973.892C1434.01 983.184 1435.15 1015.65 1433.74 1021.9C1433.56 1022.7 1433.19 1023.31 1432.77 1024L0 1024L0 0Z"/>
	<path fill="#242427" transform="scale(0.999721 0.999721)" d="M1204.08 737.529C1211.44 739.659 1252.18 761.481 1254.73 766.222C1255.27 767.227 1255.17 767.404 1255.17 768.466L1253.77 767.622C1253.67 767.867 1253.58 768.113 1253.48 768.356C1253.06 769.354 1253.28 768.985 1252.61 769.75C1252.56 769.564 1252.53 769.375 1252.48 769.193C1250.33 762.18 1211.17 743.766 1203.48 739.719L1204.08 737.529Z"/>
	<path fill="#242427" transform="scale(0.999721 0.999721)" d="M1252.61 769.75C1253.28 768.985 1253.06 769.354 1253.48 768.356C1253.58 768.113 1253.67 767.867 1253.77 767.622L1255.17 768.466C1257.37 770.557 1257.89 772.973 1257.98 775.94C1258.19 782.432 1252.76 796.814 1247.98 801.182C1247.69 801.44 1247.18 801.728 1246.88 801.911C1246.95 802.685 1247.04 803.262 1246.79 804.018C1245.63 807.541 1228.19 840.446 1226.27 842.656C1225.73 843.28 1225.33 843.644 1224.61 844.014L1224.32 842.319L1222.54 841.997C1226.16 838.093 1244.29 804.966 1245.86 799.271C1249.52 794.717 1253.33 787.574 1254.55 781.86C1255.41 777.856 1254.9 773.203 1252.61 769.75Z"/>
	<path fill="#B3CAC3" transform="scale(0.999721 0.999721)" d="M1280.26 148.136L1284.81 148.181C1289.39 152.478 1289.15 172.857 1293.01 180.191C1294.1 182.254 1295.6 184.127 1297.97 184.689C1310.26 187.597 1315.4 166.502 1323.92 161.783C1325.73 160.781 1326.42 160.79 1328.37 161.289L1329.32 162.951C1328.93 165.124 1328.62 165.2 1327.08 166.653C1327.04 167.455 1327.11 167.189 1326.79 168.042C1324.66 173.798 1311.7 188.287 1306.03 190.975C1303.97 191.306 1301.64 191.671 1299.55 191.543C1295.29 191.282 1291.64 189.517 1288.89 186.224C1283.32 179.582 1279.39 156.404 1280.26 148.136Z"/>
	<defs>
		<linearGradient id="gradient_0" gradientUnits="userSpaceOnUse" x1="161.59906" y1="874.28149" x2="167.42599" y2="813.70117">
			<stop offset="0" stop-color="#1A2324"/>
			<stop offset="1" stop-color="#342A2E"/>
		</linearGradient>
	</defs>
	<path fill="url(#gradient_0)" transform="scale(0.999721 0.999721)" d="M79.0919 803.793C81.0148 803.923 82.7775 804.51 84.552 805.239C92.8424 808.644 100.933 812.805 109.087 816.54L148.092 834.167L245.67 878.462C246.978 879.058 248.419 879.859 249.336 880.986C250.389 882.28 249.939 883.252 249.766 884.784C241.893 883.045 215.94 869.704 207.018 865.687L85.3704 810.903C83.6359 810.11 81.5971 809.083 80.2196 807.737C78.9064 806.454 79.1756 805.495 79.0919 803.793Z"/>
	<path fill="#B3CAC3" transform="scale(0.999721 0.999721)" d="M1353.35 82.2974C1361.71 80.9821 1372.48 82.6949 1380.85 84.0535C1386.98 85.0471 1393.24 87.4442 1396.86 92.779C1398.95 95.8559 1399.3 99.2821 1398.37 102.836C1397.56 105.923 1395.64 109.137 1393.53 111.529C1391.06 114.34 1371.72 128.525 1367.77 130.73Q1368.42 131.662 1369 132.642C1374.03 141.069 1380.99 157.766 1378.23 167.683C1377.28 171.088 1375.39 174.1 1372.18 175.758C1360.2 181.944 1348.15 170.402 1337.4 166.878C1337.19 166.81 1336.99 166.749 1336.78 166.685C1335.74 165.44 1333.6 164.42 1332.2 163.606C1331.82 162.102 1331.97 162.111 1332.69 160.714C1339.82 156.14 1355.6 170.742 1364.58 170.664C1366.83 170.645 1368.79 169.842 1370.32 168.177C1377.21 160.691 1364.99 143.691 1363.02 135.511C1362.31 132.562 1363.33 128.892 1363.07 125.745C1368.07 122.831 1384.56 110.721 1388.38 106.677C1390.82 104.085 1392.71 101.494 1392.6 97.7874C1387.97 86.6535 1362.53 92.8929 1353.91 86.443C1353.01 84.5322 1352.95 84.3626 1353.35 82.2974Z"/>
	<path fill="#B3CAC3" transform="scale(0.999721 0.999721)" d="M1329.52 36.0702C1334.14 35.4069 1338.19 35.2479 1342.43 37.65C1346.68 40.0527 1348.94 44.7198 1350.2 49.2458C1351.83 55.1341 1356.25 74.8998 1353.29 79.6974C1352.45 81.0505 1352.2 81.0676 1350.75 81.4463C1346.67 78.8721 1345.59 54.9439 1342.75 48.5947C1341.51 45.824 1339.54 43.5324 1336.6 42.5505C1326.67 39.2317 1314.63 64.4764 1306.17 68.5681C1292.71 68.8183 1281.17 58.4276 1268.33 59.1818C1266.92 59.2645 1264.94 59.8155 1264 60.9527C1256.8 69.6818 1272.23 87.7344 1272.9 97.2238C1272.91 97.3699 1272.91 97.5164 1272.92 97.6628C1273.14 98.2467 1273.2 98.2811 1273.24 99.0092C1273.35 101.071 1272.2 102.81 1271.04 104.381C1269.22 109.23 1248.51 122.489 1242.84 128.527C1242.95 130.202 1243.02 132.191 1243.67 133.753C1247.89 143.968 1270.54 139.484 1279.62 143.469L1280.32 146.065C1279.58 146.744 1278.56 147.292 1277.62 147.637C1270.61 150.219 1252.31 148.492 1245.72 145.059C1241.75 142.991 1237.6 139.112 1236.41 134.703C1231.99 118.373 1259.72 110.607 1265.53 100.61C1264.84 89.5198 1257.39 81.1245 1255.73 70.453C1255.09 66.3266 1255.51 60.3476 1258.73 57.3386C1260.14 56.0238 1262.09 54.7723 1263.16 53.1791C1263.29 52.9891 1263.41 52.7945 1263.53 52.6022C1279.3 52.0907 1288.33 59.2224 1302.76 62.6632C1311.77 54.2768 1318.89 42.3025 1329.52 36.0702Z"/>
	<path fill="#242427" transform="scale(0.999721 0.999721)" d="M474.185 780.447C479.912 779.947 485.062 780.342 490.316 782.843Q490.889 783.119 491.448 783.424Q492.007 783.728 492.55 784.06Q493.092 784.393 493.618 784.752Q494.143 785.111 494.65 785.496Q495.157 785.881 495.643 786.291Q496.13 786.701 496.596 787.135Q497.061 787.569 497.504 788.025Q497.947 788.482 498.367 788.96Q498.787 789.439 499.182 789.938Q499.577 790.437 499.947 790.955Q500.316 791.473 500.659 792.009Q501.002 792.545 501.318 793.098Q501.634 793.65 501.921 794.218Q502.209 794.786 502.468 795.367Q502.727 795.949 502.956 796.543Q503.185 797.136 503.384 797.741Q503.586 798.365 503.757 798.997Q503.928 799.63 504.069 800.27Q504.209 800.91 504.318 801.556Q504.427 802.203 504.504 802.854Q504.582 803.504 504.627 804.158Q504.673 804.812 504.686 805.467Q504.7 806.122 504.682 806.778Q504.664 807.433 504.614 808.086Q504.564 808.74 504.482 809.39Q504.4 810.04 504.286 810.686Q504.173 811.331 504.028 811.97Q503.884 812.61 503.708 813.241Q503.533 813.872 503.326 814.495Q503.12 815.117 502.884 815.728Q502.648 816.339 502.382 816.938Q502.117 817.538 501.822 818.123C498.038 825.606 492.008 829.014 484.293 831.451C478.528 831.987 473.39 831.748 468.09 829.174Q467.538 828.901 467.001 828.601Q466.463 828.301 465.941 827.975Q465.418 827.649 464.913 827.298Q464.407 826.947 463.919 826.571Q463.431 826.196 462.961 825.797Q462.492 825.398 462.043 824.977Q461.594 824.556 461.166 824.113Q460.738 823.67 460.332 823.207Q459.926 822.744 459.544 822.262Q459.161 821.78 458.802 821.279Q458.443 820.779 458.11 820.261Q457.776 819.744 457.468 819.211Q457.16 818.677 456.878 818.13Q456.596 817.582 456.341 817.021Q456.087 816.461 455.86 815.888Q455.633 815.316 455.434 814.733C453.147 808.103 453.336 800.743 456.46 794.413C460.205 786.825 466.406 783.026 474.185 780.447Z"/>
	<path fill="#F9F9F2" transform="scale(0.999721 0.999721)" d="M477.129 784.724C481.407 784.31 485.487 785.176 489.281 787.18C494.211 789.783 497.687 794.302 499.301 799.604Q499.459 800.133 499.59 800.669Q499.721 801.205 499.825 801.748Q499.928 802.29 500.005 802.836Q500.081 803.383 500.129 803.933Q500.178 804.483 500.199 805.035Q500.22 805.586 500.213 806.138Q500.206 806.69 500.171 807.241Q500.136 807.792 500.073 808.341Q500.011 808.889 499.92 809.434Q499.83 809.978 499.713 810.518Q499.595 811.057 499.451 811.59Q499.306 812.122 499.135 812.647Q498.963 813.172 498.766 813.687Q498.568 814.203 498.345 814.708Q498.122 815.212 497.873 815.705Q497.625 816.198 497.352 816.678C493.823 822.878 488.854 825.386 482.228 827.31C476.746 827.472 472.262 826.706 467.636 823.559Q467.195 823.259 466.77 822.937Q466.344 822.615 465.935 822.273Q465.526 821.931 465.134 821.568Q464.743 821.206 464.37 820.825Q463.997 820.444 463.643 820.045Q463.289 819.645 462.955 819.229Q462.622 818.813 462.309 818.381Q461.997 817.948 461.706 817.501Q461.415 817.054 461.147 816.593Q460.879 816.132 460.633 815.658Q460.388 815.184 460.167 814.698Q459.946 814.213 459.749 813.717Q459.552 813.221 459.38 812.717Q459.207 812.212 459.06 811.699Q458.913 811.186 458.792 810.666Q458.671 810.147 458.575 809.622Q458.48 809.103 458.412 808.579Q458.343 808.056 458.301 807.529Q458.258 807.003 458.242 806.475Q458.226 805.948 458.236 805.42Q458.246 804.892 458.282 804.365Q458.318 803.839 458.381 803.315Q458.444 802.79 458.532 802.27Q458.621 801.75 458.735 801.234Q458.85 800.719 458.99 800.21Q459.13 799.701 459.295 799.199Q459.46 798.698 459.65 798.205Q459.84 797.713 460.054 797.23Q460.268 796.748 460.506 796.276Q460.745 795.805 461.006 795.347Q461.267 794.888 461.551 794.443Q461.834 793.997 462.14 793.567C465.817 788.315 470.979 785.846 477.129 784.724Z"/>
	<path fill="#242427" transform="scale(0.999721 0.999721)" d="M166.2 339.921C170.945 339.933 176.236 341.5 180.274 343.99Q180.83 344.34 181.368 344.718Q181.906 345.096 182.424 345.5Q182.943 345.904 183.44 346.333Q183.938 346.762 184.414 347.216Q184.889 347.669 185.342 348.146Q185.794 348.623 186.222 349.121Q186.651 349.62 187.053 350.139Q187.456 350.659 187.833 351.197Q188.209 351.736 188.558 352.293Q188.907 352.85 189.228 353.424Q189.549 353.997 189.841 354.586Q190.133 355.175 190.396 355.778Q190.658 356.38 190.89 356.995Q191.122 357.61 191.323 358.236Q191.524 358.862 191.694 359.497Q191.863 360.132 192.001 360.775C193.514 367.715 192.317 375.032 188.358 380.966C183.604 388.091 177.263 390.758 169.15 392.365C162.609 392.318 156.917 391.284 151.474 387.441Q150.96 387.075 150.466 386.685Q149.971 386.294 149.497 385.879Q149.022 385.464 148.569 385.025Q148.116 384.587 147.685 384.126Q147.255 383.666 146.848 383.184Q146.441 382.703 146.059 382.201Q145.677 381.7 145.32 381.18Q144.963 380.66 144.633 380.123Q144.303 379.586 144 379.033Q143.697 378.48 143.423 377.912Q143.148 377.345 142.902 376.764Q142.656 376.184 142.439 375.592Q142.223 375 142.036 374.397Q141.849 373.795 141.693 373.184Q141.537 372.573 141.412 371.955Q141.286 371.337 141.192 370.714C140.112 363.724 141.899 356.177 146.16 350.511C151.127 343.905 158.241 341.029 166.2 339.921Z"/>
	<path fill="#F9F9F2" transform="scale(0.999721 0.999721)" d="M164.822 344.748C169.773 344.315 174.284 345.209 178.48 347.942C183.387 351.137 186.725 356.697 187.807 362.397C188.912 368.223 187.734 374.081 184.286 378.933C180.499 384.262 175.225 386.867 168.925 387.949C163.743 388.001 159.27 387.288 154.879 384.379Q154.432 384.085 154.001 383.769Q153.57 383.453 153.155 383.116Q152.74 382.779 152.342 382.421Q151.945 382.064 151.566 381.686Q151.187 381.309 150.827 380.914Q150.467 380.518 150.128 380.105Q149.788 379.691 149.47 379.262Q149.152 378.832 148.856 378.387Q148.56 377.942 148.286 377.482Q148.013 377.023 147.762 376.55Q147.512 376.077 147.286 375.593Q147.06 375.108 146.859 374.613Q146.657 374.117 146.481 373.613Q146.304 373.108 146.153 372.595Q146.003 372.082 145.878 371.562Q145.753 371.042 145.654 370.516Q145.552 369.98 145.476 369.44Q145.401 368.9 145.352 368.357Q145.303 367.813 145.282 367.268Q145.26 366.723 145.266 366.178Q145.271 365.632 145.304 365.088Q145.336 364.543 145.396 364.001Q145.455 363.459 145.541 362.92Q145.628 362.382 145.74 361.848Q145.853 361.314 145.992 360.787Q146.132 360.26 146.297 359.74Q146.462 359.22 146.653 358.709Q146.844 358.198 147.059 357.697Q147.275 357.196 147.516 356.707Q147.756 356.217 148.021 355.74Q148.285 355.263 148.573 354.8Q148.861 354.336 149.171 353.888C153.039 348.353 158.335 345.84 164.822 344.748Z"/>
	<path fill="#C03343" transform="scale(0.999721 0.999721)" d="M440.561 548.255C451.304 560.442 459.732 567.759 476.551 568.821C493.996 569.923 511.804 569.255 529.299 569.267L622.372 569.297L913.651 569.207L1058.25 568.859C1068.68 568.804 1099.19 570.178 1107.1 568.625C1108.11 571.058 1108.18 571.132 1107.39 573.634C1105.97 572.354 1100.97 572.907 1099 572.904L573.227 573.076L507.226 573.153C494.847 573.204 481.505 574.251 469.266 572.557C455.291 570.622 446.113 562.589 437.978 551.659L440.561 548.255Z"/>
	<path transform="scale(0.999721 0.999721)" d="M1123.01 697.561C1126.59 697.085 1129.73 697.39 1133.11 698.675C1143.67 702.692 1156.82 711.306 1167.26 716.907C1175.37 721.26 1196.38 731.228 1202.95 736.241C1203.45 736.618 1203.79 736.979 1204.08 737.529L1203.48 739.719C1197.1 734.904 1185.43 729.88 1178.01 725.92C1164.31 718.6 1144.26 706.297 1130.67 701.126C1127.02 699.736 1123.91 699.625 1120.02 699.616C1113.59 701.757 1109.33 705.873 1103.62 709.133C1108.78 707.464 1113.74 705.344 1118.8 703.407C1121.26 704.038 1123.68 704.422 1125.64 706.142L1126.73 707.664L1124.3 708.166C1121.02 706.383 1117.88 706.289 1114.31 707.412C1109.85 708.815 1105.69 712.386 1103.15 716.258C1097.54 724.802 1093.2 734.961 1088.52 744.075L1060.59 798.424Q1043.62 831.18 1026.3 863.755C1020.27 875.157 1013.84 886.507 1008.32 898.162C1006.29 902.449 1005.73 906.711 1007.35 911.315C1008.27 913.937 1009.87 916.39 1011.29 918.768C1047.38 935.167 1082.29 955.062 1117.1 974.001C1120.29 975.733 1129.72 979.655 1131.92 981.888C1140.88 979.147 1143.08 976.314 1147.34 968.305L1198.29 870.852C1209.34 849.95 1221.07 829.354 1231.82 808.302C1232.4 807.176 1232.82 806.092 1232.85 804.816L1234.53 805.641L1234.26 807.468C1234.27 808.586 1234.22 809.239 1233.71 810.262C1221.4 834.866 1207.66 858.85 1194.86 883.211L1172.93 925.224C1167.51 935.807 1150.71 972.291 1143.64 979.172C1142.23 980.542 1140.55 981.561 1138.87 982.559C1145.73 980.635 1150.55 979.437 1154.25 972.878C1159.16 964.177 1198.31 889.663 1198.53 887.272C1201.44 884.579 1222.32 845.938 1222.54 841.997L1224.32 842.319L1224.61 844.014C1224.79 847.13 1205.36 884.069 1202.75 886.596C1202.18 887.146 1202.1 887.146 1201.5 887.462C1201.62 888.693 1201.56 889.239 1201.04 890.402C1194.41 905.32 1185.2 919.76 1177.62 934.279C1171.95 945.124 1162.18 967.436 1155.81 976.023C1151.62 981.67 1146.59 984.458 1139.6 985.332C1136.08 985.772 1132.33 985.52 1129.05 984.093C1119.86 980.093 1110.88 974.483 1102.04 969.728L1046.23 939.89C1039.72 936.472 1013.03 924.241 1009.56 921.297C1005.5 917.837 1003.39 911.37 1003.28 906.179C1003.18 901.584 1005.3 896.903 1007.22 892.829C1012.56 881.463 1018.86 870.45 1024.76 859.364L1055.94 800.377Q1068.7 775.869 1081.19 751.227C1087.09 739.606 1099.02 712.077 1106.74 704.24C1111.1 699.813 1116.87 697.646 1123.01 697.561Z"/>
	<path fill="#5D6271" transform="scale(0.999721 0.999721)" d="M1120.02 699.616C1123.91 699.625 1127.02 699.736 1130.67 701.126C1144.26 706.297 1164.31 718.6 1178.01 725.92C1185.43 729.88 1197.1 734.904 1203.48 739.719C1211.17 743.766 1250.33 762.18 1252.48 769.193C1252.53 769.375 1252.56 769.564 1252.61 769.75C1254.9 773.203 1255.41 777.856 1254.55 781.86C1253.33 787.574 1249.52 794.717 1245.86 799.271C1244.29 804.966 1226.16 838.093 1222.54 841.997C1222.32 845.938 1201.44 884.579 1198.53 887.272C1198.31 889.663 1159.16 964.177 1154.25 972.878C1150.55 979.437 1145.73 980.635 1138.87 982.559C1140.55 981.561 1142.23 980.542 1143.64 979.172C1150.71 972.291 1167.51 935.807 1172.93 925.224L1194.86 883.211C1207.66 858.85 1221.4 834.866 1233.71 810.262C1234.22 809.239 1234.27 808.586 1234.26 807.468L1234.53 805.641L1232.85 804.816C1236.47 801.316 1243.17 789.073 1243.29 784.128C1244.28 782.248 1244.06 779.637 1243.41 777.657C1242.2 773.915 1238.93 770.838 1235.91 768.466C1225.4 760.233 1196.38 746.34 1183.23 739.645C1177.15 734.778 1167.8 731.074 1160.84 727.366C1148.8 720.95 1136.77 713.649 1124.3 708.166L1126.73 707.664L1125.64 706.142C1123.68 704.422 1121.26 704.038 1118.8 703.407C1113.74 705.344 1108.78 707.464 1103.62 709.133C1109.33 705.873 1113.59 701.757 1120.02 699.616Z"/>
	<path fill="#242427" transform="scale(0.999721 0.999721)" d="M1125.64 706.142C1132.55 707.606 1177.74 731.718 1184.44 736.916L1184.7 737.48C1193.56 739.863 1228.93 759.837 1236.87 765.464C1239.73 767.49 1242.85 770.085 1244.7 773.106C1247.1 777.041 1247.34 782.015 1246.15 786.383C1244.93 790.89 1238.24 805.01 1234.26 807.468L1234.53 805.641L1232.85 804.816C1236.47 801.316 1243.17 789.073 1243.29 784.128C1244.28 782.248 1244.06 779.637 1243.41 777.657C1242.2 773.915 1238.93 770.838 1235.91 768.466C1225.4 760.233 1196.38 746.34 1183.23 739.645C1177.15 734.778 1167.8 731.074 1160.84 727.366C1148.8 720.95 1136.77 713.649 1124.3 708.166L1126.73 707.664L1125.64 706.142Z"/>
	<path fill="#C03343" transform="scale(0.999721 0.999721)" d="M440.475 495.226C440.639 481.985 440.446 468.727 440.42 455.484C440.404 446.731 439.706 437.29 441.598 428.716Q441.854 427.511 442.183 426.325Q442.511 425.138 442.911 423.973Q443.311 422.808 443.78 421.67Q444.25 420.532 444.787 419.424Q445.325 418.316 445.929 417.243Q446.532 416.17 447.2 415.135Q447.867 414.1 448.596 413.108Q449.325 412.115 450.113 411.169C455.353 404.904 464.39 398.836 472.553 397.519C484.625 395.573 506.22 397.048 519.471 397.079L615.709 397.049L980.398 397.117L1087.51 397.167L1122.24 397.317C1128.68 397.345 1135.41 397.774 1141.81 397.158C1142 397.139 1142.19 397.117 1142.38 397.097C1142.7 398.767 1142.96 399.65 1142 401.222C1141.65 401.795 1141.08 402.321 1140.62 402.797L1139.96 401.446L675.7 401.804L541.541 401.781L503.477 401.853C495.196 401.823 486.528 401.278 478.289 402.122C469.655 403.007 462.051 406.007 455.895 412.267Q455.061 413.116 454.282 414.016Q453.504 414.917 452.784 415.865Q452.064 416.813 451.407 417.805Q450.749 418.797 450.156 419.828Q449.562 420.86 449.036 421.928Q448.509 422.995 448.052 424.094Q447.594 425.193 447.208 426.319Q446.821 427.445 446.507 428.593C443.13 440.879 444.51 473.193 444.945 487.132C444.971 487.938 445.043 488.726 445.119 489.528C443.591 491.443 442.084 493.379 440.475 495.226Z"/>
	<path fill="#B3CAC3" transform="scale(0.999721 0.999721)" d="M1312.28 836.64C1314.43 836.374 1316.78 836.104 1318.94 836.344C1323.39 836.838 1327.22 838.942 1329.99 842.467C1333.04 846.354 1343.45 869.944 1342.88 874.194C1341.76 875.709 1341.91 875.757 1340.07 876.067C1333.49 873.643 1330.27 856.542 1327.03 850.407C1325.2 846.943 1322.49 843.604 1318.52 842.599C1305.99 839.429 1301.69 870.018 1296.05 877.069C1294.64 878.827 1292.43 880.153 1290.56 881.371C1281.62 881.013 1263.89 878.505 1255.8 881.717C1254.09 882.391 1253.07 883.326 1252.37 884.97C1246.5 898.775 1269.59 908.368 1273.75 920.044C1274.48 922.101 1274.99 924.872 1274.38 927.017C1272.55 933.371 1260.34 944.02 1256.98 952.194C1255.91 954.793 1255.27 957.543 1256.46 960.223C1262.22 973.263 1286.72 958.083 1296.93 958.47C1299.9 958.582 1303.12 960.586 1305.93 961.557C1310.87 968.877 1314.29 977.453 1319.12 984.947C1321.56 988.743 1325.33 993.633 1330.07 994.413C1331.82 994.702 1333.42 994.245 1334.82 993.147C1336.57 991.773 1337.91 989.564 1338.79 987.555C1339.73 985.436 1349.56 956.12 1349.65 955.367C1358.93 955.03 1367.73 957.176 1376.9 957.297C1380.52 957.345 1385.53 956.981 1388.13 954.178C1389.63 952.558 1390.13 950.183 1390 948.046C1389.97 947.733 1389.95 947.418 1389.91 947.106C1388.94 940.182 1372.57 923.308 1366.74 919.095C1367.47 917.95 1368.22 916.817 1368.72 915.547C1372.93 904.903 1385.55 893.549 1385.88 881.927C1385.94 879.611 1385.3 877.37 1383.59 875.739C1380.78 873.057 1376.79 873.432 1373.24 873.677C1366.55 875.947 1354.01 879.324 1347.09 879.26C1345.52 878.402 1345.29 878.336 1344.41 876.681L1345.13 875.042C1350.43 870.359 1370.43 866.943 1377.58 866.872C1382.16 866.827 1385.81 868.035 1389.04 871.452C1391.92 874.498 1393.02 878.489 1392.86 882.616C1392.49 891.891 1380.28 911.368 1373.8 917.51C1381.6 921.131 1393.61 935.488 1396.25 943.427C1397.19 946.236 1397.11 949.484 1395.86 952.169C1395.87 952.396 1395.89 952.623 1395.9 952.851C1395.9 955.184 1393.58 958.498 1391.88 959.983C1383.21 967.517 1363.31 962.639 1352.58 962.278C1352.67 962.612 1352.83 963.082 1352.86 963.449C1353.23 967.706 1347.61 985.423 1345.62 989.788C1344.59 992.051 1343.02 994.305 1341.28 996.086C1338.25 999.19 1334.08 1001.09 1329.7 1001.05C1313.06 1000.9 1308.55 973.201 1298.74 963.652C1298.63 963.543 1298.51 963.44 1298.39 963.334C1291.56 966.874 1269.94 974.004 1262.48 972.332C1258.17 971.367 1252.83 968.848 1250.56 964.909C1242.19 950.343 1266.27 931.682 1267.95 923.566C1268 923.319 1268.04 923.068 1268.08 922.818C1266.94 918.171 1257.62 910.929 1254.07 907.391C1249.32 902.672 1243.83 897.421 1244.06 890.175C1244.19 886.03 1246.14 880.949 1249.21 878.125C1257.47 870.538 1279.37 874.672 1289.94 875.475C1294.13 865.165 1297.56 848.418 1305.66 840.743C1307.51 838.992 1310.04 837.814 1312.28 836.64Z"/>
	<path fill="#B3CAC3" transform="scale(0.999721 0.999721)" d="M1308.18 71.7913C1320.1 70.7837 1331.25 72.4496 1341.33 79.4483C1350.71 85.9681 1356.78 96.8902 1358.61 108.044C1360.44 119.156 1358.94 130.064 1352.13 139.266C1345.15 148.699 1334.82 153.816 1323.4 155.506C1315.53 157.561 1304.29 154.713 1297.26 150.851C1287.45 145.453 1279.53 135.46 1276.44 124.708C1273.43 114.207 1274.46 102.321 1279.91 92.7856C1286.11 81.9423 1296.27 75.0718 1308.18 71.7913Z"/>
	<path fill="#F9F9F2" transform="scale(0.999721 0.999721)" d="M1312.87 78.0954C1322.8 77.6581 1332.7 80.6105 1340.26 87.1937C1347.58 93.572 1352.03 103.241 1352.68 112.895Q1352.73 113.746 1352.74 114.599Q1352.75 115.451 1352.72 116.303Q1352.69 117.155 1352.61 118.004Q1352.54 118.854 1352.43 119.699Q1352.31 120.543 1352.16 121.382Q1352 122.22 1351.8 123.049Q1351.6 123.879 1351.37 124.697Q1351.13 125.516 1350.85 126.322Q1350.57 127.129 1350.26 127.92Q1349.94 128.712 1349.59 129.487Q1349.23 130.262 1348.84 131.019Q1348.45 131.775 1348.02 132.512Q1347.59 133.249 1347.12 133.963Q1346.66 134.678 1346.16 135.369Q1345.66 136.06 1345.13 136.726Q1344.59 137.391 1344.03 138.03C1337.42 145.367 1327.95 148.681 1318.29 149.221C1311.89 150.444 1302.2 146.37 1296.9 142.907C1289.06 137.785 1283.3 129.109 1281.46 119.933C1279.63 110.83 1281.95 101.853 1287.1 94.2378C1293.52 84.7465 1301.86 80.2934 1312.87 78.0954Z"/>
	<path fill="#B3CAC3" transform="scale(0.999721 0.999721)" d="M1314.55 875.862C1326.66 874.967 1338.26 878.108 1347.82 885.814C1356.61 892.903 1362.43 904.088 1363.57 915.296C1364.69 926.261 1361.44 937.782 1354.36 946.276C1346.97 955.139 1336.71 959.887 1325.36 960.968C1316.32 962.443 1306.79 960.194 1299.07 955.376C1289.23 949.242 1281.56 938.292 1279.14 926.957Q1278.93 925.921 1278.77 924.875Q1278.61 923.83 1278.49 922.778Q1278.38 921.726 1278.32 920.67Q1278.26 919.614 1278.25 918.557Q1278.25 917.499 1278.29 916.442Q1278.33 915.385 1278.42 914.332Q1278.51 913.278 1278.66 912.23Q1278.8 911.182 1278.99 910.142Q1279.19 909.103 1279.43 908.073Q1279.67 907.044 1279.97 906.028Q1280.26 905.011 1280.6 904.01Q1280.94 903.009 1281.33 902.026Q1281.72 901.042 1282.16 900.078Q1282.59 899.115 1283.07 898.173Q1283.56 897.232 1284.08 896.315Q1284.61 895.398 1285.18 894.507C1292.12 883.91 1302.37 878.338 1314.55 875.862Z"/>
	<path fill="#F9F9F2" transform="scale(0.999721 0.999721)" d="M1317.97 882.167C1327.36 882.155 1335.68 884.09 1343.24 889.974Q1343.95 890.535 1344.64 891.131Q1345.32 891.727 1345.97 892.355Q1346.63 892.984 1347.25 893.644Q1347.87 894.305 1348.46 894.995Q1349.05 895.685 1349.6 896.403Q1350.16 897.122 1350.68 897.866Q1351.19 898.611 1351.68 899.381Q1352.16 900.15 1352.6 900.942Q1353.04 901.735 1353.44 902.548Q1353.85 903.361 1354.21 904.193Q1354.57 905.025 1354.89 905.873Q1355.21 906.722 1355.49 907.586Q1355.77 908.449 1356 909.326Q1356.24 910.202 1356.43 911.089Q1356.62 911.975 1356.77 912.87Q1356.92 913.766 1357.02 914.667C1358.11 924.117 1355.04 934.378 1349.11 941.796C1342.02 950.671 1332.88 953.813 1321.96 955.01C1315.01 955.991 1305.49 952.215 1299.98 948.07C1291.84 941.95 1286.08 931.951 1284.85 921.838Q1284.75 920.967 1284.7 920.093Q1284.64 919.219 1284.63 918.343Q1284.62 917.467 1284.65 916.592Q1284.69 915.716 1284.76 914.843Q1284.84 913.971 1284.95 913.103Q1285.07 912.235 1285.23 911.374Q1285.4 910.513 1285.6 909.661Q1285.8 908.809 1286.05 907.968Q1286.29 907.127 1286.58 906.299Q1286.87 905.471 1287.19 904.659Q1287.52 903.846 1287.89 903.051Q1288.26 902.256 1288.66 901.48Q1289.07 900.703 1289.51 899.948Q1289.96 899.193 1290.44 898.461Q1290.92 897.728 1291.43 897.021Q1291.95 896.313 1292.5 895.632C1298.86 887.795 1308.03 883.227 1317.97 882.167Z"/>
	<path fill="#242427" transform="scale(0.999721 0.999721)" d="M457.053 102.152C465.898 102.224 474.96 103.407 483.785 104.119Q507.294 106.048 530.827 107.648C542.805 129.121 551.482 152.485 562.774 174.315C555.089 187.516 546.364 200.202 538.058 213.02C532.961 220.885 527.694 231.239 521.078 237.787C512.425 235.554 503.336 234.744 494.482 233.559Q471.479 230.384 448.37 228.095C437.741 206.243 425.767 184.843 414.383 163.368C419.946 153.414 427.287 144.071 433.826 134.738C441.45 123.855 448.789 112.552 457.053 102.152Z"/>
	<path fill="#F9F9F2" transform="scale(0.999721 0.999721)" d="M462.883 106.668L528.224 111.893C533.818 122.693 538.809 133.87 544.119 144.819C548.111 153.049 553.044 161.577 555.92 170.222L555.249 171.242C534.021 169.219 512.675 166.835 491.549 163.941C484.667 150.34 477.384 136.896 470.177 123.463C467.555 118.575 463.322 112.894 461.853 107.671L462.883 106.668Z"/>
	<path fill="#F9F9F2" transform="scale(0.999721 0.999721)" d="M457.442 108.975C459.753 110.736 484.351 159.917 487.679 166.733C474.255 184.055 463.097 203.67 450.518 221.691C446.107 214.963 442.603 207.415 438.853 200.294Q429.047 181.967 419.761 163.371C431.037 144.741 444.669 126.633 457.442 108.975Z"/>
	<path fill="#F9F9F2" transform="scale(0.999721 0.999721)" d="M491.902 168.546C513.734 169.99 535.868 172.875 557.582 175.644L534.083 210.976C529.279 218.248 524.715 225.928 519.253 232.721Q486.534 228.059 453.673 224.53C466.931 206.301 478.112 186.318 491.902 168.546Z"/>
	<path fill="#B3CAC3" transform="scale(0.999721 0.999721)" d="M139.741 34.6112C146.768 34.6433 152.709 35.6032 158.255 40.2774C165.905 46.7247 167.717 55.8559 168.582 65.3099C181.268 68.5242 192.13 74.3716 203.01 81.4502Q204.286 80.2966 205.629 79.2217C211.374 74.6539 218.465 72.5445 225.774 73.455Q226.431 73.5361 227.082 73.6503Q227.734 73.7645 228.379 73.9115Q229.024 74.0585 229.661 74.2379Q230.298 74.4173 230.925 74.6286Q231.552 74.84 232.167 75.0827Q232.783 75.3255 233.385 75.599Q233.988 75.8725 234.576 76.1762Q235.163 76.4798 235.735 76.8127Q236.307 77.1457 236.861 77.5071Q237.415 77.8685 237.951 78.2575Q238.486 78.6464 239.001 79.062Q239.516 79.4775 240.009 79.9185Q240.503 80.3595 240.973 80.8248Q241.443 81.2902 241.89 81.7787Q242.336 82.2673 242.757 82.7777Q243.178 83.2882 243.573 83.8193Q243.969 84.3528 244.339 84.9052Q244.708 85.4576 245.05 86.0276Q245.391 86.5976 245.705 87.1838Q246.018 87.77 246.301 88.371Q246.585 88.972 246.839 89.5863Q247.092 90.2005 247.315 90.8266Q247.538 91.4527 247.73 92.089Q247.922 92.7253 248.082 93.3704Q248.242 94.0154 248.37 94.6676Q248.498 95.3198 248.594 95.9775Q248.689 96.6352 248.752 97.2968Q248.815 97.9584 248.846 98.6224Q248.876 99.2863 248.873 99.9509Q248.87 100.616 248.835 101.279Q248.799 101.943 248.731 102.604Q248.663 103.265 248.562 103.922C247.13 113.441 240.686 119.396 233.403 124.888C238.402 138.248 237.064 153.219 236.552 167.216C238.254 167.767 240.05 168.321 241.643 169.142C247.213 172.012 251.595 178.023 253.376 183.938Q253.562 184.575 253.716 185.22Q253.87 185.865 253.991 186.518Q254.113 187.17 254.203 187.827Q254.292 188.484 254.349 189.145Q254.406 189.806 254.431 190.469Q254.455 191.132 254.446 191.795Q254.438 192.459 254.397 193.121Q254.355 193.783 254.281 194.442Q254.207 195.102 254.101 195.756Q253.995 196.411 253.856 197.06Q253.717 197.709 253.547 198.35Q253.376 198.991 253.174 199.623Q252.973 200.255 252.74 200.876Q252.507 201.497 252.243 202.106Q251.98 202.715 251.687 203.31Q251.394 203.905 251.072 204.485Q250.743 205.076 250.385 205.651Q250.027 206.226 249.642 206.782Q249.256 207.338 248.843 207.874Q248.431 208.411 247.992 208.926Q247.554 209.442 247.09 209.935Q246.627 210.428 246.14 210.898Q245.652 211.368 245.143 211.813Q244.633 212.258 244.102 212.678Q243.571 213.097 243.02 213.49Q242.469 213.883 241.899 214.248Q241.329 214.613 240.742 214.95Q240.155 215.286 239.552 215.594Q238.949 215.901 238.332 216.178Q237.714 216.455 237.084 216.702Q236.454 216.948 235.812 217.163Q235.17 217.378 234.519 217.561C226.047 219.884 218.67 217.019 211.358 212.874C201.498 222.002 191.882 229.059 179.286 234.014C180.303 237.617 181.161 241.045 180.825 244.818Q180.77 245.48 180.682 246.138Q180.594 246.796 180.474 247.448Q180.354 248.101 180.201 248.747Q180.048 249.393 179.864 250.031Q179.679 250.668 179.463 251.296Q179.247 251.924 179 252.54Q178.753 253.156 178.476 253.759Q178.199 254.362 177.892 254.951Q177.585 255.54 177.249 256.112Q176.914 256.685 176.55 257.24Q176.186 257.795 175.795 258.332Q175.405 258.868 174.988 259.385Q174.571 259.901 174.128 260.396Q173.686 260.891 173.22 261.363Q172.754 261.836 172.265 262.284Q171.776 262.733 171.265 263.157C164.997 268.295 157.786 269.537 149.918 268.671C145.296 267.228 140.881 265.281 137.211 262.057C129.855 255.595 129.135 247.237 128.484 238.104C116.013 235.563 105.911 230.788 95.2123 224.03C92.2945 226.26 89.2935 228.881 86.0243 230.554C79.3988 233.944 71.6947 235.02 64.5791 232.543C57.9246 230.227 52.4422 225.056 49.4579 218.703Q49.1719 218.105 48.9159 217.494Q48.6598 216.883 48.4345 216.26Q48.2092 215.637 48.0151 215.004Q47.821 214.371 47.6586 213.728Q47.4962 213.086 47.366 212.436Q47.2357 211.787 47.1378 211.132Q47.04 210.476 46.9748 209.817Q46.9097 209.158 46.8774 208.496Q46.8451 207.834 46.8456 207.172Q46.8462 206.509 46.8798 205.848Q46.9133 205.186 46.9796 204.527Q47.046 203.868 47.145 203.212Q47.244 202.557 47.3754 201.908Q47.5069 201.259 47.6704 200.617Q47.834 199.975 48.0292 199.342Q48.2245 198.709 48.4509 198.086C51.338 190.271 56.6915 186.179 63.9847 182.763C58.8831 167.823 58.0254 152.996 59.6781 137.429C56.457 136.172 53.1399 134.965 50.2216 133.083C44.4935 129.388 40.3863 123.727 39.041 117.01C37.6429 110.03 39.3752 102.586 43.3708 96.7395Q43.7246 96.212 44.1044 95.7028Q44.4841 95.1937 44.8888 94.7041Q45.2935 94.2146 45.7221 93.7459Q46.1507 93.2772 46.6022 92.8305Q47.0537 92.3838 47.527 91.9602Q48.0003 91.5366 48.4941 91.1372Q48.9879 90.7378 49.501 90.3636Q50.0142 89.9894 50.5454 89.6413Q51.0766 89.2931 51.6245 88.972Q52.1724 88.6509 52.7357 88.3575Q53.299 88.0642 53.8762 87.7994Q54.4534 87.5345 55.0432 87.2989Q55.6329 87.0632 56.2337 86.8574Q56.8344 86.6515 57.4447 86.4759Q58.055 86.3003 58.6733 86.1554Q59.2916 86.0105 59.9164 85.8967C68.5354 84.3135 74.5713 87.2596 81.5938 91.994C91.6406 82.1148 101.77 74.2868 115.12 69.3707Q114.853 67.5714 114.661 65.7626C113.859 58.1457 115.212 50.2217 120.195 44.1691C125.017 38.3117 132.361 35.3899 139.741 34.6112Z"/>
	<path fill="#F9F9F2" transform="scale(0.999721 0.999721)" d="M136.761 41.4716C142.645 41.1742 149.511 41.6718 154.39 45.3994C161.676 50.9659 159.784 58.9702 161.206 66.764C161.435 68.0186 161.959 69.6303 163.147 70.2928C167.954 72.9726 174.427 73.4846 179.666 75.3157C188.238 78.3117 196.263 84.6301 203.686 89.7871C207.13 86.5038 210.449 83.1931 214.928 81.3778C219.894 79.3655 225.147 79.4327 230.072 81.551Q230.536 81.75 230.989 81.9718Q231.442 82.1935 231.883 82.4373Q232.325 82.6812 232.754 82.9465Q233.183 83.2119 233.599 83.4982Q234.014 83.7845 234.415 84.0909Q234.815 84.3974 235.201 84.7233Q235.586 85.0491 235.954 85.3937Q236.323 85.7382 236.674 86.1005Q237.025 86.4628 237.358 86.8421Q237.691 87.2213 238.004 87.6165Q238.318 88.0118 238.612 88.422Q238.905 88.8323 239.178 89.2565Q239.451 89.6808 239.703 90.118Q239.955 90.5553 240.185 91.0044Q240.415 91.4536 240.622 91.9136Q240.83 92.3735 241.014 92.8432Q241.362 93.7169 241.623 94.6208Q241.883 95.5247 242.052 96.4499Q242.222 97.3752 242.299 98.3126Q242.376 99.2501 242.36 100.191Q242.344 101.131 242.235 102.065Q242.126 103 241.926 103.919Q241.725 104.838 241.434 105.732Q241.143 106.627 240.765 107.488C237.647 114.458 231.853 117.179 225.041 119.675C230.239 136.574 233.095 153.075 228.958 170.609C232.253 172.026 236.014 173.361 238.951 175.454C243.512 178.703 246.947 183.28 247.731 188.913C248.48 194.292 246.802 199.748 243.442 203.969Q243.12 204.375 242.778 204.765Q242.436 205.155 242.075 205.527Q241.714 205.9 241.335 206.254Q240.956 206.608 240.559 206.942Q240.163 207.277 239.751 207.591Q239.338 207.906 238.911 208.199Q238.483 208.493 238.042 208.765Q237.6 209.036 237.146 209.286Q236.691 209.535 236.225 209.762Q235.758 209.989 235.281 210.192Q234.804 210.395 234.317 210.574Q233.83 210.753 233.336 210.907Q232.841 211.062 232.339 211.191Q231.836 211.321 231.329 211.426Q230.821 211.53 230.308 211.609Q229.796 211.689 229.28 211.742C221.159 212.599 216.993 208.233 211.169 203.641C204.063 209.709 198.114 216.807 190.044 221.817C185.081 224.899 178.581 225.739 173.891 229.233C171.394 231.093 174.136 242.073 173.664 245.774C173.047 250.609 170.795 256.029 166.727 258.933C162.901 261.664 156.558 262.727 151.999 261.979C151.381 261.806 150.768 261.614 150.15 261.442C147.458 260.692 145.034 259.482 142.818 257.764C132.926 250.1 136.517 245.043 135.177 234.8C131.889 230.611 123.142 230.26 118.105 228.561C108.898 225.456 101.175 219.908 93.4492 214.202C90.0358 219.18 86.8257 223.242 81.087 225.633Q80.6212 225.826 80.1464 225.995Q79.6716 226.164 79.1889 226.309Q78.7062 226.455 78.2168 226.575Q77.7275 226.696 77.2327 226.792Q76.7379 226.889 76.2389 226.96Q75.7399 227.031 75.238 227.077Q74.7361 227.124 74.2324 227.145Q73.7288 227.166 73.2248 227.161Q72.7208 227.157 72.2176 227.128Q71.7144 227.098 71.2133 227.044Q70.7122 226.989 70.2145 226.909Q69.7168 226.83 69.2237 226.725Q68.7306 226.621 68.2433 226.492Q67.7561 226.362 67.2759 226.209Q66.7957 226.056 66.3238 225.879Q65.8519 225.702 65.3894 225.501Q64.9402 225.303 64.5013 225.082Q64.0624 224.862 63.6349 224.62Q63.2073 224.379 62.7922 224.116Q62.3771 223.854 61.9754 223.571Q61.5737 223.289 61.1864 222.987Q60.799 222.685 60.427 222.364Q60.0551 222.043 59.6993 221.705Q59.3435 221.366 59.0048 221.011Q58.6662 220.655 58.3454 220.283Q58.0246 219.911 57.7226 219.524Q57.4205 219.136 57.1378 218.735Q56.8552 218.333 56.5926 217.918Q56.3301 217.503 56.0883 217.075Q55.8465 216.648 55.626 216.209Q55.4055 215.77 55.2069 215.321Q55.0083 214.871 54.832 214.413Q54.656 213.955 54.5032 213.49Q54.3503 213.024 54.221 212.551Q54.0918 212.078 53.9864 211.6Q53.881 211.121 53.7998 210.637Q53.7185 210.154 53.6616 209.667Q53.6047 209.18 53.5724 208.691Q53.54 208.202 53.5322 207.712Q53.5244 207.222 53.5412 206.732Q53.558 206.242 53.5993 205.753Q53.6407 205.265 53.7065 204.779Q53.7723 204.293 53.8624 203.812Q53.9525 203.33 54.0667 202.853Q54.1808 202.376 54.3187 201.906Q54.4567 201.435 54.618 200.973Q54.7794 200.51 54.9638 200.056Q55.1482 199.601 55.3551 199.157C58.8376 191.781 65.1439 189.175 72.3187 186.525C64.515 168.513 64.5123 151.231 67.2339 132.079C61.1056 131.55 55.3044 129.898 50.7569 125.532C47.1544 122.073 45.2227 117.43 45.2027 112.456Q45.2051 111.934 45.2325 111.414Q45.26 110.893 45.3125 110.374Q45.365 109.855 45.4425 109.339Q45.5199 108.823 45.622 108.312Q45.7242 107.8 45.8509 107.294Q45.9776 106.788 46.1284 106.289Q46.2793 105.79 46.4541 105.298Q46.6288 104.807 46.827 104.324Q47.0252 103.842 47.2464 103.37Q47.4675 102.897 47.7112 102.436Q47.9549 101.975 48.2204 101.526Q48.486 101.077 48.7729 100.642Q49.0598 100.206 49.3673 99.7848Q49.6748 99.3635 50.0022 98.9576Q50.3297 98.5517 50.6763 98.1619Q51.0229 97.7722 51.3878 97.3997C54.9894 93.7943 59.7805 91.9367 64.8654 92.056C72.3198 92.2309 77.2017 96.1224 82.1004 101.299C94.8668 87.6813 105.745 80.3423 122.908 72.6989C121.536 66.0895 119.926 58.7627 122.758 52.2808C125.48 46.0507 130.795 43.6598 136.761 41.4716Z"/>
	<path fill="#B3CAC3" transform="scale(0.999721 0.999721)" d="M145.503 80.8429C163.233 80.8007 179.894 86.4393 193.619 97.7695Q194.949 98.8629 196.223 100.02Q197.497 101.178 198.713 102.397Q199.929 103.616 201.083 104.893Q202.237 106.17 203.327 107.503Q204.417 108.835 205.44 110.22Q206.463 111.605 207.417 113.038Q208.371 114.471 209.253 115.95Q210.135 117.428 210.943 118.949Q211.751 120.469 212.484 122.027Q213.216 123.585 213.871 125.177Q214.526 126.77 215.102 128.392Q215.678 130.015 216.173 131.664Q216.668 133.313 217.082 134.984Q217.495 136.656 217.826 138.345Q218.157 140.035 218.404 141.739Q218.651 143.443 218.814 145.157Q218.979 146.852 219.058 148.554Q219.137 150.255 219.13 151.958Q219.124 153.662 219.031 155.362Q218.939 157.063 218.762 158.757Q218.584 160.451 218.322 162.134Q218.059 163.817 217.712 165.485Q217.365 167.152 216.935 168.8Q216.505 170.448 215.993 172.072Q215.48 173.697 214.886 175.293Q214.293 176.89 213.62 178.454Q212.947 180.019 212.196 181.547Q211.445 183.076 210.618 184.565Q209.792 186.054 208.891 187.5Q207.99 188.945 207.018 190.344Q206.046 191.742 205.005 193.09Q203.964 194.437 202.856 195.731C189.052 212.088 170.985 219.743 150.014 221.63C149.867 221.649 149.72 221.67 149.573 221.686C133.114 223.479 113.703 215.313 101.213 205.115C87.5195 193.934 78.8598 176.115 77.18 158.593Q77.0224 156.842 76.9498 155.085Q76.8773 153.329 76.89 151.571Q76.9028 149.813 77.0007 148.058Q77.0987 146.302 77.2817 144.554Q77.4647 142.805 77.7323 141.068Q77.9999 139.33 78.3514 137.608Q78.703 135.885 79.1376 134.182Q79.5723 132.478 80.0891 130.798Q80.6059 129.117 81.2035 127.464Q81.8012 125.811 82.4783 124.188Q83.1554 122.566 83.9105 120.979Q84.6655 119.391 85.4966 117.842Q86.3277 116.293 87.233 114.786Q88.1383 113.279 89.1155 111.818Q90.0928 110.357 91.1398 108.945Q92.1869 107.533 93.3011 106.173C106.734 89.8999 124.998 82.6584 145.503 80.8429Z"/>
	<path fill="#F9F9F2" transform="scale(0.999721 0.999721)" d="M145.146 87.1209C160.142 87.9195 173.01 90.8245 185.416 99.8121C199.782 110.22 209.206 125.026 211.963 142.585C214.441 158.372 209.365 176.265 199.967 189.053C188.445 204.729 169.735 212.541 151.064 215.371C134.968 215.145 119.619 211.294 106.78 201.146Q105.581 200.181 104.432 199.158Q103.282 198.135 102.184 197.057Q101.086 195.978 100.042 194.847Q98.9985 193.716 98.0118 192.535Q97.0251 191.354 96.0978 190.126Q95.1705 188.897 94.3047 187.625Q93.439 186.353 92.6369 185.039Q91.8349 183.725 91.0984 182.374Q90.362 181.022 89.693 179.636Q89.0239 178.25 88.424 176.833Q87.824 175.416 87.2945 173.97Q86.765 172.525 86.3073 171.056Q85.8496 169.586 85.4648 168.096Q85.08 166.605 84.769 165.098Q84.458 163.591 84.2216 162.07Q83.9852 160.549 83.8239 159.018C81.9512 141.775 87.5299 123.729 98.5068 110.347C110.116 96.1937 127.256 88.8579 145.146 87.1209Z"/>
	<path fill="#F9F9F2" transform="scale(0.999721 0.999721)" d="M1011.29 918.768C1009.87 916.39 1008.27 913.937 1007.35 911.315C1005.73 906.711 1006.29 902.449 1008.32 898.162C1013.84 886.507 1020.27 875.157 1026.3 863.755Q1043.62 831.18 1060.59 798.424L1088.52 744.075C1093.2 734.961 1097.54 724.802 1103.15 716.258C1105.69 712.386 1109.85 708.815 1114.31 707.412C1117.88 706.289 1121.02 706.383 1124.3 708.166C1136.77 713.649 1148.8 720.95 1160.84 727.366C1167.8 731.074 1177.15 734.778 1183.23 739.645C1196.38 746.34 1225.4 760.233 1235.91 768.466C1238.93 770.838 1242.2 773.915 1243.41 777.657C1244.06 779.637 1244.28 782.248 1243.29 784.128C1243.17 789.073 1236.47 801.316 1232.85 804.816C1232.82 806.092 1232.4 807.176 1231.82 808.302C1221.07 829.354 1209.34 849.95 1198.29 870.852L1147.34 968.305C1143.08 976.314 1140.88 979.147 1131.92 981.888C1129.72 979.655 1120.29 975.733 1117.1 974.001C1082.29 955.062 1047.38 935.167 1011.29 918.768Z"/>
	<path fill="#242427" transform="scale(0.999721 0.999721)" d="M1177.39 815.431C1185.21 817.694 1193.28 823.032 1200.68 826.577L1200.02 828.437L1201.29 829.368L1200.73 829.591C1194.19 829.244 1182.65 821.099 1176.19 818.116C1177.39 817.964 1178.38 818.141 1179.18 817.205L1177.39 815.431Z"/>
	<path transform="scale(0.999721 0.999721)" d="M1212.07 773.868C1216.43 775.095 1223.85 778.043 1226.3 781.997C1227.84 784.493 1227.78 787.436 1227 790.176C1225.66 794.82 1220.66 806.32 1216.72 808.887C1217.11 812.636 1211.16 822.603 1208.77 825.493C1208.13 826.271 1207.39 826.744 1206.52 827.236C1205.79 828.543 1205.85 828.731 1204.34 829.13C1203.35 829.393 1202.31 829.366 1201.29 829.368L1200.02 828.437L1200.68 826.577C1202.44 826.122 1203.49 825.558 1204.88 824.398C1208.11 822.09 1213.61 810.669 1214.65 806.682C1217.41 803.284 1220.03 798.058 1222.06 794.141C1223.47 791.436 1224.65 788.069 1223.54 785.052C1221.84 780.459 1215.31 778.38 1211.14 776.639L1212.07 773.868Z"/>
	<path fill="#242427" transform="scale(0.999721 0.999721)" d="M1131.89 731.226C1137.27 732.501 1210.48 771.334 1211.86 773.414C1211.95 773.554 1212 773.717 1212.07 773.868L1211.14 776.639C1205.42 771.758 1194.4 767.305 1187.5 763.673L1130.95 734.022L1132.13 733.018L1131.89 731.226Z"/>
	<path transform="scale(0.999721 0.999721)" d="M1144.67 801.358C1134.28 794.782 1099.62 779.674 1093.73 772.174C1092.47 770.561 1092.42 769.18 1092.74 767.238C1093.81 760.933 1109.77 729.24 1114.77 725.977C1116.71 724.709 1119.54 725.103 1121.68 725.575C1124.52 726.198 1130.33 728.842 1131.89 731.226L1132.13 733.018L1130.95 734.022C1126.94 731.688 1121.89 728.148 1117.19 727.718C1112.14 732.285 1096.77 762.728 1095.84 769.748C1098.81 776.215 1142.82 793.701 1145.21 798.452C1149.49 799.488 1175.62 812.744 1177.39 815.431L1179.18 817.205C1178.38 818.141 1177.39 817.964 1176.19 818.116C1170.77 813.622 1152.01 805.165 1144.67 801.358Z"/>
	<path transform="scale(0.999721 0.999721)" d="M1076.64 896.169C1079.35 895.797 1081.62 895.876 1084.2 896.89C1090.78 899.469 1106.17 906.164 1108.7 912.93C1110.34 917.305 1105.1 926.061 1103.02 930.058C1100.69 934.532 1098.23 940.576 1093.15 942.166C1092.51 942.506 1091.67 942.591 1090.95 942.555C1083.76 942.192 1068.87 933.305 1064.19 928.069C1062.83 926.538 1062.35 924.992 1062.55 922.944C1063.05 917.765 1072.61 899.468 1076.64 896.169Z"/>
	<path fill="#F9F9F2" transform="scale(0.999721 0.999721)" d="M1078.67 898.975C1080.96 899.131 1082.74 899.758 1084.83 900.718C1089.43 902.842 1103.95 909.057 1105.35 913.757C1106.17 916.527 1103.33 921.801 1102.14 924.244C1099.88 928.875 1096.84 937.266 1091.82 938.991C1086.99 939.512 1075.13 932.111 1071.06 929.248C1068.59 927.51 1066.43 925.765 1065.9 922.681C1067.73 915.993 1073.75 903.767 1078.67 898.975Z"/>
	<path transform="scale(0.999721 0.999721)" d="M1095.75 859.049C1097.85 858.601 1099.63 858.397 1101.73 858.968C1108.51 860.815 1124.76 868.464 1128.3 874.43C1129.59 881.276 1123.23 891.313 1119.77 897.17C1117.69 900.673 1116.23 903.317 1112.06 904.41C1111.41 904.637 1110.9 904.814 1110.2 904.796C1104.8 904.659 1087.43 894.781 1083.73 890.704C1082.44 889.283 1081.13 887.572 1081.29 885.57C1081.79 879.044 1090.88 863.386 1095.75 859.049Z"/>
	<path fill="#F9F9F2" transform="scale(0.999721 0.999721)" d="M1096.2 862.548C1097.24 862.303 1098.38 862.012 1099.45 862.092C1104.75 862.488 1120.74 871.229 1124.29 875.121C1125.06 877.367 1124.68 878.732 1123.87 880.936C1122.03 885.892 1116.6 898.943 1111.78 901.084C1110.61 901.438 1110.09 901.535 1108.85 901.181C1102.78 899.44 1088.14 891.569 1084.94 886.005C1084.22 879.191 1093.24 869.912 1095.83 863.486C1095.96 863.175 1096.08 862.86 1096.2 862.548Z"/>
	<path transform="scale(0.999721 0.999721)" d="M1154.98 842.241C1161.83 840.863 1168.78 845.273 1174.77 848.356C1178.8 850.426 1186.19 853.899 1187.39 858.661C1188.9 864.614 1181.37 877.375 1178.03 882.555C1176.23 885.341 1174.89 886.452 1171.57 887.133C1163.14 888.403 1150.05 879.584 1142.56 875.646C1142.62 873.099 1140.38 870.897 1140.52 868.085C1140.83 861.537 1150.12 846.376 1154.98 842.241Z"/>
	<path fill="#F9F9F2" transform="scale(0.999721 0.999721)" d="M1155.32 845.742C1156.44 845.492 1157.63 845.241 1158.78 845.313C1164.5 845.671 1179.91 854.058 1183.57 858.452C1184.51 860.586 1184 862.374 1183.27 864.497C1181.34 870.12 1176.86 881.333 1171.58 883.975C1170.02 884.639 1166.8 883.433 1165.18 882.808C1159.66 880.681 1147.01 876.148 1144.81 870.297C1142.6 864.408 1152.45 851.37 1155.32 845.742Z"/>
	<path transform="scale(0.999721 0.999721)" d="M1076.19 800.213C1082.73 799.155 1090.83 804.518 1096.52 807.6C1099.98 809.473 1107.21 813.168 1108.22 817.331C1109.56 822.901 1103.05 833.124 1100.25 838.056C1097.99 842.034 1096.44 844.992 1091.76 846.289C1091 846.595 1090.35 846.726 1089.52 846.666C1082.39 846.147 1067.32 837.2 1062.89 831.792C1061.38 829.948 1061.07 828.163 1061.45 825.832C1062.29 820.72 1071.91 803.131 1076.19 800.213Z"/>
	<path fill="#F9F9F2" transform="scale(0.999721 0.999721)" d="M1077.18 803.712C1078.1 803.638 1079.08 803.532 1080.01 803.673C1084.95 804.425 1101.95 813.687 1104.75 817.529C1105.61 824.064 1099.18 833.496 1095.82 839.022C1094.21 841.664 1093.34 842.646 1090.29 843.382C1085.24 843.211 1071.85 835.112 1066.69 832.579C1066.73 830.805 1064.76 827.939 1063.66 826.601C1069.68 820.362 1070.6 809.231 1077.18 803.712Z"/>
	<path transform="scale(0.999721 0.999721)" d="M1135.86 879.363C1137.32 879.131 1138.83 878.911 1140.29 879.212C1144.86 880.152 1165.73 890.652 1167.95 894.199C1169.21 900.102 1165.82 906.094 1163.12 911.144C1160.65 915.759 1157.12 923.756 1151.95 925.318C1151.56 925.6 1150.55 925.833 1150.08 925.989C1144.4 925.671 1126.67 915.802 1122.79 911.576C1121.25 909.902 1121.09 907.797 1121.24 905.602C1121.69 899.142 1131.16 883.62 1135.86 879.363Z"/>
	<path fill="#F9F9F2" transform="scale(0.999721 0.999721)" d="M1136.21 882.863C1136.38 882.834 1136.54 882.799 1136.71 882.778C1136.97 882.744 1137.23 882.727 1137.5 882.699C1138.07 882.64 1138.61 882.587 1139.19 882.645C1143.71 883.095 1160.8 892.333 1163.99 895.828C1164.79 899.045 1163.06 902.581 1161.74 905.469C1159.77 909.791 1155.33 920.422 1150.94 922.094C1149.03 922.585 1147.28 921.877 1145.56 921.094C1140.05 918.594 1126.92 912.86 1124.92 906.889Q1124.77 906.422 1124.69 905.936Q1124.61 905.45 1124.6 904.958Q1124.6 904.466 1124.67 903.98Q1124.74 903.493 1124.89 903.023C1125.96 899.617 1133.97 886.893 1136.21 882.863Z"/>
	<path transform="scale(0.999721 0.999721)" d="M1055.54 838.031C1063.51 836.812 1072.39 842.954 1079.41 846.542C1082.74 848.241 1087.27 850.525 1088.29 854.44C1089.87 860.488 1084.2 870.065 1081.14 875.078C1078.79 878.921 1077.17 882.432 1072.47 883.574C1071.63 883.778 1070.78 883.953 1069.91 883.965C1064.51 884.036 1047.05 874.269 1043.19 870.337C1041.71 868.828 1041.12 867.563 1041.24 865.481C1041.57 859.67 1051.32 841.935 1055.54 838.031Z"/>
	<path fill="#F9F9F2" transform="scale(0.999721 0.999721)" d="M1057.49 840.828C1058.33 840.725 1059.03 840.73 1059.87 840.875C1064.21 841.611 1083 851.749 1085.12 855.176C1085.57 859.444 1083.43 863.714 1081.55 867.427C1079.23 871.999 1076.39 878.686 1071.41 880.289C1067.32 880.935 1052.52 872.798 1047.89 870.264C1046.67 869.598 1044.97 868.607 1044.7 867.151C1043.8 862.246 1054.31 845.077 1057.49 840.828Z"/>
	<path transform="scale(0.999721 0.999721)" d="M1038.66 875.845C1045.82 875.162 1056.78 882.057 1062.95 885.638C1065.08 886.87 1069.1 889.036 1069.62 891.651C1070.9 898.116 1061.97 912.697 1058.13 917.934C1056.1 920.704 1054.56 921.548 1051.19 922.102C1050.28 922.395 1049.38 922.356 1048.48 922.048C1043.18 920.247 1024.55 910.429 1022.4 905.165C1021.46 902.852 1022.37 899.202 1023.29 897.002C1026.17 890.083 1031.55 878.873 1038.66 875.845Z"/>
	<path fill="#F9F9F2" transform="scale(0.999721 0.999721)" d="M1037.05 879.346C1038.36 879.081 1039.83 878.808 1041.17 879.03C1045.65 879.774 1064.07 889.017 1066.19 892.355C1066.26 893.348 1066.21 894.267 1065.96 895.24C1064.74 900.152 1057.83 915.143 1053.37 918.015L1051.71 918.747C1047.44 918.535 1041.68 914.795 1037.82 912.762C1033.48 910.47 1026.98 907.479 1025.43 902.483C1026.22 895.112 1033.28 885.792 1037.05 879.346Z"/>
	<path transform="scale(0.999721 0.999721)" d="M1117.98 916.486C1124.4 916.905 1136.87 924.058 1142.85 927.512C1145.12 928.829 1147.83 931.074 1148.4 933.775C1149.82 940.467 1141.89 952.684 1138.04 958.203C1135.81 961.4 1134.43 962.709 1130.46 963.417C1128.9 963.469 1127.29 962.973 1125.84 962.425C1121.09 960.629 1103.17 952.151 1101.42 947.598C1100.04 944.01 1102.13 939.14 1103.64 935.857C1106.69 929.233 1110.88 919.143 1117.98 916.486Z"/>
	<path fill="#F9F9F2" transform="scale(0.999721 0.999721)" d="M1116.57 919.983C1117.98 919.855 1119.3 919.856 1120.65 920.331C1126.52 922.397 1142.81 929.295 1145.14 934.973C1145.7 936.339 1145.21 937.595 1144.66 938.913C1142.65 943.808 1136.38 957.395 1131.76 959.369C1126.07 960.515 1117.13 954.495 1112.05 951.607C1109.11 949.94 1105.74 947.802 1104.94 944.284C1103.8 939.257 1113.68 924.541 1116.57 919.983Z"/>
	<path transform="scale(0.999721 0.999721)" d="M1114.64 821.227C1117.63 820.668 1119.57 820.563 1122.44 821.615C1128.9 823.981 1145.63 830.781 1148.09 837.242C1149.59 841.192 1145.73 848.023 1143.9 851.53C1141.27 856.566 1137.42 865.693 1131.82 867.46C1131.09 867.76 1130.32 868.055 1129.53 868.151C1125.98 868.583 1106.38 857.565 1103.07 854.909C1101.31 853.496 1100.47 851.697 1100.36 849.436C1100.02 842.345 1107.82 829.396 1112.41 824.014C1113.18 823.105 1113.91 822.164 1114.64 821.227Z"/>
	<path fill="#F9F9F2" transform="scale(0.999721 0.999721)" d="M1115.96 824.028C1116.71 823.95 1117.44 823.93 1118.19 824.009C1124.21 824.649 1140.57 833.03 1144.41 837.6C1144.9 839.519 1144.72 840.428 1144.14 842.281C1142.79 846.604 1136.26 860.3 1133.18 863.231C1132.73 863.655 1131.55 864.062 1130.97 864.362C1127.03 864.8 1114.77 857.949 1110.89 855.902C1108.1 854.434 1104.88 852.494 1104 849.259C1102.41 843.388 1112.95 829.427 1115.96 824.028Z"/>
	<path fill="#F9F9F2" transform="scale(0.999721 0.999721)" d="M1145.21 798.452C1142.82 793.701 1098.81 776.215 1095.84 769.748C1096.77 762.728 1112.14 732.285 1117.19 727.718C1121.89 728.148 1126.94 731.688 1130.95 734.022L1187.5 763.673C1194.4 767.305 1205.42 771.758 1211.14 776.639C1215.31 778.38 1221.84 780.459 1223.54 785.052C1224.65 788.069 1223.47 791.436 1222.06 794.141C1220.03 798.058 1217.41 803.284 1214.65 806.682C1213.61 810.669 1208.11 822.09 1204.88 824.398C1203.49 825.558 1202.44 826.122 1200.68 826.577C1193.28 823.032 1185.21 817.694 1177.39 815.431C1175.62 812.744 1149.49 799.488 1145.21 798.452Z"/>
	<path transform="scale(0.999721 0.999721)" d="M1052.46 253.407C1052.56 253.294 1052.66 253.184 1052.75 253.068C1054.79 250.514 1055.44 247.125 1056.66 244.143C1059.84 236.379 1066.88 231.871 1075.06 230.854C1081.62 230.038 1088.44 232.102 1093.64 236.166C1098.53 239.993 1101.09 245.124 1101.85 251.247C1102.03 252.697 1101.89 253.839 1101.5 255.234C1102.21 259.955 1090.13 278.397 1086.84 283.347C1089.2 285.144 1092.38 288.647 1092.65 291.806C1092.72 292.595 1092.67 292.641 1092.51 293.301C1093.52 297.804 1092.54 302.631 1090.13 306.573C1095.86 310.609 1119.48 338.359 1121.01 345.315C1121.05 345.502 1121.05 345.697 1121.07 345.888C1129.68 341.7 1141.73 327.431 1151.41 321.013C1155.01 318.625 1165.17 315.552 1167.29 313.027C1164.02 306.353 1148.67 307.07 1147.3 288.407C1147.03 284.735 1147.2 280.809 1148.35 277.286C1150.25 271.468 1158.27 264.268 1159.03 260.891C1159.1 260.626 1159.17 260.363 1159.23 260.096C1159.63 258.168 1158.62 255.844 1158.36 253.905C1157.68 248.7 1159.75 240.611 1164.06 237.412C1168.59 234.046 1176.42 233.893 1181.78 234.866C1185.31 235.509 1189.08 236.92 1191.2 239.986C1193.14 242.786 1193.23 246.458 1195.8 248.625C1201.27 247.861 1207.31 246.1 1212.21 249.633C1214.31 251.153 1216.29 253.266 1216.73 255.923C1217.24 258.983 1216.41 261.979 1217.69 264.905C1221.38 266.139 1226.27 267.524 1228.19 271.273C1229.36 273.551 1229.82 277.564 1228.95 279.986C1228.03 282.526 1225.68 283.62 1223.33 284.563C1220.57 285.671 1216.36 286.623 1215.11 289.667C1213.81 292.816 1214.61 296.506 1211.14 298.395C1205.17 301.649 1195.07 299.204 1188.8 297.838C1190.26 300.633 1189.53 304.93 1191.09 307.036C1195.43 312.903 1203.87 316.318 1209.66 320.717C1216.6 325.984 1221.92 332.678 1226.79 339.839C1230.67 345.553 1235.02 352.557 1237.18 359.101C1238.39 362.749 1237.6 367.028 1238.46 370.898C1240.12 378.367 1242.74 385.62 1244.65 393.029C1246.89 401.739 1257.2 445.797 1255.47 451.763C1254.56 454.904 1252.3 457.531 1249.43 459.058Q1248.87 459.36 1248.29 459.603Q1247.7 459.846 1247.09 460.028Q1246.48 460.209 1245.86 460.328Q1245.24 460.447 1244.6 460.501Q1243.97 460.555 1243.34 460.544Q1242.7 460.533 1242.07 460.458Q1241.44 460.382 1240.82 460.242Q1240.2 460.102 1239.6 459.9C1235.67 458.575 1231.4 456.062 1229.71 452.098C1226.72 445.069 1231.71 437.441 1226.56 425.235C1225.52 422.76 1224.55 420.387 1222.83 418.298C1222.92 421.687 1221.26 423.671 1219.1 426.12L1219.26 426.959C1221.92 441.435 1222.09 464.616 1222.43 479.684C1222.63 488.496 1221.96 511.556 1224.94 518.738C1229.79 530.38 1238.94 541.201 1245.43 552.086C1250.62 560.789 1254.89 572.727 1260.41 580.397C1263.9 585.257 1272.64 589.551 1278.13 596.835C1279.58 598.754 1280.95 600.574 1280.94 603.074C1280.87 608.786 1277.4 612.171 1273.53 615.933C1265 624.22 1251 637.202 1238.46 637.243C1234.69 637.256 1228.63 636.327 1225.84 633.664C1224.41 632.304 1223.82 630.561 1223.8 628.616C1223.66 616.801 1238.29 612.199 1240.03 601.907C1239.77 601.199 1239.57 600.639 1239.13 600.016C1235.39 594.683 1229.89 589.559 1225.56 584.628Q1211.04 568.147 1196.85 551.373C1192.62 546.411 1187.38 541.223 1184.27 535.484C1177.48 522.962 1175.31 487.187 1168.1 478.054C1168.09 481.567 1165.02 485.726 1163.25 488.759C1157.73 498.231 1149.43 509.78 1146.9 520.506C1145.1 528.115 1145.69 537.172 1145.5 544.986Q1145.19 559.99 1144.05 574.954C1143.3 584.976 1139.04 600.211 1139.25 608.678C1139.47 617.698 1148.44 628.233 1142.82 636.855Q1142.36 637.568 1141.77 638.177C1135.1 645.112 1109.31 648.586 1099.87 648.344C1094.49 648.207 1087.63 646.645 1083.88 642.481C1081.74 640.097 1081.09 637.268 1081.46 634.123C1081.85 630.826 1083.62 628.302 1086.26 626.373C1092.43 621.869 1108.34 619.101 1112.18 613.076C1112.42 612.106 1112.62 611.084 1112.59 610.08C1112.42 604.532 1110.37 598.452 1109.73 592.82C1109.11 587.258 1110.04 578.483 1107.39 573.634C1108.18 571.132 1108.11 571.058 1107.1 568.625C1110.37 563.257 1106.25 525.844 1107.1 516.036C1108.67 497.884 1124.45 460.086 1131.19 442.005C1133.58 435.585 1137.01 428.381 1138.35 421.671C1138.84 419.188 1136.44 418.624 1136.71 416.303C1137.21 411.874 1141.59 407.598 1140.62 402.797C1141.08 402.321 1141.65 401.795 1142 401.222C1142.96 399.65 1142.7 398.767 1142.38 397.097C1145.72 393.722 1150.81 374.563 1150.88 369.256C1150.9 368.111 1150.68 366.969 1150.41 365.862C1149.67 367.794 1147.79 371.178 1145.88 372.138C1143.66 373.248 1140.46 372.726 1138.05 373.547C1135.92 374.275 1133.79 376.104 1131.85 377.273C1126.36 380.581 1119.21 382.067 1113.14 379.519C1104.06 375.71 1088.04 340.574 1083.32 330.567C1081.22 326.118 1079.1 319.289 1075.99 315.675C1072.4 311.502 1067.2 313.514 1064.07 305.585C1062.85 302.479 1061.91 297.682 1063.44 294.581C1065.01 291.413 1068.55 289.533 1071.58 288.011L1071.65 287.71L1055.73 259.973C1054.56 257.916 1053.99 255.117 1052.46 253.407Z"/>
	<path fill="#F9F9F2" transform="scale(0.999721 0.999721)" d="M1184.63 305.725C1185.7 305.882 1186.07 306.104 1186.98 306.653C1186.98 308.074 1186.61 308.269 1185.6 309.308C1182.25 312.793 1177.02 315.101 1172.22 315.256C1172.11 314.788 1171.87 313.902 1171.84 313.444C1171.67 310.55 1181.57 309.535 1184.63 305.725Z"/>
	<path fill="#F9F9F2" transform="scale(0.999721 0.999721)" d="M1084.69 288.213C1085.63 288.484 1086.45 288.816 1087.18 289.486C1089.22 291.349 1089.51 294.681 1089.55 297.282C1089.58 299.553 1089.09 303.605 1087.43 305.265L1084.84 304.533C1084.14 302.658 1082.27 301.182 1081.48 299.186C1079.99 295.438 1083.25 291.612 1084.69 288.213Z"/>
	<path fill="#F9F9F2" transform="scale(0.999721 0.999721)" d="M1130.98 602.7L1134.8 602.26C1135.56 602.862 1136.01 602.958 1136.24 603.949C1136.72 606.09 1134.58 609.478 1133.56 611.303C1128.77 611.967 1124.5 612.113 1119.68 611.545L1117.31 610.564C1116.14 608.87 1115.41 607.562 1115 605.537C1116.8 601.91 1126.21 604.623 1130.15 603.063C1130.43 602.952 1130.7 602.821 1130.98 602.7Z"/>
	<path fill="#F9F9F2" transform="scale(0.999721 0.999721)" d="M1069.79 292.405L1071.91 292.269C1074.07 293.08 1077.45 297.791 1078.62 299.813C1080 302.197 1080.94 305.207 1080.16 307.903C1078.84 309.822 1077.78 310.353 1075.6 311.07C1075.43 311.101 1075.27 311.156 1075.1 311.162C1073.52 311.225 1071.66 309.98 1070.48 309.023C1067.63 306.709 1066.43 303.282 1066.29 299.689C1066.15 296.267 1067.55 294.708 1069.79 292.405Z"/>
	<path fill="#F9F9F2" transform="scale(0.999721 0.999721)" d="M1253.59 578.187L1255.14 578.606C1257.16 580.739 1259.74 583.254 1259.51 586.458C1259.32 589.06 1257.37 591.755 1255.48 593.433C1251.72 596.786 1246.56 598.331 1241.62 598.142C1240.15 595.509 1236.66 592.925 1234.15 591.281C1239.73 589.452 1250.5 583.268 1253.59 578.187Z"/>
	<path fill="#F9F9F2" transform="scale(0.999721 0.999721)" d="M1274.25 599.897C1275.01 599.891 1275.44 599.979 1276.18 600.227C1277.3 600.603 1277.22 601.123 1277.72 602.132C1277.72 603.271 1277.62 604.356 1277.19 605.425C1273.53 614.543 1256.12 627.55 1247.24 631.445C1240.95 634.203 1236.05 634.282 1229.73 631.744C1228.53 629.82 1227.36 628.566 1227.33 626.234L1228.76 624.925C1232.06 625.544 1235.43 626.698 1238.75 627.014C1245.99 627.703 1257.88 619.159 1263.19 614.908C1267.71 611.296 1273.57 605.972 1274.25 599.897Z"/>
	<path fill="#F9F9F2" transform="scale(0.999721 0.999721)" d="M1139.45 628.614C1140.5 628.787 1140.14 628.616 1141 629.176C1141.88 629.751 1141.68 630.136 1141.86 631.115C1141.46 632.446 1141.03 633.413 1140.13 634.495C1133.7 642.256 1119.33 643.549 1109.82 644.648C1100.02 645.78 1093.19 645.397 1085.28 639.123Q1085.16 638.512 1085.05 637.898C1084.68 635.79 1084.16 633.876 1085.42 632.087C1088.31 632.623 1089.78 635.495 1092.39 636.767C1099.58 640.283 1121.9 637.047 1129.07 634.83C1132.68 633.714 1137.6 632.125 1139.45 628.614Z"/>
	<path fill="#F9F9F2" transform="scale(0.999721 0.999721)" d="M1263.09 587.993C1265.37 588.034 1267.6 589.752 1269.31 591.173C1270.7 592.316 1271.52 593.828 1271.65 595.635C1271.98 599.997 1268.78 604.623 1265.97 607.723C1258.97 615.463 1247.76 623.179 1237.07 623.664C1234.77 623.429 1232.65 623.458 1230.76 621.993L1230.59 620.457C1232.29 616.985 1235.81 614.517 1238.45 611.74C1240.87 609.182 1243.13 606.251 1243.03 602.575C1248.99 600.898 1255.37 598.575 1259.97 594.253C1262.05 592.295 1263 590.777 1263.09 587.993Z"/>
	<path fill="#F9F9F2" transform="scale(0.999721 0.999721)" d="M1115.16 614.606C1122.64 614.372 1128.17 617.363 1135.59 613.928C1137.3 616.747 1139.2 620.522 1139.46 623.836C1139.53 624.834 1138.78 626.126 1138.09 626.829C1132.84 632.142 1120.27 634.372 1113.13 634.659C1107.09 635.076 1099 635.389 1093.24 633.413C1090.96 632.63 1089.79 631.895 1088.73 629.717C1089.55 625.53 1110.34 621.406 1114.68 615.35C1114.85 615.109 1115 614.854 1115.16 614.606Z"/>
	<path fill="#C03343" transform="scale(0.999721 0.999721)" d="M1160.07 319.032L1162.08 319.553C1159.45 328.456 1155.01 356.743 1151.23 362.454C1151.19 362.589 1151.17 362.73 1151.12 362.859C1150.13 365.17 1144.69 369.535 1142.48 370.722C1142.33 367.399 1140.41 362.999 1137.98 360.727C1138.06 360.257 1138.11 360.165 1138 359.627C1137.04 354.749 1129.97 348.65 1125.79 346.462C1132.39 343.106 1138.77 335.294 1144.69 330.56C1149.62 326.622 1155.46 323.237 1160.07 319.032Z"/>
	<path fill="#C03343" transform="scale(0.999721 0.999721)" d="M1196.85 317.634C1200.69 317.37 1205.16 321.253 1207.95 323.575C1216.67 330.835 1233.48 351.631 1234.66 363.742C1231.58 364.923 1226.76 364.756 1223.4 365.049C1222.88 365.206 1222.36 365.374 1221.83 365.521C1215.32 367.345 1210.3 371.201 1204.47 374.418C1204.42 370.674 1202.41 365.697 1201.43 361.991C1197.38 346.693 1194.86 333.563 1196.85 317.634Z"/>
	<path fill="#F9F9F2" transform="scale(0.999721 0.999721)" d="M1163.57 263.002C1166.86 262.533 1170.73 262.379 1174.06 262.543C1179.75 262.822 1180.57 271.525 1184.33 275.357C1186.98 278.047 1190.99 278.244 1193.42 280.885C1192.74 286.356 1187.4 290.762 1186.84 296.561C1186.73 297.752 1186.65 298.573 1186.21 299.687C1183.58 302.44 1180.77 304.863 1177.24 306.361C1177.06 306.524 1176.89 306.699 1176.69 306.851C1175.16 308.06 1171.79 307.999 1169.9 307.815C1164.29 307.268 1159.01 303.679 1155.56 299.341C1151.72 294.513 1149.92 288.508 1150.77 282.368C1151.93 273.997 1157.02 267.888 1163.57 263.002Z"/>
	<path fill="#FBBC29" transform="scale(0.999721 0.999721)" d="M1072.25 234.282C1073.68 234.058 1075.12 233.89 1076.57 233.838Q1077.12 233.814 1077.67 233.818Q1078.22 233.822 1078.77 233.854Q1079.32 233.885 1079.86 233.945Q1080.41 234.004 1080.95 234.091Q1081.5 234.178 1082.03 234.293Q1082.57 234.407 1083.1 234.549Q1083.63 234.69 1084.16 234.858Q1084.68 235.026 1085.2 235.221Q1085.71 235.415 1086.21 235.635Q1086.72 235.855 1087.21 236.101Q1087.7 236.346 1088.18 236.616Q1088.66 236.886 1089.12 237.18Q1089.59 237.474 1090.04 237.791Q1090.49 238.108 1090.92 238.447Q1091.35 238.786 1091.77 239.147Q1092.18 239.508 1092.58 239.889C1096.23 243.38 1098.45 247.882 1098.47 252.991C1098.48 255.141 1098.17 257.038 1097.35 259.031C1095.27 264.091 1082.39 286.351 1079.23 289.486C1079.26 290.345 1078.99 290.766 1078.64 291.533C1073.28 288.872 1062.5 261.791 1056.44 255.721C1057.97 253.613 1058.14 250.409 1058.98 247.94C1061.59 240.335 1065.33 237.808 1072.25 234.282Z"/>
	<path fill="#F9F9F2" transform="scale(0.999721 0.999721)" d="M1083.22 307.819C1094.84 306.711 1118.49 350.22 1122.49 351.85C1123.19 350.674 1123.73 349.68 1124.87 348.853C1130.59 353.868 1137.49 360.637 1138.14 368.689C1137.12 370.431 1134.26 371.435 1132.5 372.272C1131.9 373.028 1131.18 373.438 1130.37 373.942C1126.58 376.3 1122.54 378.447 1117.94 377.201C1104.48 373.553 1087.6 328.286 1079.65 314.909L1079.3 314.339C1079.89 313.848 1080.48 313.356 1081.03 312.831C1082.83 311.122 1083.2 310.164 1083.22 307.819Z"/>
	<path fill="#F9F9F2" transform="scale(0.999721 0.999721)" d="M1225.76 367.364Q1226.98 367.195 1228.2 367.057C1230.29 366.827 1232.19 366.656 1233.87 368.006C1237.22 375.644 1253.85 445.7 1252.37 450.75Q1252.25 451.148 1252.09 451.533Q1251.94 451.917 1251.74 452.282Q1251.54 452.648 1251.31 452.991Q1251.07 453.334 1250.8 453.651Q1250.54 453.968 1250.24 454.256Q1249.94 454.543 1249.61 454.798Q1249.28 455.053 1248.93 455.272Q1248.57 455.491 1248.2 455.673C1244.47 457.51 1241.2 457.17 1237.46 455.863C1236.72 450.7 1235.93 445.648 1234.52 440.616C1231.99 431.566 1214.46 378.808 1209.61 374.048C1215.03 372.578 1220.23 369.118 1225.76 367.364Z"/>
	<path fill="#C03343" transform="scale(0.999721 0.999721)" d="M1179.68 316.936C1181.37 317.827 1180.79 318.939 1180.7 320.746C1179.96 335.502 1183.64 347.371 1190.77 360.291C1193.3 364.889 1197.99 372.954 1202.58 375.748C1203.55 376.339 1206.04 376.617 1207.25 376.965C1211.4 381.59 1219.65 405.868 1220.19 412.172C1220.49 415.643 1219.82 419.277 1217.42 421.926C1211.11 428.883 1190.1 428.53 1181.05 428.62C1166.04 428.911 1151.93 425.014 1139.61 416.369C1148.1 404.929 1158.49 349.629 1162.1 333.469C1163.11 328.912 1165.93 322.599 1165.91 318.187C1170.6 318.466 1175.39 319.237 1179.68 316.936Z"/>
	<path fill="#5D6271" transform="scale(0.999721 0.999721)" d="M1140.86 422.691C1145.22 422.573 1150.94 426.29 1155.08 427.867C1169.6 433.393 1201.71 433.18 1215.92 426.912C1216.02 427.056 1216.14 427.191 1216.23 427.343C1216.86 428.408 1217.17 429.544 1217.34 430.762C1218.9 441.78 1218.19 454.223 1218.57 465.433C1219.16 483.123 1220.43 500.802 1220.79 518.498C1220.82 519.683 1220.58 520.759 1220.23 521.887C1221.06 522.371 1221.69 522.946 1222.36 523.628C1228.36 529.732 1252.82 567.681 1252.76 574.97C1252.68 575.189 1252.63 575.42 1252.52 575.628C1250.71 579.156 1236.31 587.748 1232.22 589.033C1230.98 584.695 1193.28 544.648 1187.59 534.343C1180.75 521.943 1179.21 489.709 1171.8 480.137C1171.93 479.501 1172 478.85 1171.95 478.2C1171.44 471.821 1164.48 451.172 1160.16 447.202L1159.49 447.666C1159.8 455.114 1167.36 465.89 1166.34 472.107C1166.3 472.397 1166.22 472.683 1166.16 472.971C1167.37 480.379 1144.67 509.941 1142.88 522.197C1140.68 537.278 1144.41 587.771 1136.69 598.528C1134.02 599.367 1131.05 599.748 1128.3 600.273C1124.3 601.034 1118.82 602.441 1115.26 599.697C1110.69 596.169 1112.14 580.709 1111.95 575.176C1111.33 557.162 1108.76 522.525 1112.02 506.321C1115.19 490.618 1124 470.659 1129.66 455.279C1131.86 449.278 1141.35 427.773 1140.86 422.691Z"/>
	<path fill="#242427" transform="scale(0.999721 0.999721)" d="M240.446 443.243C240.949 441.497 241.476 439.748 242.12 438.048C246.183 427.313 258.677 425.727 266.711 419.367C280.129 408.745 279.356 388.402 296.941 380.623C305.673 376.76 315.533 377.553 324.277 380.97C336.768 385.85 345.842 400.108 350.968 411.97C354.821 420.887 357.095 432.677 353.019 441.955C350.622 447.409 346.971 445.076 342.757 447.065C339.716 448.501 338.238 457.092 336.898 460.283C346.112 472.225 356.961 491.572 359.952 506.313C361.409 513.489 361.377 520.699 361.445 527.985C365.46 529.225 369.718 530.801 373.905 531.228C386.995 532.562 399.01 528.049 412.071 531.744C420.644 519.118 431.128 507.324 440.475 495.226C442.084 493.379 443.591 491.443 445.119 489.528C446.485 487.904 447.563 486.215 449.691 485.625C455.992 487.553 470.244 498.702 475.171 503.559C466.182 517.603 451.517 535.408 440.561 548.255L437.978 551.659Q425.302 568.205 412.382 584.561C411.879 584.308 411.374 584.062 410.88 583.791C402.671 579.295 390.311 572.846 387.658 563.474C379.44 565.226 371.213 565.416 362.846 565.761C369.474 584.63 383.697 600.747 392.145 618.799C391.86 619.962 391.27 621.677 391.381 622.861C391.791 627.237 401.497 636.69 402.301 644.206C402.61 647.086 400.946 650.042 399.085 652.111C396.411 655.085 391.747 659.694 387.502 659.622C381.509 659.52 376.726 646.377 373.909 641.881C372.286 639.292 370.099 637.055 367.995 634.855C368.435 643.112 370.16 651.333 371.41 659.504C374.035 676.673 376.976 694.034 378.263 711.363C379.275 724.983 377.244 738.138 375.749 751.641Q373.785 769.778 372.456 787.973C371.908 795.429 371.326 802.909 371.011 810.377C370.873 813.671 371.313 817.995 370.56 821.157C370.031 823.381 366.68 824.797 365.443 826.746C364.17 828.753 364.44 831.328 364.877 833.541C367.991 849.269 383.502 853.605 394.988 861.258C397.546 862.962 400.286 865.598 400.777 868.765C401.27 871.939 399.53 874.306 397.852 876.776C416.111 883.799 433.956 892.06 451.855 899.941C457.289 902.334 463.356 903.914 468.573 906.693C470.876 907.919 472.984 909.27 474.54 911.408L474.315 912.407C466.513 913.076 405.723 884.228 393.288 879.655C374.16 884.491 344.401 884.162 325.883 877.277C326.052 869.65 326.469 862.531 328.262 855.094Q300.015 842.896 272.03 830.108C268.508 828.509 255.83 821.802 252.983 821.329C252.379 821.229 251.765 821.462 251.156 821.528C250.019 822.941 249.363 823.646 249.475 825.612C249.725 830.018 256.877 844.093 259.414 848.164C263.382 854.53 271.729 862.463 271.008 870.515C270.854 872.238 270.085 873.801 268.658 874.819C265.998 876.715 261.157 877.496 257.988 876.872C243.385 873.997 217.761 860.184 206.409 849.798C203.893 847.496 201.95 844.421 200.017 841.633C203.445 829.153 215.295 819.034 223.611 809.552L115.156 759.508C105.042 754.742 94.2908 750.916 84.3994 745.759C82.5229 744.78 80.4903 743.805 79.3234 741.982L79.796 740.6L81.2624 739.962C87.1479 740.498 160.287 776.026 172.505 781.712C189.963 789.838 207.771 797.429 225.056 805.887C229.101 797.456 231.1 788.465 234.959 779.941Q241.883 764.696 249.385 749.727C253.725 741.009 259.027 732 261.496 722.534C264.17 712.28 263.414 701.215 265.25 690.777L265.388 690.017C260.298 687.145 248.886 682.259 246.292 677.167C239.952 664.726 273.444 561.95 279.581 542.002C279.343 542.143 279.102 542.28 278.866 542.425C264.987 551.001 247.118 556.643 231.503 561.04C222.261 563.643 211.542 565.859 202.709 560.769C197.537 557.79 194.552 552.877 193.125 547.186C190.059 534.956 194.245 532.656 199.583 522.998C203.672 515.598 196.358 506.507 194.344 499.326C193.091 494.857 193.122 490.472 195.557 486.379C203.995 472.199 223.28 476.868 236.598 473.088C240.602 471.951 244.709 469.848 246.642 465.962C250.827 457.545 243.185 450.708 240.446 443.243Z"/>
	<path fill="#F9F9F2" transform="scale(0.999721 0.999721)" d="M320.757 438.038C325.955 442.977 329.569 444.912 336.511 446.779C335.782 450.781 335.284 459.832 332.485 462.548L330.185 462.147C324.282 459.46 318.526 456.574 312.252 454.842C317.49 449.748 319.296 445.144 320.757 438.038Z"/>
	<path fill="#F9F9F2" transform="scale(0.999721 0.999721)" d="M338.246 827.248C344.598 827.786 351.581 826.38 357.682 827.477C359.523 827.808 360.111 828.419 361.224 829.844C361.702 833.82 359.185 837.134 357.128 840.321C353.703 842.603 350.393 843.363 346.428 844.189C343.719 843.372 341.046 842.358 338.374 841.423C338.909 836.852 338.242 831.884 338.246 827.248Z"/>
	<path fill="#126C66" transform="scale(0.999721 0.999721)" d="M393.691 865.709C394.602 866.07 395.66 866.986 396.233 867.781C397.245 869.182 397.095 870.091 396.693 871.654C395.64 872.772 394.555 873.697 393.214 874.463C380.108 881.947 346.689 879.075 332.055 875.026C331.154 874.544 330.438 874.176 329.758 873.395C328.735 872.219 328.587 872.108 328.713 870.565C332.011 869.211 341.18 872.132 345.143 872.625C356.613 874.053 369.777 875.024 381.222 872.88C386.612 871.87 390.515 870.36 393.691 865.709Z"/>
	<path fill="#F9F9F2" transform="scale(0.999721 0.999721)" d="M387.214 625.388C391.951 630.302 396.572 639.558 398.768 645.999C395.761 649.965 391.847 653.306 387.857 656.241C382.793 650.918 379.452 643.424 375.858 637.026C379.79 633.294 383.859 629.663 387.214 625.388Z"/>
	<path fill="#126C66" transform="scale(0.999721 0.999721)" d="M206.74 835.357C212.123 841.31 217.72 846.312 224.361 850.812C234.168 857.458 251.977 869.12 264.041 866.638C265.251 866.389 265.981 866.148 267.207 866.461C267.527 868.522 266.345 870.624 265.586 872.506C261.801 874.251 256.765 872.652 253.012 871.432C240.612 867.399 210.395 852.813 204.568 841.228C204.298 838.846 205.552 837.305 206.74 835.357Z"/>
	<path fill="#F9F9F2" transform="scale(0.999721 0.999721)" d="M233.783 795.315Q238.9 799.256 244.349 802.725Q249.797 806.193 255.533 809.162Q249.686 815.852 244.287 822.909C242.661 824.042 241.971 824.478 239.87 824.29C234.287 823.791 228.209 819.734 224.824 815.451C228.606 809.192 231.138 802.108 233.783 795.315Z"/>
	<path fill="#F9F9F2" transform="scale(0.999721 0.999721)" d="M337.556 398.775C340.77 400.784 344.135 407.116 345.751 410.468C350.889 421.128 351.875 431.038 347.96 442.139C340.741 444.033 336.382 442.823 329.668 440.07C325.985 437.703 325.355 435.218 322.535 432.454C321.348 431.291 319.051 431.627 317.432 431.573C315.838 430.716 314.809 429.658 314.018 427.999C313.289 426.473 312.904 424.275 313.637 422.678C314.39 421.038 315.258 420.657 316.832 419.926C320.026 420.394 322.178 420.264 325.014 418.609C331.938 414.57 335.545 406.125 337.556 398.775Z"/>
	<path fill="#FBBC29" transform="scale(0.999721 0.999721)" d="M304.861 458.33C316.425 459.334 326.489 465.77 337.815 468.222C351.582 491.635 361.427 510.14 355.587 538.218L352.188 530.515C349.392 524.631 346.614 518.769 344.649 512.545C341.504 502.578 339.85 491.272 334.428 482.232C328.685 472.654 320.278 468.724 309.79 466.131C304.994 467.322 301.503 468.942 297.435 471.762C299.537 466.946 301.633 462.51 304.861 458.33Z"/>
	<path fill="#126C66" transform="scale(0.999721 0.999721)" d="M221.484 818.042Q223.519 820.045 225.757 821.819C232.05 826.861 238.29 828.851 246.291 827.997C249.389 835.981 252.228 844.485 256.444 851.958C258.43 855.479 261.174 858.412 263.173 861.893L262.636 862.97C260.124 863.31 257.799 862.434 255.4 861.762C238.959 856.235 220.289 846.419 209.654 832.437C212.913 826.729 216.622 822.439 221.484 818.042Z"/>
	<path fill="#FBBC29" transform="scale(0.999721 0.999721)" d="M360.826 532.154C376.791 537.379 386.933 534.656 402.959 533.946C405.085 533.852 408.261 533.756 409.888 535.226C408.988 538.598 400.501 547.667 397.962 550.862C395.836 553.902 393.493 556.82 391.25 559.776C381.551 560.692 371.932 561.45 362.182 561.279C361.02 557.719 359.426 553.773 359.048 550.054C359.014 549.719 358.997 549.384 358.97 549.049C358.499 543.343 359.803 537.742 360.826 532.154Z"/>
	<path fill="#126C66" transform="scale(0.999721 0.999721)" d="M362.442 839.661C364.128 841.629 365.178 844.374 366.844 846.462C373.64 854.979 383.004 859.727 392.447 864.655C380.984 870.323 369.906 870.05 357.438 869.757C350.716 869.347 341.542 869.82 335.287 867.585C333.526 866.955 332.007 865.9 331.307 864.106C329.326 859.034 333.618 850.414 335.491 845.54C339.223 847.042 343.32 848.006 347.362 847.863C353.993 847.628 358.19 844.315 362.442 839.661Z"/>
	<path fill="#5D6271" transform="scale(0.999721 0.999721)" d="M449.948 490.692C456.624 492.975 463.819 500.035 469.229 504.709C460.948 517.09 448.316 532.207 438.961 544.218C430.122 555.567 421.494 568.175 411.496 578.485C406.07 577.947 396.726 569.212 392.386 565.769C397.27 558.016 403.662 550.7 409.158 543.299C422.382 525.492 435.59 507.624 449.948 490.692Z"/>
	<path fill="#242427" transform="scale(0.999721 0.999721)" d="M427.113 525.873Q429.625 525.552 432.141 525.839Q432.644 525.896 433.14 526.004Q433.635 526.112 434.116 526.269Q434.598 526.427 435.061 526.632Q435.524 526.837 435.964 527.088Q436.404 527.34 436.817 527.634Q437.229 527.929 437.609 528.263Q437.99 528.598 438.334 528.97Q438.679 529.341 438.984 529.746C440.57 531.838 441.104 534.486 440.673 537.054C439.955 541.322 437.129 544 433.767 546.35C432.561 546.522 431.347 546.69 430.128 546.741C427.513 546.851 424.63 545.736 422.777 543.881C420.788 541.89 420.148 539.216 420.354 536.471C420.729 531.488 423.527 528.845 427.113 525.873Z"/>
	<path fill="#F9F9F2" transform="scale(0.999721 0.999721)" d="M428.524 529.44C429.637 529.475 430.758 529.511 431.864 529.653C433.532 529.867 435.252 530.713 436.228 532.123C437.062 533.329 437.291 534.853 436.962 536.269C436.25 539.336 434.036 540.967 431.578 542.596C431.241 542.612 430.905 542.636 430.567 542.645C428.516 542.701 426.394 542.142 424.994 540.561C423.926 539.356 423.657 537.919 423.813 536.35C424.156 532.928 426.079 531.522 428.524 529.44Z"/>
	<path fill="#5D6271" transform="scale(0.999721 0.999721)" d="M268.94 691.378C282.029 697.964 296.088 700.725 310.502 702.52C309.966 711.304 309.777 720.71 307.267 729.188C302.406 745.603 277.267 781.034 266.631 795.925Q263.021 800.937 259.193 805.784C250.653 801.504 242.858 796.418 235.232 790.684Q242.137 773.722 250.411 757.385C255.978 746.246 263.273 734.384 266.089 722.202C268.387 712.256 267.953 701.541 268.94 691.378Z"/>
	<path fill="#5D6271" transform="scale(0.999721 0.999721)" d="M365.656 649.765C368.723 657.898 369.348 668.336 370.415 676.942C372.18 691.183 374.566 706.123 374.456 720.465C374.355 733.656 372.178 747.083 370.855 760.213Q367.895 789.761 366.913 819.44C366.219 819.723 365.517 819.988 364.824 820.274C361.171 821.783 357.776 822.556 353.842 823.035C348.407 823.697 338.792 824.514 334.246 820.954C332.441 810.948 333.494 799.569 333.192 789.369C332.711 773.086 331.495 756.819 330.959 740.532C330.666 731.637 331.356 720.784 328.586 712.337C327.474 708.948 324.655 705.988 322.445 703.249C336.896 702.174 350.125 700.945 363.665 695.272C366.658 680.81 365.422 664.515 365.656 649.765Z"/>
	<path fill="#F9F9F2" transform="scale(0.999721 0.999721)" d="M314.667 702.175C315.466 702.493 316.195 702.882 316.878 703.406C320.322 706.043 324.356 711.708 325.48 715.95C327.895 725.065 326.763 737.129 327.063 746.582L328.883 790.573C329.363 801.598 329.525 812.707 330.923 823.663L334.568 826.974C334.498 831.177 334.667 835.396 334.758 839.6C332.479 843.381 330.564 846.966 329.219 851.184C316.979 845.093 304.285 839.762 291.797 834.193C279.226 828.642 266.837 822.699 254.114 817.495C270.354 799.857 305.074 752.155 311.49 729.253C313.866 720.77 313.247 710.96 314.667 702.175Z"/>
	<path fill="#FBBC29" transform="scale(0.999721 0.999721)" d="M307.928 470.636C308.068 470.643 308.207 470.647 308.347 470.656L309.042 470.708C311.041 470.841 312.885 471.036 314.808 471.627C321.327 473.628 327.288 477.873 330.674 483.882C335.283 492.061 336.87 502.194 339.803 511.089C343.26 521.578 348.187 531.474 351.802 541.884C354.983 551.043 356.725 560.821 360.238 569.826C366.277 585.31 379.354 604.815 387.544 620.003C383.754 623.87 377.068 632.129 372.014 633.836C346.428 613.771 321.634 565.424 306.931 536.191C302.542 527.466 297.353 518.688 293.897 509.553C290.923 501.693 288.472 492.566 292.17 484.532C295.264 477.809 301.094 473.126 307.928 470.636Z"/>
	<path fill="#126C66" transform="scale(0.999721 0.999721)" d="M305.736 382.584Q309.128 382.384 312.524 382.517C318.781 382.793 326.997 384.725 331.225 389.731C333.318 392.209 334.192 395.472 333.817 398.68C333.047 405.27 328.026 411.008 323.101 415.037C319.434 415.394 315.267 415.631 312.302 418.041C310.566 419.452 309.442 421.466 309.31 423.715C308.968 429.536 313.065 434.002 316.617 438.049C311.276 454.295 303.043 451.411 297.564 461.751C295.568 465.517 294.105 469.75 292.38 473.661C287.453 484.831 285.116 490.374 287.85 502.656C288.784 506.852 290.222 511.377 289.443 515.702C288.414 521.42 283.855 525.316 281.341 530.306C280.266 532.44 279.86 535.351 279.35 537.688C265.749 545.552 235.002 557.377 219.445 559.469C214.529 560.01 210.542 559.639 206.095 557.388C201.895 555.261 198.296 552.513 196.946 547.753C194.673 539.74 198.39 533.935 202.065 527.174C209.294 513.875 202.104 511.117 198.705 498.982C197.716 495.448 197.673 491.748 199.704 488.557C207.388 476.489 225.983 479.926 237.981 476.978C243.472 475.629 247.846 473.032 250.737 468.046C256.677 457.801 247.902 453.359 246.007 444.572C244.862 439.258 249.012 434.893 253.042 432.107C258.024 428.664 263.774 426.415 268.766 423.002C278.615 416.269 280.891 404.103 287.158 394.628C291.864 387.513 297.512 384.284 305.736 382.584Z"/>
	<path fill="#FBBC29" transform="scale(0.999721 0.999721)" d="M293.038 518.841C297.621 523.471 311.691 555.476 316.1 563.896Q322.202 575.598 329.175 586.802Q336.149 598.006 343.953 608.648C349.271 615.757 355.245 622.341 360.595 629.43C362.946 649.473 362.478 671.9 359.689 691.823C346.683 697.723 332.489 698.439 318.414 698.591C292.134 698.18 271.512 689.241 249.637 675.451C250.413 660.903 253.927 646.467 257.446 632.379C264.044 605.966 272.473 580.447 280.37 554.44C282.534 547.313 282.549 539.448 285.105 532.502C286.808 527.872 290.586 524.158 292.691 519.604L293.038 518.841Z"/>
	<path fill="#F9F9F2" transform="scale(0.999721 0.999721)" d="M445.119 489.528C445.043 488.726 444.971 487.938 444.945 487.132C444.51 473.193 443.13 440.879 446.507 428.593Q446.821 427.445 447.208 426.319Q447.594 425.193 448.052 424.094Q448.509 422.995 449.036 421.928Q449.562 420.86 450.156 419.828Q450.749 418.797 451.407 417.805Q452.064 416.813 452.784 415.865Q453.504 414.917 454.282 414.016Q455.061 413.116 455.895 412.267C462.051 406.007 469.655 403.007 478.289 402.122C486.528 401.278 495.196 401.823 503.477 401.853L541.541 401.781L675.7 401.804L1139.96 401.446L1140.62 402.797C1141.59 407.598 1137.21 411.874 1136.71 416.303C1136.44 418.624 1138.84 419.188 1138.35 421.671C1137.01 428.381 1133.58 435.585 1131.19 442.005C1124.45 460.086 1108.67 497.884 1107.1 516.036C1106.25 525.844 1110.37 563.257 1107.1 568.625C1099.19 570.178 1068.68 568.804 1058.25 568.859L913.651 569.207L622.372 569.297L529.299 569.267C511.804 569.255 493.996 569.923 476.551 568.821C459.732 567.759 451.304 560.442 440.561 548.255C451.517 535.408 466.182 517.603 475.171 503.559C470.244 498.702 455.992 487.553 449.691 485.625C447.563 486.215 446.485 487.904 445.119 489.528Z"/>
	<path fill="#C03343" transform="scale(0.999721 0.999721)" d="M1009.35 448.767L1022.74 448.861C1023.44 470.595 1022.9 492.554 1022.92 514.309L1009.49 514.193L1009.35 448.767Z"/>
	<path fill="#C03343" transform="scale(0.999721 0.999721)" d="M534.88 450.872C539.386 450.701 543.962 450.919 548.475 450.97C549.274 459.123 548.867 467.726 548.843 475.922C548.806 488.749 548.856 501.63 548.342 514.447C544.148 514.717 539.223 515.453 535.274 513.717C533.181 509.233 533.729 458.146 534.88 450.872Z"/>
	<path fill="#C03343" transform="scale(0.999721 0.999721)" d="M886.644 448.604L887.85 448.753C889.419 450.712 888.727 506.334 888.893 513.896L875.769 513.921L874.306 513.719C872.717 511.02 873.674 456.239 873.723 448.781L886.644 448.604Z"/>
	<path fill="#C03343" transform="scale(0.999721 0.999721)" d="M917.955 465.875C921.066 465.589 924.13 465.381 927.252 465.637C934.771 466.252 939.62 469.694 944.371 475.308C941.351 478.217 938.1 480.923 934.952 483.693C930.992 480.502 927.729 477.906 922.3 478.667C919.067 479.12 916.351 480.784 914.535 483.518C912.775 486.167 912.232 489.61 912.904 492.699C913.655 496.148 915.978 499.435 919.037 501.223C925.62 505.071 930.675 499.226 936.683 497.899L938.938 499.596C940.797 500.968 942.207 501.991 943.406 504.031C943.515 505.315 943.571 506.227 942.952 507.398C941.146 510.809 937.001 512.635 933.486 513.741C925.773 516.167 917.286 515.831 910.103 511.933C904.575 508.934 900.567 504.043 898.913 497.955C897.108 491.308 897.721 482.793 901.306 476.813C905.124 470.445 911.036 467.667 917.955 465.875Z"/>
	<path fill="#C03343" transform="scale(0.999721 0.999721)" d="M985.627 466.065C989.277 465.955 992.747 466.207 996.374 466.621Q996.489 490.435 996.294 514.249C992.365 514.302 987.752 514.837 983.942 513.909L982.82 511.905C979.311 511.683 975.033 514.776 971.156 514.989C965.477 515.3 959.676 514.533 955.471 510.299C950.066 504.857 949.956 497.269 950.063 490.112L950.131 466.358L965.119 466.311C964.905 474.171 962.761 491.789 966.153 498.481C967.193 500.534 968.895 501.983 971.137 502.549C974.005 503.274 977.696 502.831 980.133 501.081C987.83 495.556 981.181 476.57 983.402 468.143C983.78 466.71 984.395 466.693 985.627 466.065Z"/>
	<path fill="#C03343" transform="scale(0.999721 0.999721)" d="M665.075 450.787C669.618 450.553 674.181 450.673 678.728 450.714C677.025 456.925 674.586 462.843 672.218 468.821C669.3 475.978 655.914 510.414 651.672 513.489C649.094 515.357 642.704 514.248 639.627 514.008C634.899 502.968 613.843 460.353 613.618 451.778C615.192 450.533 616.504 450.805 618.437 450.73L627.648 450.611C634.563 465.112 640.119 480.277 646.504 495.021C653.205 480.523 659.237 465.651 665.075 450.787Z"/>
	<path fill="#C03343" transform="scale(0.999721 0.999721)" d="M785.009 449.897C787.304 449.709 789.722 449.688 792.011 449.936C800.245 450.828 807.054 453.659 812.279 460.216L803.475 469.19C799.411 465.27 795.508 462.941 789.758 462.656C784.397 462.391 778.833 464.279 774.946 468.028C771.345 471.503 769.819 476.274 769.717 481.173C769.601 486.787 770.798 493.465 775.007 497.533C780.46 502.803 790.589 502.669 797.123 499.659C799.622 498.507 801.762 495.736 804.437 495.68C807.615 498.333 810.552 501.089 813.433 504.062C807.968 509.466 800.935 513.778 793.26 514.979C784.072 516.418 774.696 514.539 767.19 508.954C760.036 503.63 755.648 496.04 754.494 487.217C753.361 478.55 755.035 469.252 760.512 462.274C766.707 454.381 775.346 451.134 785.009 449.897Z"/>
	<path fill="#C03343" transform="scale(0.999721 0.999721)" d="M835.451 465.953C837.633 465.767 839.82 465.595 842.012 465.61C848.191 465.653 854.399 466.8 858.791 471.538C866.735 480.107 863.826 502.907 863.697 513.959C859.706 514.062 855.37 514.518 851.448 513.759L850.474 511.652C845.492 512.944 840.569 514.794 835.383 514.971C829.077 515.187 824.32 513.306 819.731 509.01C817.548 505.161 816.077 500.282 817.136 495.853C820.457 481.973 841.921 489.221 849.384 484.672L849.65 483.354C848.044 480.919 845.015 478.325 842.144 477.575C835.87 475.936 828.846 478.615 823.501 481.724C822.004 480.245 819.426 478.196 818.854 476.147C818.512 474.922 818.696 473.428 819.375 472.326C821.953 468.144 830.957 466.704 835.451 465.953Z"/>
	<path fill="#F9F9F2" transform="scale(0.999721 0.999721)" d="M835.913 493.961C840.934 493.783 844.729 493.353 849.301 495.754C849.805 496.603 850.362 497.061 850.219 498.084C849.868 500.606 846.261 502.691 844.298 504.011C841.825 504.754 838.648 505.386 836.053 504.946C833.586 504.527 831.652 503.216 830.169 501.257C829.927 499.96 829.669 499.348 830.251 498.099C831.3 495.846 833.772 494.866 835.913 493.961Z"/>
	<path fill="#C03343" transform="scale(0.999721 0.999721)" d="M706.693 450.533L718.377 450.677Q718.058 470.61 718.691 490.535L729.155 490.959C729.119 494.677 728.942 498.404 728.832 502.121L719.172 502.259L719.158 514.372C714.617 514.734 710.232 514.688 705.687 514.492C705.48 511.287 705.531 508.034 705.479 504.821L705.187 503.007C701.122 500.667 680.72 502.233 675.022 502.29C674.953 497.839 675.152 493.412 675.349 488.967L706.693 450.533Z"/>
	<path fill="#F9F9F2" transform="scale(0.999721 0.999721)" d="M705.144 468.328C706.986 472.531 705.744 485.139 705.669 490.366L689.34 490.328C689.334 489.254 703.175 471.328 705.144 468.328Z"/>
	<path fill="#C03343" transform="scale(0.999721 0.999721)" d="M563.537 451.235C575.019 449.685 593.078 449.391 603.242 455.279Q603.688 455.536 604.12 455.816Q604.552 456.095 604.969 456.396Q605.387 456.697 605.789 457.018Q606.19 457.34 606.576 457.681Q606.961 458.022 607.328 458.383Q607.696 458.743 608.045 459.121Q608.393 459.5 608.723 459.895Q609.052 460.29 609.361 460.702Q609.67 461.113 609.958 461.54Q610.246 461.966 610.512 462.407Q610.778 462.848 611.022 463.301Q611.265 463.754 611.486 464.219Q611.706 464.684 611.903 465.16Q612.1 465.635 612.273 466.12Q612.445 466.605 612.593 467.098Q612.741 467.591 612.864 468.091Q612.991 468.619 613.091 469.152Q613.192 469.685 613.266 470.222Q613.34 470.76 613.387 471.3Q613.435 471.841 613.455 472.383Q613.476 472.925 613.469 473.468Q613.463 474.01 613.43 474.552Q613.396 475.094 613.336 475.633Q613.276 476.172 613.19 476.708Q613.103 477.243 612.99 477.774Q612.877 478.305 612.738 478.829Q612.599 479.354 612.434 479.87Q612.269 480.387 612.078 480.895Q611.888 481.403 611.672 481.901Q611.457 482.399 611.217 482.886Q610.978 483.373 610.714 483.847Q610.451 484.321 610.164 484.782C606.07 491.434 600.259 493.93 592.965 495.696C592.813 495.721 592.661 495.743 592.51 495.77C586.908 496.765 581.286 496.587 575.617 496.58L575.592 514.628C571.715 514.758 566.176 515.579 562.63 513.889C562.341 513.167 562.337 513.227 562.139 512.321C560.754 505.99 561.011 462.294 561.935 455.25C562.146 453.645 562.575 452.532 563.537 451.235Z"/>
	<path fill="#F9F9F2" transform="scale(0.999721 0.999721)" d="M576.159 463.138C582.486 463.261 589.718 463.033 595.155 466.81C596.958 468.063 598.217 469.759 598.48 471.975C598.856 475.14 596.927 479.011 595.06 481.441C588.906 484.561 582.815 484.017 576.127 483.958L576.159 463.138Z"/>
</svg>
