<?xml version="1.0" encoding="utf-8" ?>
<svg xmlns="http://www.w3.org/2000/svg" xmlns:xlink="http://www.w3.org/1999/xlink" width="1434" height="1024">
	<path fill="#FDF7E9" transform="scale(0.999721 0.999721)" d="M0 0L740.304 0L768.255 0L1432.77 0C1433.55 1.35287 1433.84 2.273 1433.92 3.82991C1434.39 14.2948 1434 24.9358 1434 35.4235L1434 96.5893L1434.01 282.797L1434 835.994L1434 973.892C1434.01 983.184 1435.15 1015.65 1433.74 1021.9C1433.56 1022.7 1433.19 1023.31 1432.77 1024L0 1024L0 352.144L0 342.702L0 0Z"/>
	<path fill="#29140A" transform="scale(0.999721 0.999721)" d="M527.428 724.586C532.185 724.424 537.492 725.308 541.933 727.022C552.523 731.107 560.796 739.575 565.241 749.962C567.998 756.402 570.666 765.857 567.706 772.64C565.982 776.592 563.315 778.26 559.52 779.774C557.933 779.728 556.267 779.717 554.713 779.366C551.144 778.561 549.518 776.283 547.616 773.437C547.412 769.942 547.365 766.238 546.713 762.798C543.6 746.36 531.878 750.573 521.474 743.234C519.239 741.658 517.057 739.463 516.709 736.622C516.338 733.601 518.283 730.606 520.018 728.299C522.079 725.56 524.161 725.088 527.428 724.586Z"/>
	<path fill="#E99B2A" transform="scale(0.999721 0.999721)" d="M527.155 729.184C529.272 729.126 531.407 729.081 533.5 729.449C543.254 731.163 551.944 737.079 557.528 745.194C561.806 751.41 566.131 760.964 564.36 768.686C563.608 771.964 561.734 773.471 558.964 775.132C558.713 775.109 558.461 775.089 558.21 775.063C556.232 774.86 554.686 774.733 553.218 773.21C550.872 770.778 550.457 756.498 546.143 750.393C540.413 742.285 527.492 744.896 522.201 737.342C521.088 735.754 521.36 734.949 521.748 733.236C523.409 731.213 524.86 730.326 527.155 729.184Z"/>
	<path fill="#29140A" transform="scale(0.999721 0.999721)" d="M531.325 693.025C547.961 693.133 562.438 696.823 575.621 707.56C590.355 719.562 599.056 737.26 600.786 756.062C601.317 761.841 601.473 768.514 597.293 773.115C594.779 775.882 591.461 776.221 587.979 776.493C586.605 776.042 585.259 775.566 584.049 774.754C577.879 770.613 578.73 757.995 577.324 751.195C573.609 733.231 561.396 719.233 542.94 716.169C536.792 715.149 529.191 715.446 523.9 711.758C521.521 710.1 520.025 707.877 519.586 704.995C519.161 702.212 519.845 699.695 521.641 697.521C524.278 694.327 527.437 693.502 531.325 693.025Z"/>
	<path fill="#E99B2A" transform="scale(0.999721 0.999721)" d="M528.182 697.687C532.593 697.548 537.092 697.302 541.476 697.887Q543.023 698.093 544.559 698.375Q546.094 698.657 547.614 699.015Q549.133 699.373 550.633 699.806Q552.133 700.238 553.609 700.745Q555.086 701.252 556.536 701.831Q557.985 702.41 559.405 703.061Q560.824 703.711 562.209 704.431Q563.594 705.151 564.942 705.939Q566.29 706.726 567.597 707.58Q568.904 708.434 570.167 709.351Q571.431 710.268 572.647 711.247Q573.863 712.226 575.029 713.264Q576.196 714.302 577.309 715.397Q578.422 716.491 579.48 717.639Q580.538 718.788 581.538 719.987Q582.537 721.187 583.476 722.434C591.869 733.539 598.123 751.268 595.899 765.426C595.388 768.677 594.369 769.94 591.762 771.882C590.567 771.898 589.285 771.862 588.106 771.636C581.712 770.408 582.759 752.451 581.35 746.952Q580.769 744.681 579.969 742.477Q579.168 740.274 578.156 738.159Q577.143 736.045 575.929 734.04Q574.714 732.035 573.309 730.158C561.358 713.934 551.452 713.118 533.082 710.289C530.051 709.822 527.078 709.381 525.268 706.583C524.311 705.104 524.132 703.156 524.617 701.48C525.191 699.495 526.442 698.612 528.182 697.687Z"/>
	<path fill="#E99B2A" transform="scale(0.999721 0.999721)" d="M551.878 433.613C555.027 433.318 558.227 433.532 561.384 433.616C565.674 436.119 569.632 438.689 571.134 443.762C572.916 449.779 572.636 550.869 571.941 564.788C571.779 568.031 571.736 573.255 570.113 576.115C567.904 580.009 564.208 582.034 560.123 583.369C557.243 583.707 554.262 583.782 551.442 582.978C547.525 581.862 544.217 579.363 542.345 575.687C540.752 572.558 540.694 567.969 540.506 564.526C539.711 549.948 538.841 450.464 541.991 442.782C544.028 437.811 547.157 435.64 551.878 433.613Z"/>
	<path fill="#E99B2A" transform="scale(0.999721 0.999721)" d="M696.103 433.666C699.618 433.497 703.071 433.916 706.142 435.755C709.073 437.51 710.799 440.046 712.151 443.099C715.802 451.347 717.634 461.274 720.154 469.976Q729.836 502.798 738.458 535.914C746.061 513.054 752.15 489.696 759.499 466.741C761.973 459.015 763.893 450.427 767.479 443.143C769.053 439.947 771.297 436.873 774.484 435.142C777.726 433.381 781.744 433.117 785.255 434.173C788.92 435.274 791.884 437.953 793.67 441.305C798.884 451.094 788.946 472.919 785.576 482.885C776.488 510.142 768.379 538.205 758.146 565.022C755.314 572.445 751.808 580.356 743.982 583.601C740.131 585.199 736.234 585.02 732.423 583.45C725.137 580.449 722.743 574.896 719.899 567.929C711.451 547.226 705.709 524.832 699.063 503.466C694.152 487.674 686.337 467.501 684.11 451.535C683.688 448.508 684.249 445.348 685.516 442.575C687.743 437.701 691.295 435.425 696.103 433.666Z"/>
	<path fill="#E99B2A" transform="scale(0.999721 0.999721)" d="M858.11 433.754C860.917 433.753 863.629 434.418 866.039 435.879C869.585 438.027 872.361 441.677 873.188 445.768C873.842 449 873.383 452.88 871.51 455.661C868.069 460.769 858.656 466.587 853.756 471.046C845.047 478.97 837.753 488.06 831.199 497.804C840.159 496.525 848.525 495.66 857.176 499.026Q858.075 499.382 858.956 499.781Q859.837 500.18 860.698 500.622Q861.558 501.064 862.396 501.547Q863.234 502.03 864.048 502.553Q864.861 503.076 865.648 503.638Q866.435 504.201 867.194 504.8Q867.953 505.4 868.682 506.036Q869.41 506.673 870.107 507.343Q870.804 508.014 871.467 508.718Q872.131 509.422 872.759 510.158Q873.388 510.893 873.979 511.658Q874.571 512.423 875.125 513.216Q875.679 514.009 876.194 514.829Q876.708 515.648 877.182 516.491Q877.657 517.334 878.089 518.199Q878.522 519.065 878.912 519.95C883.925 531.358 883.877 545.787 879.322 557.328C874.916 568.49 867.391 575.69 856.53 580.444C854.33 581.335 851.966 582.059 849.666 582.636C837.629 585.658 823.98 584.076 813.307 577.596C803.187 571.452 797.468 561.262 794.868 549.943C789.255 525.513 798.304 498.927 811.341 478.272C821.249 462.575 839.25 438.033 858.11 433.754Z"/>
	<path fill="#FDF7E9" transform="scale(0.999721 0.999721)" d="M836.097 523.313C839.507 523.235 843.583 523.711 846.538 525.49C850.328 527.773 852.924 531.383 853.949 535.677C855.095 540.478 854.426 545.718 851.766 549.913C848.976 554.311 845.516 555.794 840.63 556.831C836.912 556.979 833.608 556.945 830.21 555.132Q829.508 554.751 828.848 554.301Q828.188 553.851 827.575 553.338Q826.963 552.824 826.406 552.252Q825.848 551.68 825.35 551.055Q824.853 550.43 824.42 549.759Q823.987 549.087 823.623 548.376Q823.26 547.664 822.969 546.92Q822.679 546.176 822.464 545.406C821.097 540.685 821.519 535.294 824.016 531.017C826.96 525.976 830.792 524.588 836.097 523.313Z"/>
	<path fill="#E99B2A" transform="scale(0.999721 0.999721)" d="M612.483 433.138Q615.701 432.806 618.934 432.72C636.243 432.239 655.658 435.191 668.568 447.738C676.88 455.817 680.037 465.976 680.15 477.391C680.263 488.856 676.849 499.657 668.695 507.938C655.141 521.705 636.356 522.527 618.26 522.577L618.23 545.097C618.331 554.573 620.27 569.046 614.906 577.355Q614.524 577.953 614.085 578.51Q613.646 579.067 613.154 579.578Q612.661 580.088 612.121 580.547Q611.58 581.007 610.997 581.41Q610.413 581.813 609.792 582.156Q609.172 582.5 608.52 582.78Q607.868 583.06 607.192 583.273Q606.516 583.487 605.822 583.633C601.715 584.482 597.261 583.575 593.896 581.043C590.713 578.647 589.33 575.491 588.745 571.663C586.485 556.863 588.078 533.49 588.053 517.604L587.999 477.045C587.994 469.396 587.601 461.53 588.257 453.922C588.604 449.897 589.124 444.188 591.715 440.946C596.613 434.819 605.242 433.837 612.483 433.138Z"/>
	<path fill="#FDF7E9" transform="scale(0.999721 0.999721)" d="M618.29 460.183C627.768 459.857 638.078 460.088 645.614 466.746C648.577 469.364 650.811 473.067 650.91 477.1C651.034 482.173 647.941 487.02 644.578 490.529C636.527 495.696 627 495.701 617.793 495.726Q617.781 477.951 618.29 460.183Z"/>
	<path fill="#F9D188" transform="scale(0.999721 0.999721)" d="M740.304 0L768.255 0C768.072 0.0943211 767.89 0.19141 767.706 0.282963C759.652 4.28068 749.792 6.55081 741.208 9.32924Q719.283 16.3081 697.697 24.2775C626.749 50.4234 544.896 89.9198 495.018 148.041C489.405 154.582 483.28 161.463 478.812 168.86C490.512 168.74 500.299 170.888 508.846 179.424Q509.485 180.064 510.091 180.736Q510.697 181.407 511.269 182.108Q511.841 182.809 512.378 183.537Q512.914 184.266 513.414 185.02Q513.914 185.774 514.375 186.552Q514.837 187.33 515.26 188.13Q515.682 188.93 516.064 189.749Q516.447 190.569 516.788 191.407Q517.129 192.245 517.427 193.099Q517.727 193.953 517.983 194.821Q518.239 195.688 518.452 196.568Q518.664 197.447 518.833 198.336Q519.002 199.225 519.127 200.121Q519.251 201.017 519.331 201.918Q519.411 202.819 519.446 203.723Q519.481 204.627 519.471 205.532C519.331 215.253 515.314 225.129 508.281 231.89C501.444 238.464 492.225 241.772 482.787 241.554C472.824 241.324 463.061 237.498 456.199 230.16Q455.581 229.492 454.997 228.794Q454.413 228.096 453.865 227.369Q453.317 226.643 452.807 225.889Q452.296 225.136 451.824 224.358Q451.351 223.58 450.919 222.78Q450.486 221.979 450.094 221.157Q449.703 220.336 449.352 219.496Q449.002 218.656 448.695 217.799Q448.388 216.942 448.124 216.071Q447.86 215.2 447.64 214.317Q447.42 213.434 447.245 212.541Q447.07 211.648 446.94 210.747Q446.81 209.846 446.725 208.94Q446.64 208.034 446.601 207.124Q446.562 206.215 446.569 205.305Q446.576 204.395 446.628 203.486C447.133 193 451.282 184.089 459.121 177.099C463.194 173.467 467.995 170.766 473.292 169.432C428.203 140.852 374.092 135.833 322.786 147.429C262.81 160.984 209.129 205.313 176.798 256.635C163.607 277.572 151.486 301.793 146.419 326.19C157.857 326.227 167.603 328.672 175.909 337.103Q176.57 337.767 177.196 338.463Q177.822 339.158 178.413 339.885Q179.004 340.611 179.558 341.367Q180.111 342.122 180.626 342.904Q181.141 343.686 181.617 344.492Q182.092 345.299 182.526 346.129Q182.961 346.958 183.353 347.809Q183.745 348.659 184.094 349.528Q184.443 350.397 184.748 351.282Q185.053 352.168 185.313 353.067Q185.574 353.967 185.789 354.878Q186.004 355.79 186.173 356.711Q186.342 357.632 186.464 358.56Q186.587 359.489 186.663 360.422Q186.739 361.356 186.768 362.292Q186.797 363.228 186.779 364.164C186.557 374.285 182.798 383.706 175.363 390.668C167.801 397.749 158.192 401.028 147.905 400.645C138.199 400.284 129.418 395.735 122.961 388.557C116.448 381.316 112.792 372.258 113.309 362.47C113.921 350.879 119.332 341.942 126.94 333.598C83.0354 328.875 41.088 336.732 0 352.144L0 342.702C40.2661 329.592 95.6649 316.611 137.344 328.356C139.602 321.498 141.05 314.407 143.318 307.549Q145.648 300.716 148.341 294.017Q151.034 287.319 154.082 280.774Q157.13 274.23 160.525 267.858Q163.919 261.487 167.651 255.307C201.138 200.055 257.643 154.928 320.85 139.674C373.133 127.057 428.134 133.039 474.348 161.227C479.209 153.684 485.325 146.73 491.258 140.026C537.458 87.8164 607.261 50.7678 671.436 25.2722Q692.84 16.7811 714.619 9.30477C722.887 6.41144 731.841 3.92701 739.763 0.25711C739.944 0.17324 740.124 0.0857035 740.304 0Z"/>
	<path fill="#FDF7E9" transform="scale(0.999721 0.999721)" d="M479.06 176.608C485.69 176.229 491.713 176.882 497.549 180.321Q498.157 180.677 498.747 181.063Q499.336 181.449 499.906 181.864Q500.476 182.279 501.024 182.721Q501.573 183.164 502.099 183.633Q502.625 184.102 503.127 184.596Q503.629 185.09 504.107 185.609Q504.584 186.128 505.035 186.669Q505.485 187.211 505.909 187.774Q506.333 188.338 506.728 188.921Q507.123 189.505 507.489 190.107Q507.855 190.71 508.19 191.329Q508.526 191.949 508.83 192.585Q509.135 193.22 509.408 193.87Q509.68 194.52 509.921 195.183Q510.161 195.846 510.368 196.519Q510.575 197.193 510.749 197.876C512.723 205.621 511.29 214.186 507.108 220.975C502.574 228.338 495.727 231.939 487.512 233.804C480.242 234.37 473.899 233.732 467.583 229.739Q466.984 229.361 466.405 228.953Q465.826 228.545 465.268 228.108Q464.711 227.671 464.176 227.207Q463.64 226.743 463.129 226.253Q462.618 225.763 462.132 225.247Q461.646 224.732 461.186 224.193Q460.727 223.654 460.295 223.093Q459.863 222.531 459.46 221.949Q459.057 221.366 458.683 220.764Q458.31 220.162 457.967 219.542Q457.624 218.923 457.313 218.286Q457.001 217.65 456.722 216.999Q456.443 216.348 456.197 215.683Q455.951 215.019 455.739 214.343Q455.527 213.667 455.349 212.981Q455.171 212.296 455.027 211.602Q454.871 210.903 454.749 210.198Q454.628 209.492 454.541 208.781Q454.454 208.07 454.402 207.356Q454.35 206.642 454.334 205.926Q454.317 205.21 454.335 204.495Q454.354 203.779 454.408 203.065Q454.461 202.351 454.55 201.64Q454.638 200.93 454.762 200.224Q454.885 199.519 455.043 198.821Q455.201 198.122 455.393 197.432Q455.585 196.743 455.811 196.063Q456.036 195.383 456.295 194.716Q456.554 194.048 456.845 193.394Q457.136 192.74 457.459 192.101Q457.782 191.462 458.136 190.84Q458.49 190.217 458.874 189.613C463.608 182.302 470.719 178.394 479.06 176.608Z"/>
	<path fill="#FDF7E9" transform="scale(0.999721 0.999721)" d="M145.509 334.173C152.018 333.617 158.656 334.601 164.39 337.871C171.319 341.823 176.285 348.688 178.251 356.39C180.177 363.938 178.802 372.236 174.769 378.882C170.613 385.73 163.714 390.173 156.008 391.994C149.163 393.161 143.26 393.133 136.942 389.854Q136.294 389.51 135.665 389.135Q135.035 388.76 134.424 388.355Q133.813 387.949 133.224 387.514Q132.634 387.078 132.066 386.614Q131.498 386.151 130.954 385.659Q130.41 385.168 129.891 384.65Q129.372 384.133 128.879 383.59Q128.386 383.047 127.92 382.481Q127.454 381.915 127.017 381.326Q126.58 380.738 126.172 380.128Q125.764 379.519 125.387 378.89Q125.01 378.261 124.665 377.615Q124.319 376.968 124.006 376.305Q123.693 375.642 123.412 374.965Q123.132 374.287 122.886 373.596Q122.639 372.906 122.427 372.204C120.157 364.683 121.123 356.179 124.848 349.275C129.319 340.988 136.75 336.768 145.509 334.173Z"/>
	<path fill="#FDF7E9" transform="scale(0.999721 0.999721)" d="M0 0L740.304 0C740.124 0.0857035 739.944 0.17324 739.763 0.25711C731.841 3.92701 722.887 6.41144 714.619 9.30477Q692.84 16.7811 671.436 25.2722C607.261 50.7678 537.458 87.8164 491.258 140.026C485.325 146.73 479.209 153.684 474.348 161.227C428.134 133.039 373.133 127.057 320.85 139.674C257.643 154.928 201.138 200.055 167.651 255.307Q163.919 261.487 160.525 267.858Q157.13 274.23 154.082 280.774Q151.034 287.319 148.341 294.017Q145.648 300.716 143.318 307.549C141.05 314.407 139.602 321.498 137.344 328.356C95.6649 316.611 40.2661 329.592 0 342.702L0 0Z"/>
	<path fill="#29140A" transform="scale(0.999721 0.999721)" d="M238.311 425.688C242.185 421.21 245.504 417.455 250.935 414.816C257.519 411.617 266.29 411.309 273.164 413.788C277.449 415.333 281.527 418.58 283.494 422.734C281.944 432.835 288.415 433.651 289.506 441.355C290.155 445.935 284.5 452.593 281.847 456.108C296.028 455.107 308.624 456.329 321.798 462.193C337.099 469.004 354.358 481.904 360.443 497.957C366.028 512.689 368.381 537.314 361.849 551.675C359.058 557.809 354 562.958 351.529 569.179C349.687 573.816 353.911 577.43 355.295 581.525C355.898 583.307 355.48 585.298 354.642 586.932C354.534 587.144 354.417 587.352 354.29 587.554C351.597 591.825 345.122 592.227 341.291 595.517C333.87 601.892 330.543 614.002 320.022 616.592C311.31 618.737 303.316 612.411 296.423 608.037C294.217 610.729 292.152 613.527 290.067 616.313C297.694 626.304 296.837 641.443 300.647 653.266C305.644 668.774 311.596 684.072 317.364 699.308C321.038 709.012 325.173 718.757 327.474 728.892C345.643 734.168 355.875 746.739 372.614 751.372C377.483 752.72 389.94 754.608 392.958 758.662C394.826 761.172 393.419 765.266 392.873 768.053C397.27 767.959 401.212 768.158 405.507 769.137C428.023 774.269 446.164 785.619 458.548 805.427C461.874 810.747 469.843 823.611 468.472 829.473L470.23 831.521C477.395 816.205 485.581 801.087 493.201 785.971C496.488 786.471 499.765 787.089 503.042 787.652C506.528 782.923 510.903 778.683 514.043 773.734C516.114 770.471 516.901 766.547 519.237 763.42C521.255 760.719 523.853 758.631 527.277 758.165Q527.792 758.095 528.311 758.078Q528.83 758.06 529.348 758.096Q529.866 758.132 530.378 758.22Q530.89 758.308 531.39 758.448Q531.891 758.588 532.374 758.779Q532.857 758.969 533.319 759.208Q533.78 759.446 534.215 759.73Q534.65 760.015 535.053 760.342C537.189 762.074 538.502 764.707 538.774 767.43C539.038 770.083 538.288 772.768 536.476 774.752C532.207 779.426 525.406 779.507 519.579 779.632C514.157 785.408 508.567 791.222 504.194 797.854C497.723 807.666 492.957 819.184 487.77 829.77Q474.047 857.345 461.118 885.302C470.627 885.455 493.92 882.368 501.328 886.838C508.756 891.321 510.985 901.022 512.96 908.822C516.304 910.257 519.478 912 522.187 914.452C527.204 918.992 529.875 924.822 530.161 931.575C530.442 938.18 527.335 944.759 522.93 949.542C515.257 957.875 506.268 959.786 495.373 960.24C482.144 960.791 468.779 960.32 455.531 960.28L388.009 960.297L333.372 960.39C324.131 960.403 314.48 960.968 305.287 960.266C303.644 960.141 302.197 959.716 301.034 958.492C298.678 956.014 299.454 951.194 299.511 948.044C292.896 946.258 279.697 943.873 276.029 937.727C272.31 931.494 277.503 917.818 279.215 911.055C246.79 929.974 206.87 953.738 167.844 950.578C148.481 949.01 131.787 941.122 119.159 926.319C115.54 926.489 110.66 927.257 107.624 924.846C103.768 921.784 103.962 913.604 103.452 909.054C96.856 907.565 90.7887 906.03 84.7919 902.809C83.439 900.637 82.367 898.39 81.7179 895.912C78.8904 885.115 80.1918 871.937 80.3004 860.809C80.948 794.485 95.5918 726.25 129.581 668.93C122.741 658.656 122.182 645.763 124.054 633.865C126 621.502 134.723 613.373 144.35 606.264Q144.614 602.505 145.306 598.8Q145.998 595.096 147.109 591.495C150.444 580.958 157.088 573.345 166.912 568.325C185.17 558.996 200.837 560.53 218.82 569.511C223.909 572.052 229.33 575.61 234.683 577.359C235.057 577.096 235.684 576.692 235.949 576.329C236.808 575.155 237.033 574.221 238.162 573.089L238.548 572.709C239.064 571.351 238.783 570.065 238.335 568.721C235.149 559.153 229.883 551.387 227.179 540.961C222.456 522.753 226.884 506.739 236.119 490.897C235.971 490.908 235.824 490.92 235.676 490.93C227.841 491.409 219.471 490.302 213.457 484.825C207.605 479.493 205.267 471.482 204.934 463.783C204.488 453.479 206.972 442.272 214.14 434.522C221.285 426.798 228.397 426.101 238.311 425.688Z"/>
	<path fill="#FDF7E9" transform="scale(0.999721 0.999721)" d="M415.405 895.223C418.796 896.805 423.127 898.096 424.509 901.856C421.779 902.672 419.189 902.472 416.403 902.254L414.006 900.404C415.533 898.238 415.444 897.907 415.405 895.223Z"/>
	<path fill="#FDF7E9" transform="scale(0.999721 0.999721)" d="M381.01 879.357C384.743 881.011 391.908 883.02 394.495 885.967L393.351 886.39C388.159 886.542 383.058 886.441 377.873 886.204L381.01 879.357Z"/>
	<path fill="#FDF7E9" transform="scale(0.999721 0.999721)" d="M423.61 807.957C428.327 808.388 432.63 809.987 436.954 811.829C439.789 815.736 447.256 824.603 446.64 829.486C443.35 823.14 439.33 817.217 432.194 814.972C429.49 814.121 426.806 813.87 424.28 812.475C423.049 810.483 423.323 810.196 423.61 807.957Z"/>
	<path fill="#FDF7E9" transform="scale(0.999721 0.999721)" d="M386.21 793.687L387.875 793.472C391.784 794.802 397.667 802.202 401.226 805.005C397.353 804.024 393.648 802.9 389.91 801.485C386.161 800.703 382.164 801.699 378.646 800.83C376.503 800.3 375.876 797.971 374.969 796.187C378.745 795.499 382.476 794.568 386.21 793.687Z"/>
	<path fill="#E99B2A" transform="scale(0.999721 0.999721)" d="M526.896 762.656C528.156 762.648 529.535 762.645 530.773 762.885C532.099 763.141 533.217 764.203 533.822 765.375C534.478 766.646 534.448 768.154 534.013 769.491C533.137 772.182 531.229 773.703 528.825 774.981C527.646 775.155 526.367 775.405 525.175 775.376C523.282 775.329 522.497 774.571 521.217 773.389C520.939 772.409 520.695 771.592 520.887 770.568C521.564 766.951 524.134 764.741 526.896 762.656Z"/>
	<path fill="#FDF7E9" transform="scale(0.999721 0.999721)" d="M452.958 902.936C463.492 903.56 476.416 903.102 486.475 906.316L486.558 906.605C485.268 907.473 483.802 907.635 482.301 907.976L449.235 908.22C450.358 906.33 451.576 904.644 452.958 902.936Z"/>
	<path fill="#978892" transform="scale(0.999721 0.999721)" d="M285.801 620.14C286.343 620.446 286.797 620.685 287.194 621.182C298.313 635.103 291.093 683.426 288.829 701.179L287.493 699.764C283.394 683.688 287.016 667.595 285.752 651.416C285.196 644.303 281.988 637.037 282.46 629.897C282.709 626.142 284.013 623.343 285.801 620.14Z"/>
	<path fill="#FDF7E9" transform="scale(0.999721 0.999721)" d="M461.215 889.897C473.474 889.342 485.77 889.484 498.04 889.462C503.37 894.497 505.788 899.922 507.68 906.915L499.875 906.561C497.225 906.821 494.494 907.426 492.009 906.277C491.454 905.517 490.898 904.748 490.269 904.046C486.21 899.513 460.853 899.048 454.418 898.581C455.404 896.463 456.332 894.102 457.612 892.152C458.796 890.35 459.224 890.308 461.215 889.897Z"/>
	<path fill="#E99B2A" transform="scale(0.999721 0.999721)" d="M351.849 923.862C364.75 928.611 379.126 934.252 389.596 943.336L362.218 943.274C349.709 943.376 337.197 943.38 324.703 944.053C334.86 938.365 343.388 931.819 351.849 923.862Z"/>
	<path fill="#FDF7E9" transform="scale(0.999721 0.999721)" d="M342.498 948.032C342.834 948.005 343.169 947.974 343.504 947.95C348.956 947.564 388.237 946.605 390.817 948.856C391.385 951.048 391.554 952.713 391.308 954.966C387.921 957.21 359.19 955.863 352.941 955.838C345.791 955.784 309.946 956.506 305.973 955.33C304.8 954.982 304.899 954.625 304.311 953.623C304.341 951.807 304.149 950.056 305.193 948.483C312.177 947.098 333.648 948.294 342.498 948.032Z"/>
	<path fill="#FDF7E9" transform="scale(0.999721 0.999721)" d="M496.015 791.298C497.698 791.374 498.904 791.334 500.329 792.37C498.544 799.768 493.37 808.006 489.957 814.926C482.208 830.638 474.241 846.258 466.627 862.034L451.128 894.662C449.516 898.012 448.415 901.846 446.18 904.827C444.27 904.104 442.475 902.986 440.68 902.011C447.117 890.243 452.72 877.961 458.68 865.944L480.353 822.965C485.506 812.519 489.869 801.173 496.015 791.298Z"/>
	<path fill="#FDF7E9" transform="scale(0.999721 0.999721)" d="M399.888 887.513L415.405 895.223C415.444 897.907 415.533 898.238 414.006 900.404L416.403 902.254C419.189 902.472 421.779 902.672 424.509 901.856L426.207 901.08C430.5 901.145 437.783 905.9 441.857 907.953L386.89 908.382C379.598 908.456 372.001 909.332 364.767 908.947L364.503 908.061C369.727 902.711 372.534 892.372 377.775 888.275L379.391 888.977C386.059 889.107 393.197 887.964 399.888 887.513Z"/>
	<path fill="#E3DDD3" transform="scale(0.999721 0.999721)" d="M399.888 887.513L415.405 895.223C415.444 897.907 415.533 898.238 414.006 900.404L416.403 902.254L379.437 902.406L379.391 888.977C386.059 889.107 393.197 887.964 399.888 887.513Z"/>
	<path fill="#FDF7E9" transform="scale(0.999721 0.999721)" d="M379.526 805.707C385.739 805.274 391.667 807.646 397.81 808.471C404.268 809.339 410.706 809.402 417.123 810.698C417.845 812.08 418.567 813.531 419.487 814.792C422.193 818.499 428.171 818.792 432.346 819.52C435.221 822.319 439.576 825.61 440.631 829.587C439.646 831.344 438.889 831.205 437.021 831.806C421.448 833.524 404.867 838.546 389.172 835.429C386.698 825.932 382.881 814.955 379.526 805.707Z"/>
	<path fill="#E99B2A" transform="scale(0.999721 0.999721)" d="M388.691 936.453L467.21 936.433Q467.498 938.376 467.907 940.297C469.569 947.862 473.113 951.793 479.541 955.825C452.149 954.269 424.106 955.368 396.648 955.62C395.771 946.915 394.663 942.981 388.691 936.453Z"/>
	<path fill="#FDF7E9" transform="scale(0.999721 0.999721)" d="M391.083 772.183C397.6 772.326 403.448 773.15 409.703 775.026C441.431 784.54 450.055 799.449 464.823 826.687L465.493 826.357C465.551 827.959 465.365 828.95 464.877 830.479L467.076 828.739L467.705 829.434C466.379 831.391 465.259 832.21 462.791 832.66C460.939 832.998 459.436 832.958 457.618 832.541C456.122 832.77 455.034 832.966 453.549 832.484L452.895 830.755C449.657 821.551 443.474 807.628 433.292 804.823C429.082 803.663 424.204 804.135 419.868 804.115C414.824 804.092 410.211 803.822 405.526 801.778C398.33 798.639 396.745 791.506 390.785 787.961C389.122 787.628 388.37 787.659 386.758 788.252C385.545 788.698 384.681 788.989 383.394 789.062L383.918 788.381L383.545 787.567C386.606 783.378 388.815 776.948 391.083 772.183Z"/>
	<path fill="#29140A" transform="scale(0.999721 0.999721)" d="M439.228 803.426C432.936 800.967 425.268 800.848 419.331 797.662C417.897 796.892 417.603 796.072 417.08 794.609L417.83 793.706C418.729 793.493 419.638 793.36 420.566 793.397C425.704 793.604 440.281 797.04 443.732 800.663C448.416 805.578 452.607 812.562 455.757 818.575C457.699 822.281 459.02 826.659 461.886 829.754L463.063 829.658L464.823 826.687L465.493 826.357C465.551 827.959 465.365 828.95 464.877 830.479L467.076 828.739L467.705 829.434C466.379 831.391 465.259 832.21 462.791 832.66C460.939 832.998 459.436 832.958 457.618 832.541C453.876 822.292 446.53 811.495 439.228 803.426Z"/>
	<path fill="#FDF7E9" transform="scale(0.999721 0.999721)" d="M493.762 911.448C500.731 911.241 508.092 911.515 514.423 914.759C519.296 917.255 523.211 921.428 524.808 926.727C526.333 931.783 525.581 937.189 522.974 941.754C518.701 949.238 511.218 952.951 503.213 955.096C495.622 956.334 487.668 955.759 481.092 951.411C476.659 948.481 473.43 944.06 472.399 938.807C471.294 933.181 472.82 927.128 476.001 922.417C480.119 916.319 486.701 912.896 493.762 911.448Z"/>
	<path fill="#FDF7E9" transform="scale(0.999721 0.999721)" d="M456.572 912.305C464.19 911.848 471.861 912.076 479.49 912.155C473.246 918.601 469.479 923.256 467.524 932.217C457.322 932.227 386.044 934.007 381.221 931.525C372.704 927.286 363.927 923.729 355.081 920.243L361.26 912.687L456.572 912.305Z"/>
	<path fill="#978892" transform="scale(0.999721 0.999721)" d="M189.881 566.221C197.719 565.771 205.74 568.678 212.817 571.776C243.829 585.351 267.82 612.323 280.005 643.683C272.349 633.573 263.676 626.438 253.821 618.684C245.291 611.922 235.121 606.085 225.017 602.026C200.077 592.007 174.043 592.654 149.35 603.163C150.806 595.983 152.239 588.651 156.626 582.593C164.054 572.335 177.91 568.06 189.881 566.221Z"/>
	<path fill="#978892" transform="scale(0.999721 0.999721)" d="M185.55 599.156C208.638 596.796 231.381 609.576 250.405 621.003C216.407 616.121 196.979 620.218 166.692 635.49C153.558 643.303 141.774 652.331 131.958 664.133C129.631 659.453 128.486 654.902 128.058 649.685C127.181 638.985 127.933 628.867 135.265 620.525C148.302 605.69 166.558 600.377 185.55 599.156Z"/>
	<path fill="#969B9D" transform="scale(0.999721 0.999721)" d="M467.705 829.434L468.472 829.473L470.23 831.521C464.59 844.431 457.981 856.975 451.754 869.616C446.849 879.573 442.282 889.878 436.983 899.623C426.507 895.252 415.815 890.434 405.841 885.005C398.385 881.573 389.945 878.76 383.035 874.369C388.224 863.178 389.82 852.28 389.504 840.07C400.594 840.82 411.423 840.065 422.469 839.086C429.624 838.416 445.004 840.976 450.419 836.682C450.864 834.549 451.309 832.99 452.577 831.19C452.68 831.043 452.789 830.9 452.895 830.755L453.549 832.484C455.034 832.966 456.122 832.77 457.618 832.541C459.436 832.958 460.939 832.998 462.791 832.66C465.259 832.21 466.379 831.391 467.705 829.434Z"/>
	<path fill="#8BB3AA" transform="scale(0.999721 0.999721)" d="M389.504 840.07C400.594 840.82 411.423 840.065 422.469 839.086C422.597 839.202 422.723 839.321 422.855 839.432C427.108 843.018 434.715 841.822 437.386 847.017C437.412 852.139 432.105 855.403 430.819 860.471C429.883 860.994 429.946 861.156 428.824 860.99L428.798 858.316C428.607 858.292 428.416 858.272 428.225 858.245C424.139 857.663 422.646 854.192 418.658 856.989L418.38 858.533C419.873 859.927 421.295 859.419 422.623 860.771L421.878 861.741C420.341 861.911 419.282 861.107 418.001 860.377L416.6 860.757L414.699 864.426C416.507 866.018 421.095 865.66 423.41 865.575C423.55 865.454 423.689 865.332 423.831 865.213C425.139 864.111 426.054 863.541 427.685 863.038C428.144 866.941 424.685 870.624 422.641 873.809C421.301 874.433 421.157 874.63 419.704 874.08C417.106 873.095 415.552 871.049 412.584 871.107C408.953 872.961 407.791 878.79 406.616 882.411Q406.199 883.699 405.841 885.005C398.385 881.573 389.945 878.76 383.035 874.369C388.224 863.178 389.82 852.28 389.504 840.07Z"/>
	<path fill="#978892" transform="scale(0.999721 0.999721)" d="M247.283 625.869C256.062 627.522 262.798 631.314 269.093 637.648C273.314 641.896 277.796 646.99 279.816 652.733C281.806 658.388 280.923 664.942 280.747 670.831C280.389 682.804 279.86 701.989 287.423 711.781C288.579 713.278 289.204 713.904 291.03 714.212C296.326 707.55 294.007 668.547 297.352 657.89C298.048 658.604 321.479 724.243 322.824 729.816C318.575 731.645 313.773 733.347 310.085 736.174C308.921 737.067 307.41 737.937 307.21 739.412C313.074 740.168 321.266 735.885 326.836 733.976C339.655 736.742 349.09 744.649 359.688 751.777C369.178 755.794 379.238 758.502 389.146 761.273C388.493 764.927 387.267 768.259 385.85 771.681C383.711 776.843 379.786 788.436 374.611 790.587C372.627 788.151 373.714 782.588 372.305 779.411C371.692 778.027 371.389 777.996 370.057 777.548C365.557 780.361 369.247 782.588 367.867 786.245C363.484 783.003 358.994 779.308 354.258 776.617C343.795 770.674 331.358 766.854 320.344 761.862C313.39 758.71 306.824 754.798 300.031 751.318L303.121 744.891C299.434 742.124 296.492 740.681 291.952 739.818C285.837 730.802 282.13 719.762 278.948 709.425C269.79 679.673 266.318 651.471 247.283 625.869Z"/>
	<path fill="#FDF7E9" transform="scale(0.999721 0.999721)" d="M350.332 508.775L358.11 508.633C360.945 522.633 363.677 539.767 356.112 552.832C353.537 557.28 349.908 561.28 347.714 565.922C344.173 573.415 348.418 576.272 350.076 582.859C350.35 583.948 350.128 584.857 349.508 585.766C347.629 588.52 343.314 588.816 340.288 589.395C338.59 591.148 337.011 593.069 335.389 594.897C328.976 589.976 326.387 580.368 322.766 578.155C321.71 577.509 321.07 577.499 319.885 577.801C317.363 578.443 315.758 581.758 314.456 583.812C314.637 586.502 314.728 589.251 315.788 591.769C317.554 595.964 321.131 600.914 325.523 602.605C326.864 603.121 327.111 603.182 328.39 602.608C328.228 596.599 319.929 594.146 319.205 588.225C318.95 586.141 319.479 584.035 320.75 582.446C323.227 584.321 324.763 590.281 326.644 593.089C328.089 595.246 330.514 597.047 332.496 598.711C330.568 601.542 328.642 604.551 326.233 607.003C323.412 609.876 319.6 611.823 315.519 611.766C305.863 611.63 296.665 601.413 292.372 593.64C290.751 590.705 290.02 586.49 287.637 584.194L286.554 584.339C286.003 585.03 285.53 585.627 285.329 586.508C284.217 591.393 289.962 598.951 292.604 602.655L294.374 605.347C286.207 614.654 282.31 615.256 277.714 627.921C271.89 615.943 263.175 604.92 254.414 594.953C251.607 591.76 240.47 583.594 239.84 580.143C240.321 579.281 241.101 577.363 241.755 576.712C244.038 574.441 253.987 573.124 257.441 571.747Q259.827 570.821 262.122 569.687Q264.416 568.554 266.602 567.221Q268.787 565.889 270.846 564.369Q272.905 562.849 274.822 561.152L275.564 560.477C277.915 563.647 280.351 566.091 284.279 567.202C285.889 567.657 288.232 566.906 289.577 566.014C291.027 565.054 291.322 564.012 291.679 562.42C290.937 560.986 290.977 560.968 289.496 560.347C288.123 560.93 286.196 561.978 284.691 561.929C283.301 561.883 282.109 560.841 281.234 559.843C278.273 556.461 276.827 551.224 276.954 546.798C277.092 542.034 278.869 537.344 282.482 534.126C284.174 532.619 286.375 531.235 288.731 531.443C294.504 531.953 299.661 539.987 302.92 544.117C304.409 541.525 305.92 538.889 307.808 536.564C317.805 524.256 334.326 510.545 350.332 508.775Z"/>
	<path fill="#29140A" transform="scale(0.999721 0.999721)" d="M334.943 554.173C335.104 554.226 335.271 554.263 335.425 554.332C337.472 555.253 338.158 556.608 338.769 558.588C338.521 560.891 337.559 562.062 336.114 563.812C335.715 563.645 335.148 563.421 334.743 563.208C332.907 562.238 332.33 561.2 331.766 559.295C332.177 556.917 333.272 555.837 334.943 554.173Z"/>
	<path fill="#29140A" transform="scale(0.999721 0.999721)" d="M333.352 536.262C336.087 536.636 339.101 537.549 341.67 538.551C344.281 539.569 347.26 541.171 348.315 543.943C349.075 545.937 348.716 547.38 347.939 549.287C346.136 548.627 345.181 547.631 343.824 546.306C340.627 543.185 336.962 542.325 332.986 540.558C332.346 538.608 332.732 538.164 333.352 536.262Z"/>
	<path fill="#5D6261" transform="scale(0.999721 0.999721)" d="M259.762 416.965C263.792 417.111 269.066 417.092 272.671 419.089C276.936 421.452 278.304 425.899 279.562 430.292C280.734 434.387 282.871 437.407 285.217 440.892C274.274 467.583 265.292 454.163 257.858 464.552C257.096 465.617 256.796 466.736 257.055 468.025C257.38 469.636 257.498 469.756 258.878 470.618C263.413 470.035 267.415 465.654 271.701 463.885C286.55 457.755 305.346 460.156 319.707 466.384C336.37 473.609 350.978 486.584 357.733 503.601C355.443 503.588 353.138 503.58 350.853 503.749C332.001 505.144 314.477 521.622 302.752 535.382C299.316 531.656 295.245 527.822 290.329 526.255C289.117 526.311 287.9 526.373 286.697 526.54C282.65 527.105 278.794 530.119 276.448 533.38C271.543 540.199 271.576 548.362 272.954 556.273C264.461 563.878 255.623 568.826 244.3 570.641Q242.169 566.839 240.385 562.863C230.323 540.583 224.467 520.973 237.115 498.048C239.801 493.178 245.069 489.172 246.975 484.107L246.494 483.208C240.856 482.989 235.368 486.98 229.655 486.926C224.943 486.883 219.08 484.108 215.851 480.687C210.651 475.176 209.59 467.086 209.766 459.819C209.977 451.096 212.425 442.463 218.929 436.326C225.295 430.32 231.141 430.524 239.263 430.801C246.323 423.806 249.247 418.537 259.762 416.965Z"/>
	<path fill="#8BB3AA" transform="scale(0.999721 0.999721)" d="M328.427 798.738C333.87 798.259 340.043 798.27 345.431 798.996C357.815 800.664 369.529 808.906 376.887 818.807C384.52 829.078 386.358 841.833 384.37 854.283C379.834 882.7 355.913 917.171 332.584 933.791C321.217 941.89 309.543 944.525 295.758 942.137C291.138 941.337 282.505 938.938 279.683 934.943C278.365 927.074 282.644 914.422 285.112 906.841C291.793 902.762 298.206 898.226 304.67 893.813Q307.593 894.846 310.552 895.773C314.081 896.861 318.291 897.75 321.717 895.942L321.679 894.983C318.007 891.958 314.035 891.313 309.503 890.319C313.497 887.043 322.765 882.108 323.715 877.12L322.808 875.788C321.05 875.787 320.763 875.955 319.268 876.855C312.336 881.031 305.76 886.668 299.189 891.44C290.635 897.651 281.769 903.377 272.864 909.065C242.403 927.751 198.879 951.122 162.126 945.13C148.604 942.926 132.459 936.3 124.152 924.903C156.733 911.464 173.386 885.946 195.129 859.902C207.631 844.927 227.042 823.94 245.485 816.576C253.928 813.205 263.926 811.348 272.742 808.923C291.248 803.834 309.301 800.469 328.427 798.738Z"/>
	<path fill="#978892" transform="scale(0.999721 0.999721)" d="M227.372 623.016C231.835 622.631 236.743 623.712 241.138 624.475C245.75 633.315 252.275 640.139 255.976 649.76C267.351 679.331 270.421 713.189 287.04 740.512C284.046 741.69 281.125 743.271 278.388 744.961C275.758 746.585 272.863 748.34 272.112 751.482L273.013 752.512C277.19 751.91 281.556 748.5 285.512 746.835C288.24 745.687 292.998 744.19 295.707 745.894C297.356 746.931 298.037 748.904 298.201 750.684C294.269 753.662 288.518 753.462 284.19 755.842C278.562 758.938 258.896 775.224 257.689 781.22C257.459 782.367 258.012 782.575 258.665 783.457C260.013 783.791 260.28 784.1 261.452 783.173C263.402 781.63 264.942 778.9 266.625 777.018C272.902 769.998 280.59 762.735 289.439 759.264C292.383 758.109 296.757 756.585 299.938 757.149C305.088 758.062 311.623 763.187 316.479 765.495C322.717 768.459 329.197 771.026 335.535 773.778C357.201 783.186 367.956 788.551 377.1 811.729C372.443 807.603 367.701 803.509 362.291 800.39C333.362 783.709 279.518 802.433 249.375 810.627C224.849 798.677 206.999 748.939 197.733 723.929C195.878 718.923 192.304 706.039 189.503 702.305C188.637 701.15 187.992 701.393 186.661 701.31L185.753 702.257C185.447 705.086 186.643 707.736 187.531 710.385C196.778 735.067 211.59 776.367 226.41 796.269C231.13 802.608 236.664 807.586 242.857 812.395C226.305 820.943 211.245 833.902 198.851 847.7C176.417 872.675 156.479 909.087 122.911 920.213C120.007 921.175 113.845 922.791 111.04 921.066C107.768 919.054 108.874 913.054 107.971 909.687C106.041 902.487 94.6725 902.793 88.2811 899.349C85.9261 894.534 85.1037 889.66 84.7633 884.343C80.9887 825.386 97.6988 734.629 126.493 683.116C130.608 675.754 134.911 668.214 140.57 661.92C161.971 638.115 195.813 624.495 227.372 623.016Z"/>
	<path fill="#29140A" transform="scale(0.999721 0.999721)" d="M196.407 812.696C198.151 813.12 198.748 813.448 200.014 814.72L200.006 816.266C188.096 837.183 167.775 857.181 147.144 869.5C141.625 872.795 135.59 875.273 129.717 877.86C129.134 878.06 128.37 877.976 127.752 877.987L126.475 876.483C126.731 873.228 134.989 870.289 137.711 868.91C162.101 856.561 181.912 835.659 196.407 812.696Z"/>
	<path fill="#29140A" transform="scale(0.999721 0.999721)" d="M1175.22 51.4774C1178.97 51.0084 1184.18 50.171 1187.35 52.663C1201.91 64.0951 1197.41 130.169 1200.84 148.826C1201.98 154.998 1209.06 158.894 1209.76 165.864C1210.1 169.212 1208.4 173.518 1206.33 176.119C1214.85 176.931 1223.3 178.283 1231.28 181.525C1251.09 189.576 1269.27 208.853 1277.41 228.613C1282.51 240.98 1283.21 254.514 1277.97 266.967C1275.74 272.254 1272.29 279.515 1266.52 281.627C1260.07 283.991 1254.79 279.445 1249.25 277.012L1248.83 276.833C1249.56 278.202 1250.29 279.559 1250.79 281.03C1254.08 290.658 1256.6 300.621 1259.7 310.327Q1274.66 356.205 1288.34 402.48C1305.73 461.305 1323.83 519.952 1329.2 581.367C1329.74 587.468 1331.97 598.538 1329 604.039C1321.89 617.197 1272.71 641.748 1258.03 646.36C1258.32 646.849 1258.51 647.313 1258.62 647.876C1259.59 653.298 1257.91 668.866 1255.04 673.325C1257.88 675.824 1259.64 679.835 1261.35 683.161C1284.66 728.514 1283.71 785.577 1283.3 835.424C1283.24 843.086 1284.33 861.38 1281.81 868.053C1280.18 872.378 1274.26 875.022 1270.24 876.603C1271.19 879.722 1270.98 883.894 1271.3 887.199C1272.03 894.639 1272.84 902.181 1274.47 909.491C1276.55 918.85 1282.32 926.921 1281.88 936.867C1281.69 941.217 1280.71 949.849 1277.08 952.783C1271.83 957.032 1256.29 956.459 1249.15 958.122C1239.3 960.418 1229.97 964.707 1220.51 968.189C1205.16 973.831 1187.98 975.492 1171.73 974.207C1159.84 973.265 1137.13 969.887 1129.4 960.218C1126.82 956.994 1126.31 953.082 1126.88 949.1C1127.53 944.605 1129.72 940.736 1133.27 937.863C1141.73 931.031 1167.03 924.81 1178.66 918.388C1188.68 912.857 1196.25 905.687 1205.25 898.88C1210.34 895.026 1213.27 893.996 1219.64 894.855C1221.7 890.414 1222.87 884.221 1221.73 879.419C1217.54 876.593 1211.05 876.819 1208.51 871.742C1205.82 866.376 1206.67 841.064 1206.02 833.026C1203.02 795.696 1197.18 758.464 1186.28 722.583C1184.44 716.516 1182.92 709.518 1179.85 703.969C1180.2 704.827 1180.45 705.448 1180.53 706.379C1181.4 715.907 1175.32 734.98 1172.23 744.255C1166.69 760.864 1159.61 776.242 1152.71 792.284C1145.31 809.459 1138.08 826.967 1131.3 844.399C1127.82 853.354 1125.29 871.375 1118.84 878.009C1115.29 881.66 1110.46 881.507 1105.76 881.548C1105.56 884.464 1104.21 887.009 1102.42 889.258C1102.9 892.874 1099.51 896.577 1098.83 900.173C1098.18 903.596 1099.76 907.337 1099.23 910.93C1097.91 919.797 1093 933.499 1090 942.287C1087.68 949.067 1084.28 956.901 1077.49 960.205C1063.06 955.588 1049.05 950.158 1034.72 945.297C1021.24 940.722 1007.65 936.783 994.347 931.619C981.537 926.645 958.977 918.553 953.453 904.906C951.75 900.7 952.472 896.716 954.297 892.72C963.118 873.418 996.804 882.445 1013.87 881.421C1022.9 880.88 1030.47 878.15 1038.84 875.015C1042.33 875.953 1045.73 877.271 1048.48 879.702C1049.69 879.07 1050.74 878.251 1051.72 877.298C1054.75 874.36 1057.39 869.901 1057.48 865.62C1057.11 864.755 1049.36 856.627 1048.02 855.107L1047.39 854.391C1048.06 853.453 1048.65 852.55 1049.18 851.515C1071.2 808.039 1087.48 750.458 1095.91 702.576C1098.82 686.025 1099.42 668.97 1102.77 652.553C1104.23 645.436 1113.42 620.719 1111.76 615.535C1108.43 617.744 1104.49 618.933 1101.17 621.295C1098.33 623.309 1096.19 627.242 1092.95 628.268C1090.14 626.642 1090.73 619.005 1090.76 615.965C1090.92 601.275 1093.21 587.145 1097.37 573.053C1103.46 552.459 1139.76 470.633 1134.6 456.089C1122.41 451.338 1100.06 460.545 1083.41 456.724C1082.31 453.439 1078.72 451.124 1077.52 447.404C1075.69 441.721 1077.45 435.206 1075.35 429.607C1073.51 426.572 1066.41 422.84 1063.17 420.991C1045.47 430.816 1024.98 431 1005.62 426.845C998.373 425.288 992.399 420.698 988.456 414.472C982.966 405.805 984.114 396.719 986.261 387.188C979.643 375.014 974.645 361.526 968.964 348.877C962.719 334.97 954.531 320.263 950.425 305.621C951.955 301.389 953.469 297.033 956.266 293.441C957.727 291.564 959.228 290.261 961.443 289.381C968.725 286.486 976.707 284.716 984.267 282.594L1026.68 270.87C1041.79 266.729 1058.73 260.364 1074.08 258.274C1075.27 258.801 1076.06 259.37 1076.96 260.321C1081.9 265.533 1101.98 307.719 1101.88 313.589C1106.23 309.52 1117.09 265.233 1119.33 255.967C1120.91 249.416 1121.95 240.99 1124.77 234.897C1126.07 232.071 1127.06 231.98 1129.74 230.917C1130.05 228.436 1126.29 224.191 1124.81 222.274C1123.1 223.097 1120.74 223.772 1118.84 223.874C1116.7 223.988 1113.65 223.599 1111.88 222.314C1106.81 218.642 1102.43 212.361 1097.85 207.972C1093 203.314 1087.44 199.463 1082.58 194.764C1077.67 190.012 1082.4 186.545 1082.06 181.472C1082.04 181.175 1082 180.879 1081.97 180.582C1081.83 179.759 1081.68 179.46 1081.13 178.834C1072.12 168.71 1071.41 155.751 1067.83 143.448L1067.66 142.88C1066.75 140.621 1061.65 136.281 1059.68 134.522C1061.02 128.157 1058.94 124.845 1062.46 117.341C1064.55 112.873 1069.32 108.924 1073.91 107.265Q1075.98 106.516 1078.06 105.812C1081.11 104.011 1090.11 92.0493 1094.25 88.4735C1119.2 66.8923 1143.43 57.7822 1175.22 51.4774Z"/>
	<path fill="#FDF7E9" transform="scale(0.999721 0.999721)" d="M1178.14 361.757C1179.53 361.944 1179.67 362.062 1180.75 362.972C1182.02 366.583 1182.14 370.986 1180.58 374.52C1177.93 373.285 1175.07 372.636 1172.26 371.873C1170.84 370.929 1170.07 371.49 1168.93 369.924L1169.75 368.255C1172.36 366.843 1175.91 364.939 1177.66 362.488C1177.83 362.25 1177.98 362.001 1178.14 361.757Z"/>
	<path fill="#FDF7E9" transform="scale(0.999721 0.999721)" d="M1075.12 410.79L1077.95 410.538C1078.97 411.387 1079.24 411.589 1079.4 412.995C1079.7 415.617 1078.16 423.004 1076.59 424.965C1076.47 424.859 1076.33 424.764 1076.22 424.649C1075.21 423.628 1074.59 423.155 1073.3 422.556L1072.87 422.364C1071.41 421.391 1069.53 420.281 1068.53 418.797C1067.41 417.141 1067.21 416.398 1067.5 414.469C1069.78 411.831 1071.82 411.463 1075.12 410.79Z"/>
	<path fill="#FDF7E9" transform="scale(0.999721 0.999721)" d="M1022.11 884.855C1024.23 884.659 1026.05 884.528 1028.16 884.901C1031.98 888.911 1036.56 894.105 1037.03 899.864C1035.8 901.78 1035.1 901.735 1033 902.497C1031.79 903.191 1030.05 903.723 1028.67 903.403C1026.3 902.853 1024.62 900.6 1023.39 898.635C1021.34 895.361 1019.25 889.541 1020.1 885.725L1022.11 884.855Z"/>
	<path fill="#FDF7E9" transform="scale(0.999721 0.999721)" d="M1198.4 910.181C1199.39 910.091 1200.38 910.077 1201.36 910.215C1207.14 911.023 1225.84 915.839 1229.04 920.61C1229.68 921.566 1229.34 921.869 1229.13 922.928C1227.31 924.617 1225.69 925.059 1223.38 925.732C1222.43 926.095 1221.45 926.45 1220.45 926.656C1211.77 928.445 1199.25 919.319 1192.53 914.574C1194.67 913.302 1196.9 912.226 1198.4 910.181Z"/>
	<path fill="#FDF7E9" transform="scale(0.999721 0.999721)" d="M1064.48 264.394L1067.19 264.266L1067.41 265.187C1066.31 267.124 1065.35 267.746 1063.33 268.648C1053.58 273.007 1042.04 275.312 1031.73 278.263L959.837 298.285L959.056 298.034L958.978 296.39L958.442 297.529C959.341 295.942 960.467 295.009 962.118 294.228C969.406 290.781 978.468 289.146 986.268 286.987C999.723 283.263 1013.07 279.194 1026.57 275.561C1039 272.214 1052.73 269.553 1064.48 264.394Z"/>
	<path fill="#E99B2A" transform="scale(0.999721 0.999721)" d="M1178.37 344.949C1179.33 345.135 1179.66 345.044 1180.4 345.761C1182.03 347.349 1182.24 350.056 1182.2 352.197C1181.86 353.547 1180.64 354.464 1179.63 355.361C1173.08 361.226 1134.05 392.91 1128.53 392.585C1127.79 390.207 1125.81 386.989 1124.03 385.272C1132.42 381.174 1173.03 351.806 1178.37 344.949Z"/>
	<path fill="#FDF7E9" transform="scale(0.999721 0.999721)" d="M1213.28 221.679C1218.26 221.237 1223.23 221.799 1227.72 224.138C1232.99 226.89 1236.64 231.51 1238.37 237.183C1239.85 242.02 1240.08 248.998 1237.73 253.563C1237.97 250.467 1235.94 247.269 1234.05 244.937C1228.94 238.635 1221.35 236.263 1213.59 235.508C1197.53 234.378 1193.69 240.14 1180.91 247.445L1180.36 247.753C1194.1 235.103 1189.93 225.832 1213.28 221.679Z"/>
	<path fill="#FDF7E9" transform="scale(0.999721 0.999721)" d="M1071.72 263.679C1073.44 263.653 1073.96 263.507 1075.47 264.416C1078.16 269.254 1079.79 274.506 1082.11 279.511C1088.9 294.19 1095.61 308.826 1102.15 323.627L1119.03 361.656C1120.97 365.96 1123.49 370.134 1125.23 374.498C1125.83 376.015 1126.24 377.081 1125.96 378.704L1123.95 379.743L1123.45 380.237L1122.4 379.997C1119.53 375.489 1117.82 370.29 1115.54 365.459Q1106.39 346.158 1097.65 326.668C1089.23 308.157 1078.79 289.334 1072.09 270.2C1071.3 267.946 1071.44 265.992 1071.72 263.679Z"/>
	<path fill="#FDF7E9" transform="scale(0.999721 0.999721)" d="M1170.78 342.15L1174.49 341.884L1175.06 342.461C1170.23 347.303 1163.74 351.379 1158.25 355.511L1131.15 376.347C1130.45 374.394 1129.07 373.07 1127.7 371.571C1127.74 371.282 1127.81 370.801 1127.78 370.485C1127.44 366.445 1121.32 354.246 1118.26 351.544C1135.78 349.416 1153.43 345.419 1170.78 342.15Z"/>
	<path fill="#FDF7E9" transform="scale(0.999721 0.999721)" d="M1262.78 878.663C1264.28 878.433 1265.15 878.095 1266.58 878.671C1266.72 883.913 1268.08 890.629 1266.94 895.686C1266.34 898.372 1264.78 900.413 1262.38 901.759C1253.4 906.815 1239.58 902.887 1230.36 900.233C1228.63 898.874 1226.1 898.148 1224.07 897.304C1224.24 896.879 1224.47 896.391 1224.61 895.944C1225.92 891.934 1227.53 884.183 1225.61 880.241C1236.58 880.96 1252.63 883.583 1262.78 878.663Z"/>
	<path fill="#FDF7E9" transform="scale(0.999721 0.999721)" d="M1061.34 868.841C1065.45 868.438 1077.74 874.604 1082.71 876.161C1088.69 878.035 1094.83 879.305 1100.83 881.11C1100.94 881.719 1101.01 881.898 1100.91 882.596C1100.36 886.32 1095.37 899.035 1092.65 901.088C1092.12 901.21 1092.02 901.248 1091.4 901.306C1073.01 903.042 1066.09 891.813 1053.17 881.741C1053.67 881.422 1054.15 881.09 1054.6 880.7C1057.41 878.262 1061.2 872.534 1061.34 868.841Z"/>
	<path fill="#E99B2A" transform="scale(0.999721 0.999721)" d="M1115.56 384.873C1116.12 384.781 1116.68 384.684 1117.25 384.629C1118.24 384.534 1119.21 384.647 1119.96 385.314C1122.43 387.486 1124.21 390.718 1124.45 394.019C1116.53 397.356 1106.04 398.572 1097.64 400.527C1084.16 403.66 1070.5 407.679 1056.84 409.847C1053.68 410.349 1050.51 410.39 1047.32 410.373C1042.04 409.888 1041.06 405.073 1037.07 402.262C1063.31 397.571 1089.6 390.95 1115.56 384.873Z"/>
	<path fill="#796447" transform="scale(0.999721 0.999721)" d="M1011.98 422.472L1012.67 420.615C1007.26 411.983 994.716 403.808 997.152 391.886C997.754 388.939 999.473 386.945 1001.64 384.99C1003.09 384.7 1003.46 384.46 1004.77 385.322C1012.54 390.425 1013.48 416.42 1024.32 417.999L1025.36 417.354C1026.22 408.385 1014.37 400.278 1020.51 387.367C1021.17 386.875 1021.71 386.092 1022.58 386.311C1025.06 386.936 1027.3 389.984 1028.41 392.158C1032.23 399.685 1035.01 411.17 1044 414.108C1049.72 415.975 1061.6 413.153 1063.53 414.055C1063.49 414.698 1063.65 415.187 1063.15 415.639C1057.89 420.416 1037.09 425.69 1030.14 425.249C1024.07 424.864 1017.92 423.729 1011.9 422.849C1008.14 423.032 1004.11 422.487 1000.79 420.624C995.606 417.708 991.282 411.388 989.604 405.757C988.737 402.847 988.091 399.618 989.59 396.875C993.646 398.161 996.313 407.82 998.565 411.531C1001.1 415.703 1006.57 421.332 1011.46 422.375C1011.63 422.412 1011.81 422.44 1011.98 422.472Z"/>
	<path fill="#FDF7E9" transform="scale(0.999721 0.999721)" d="M962.477 889.928C986.819 914.415 1023.07 924.759 1055.84 932.013C1065.32 934.112 1075.58 935.081 1084.76 938.192C1084.91 938.244 1085.06 938.299 1085.21 938.352C1085.45 939.411 1085.56 940.261 1085.36 941.332C1084.66 945.091 1082.13 950.872 1078.8 952.916L1077.83 954.22C1077.16 954.487 1076.61 954.705 1075.87 954.709C1072.92 954.726 992.269 925.927 984.07 922.341C976.982 919.241 969.733 915.747 963.796 910.726C960.701 908.108 957.168 904.336 956.977 900.074C956.788 895.87 959.869 892.805 962.477 889.928Z"/>
	<path fill="#FDF7E9" transform="scale(0.999721 0.999721)" d="M1274.67 931.195C1274.75 931.212 1274.84 931.216 1274.92 931.245C1275.97 931.623 1276.44 931.609 1276.9 932.669C1278.22 935.703 1277.49 942.374 1276.05 945.272C1274.82 947.75 1272.93 949.357 1270.35 950.329C1263.25 953.018 1252.46 952.221 1244.51 954.233C1235.05 956.628 1226.4 961.475 1217.05 964.285C1190.06 972.395 1158.64 972.048 1133.45 958.513C1132.92 957.47 1132.39 956.393 1132.02 955.28C1131.21 952.827 1130.78 948.717 1131.9 946.403C1134.84 946.288 1138.29 949.181 1140.89 950.521C1146.75 953.541 1153.31 954.586 1159.77 955.567C1190.42 960.218 1213.66 950.576 1242.08 941.195C1252.86 937.638 1263.84 934.626 1274.67 931.195Z"/>
	<path fill="#E99B2A" transform="scale(0.999721 0.999721)" d="M1075.24 111.009C1115.96 104.833 1151.88 162.786 1192.96 169.896C1197.08 168.655 1201.84 163.899 1205.09 163.748C1205.39 164.36 1205.51 164.5 1205.56 165.276C1205.8 168.719 1203.22 174.169 1200.82 176.407C1196.55 180.39 1190.9 181.591 1185.26 181.523C1168.38 179.475 1144.18 163.131 1131.4 152.121C1122.01 144.025 1112.78 133.9 1101.66 128.162C1072.56 113.147 1075.77 133.827 1068.01 136.338C1066.86 135.892 1066.33 135.299 1065.62 134.315C1063.81 131.805 1063.29 129.183 1063.88 126.147C1065.14 119.612 1070.06 114.703 1075.24 111.009Z"/>
	<path fill="#FDF7E9" transform="scale(0.999721 0.999721)" d="M1128.37 237.081C1128.68 237.05 1128.99 237.011 1129.31 236.989C1131.21 236.853 1132.57 237.456 1133.94 238.761C1145.22 249.466 1132.67 281.895 1133.05 298.126C1133.4 313.105 1137.79 327.588 1138.17 342.703L1136.58 341.77C1136.57 342.798 1136.71 343.005 1136.13 343.902Q1129.04 345.309 1121.88 346.327C1121.29 346.456 1120.96 346.547 1120.32 346.592C1113.77 347.057 1109.76 324.882 1104.84 320.473C1109.08 316.107 1128.34 245.389 1128.37 237.081Z"/>
	<path fill="#FDF7E9" transform="scale(0.999721 0.999721)" d="M1126.29 398.182L1127.39 398.452C1127.51 398.682 1127.78 399.13 1127.87 399.414C1128.6 401.697 1129.09 441.532 1128.7 446.471C1128.6 447.708 1128.25 448.694 1127.64 449.758C1118.68 450.887 1097.17 454.791 1089.3 453.331C1087.76 453.044 1086.24 452.129 1084.91 451.349C1084.5 450.462 1084.1 449.567 1083.69 448.678C1076.09 432.176 1085.99 416.905 1083.47 408.433C1097.79 405.639 1112.15 401.806 1126.29 398.182Z"/>
	<path fill="#FDF7E9" transform="scale(0.999721 0.999721)" d="M1145.53 454.916C1147.81 454.729 1149.92 454.357 1152.1 455.242C1152.22 455.576 1152.37 455.948 1152.44 456.304C1153.51 461.77 1151.08 469.993 1149.76 475.467C1146.82 487.706 1142.75 499.779 1139.17 511.848Q1131.33 538.169 1124.93 564.88C1122.57 574.932 1119.07 602.834 1114.01 609.983C1111.29 612.13 1102.38 614.675 1098.77 616.329C1097.8 617.47 1097.52 617.973 1096.09 618.513C1094.3 615.697 1095.22 610.35 1095.5 607.027C1098.82 566.748 1119.85 530.67 1132.23 492.905C1136.1 481.085 1138.37 469.332 1140 457.024C1141.7 455.344 1143.26 455.372 1145.53 454.916Z"/>
	<path fill="#E99B2A" transform="scale(0.999721 0.999721)" d="M1038.14 880.057C1051.52 880.354 1061.19 899.041 1073.99 903.542C1080.7 905.899 1087.8 905.793 1094.81 905.919C1095.09 906.602 1095.13 906.609 1095.23 907.47C1095.73 912.056 1089.22 930.567 1086.51 934.105C1073.34 929.23 1057.95 928.31 1044.27 924.793C1032.88 921.869 1021.39 916.521 1009.96 914.35C995.287 905.58 975.742 900.893 965.618 885.889C981.282 883.548 998.372 885.374 1014.29 885.224C1016.21 891.633 1017.63 899.066 1022.14 904.257C1023.56 905.905 1025.72 906.917 1026.98 908.658C1027.13 908.861 1027.27 909.071 1027.41 909.277C1030.78 908.451 1036.47 906.688 1039.06 904.406C1040.81 902.864 1041.96 901.074 1041.93 898.69C1041.86 893.338 1035.27 885.617 1031.65 881.834L1038.14 880.057Z"/>
	<path fill="#E99B2A" transform="scale(0.999721 0.999721)" d="M1211.7 898.974C1221.76 898.063 1238.96 911.738 1256.82 908.524C1260.74 907.819 1265.74 905.815 1268.11 902.481C1269.35 904.235 1274.61 924.054 1274.5 926.036C1268.48 930.074 1255.68 931.841 1248.48 934.013C1214.05 944.393 1196.49 955.217 1159.02 950.815C1152.33 949.42 1140.6 947.275 1136.16 941.751C1138.1 939.014 1179.48 925.27 1188.98 917.08C1189.09 916.989 1189.19 916.895 1189.29 916.802C1195.65 920.845 1200.42 925.581 1207.56 928.912C1212.91 931.405 1218.71 932.895 1224.45 930.707C1227.76 929.441 1233.62 927.017 1234.81 923.389C1235.25 922.061 1235.09 920.869 1234.48 919.628C1230.98 912.446 1211.4 908.167 1203.98 905.818C1206.61 903.66 1209.48 901.558 1211.7 898.974Z"/>
	<path fill="#E99B2A" transform="scale(0.999721 0.999721)" d="M1202.68 181.054C1203.07 180.992 1203.65 180.883 1204.07 180.862C1221.01 179.989 1238.94 188.741 1251.13 199.842C1263.82 211.402 1276.36 230.059 1277.06 247.629C1277.41 256.34 1274.33 268.486 1268.1 274.851C1265.73 277.273 1264.02 277.669 1260.69 277.714C1249.36 273.132 1249.86 266.252 1241.86 260.105Q1243.11 256.756 1243.53 253.204C1244.65 244.116 1243.78 233.846 1237.81 226.466C1231.53 218.694 1222.88 217.294 1213.54 216.392C1212.44 212.289 1192.31 189.545 1187.87 186.883C1192.43 186.174 1199.56 184.669 1202.68 181.054Z"/>
	<path fill="#FDF7E9" transform="scale(0.999721 0.999721)" d="M1173.64 190.158C1174.74 190.418 1175.63 190.775 1176.55 191.449C1179.7 193.77 1205.07 215.407 1206.54 217.514C1205.97 218.013 1206.26 217.844 1205.52 218.136C1202.96 219.153 1200.51 220.302 1198.07 221.579C1191.68 224.921 1187.87 229.458 1183.81 235.381C1166.5 260.64 1171.19 292.91 1174.88 321.41C1175.46 325.881 1178.16 333.295 1176.84 337.479C1165.33 338.406 1154.1 340.465 1142.68 342.104C1142.88 341.717 1143.16 341.238 1143.27 340.799C1144.22 337.206 1142.28 326.456 1140.37 323.228C1141.87 317.061 1137.63 304.505 1137.83 296.977C1138.23 282.194 1144.72 262.621 1143.24 249.29C1142.13 239.234 1135.77 226.66 1127.77 220.245C1132.69 217.512 1136.44 209.931 1141.7 208.904C1144.07 211.489 1145.21 219.783 1145.4 223.374C1145.59 226.982 1144.11 227.237 1141.95 229.668C1142.49 234.801 1145.37 230.966 1147.16 233.772C1148.82 236.381 1147.46 239.875 1150.01 242.435C1151.23 242.865 1151.95 242.935 1153.22 242.586C1160.48 240.583 1167.87 230.689 1171.29 224.344C1176.93 213.891 1176.9 201.378 1173.64 190.158Z"/>
	<path fill="#796447" transform="scale(0.999721 0.999721)" d="M1079.88 168.866C1079.81 168.539 1079.75 168.211 1079.67 167.884C1076.91 155.842 1068.41 145.002 1076.26 132.569C1077.79 130.148 1079.82 128.367 1082.73 127.929C1091.62 126.586 1104.27 134.739 1110.84 140.045C1120.13 147.547 1128.18 157.117 1138.06 163.798C1143.8 167.686 1161.74 176.66 1165.21 180.576C1170.31 185.84 1171.49 198.313 1171.33 205.274C1171.09 215.525 1166.13 226.001 1158.7 233.02C1156.52 235.077 1154.36 236.489 1151.63 237.723C1153.13 233.825 1147.57 206.1 1145.63 201.652C1145.27 200.842 1144.84 200.327 1144.27 199.673C1144.06 199.427 1143.86 199.171 1143.65 198.926C1143.5 198.755 1143.35 198.592 1143.2 198.425C1140.4 204.339 1126.42 216.583 1119.94 218.693C1118.15 219.276 1116.45 219.454 1114.77 218.455C1111.2 216.335 1108.66 212.466 1105.54 209.776L1109.23 209.849C1111.52 209.88 1112.83 209.607 1114.51 207.986C1119.55 203.11 1125.15 192.805 1125.33 185.683L1124.54 185.342C1118.1 190.117 1117.24 199.769 1110.83 204.85Q1107.34 205 1103.85 205.21C1098.38 201.432 1087.58 196.001 1085 190.005C1084.39 185.088 1090.39 182.149 1085.8 178.023C1085.67 177.955 1085.54 177.904 1085.43 177.82C1082.45 175.564 1080.53 172.509 1079.88 168.866Z"/>
	<path fill="#291802" transform="scale(0.999721 0.999721)" d="M1079.88 168.866C1080.16 168.882 1080.44 168.908 1080.72 168.915C1081.64 168.941 1082.01 168.88 1082.83 168.524C1084.75 169.249 1085.83 169.301 1086.97 171.051C1086.78 172.901 1086.8 175.001 1085.66 176.532L1085.8 178.023C1085.67 177.955 1085.54 177.904 1085.43 177.82C1082.45 175.564 1080.53 172.509 1079.88 168.866Z"/>
	<path fill="#291802" transform="scale(0.999721 0.999721)" d="M1088.87 148.835C1090.82 148.601 1093.16 148.188 1095.1 148.653C1096.98 149.103 1097.89 149.423 1098.92 151.02C1098.02 152.465 1096.76 152.779 1095.25 153.357C1094.29 153.576 1093.29 153.811 1092.29 153.879C1090.48 154.004 1089.31 153.629 1087.91 152.52C1087.64 150.65 1087.98 150.432 1088.87 148.835Z"/>
	<path fill="#291802" transform="scale(0.999721 0.999721)" d="M1103.88 164.232C1104.9 164.027 1105.6 163.874 1106.65 163.995C1107.68 164.113 1107.7 164.595 1108.28 165.377C1108.54 167.098 1108.57 168.452 1107.78 170.051Q1107.62 170.374 1107.42 170.679Q1107.23 170.984 1107 171.267Q1106.77 171.55 1106.52 171.808Q1106.27 172.066 1105.99 172.297Q1105.71 172.527 1105.4 172.728Q1105.1 172.928 1104.78 173.096Q1104.46 173.264 1104.12 173.398Q1103.79 173.532 1103.44 173.631C1100.96 174.354 1099.13 173.13 1097.04 171.955C1096.32 169.334 1095.92 167.819 1097.09 165.254C1098.82 165.249 1100.96 167.9 1102.68 168.779C1103.8 167.174 1103.7 166.155 1103.88 164.232Z"/>
	<path fill="#E99B2A" transform="scale(0.999721 0.999721)" d="M1177.44 55.6821C1178.59 55.5749 1179.82 55.4087 1180.97 55.4762C1182.87 55.5873 1184.2 56.4357 1185.36 57.9119C1195.13 70.423 1196.77 140.964 1194.67 158.188C1194.37 160.608 1194.14 162.896 1192.16 164.451C1191.3 164.472 1190.54 164.466 1189.69 164.327C1186.37 163.783 1183.1 162.3 1180.02 160.986C1162.88 153.683 1159.2 141.42 1148.41 127.188C1145.23 123.005 1139.71 114.523 1134.38 113.79L1133.67 114.664C1134.24 122.023 1145.58 127.742 1147.82 134.729C1147.9 134.981 1147.97 135.236 1148.04 135.49C1148.18 135.599 1148.33 135.701 1148.46 135.818C1151.37 138.331 1155.93 143.966 1156.26 147.803C1156.17 147.628 1156.09 147.443 1155.98 147.278C1153.53 143.581 1146.95 139.743 1143.32 137.002C1123.36 121.939 1109.84 111.261 1085.04 105.408C1085.4 104.658 1085.71 104.035 1086.22 103.368C1090.36 97.9123 1096.41 92.774 1101.76 88.5107C1124.08 70.712 1149.42 60.3919 1177.44 55.6821Z"/>
	<path fill="#E99B2A" transform="scale(0.999721 0.999721)" d="M1064.33 272.801L1067.13 272.512C1067.7 272.864 1067.91 272.938 1068.37 273.544C1070.79 276.747 1078.68 296.268 1080.85 301.007L1101.47 345.828C1105.83 355.144 1110.63 364.431 1114.58 373.92C1115.54 376.244 1116.53 378.311 1116.17 380.866C1111.57 383.013 1099.24 384.285 1093.6 385.476C1073.98 389.622 1054.47 394.915 1034.64 397.961C1034.67 397.467 1034.71 397.225 1034.68 396.755C1034.42 392.591 1031.52 386.86 1028.44 384.092C1026.79 382.613 1024.69 381.554 1022.42 381.881C1016.26 382.77 1017.3 387.414 1014.65 391.146C1014.51 391.336 1014.37 391.521 1014.23 391.709C1012.01 387.216 1009.7 382.033 1004.69 380.113C1002.97 379.453 1001.31 379.54 999.68 380.427C995.864 382.509 994.684 387.341 993.656 391.218C986.229 378.405 980.754 364.021 974.76 350.482C968.02 335.26 960.488 319.984 954.925 304.289C965.147 300.985 975.877 298.644 986.252 295.791C1002.05 291.446 1017.74 286.697 1033.52 282.272C1043.14 279.576 1055.58 277.424 1064.33 272.801Z"/>
	<path fill="#FDF7E9" transform="scale(0.999721 0.999721)" d="M1203.54 240.59Q1205.37 240.388 1207.2 240.283C1215.04 239.757 1222.3 240.37 1228.41 245.817C1233.11 250.01 1235.84 256.531 1237.67 262.428C1243.46 281.088 1247.26 321.088 1248.31 341.094C1249.76 368.559 1248.29 395.914 1242.22 422.766C1241.11 427.68 1239.99 434.791 1236.6 438.555C1225.07 445.969 1148.66 451.871 1131.67 450.901C1132.03 450.366 1132.19 450.194 1132.43 449.638C1134.12 445.764 1133.09 401.388 1131.48 396.628C1135.35 395.44 1144.47 388.994 1146.82 385.551C1151.18 383.719 1157.24 379.536 1160.44 376.067C1163.59 376.074 1166.98 375.795 1170.06 376.492C1181.26 379.026 1193.39 390.357 1198.5 400.384C1200.45 404.211 1201.36 411.356 1205.3 413.386C1206.96 413.047 1206.91 413.069 1207.93 411.711C1207.89 409.507 1207.22 407.539 1206.4 405.513C1201.98 394.549 1192.39 381.714 1181.24 377.057C1196.18 378.495 1200.72 382.308 1211.17 392.278C1212.79 393.821 1214.34 395.538 1216.51 396.243C1218.06 395.636 1217.96 395.697 1218.66 394.177C1218.58 393.467 1218.55 392.988 1218.17 392.362C1216.98 390.389 1214.63 388.393 1212.97 386.798C1204.87 379 1196.81 374.409 1185.61 372.739C1186.9 367.79 1185.67 362.28 1184.72 357.378C1185.71 356.277 1187.11 354.978 1187.68 353.602C1189.16 350.028 1183.77 341.708 1182.6 337.957C1179 326.369 1174.85 286.768 1176.37 274.21C1177.06 268.581 1179.05 263.124 1181.68 258.122C1186.75 248.466 1193.34 243.831 1203.54 240.59Z"/>
	<path fill="#8BB3AA" transform="scale(0.999721 0.999721)" d="M1251.04 648.928C1251.98 648.857 1252.5 648.935 1253.37 649.271C1254.43 655.182 1253.27 670.147 1250.05 675.063C1253.66 678.086 1256.15 683.608 1258.26 687.808C1280.37 731.969 1279.83 789.961 1278.57 838.466C1278.37 845.996 1280.17 857.547 1277.54 864.491C1276.15 868.145 1271.66 870.898 1268.2 872.349C1252.31 878.997 1229.87 877.624 1214.32 871.263C1213.44 870.218 1212.59 869.173 1212.3 867.799C1211.1 862.161 1211.45 855.415 1211.23 849.652C1210.77 837.136 1210.51 824.467 1208.94 812.037C1205.77 786.901 1201.78 761.885 1195.41 737.337C1191.93 723.919 1186.85 710.883 1183.74 697.38C1181.41 687.279 1181.78 673.522 1178.27 664.429C1192.38 663.495 1241.45 655.767 1251.04 648.928Z"/>
	<path fill="#8BB3AA" transform="scale(0.999721 0.999721)" d="M1155.99 454.914C1158.01 454.647 1159.52 454.348 1161.45 455.115C1162.61 460.503 1158.46 493.032 1157.94 501.098Q1156.72 517.803 1156.48 534.551Q1156.25 551.299 1157 568.031Q1157.75 584.764 1159.48 601.423Q1161.22 618.083 1163.93 634.611C1165.22 642.729 1165.95 652.46 1168.97 660.047C1169.09 660.345 1169.22 660.64 1169.34 660.939C1170.19 663.093 1171.8 663.774 1173.75 664.824L1174.57 665.257C1175.51 668.735 1175.6 672.631 1175.95 676.221C1177.97 697.266 1176.99 709.349 1171.87 729.896C1166.92 749.794 1157.77 768.571 1149.71 787.332Q1139.14 812.528 1129.05 837.916C1126.47 844.373 1118.68 872.492 1115.15 875.384C1109.35 880.146 1091.54 873.719 1084.74 872.101C1078.92 869.386 1072.63 867.733 1066.78 864.807C1063.67 863.254 1053.89 858.298 1054.32 853.895C1054.69 850.036 1068.57 818.593 1070.71 812.74Q1080.17 786.616 1087.58 759.836Q1092.53 742.27 1096.34 724.421Q1100.14 706.571 1102.78 688.513C1104.62 676.358 1105.29 663.903 1107.74 651.869C1110.63 637.668 1116.15 623.988 1119.77 609.952C1125.67 587.062 1130.02 563.719 1135.86 540.774C1140.09 524.105 1160.13 467.374 1155.99 454.914Z"/>
	<path fill="#FDF7E9" transform="scale(0.999721 0.999721)" d="M1247.22 289.614C1248.17 290.337 1248.52 290.968 1248.95 292.053C1252.14 300.255 1254.11 309.183 1256.8 317.586Q1266.21 346.179 1274.99 374.973C1295.35 441.925 1316.78 508.829 1324.15 578.733C1324.78 584.637 1327.19 595.417 1324.79 600.919C1324.71 601.428 1324.72 601.56 1324.43 602.076C1322.32 605.843 1316.29 609.722 1312.72 612.258C1289.28 628.935 1254.11 646.891 1225.49 651.405C1214.81 656.837 1185.4 658.768 1172.82 659.498C1173.23 658.553 1173.41 657.954 1173.26 656.907C1172.39 650.86 1170.67 644.814 1169.51 638.793C1167.44 627.997 1165.9 616.998 1164.51 606.091C1159.18 564.419 1160.96 520.235 1164.56 478.47C1165.07 472.596 1167.52 459.379 1166.04 454.319C1184.76 451.916 1224.57 451.565 1240.48 441.754C1241.25 441.027 1241.88 440.331 1242.4 439.41C1245.62 433.778 1246.8 425.996 1248.02 419.675C1254.82 384.729 1254.45 350.113 1250.63 314.818C1249.73 306.499 1249.16 297.751 1247.22 289.614Z"/>
	<path fill="#29140A" transform="scale(0.999721 0.999721)" d="M1219.41 500.436L1222.52 500.001C1226.32 501.645 1230.02 506.288 1233.45 508.855Q1243.63 516.547 1254.93 522.468C1261.06 525.64 1267.56 528.517 1274.32 530.03C1277.66 530.779 1283.31 530.431 1286.21 531.949C1286.53 532.12 1286.87 532.436 1287.14 532.66C1287.13 534.639 1286.84 534.717 1285.66 536.201C1285.51 536.234 1285.37 536.271 1285.23 536.299C1272.04 538.843 1245.95 523.76 1235.01 516.167C1229.7 512.479 1220.59 507.004 1219.41 500.436Z"/>
	<path fill="#29140A" transform="scale(0.999721 0.999721)" d="M1211.89 511.644C1213.11 511.511 1213.98 511.483 1215.05 512.182C1220.25 515.549 1226.63 523.109 1231.7 527.39C1242.91 536.861 1256.33 544.576 1270.99 546.957C1275.44 547.679 1280.11 547.479 1284.5 548.306C1286.13 548.612 1286.52 548.909 1287.39 550.29C1286.46 551.909 1285.96 551.916 1284.3 552.657C1280.55 553.301 1277.27 553.182 1273.52 552.648C1254.52 549.95 1238.92 539.818 1224.43 527.918C1220.34 524.565 1215.45 520.808 1212.51 516.37C1211.24 514.444 1211.47 513.756 1211.89 511.644Z"/>
</svg>
