<?xml version="1.0" encoding="utf-8" ?>
<svg xmlns="http://www.w3.org/2000/svg" xmlns:xlink="http://www.w3.org/1999/xlink" width="1434" height="1024">
	<path fill="#FDFAF1" transform="scale(0.999721 0.999721)" d="M0 0L1432.77 0C1433.55 1.35287 1433.84 2.273 1433.92 3.82991C1434.39 14.2948 1434 24.9358 1434 35.4235L1434 96.5893L1434.01 282.797L1434 835.994L1434 973.892C1434.01 983.184 1435.15 1015.65 1433.74 1021.9C1433.56 1022.7 1433.19 1023.31 1432.77 1024L0 1024L0 0Z"/>
	<path fill="#B63837" transform="scale(0.999721 0.999721)" d="M666.864 634.183C668.796 634.299 670.102 634.503 671.859 635.334C672.835 637.355 672.489 637.721 672.006 639.844C670.022 640.009 669.529 640.137 667.678 639.25C666.608 637.454 666.733 636.23 666.864 634.183Z"/>
	<path fill="#B63837" transform="scale(0.999721 0.999721)" d="M430.41 529.522C432.3 530.03 433.007 530.435 434.247 531.962C434.691 534.145 434.079 535.372 433.22 537.376C433.077 537.342 432.933 537.315 432.792 537.273C430.586 536.629 429.982 536.113 428.858 534.213C428.976 532.243 429.409 531.211 430.41 529.522Z"/>
	<path fill="#B63837" transform="scale(0.999721 0.999721)" d="M429.521 486.966C431.37 487.124 432.386 487.383 433.97 488.366C434.851 490.56 434.552 491.449 434.25 493.752C432.183 493.82 431.504 493.97 429.632 492.987C428.678 490.949 429.192 489.103 429.521 486.966Z"/>
	<path fill="#B63837" transform="scale(0.999721 0.999721)" d="M430.369 472.417C430.498 472.434 430.628 472.444 430.755 472.469C432.742 472.856 433.452 473.381 434.624 474.992C434.678 477.386 433.95 478.389 432.587 480.307C430.701 479.576 429.983 479.126 428.897 477.401C428.659 475.292 429.35 474.225 430.369 472.417Z"/>
	<path fill="#B63837" transform="scale(0.999721 0.999721)" d="M430.289 414.908C430.966 414.988 431.744 415.036 432.405 415.235C433.955 415.703 434.303 416.348 435.095 417.693C435.019 419.749 434.438 420.838 433.399 422.591C431.478 421.913 430.768 421.803 429.401 420.236C428.96 418.148 429.544 416.861 430.289 414.908Z"/>
	<path fill="#B63837" transform="scale(0.999721 0.999721)" d="M949.912 758.528C952.08 758.403 953.861 758.295 955.973 758.921C957.182 760.622 956.954 761.294 956.976 763.337C954.842 763.554 952.922 763.86 950.82 763.271C949.552 761.386 949.835 760.745 949.912 758.528Z"/>
	<path fill="#B63837" transform="scale(0.999721 0.999721)" d="M430.364 428.89C432.434 429.393 432.914 429.414 434.475 430.969C435.008 433.145 434.531 434.596 433.926 436.715C433.336 436.693 433.046 436.699 432.426 436.588C430.656 436.271 430.215 435.71 429.155 434.323C428.971 432.144 429.449 430.85 430.364 428.89Z"/>
	<path fill="#B63837" transform="scale(0.999721 0.999721)" d="M431.205 501.038C433.301 502.136 433.946 502.822 434.708 504.972C434.367 507.043 433.558 508.026 432.234 509.619C430.224 508.672 429.468 507.74 428.682 505.712C429.005 503.56 429.728 502.6 431.205 501.038Z"/>
	<path fill="#B63837" transform="scale(0.999721 0.999721)" d="M430.923 457.063C433.047 458.216 433.614 458.446 434.829 460.493C434.868 462.736 434.179 463.904 432.975 465.752C432.85 465.715 432.722 465.685 432.6 465.64C430.582 464.891 430.046 464.156 429.166 462.317C429.182 460.13 429.803 458.911 430.923 457.063Z"/>
	<path fill="#B63837" transform="scale(0.999721 0.999721)" d="M431.976 372.589C432.11 372.626 432.246 372.656 432.377 372.7C434.267 373.344 434.886 373.919 435.709 375.74C435.378 377.972 434.496 378.915 433.006 380.56C432.672 380.399 432.245 380.206 431.914 380.01C430.157 378.969 429.687 378.087 429.19 376.174C429.704 374.335 430.494 373.737 431.976 372.589Z"/>
	<path fill="#B63837" transform="scale(0.999721 0.999721)" d="M429.581 401.005C431.623 401.15 432.682 401.367 434.388 402.522C435.451 404.537 435.083 406.004 434.753 408.195C434.606 408.218 434.46 408.249 434.313 408.264C432.246 408.477 431.427 408.256 429.784 407.018C428.948 404.895 429.278 403.183 429.581 401.005Z"/>
	<path fill="#B63837" transform="scale(0.999721 0.999721)" d="M431.41 358.179C433.321 358.939 434.295 359.349 435.421 361.107C435.675 363.436 435.082 364.447 433.907 366.429C431.682 365.848 430.682 365.45 429.365 363.552C429.343 361.23 430.162 360.085 431.41 358.179Z"/>
	<path fill="#B63837" transform="scale(0.999721 0.999721)" d="M431.185 515.044C431.651 515.188 431.825 515.223 432.301 515.475C433.914 516.326 434.117 517.037 434.691 518.621C434.39 520.811 433.621 522.015 432.307 523.763C431.973 523.608 431.499 523.4 431.161 523.208C429.424 522.219 429.065 521.198 428.573 519.401C429.045 517.409 429.794 516.52 431.185 515.044Z"/>
	<path fill="#B63837" transform="scale(0.999721 0.999721)" d="M430.533 442.865C431.134 442.946 431.865 442.999 432.437 443.238C433.962 443.878 434.329 444.648 434.942 446.096C434.752 448.407 434.126 449.507 432.691 451.305C430.726 450.351 430.181 450.121 428.952 448.352C428.809 446.149 429.567 444.806 430.533 442.865Z"/>
	<path fill="#B63837" transform="scale(0.999721 0.999721)" d="M430.232 386.216C432.388 386.565 433.438 386.773 434.966 388.359C435.45 390.457 434.548 392.223 433.843 394.176C433.324 394.211 433.085 394.25 432.531 394.165C430.997 393.928 430.42 393.216 429.504 392.069C429.071 389.786 429.458 388.378 430.232 386.216Z"/>
	<path fill="#B63837" transform="scale(0.999721 0.999721)" d="M677.541 639.322C679.516 640.455 681.611 641.397 682.976 643.272C682.99 645.399 682.45 645.716 681.224 647.39C679.152 646.692 677.356 645.802 676.073 644.001C675.826 641.617 676.325 641.308 677.541 639.322Z"/>
	<path fill="#B63837" transform="scale(0.999721 0.999721)" d="M731.505 673.624C733.667 674.375 735.657 674.909 737.352 676.522C738.047 678.607 737.728 679.081 737.162 681.145C734.708 680.793 732.463 680.105 730.764 678.258C730.285 675.996 730.62 675.679 731.505 673.624Z"/>
	<path fill="#B63837" transform="scale(0.999721 0.999721)" d="M775.044 242.846C775.641 242.866 775.917 242.851 776.542 243.006C778.054 243.382 778.601 243.857 779.205 245.207C778.472 247.458 777.021 248.354 775.211 249.69C773.511 249.723 772.875 249.388 771.454 248.572L771.132 247.214C772.023 245.011 773.141 244.21 775.044 242.846Z"/>
	<path fill="#B63837" transform="scale(0.999721 0.999721)" d="M687.18 646.768C689.408 647.531 691.206 648.056 692.939 649.74C693.565 652.022 693.279 652.429 692.481 654.701C690.294 654.228 688.463 653.729 686.818 652.159C686.13 649.779 686.461 649.186 687.18 646.768Z"/>
	<path fill="#B63837" transform="scale(0.999721 0.999721)" d="M926.116 752.708C928.387 753.034 930.587 753.102 932.456 754.547C933.165 756.674 932.865 757.408 932.438 759.563C930.141 759.189 928.028 759.021 926.071 757.66C925.174 755.521 925.598 754.914 926.116 752.708Z"/>
	<path fill="#B63837" transform="scale(0.999721 0.999721)" d="M698.814 653.735C701.009 654.751 702.775 655.427 704.257 657.438C704.593 659.715 704.185 660.151 703.234 662.179C701.063 661.077 698.726 660.169 697.194 658.217C696.963 655.96 697.599 655.585 698.814 653.735Z"/>
	<path fill="#B63837" transform="scale(0.999721 0.999721)" d="M741.934 680.308C744.379 680.82 746.833 681.394 748.689 683.131C749.561 685.283 749.253 685.813 748.796 688.028C746.448 687.482 744.564 687.125 742.607 685.615C741.541 683.445 741.719 682.76 741.934 680.308Z"/>
	<path fill="#B63837" transform="scale(0.999721 0.999721)" d="M710.939 284.025C711.904 284.047 712.799 284.01 713.703 284.392C715.058 284.965 715.059 285.149 715.58 286.436C715.057 288.699 713.834 289.701 712.206 291.24C711.454 291.294 710.844 291.327 710.121 291.067C708.584 290.513 708.644 290.33 707.971 288.918C708.303 286.65 709.402 285.652 710.939 284.025Z"/>
	<path fill="#B63837" transform="scale(0.999721 0.999721)" d="M720.131 667.043C722.379 667.813 724.531 668.411 726.415 669.913C727.25 672.185 726.711 672.471 725.775 674.62C725.614 674.633 725.453 674.66 725.292 674.658C723.123 674.633 721.341 673.828 719.907 672.255C719.238 669.893 719.428 669.43 720.131 667.043Z"/>
	<path fill="#B63837" transform="scale(0.999721 0.999721)" d="M765.926 692.837C768.408 693.41 770.449 694.112 772.288 695.912C773.045 698.205 772.732 698.54 771.926 700.864C769.644 700.033 767.367 699.44 765.618 697.681C764.878 695.455 765.175 695.104 765.926 692.837Z"/>
	<path fill="#B63837" transform="scale(0.999721 0.999721)" d="M754.487 686.742C756.694 687.394 759.405 688.087 760.75 690.051C761.058 692.252 760.61 692.982 759.825 695.018C757.651 693.944 755.59 692.97 753.691 691.435C753.01 689.12 753.496 688.858 754.487 686.742Z"/>
	<path fill="#B63837" transform="scale(0.999721 0.999721)" d="M914.003 749.203C916.261 749.643 918.585 749.868 920.521 751.18C921.405 753.37 920.874 753.917 920.182 756.114C917.857 755.831 915.741 755.781 913.786 754.366C913.044 752.235 913.503 751.366 914.003 749.203Z"/>
	<path fill="#B63837" transform="scale(0.999721 0.999721)" d="M680.365 306.509C681.256 306.525 682.03 306.496 682.86 306.86C684.174 307.435 684.181 307.617 684.697 308.872C684.227 311.094 683.096 312.055 681.505 313.605C680.632 313.695 679.868 313.816 679.01 313.575C677.551 313.164 677.605 312.965 676.942 311.688C677.382 309.23 678.619 308.142 680.365 306.509Z"/>
	<path fill="#B63837" transform="scale(0.999721 0.999721)" d="M723.251 276.324C725.004 277.274 725.65 277.379 726.578 279.194C725.827 281.491 723.903 282.536 722.036 283.908C720.809 283.704 719.968 283.613 719.005 282.774C718.096 281.982 718.33 281.944 718.238 280.829C719.408 278.517 721.123 277.607 723.251 276.324Z"/>
	<path fill="#B63837" transform="scale(0.999721 0.999721)" d="M671.218 314.104C671.706 314.168 671.91 314.176 672.419 314.346C674.04 314.884 674.241 315.398 674.812 316.927C674.18 319.183 673.039 320.237 671.413 321.828C670.475 321.734 669.695 321.705 668.87 321.209C667.487 320.377 667.543 320.13 667.157 318.651C667.859 316.255 669.245 315.423 671.218 314.104Z"/>
	<path fill="#B63837" transform="scale(0.999721 0.999721)" d="M709.833 661.303C710.004 661.342 710.177 661.371 710.346 661.418C712.465 662.002 714.814 662.836 715.948 664.801C715.805 667.009 715.187 667.305 713.776 668.941C711.556 667.865 709.308 667.028 707.779 665.018C707.817 662.798 708.3 662.801 709.833 661.303Z"/>
	<path fill="#B63837" transform="scale(0.999721 0.999721)" d="M902.085 746.327C904.431 746.589 906.798 746.778 908.717 748.241C909.573 750.475 909.202 750.795 908.504 753.003C906.114 752.663 903.675 752.567 901.649 751.157C900.777 748.93 901.299 748.515 902.085 746.327Z"/>
	<path fill="#B63837" transform="scale(0.999721 0.999721)" d="M691.351 298.746C692.537 298.875 693.218 298.996 694.219 299.684C695.359 300.468 695.101 300.609 695.363 301.883C694.403 304.202 692.784 305.158 690.82 306.565C689.014 305.543 688.304 305.361 687.296 303.498C687.876 301.304 689.686 300.156 691.351 298.746Z"/>
	<path fill="#B63837" transform="scale(0.999721 0.999721)" d="M937.726 755.597C940.605 755.577 942.89 755.642 945.15 757.511C945.405 759.453 945.053 760.044 944.356 761.831C942.01 761.559 939.732 761.518 937.698 760.215C936.842 758.199 937.229 757.676 937.726 755.597Z"/>
	<path fill="#B63837" transform="scale(0.999721 0.999721)" d="M733.644 269.408C734.288 269.61 734.688 269.831 735.186 270.292C736.436 271.449 736.464 271.449 736.534 273.186C735.172 275.35 733.533 276.158 731.354 277.303C730.97 277.132 730.839 277.091 730.451 276.819C728.934 275.754 728.686 275.356 728.416 273.546C729.747 271.397 731.503 270.59 733.644 269.408Z"/>
	<path fill="#B63837" transform="scale(0.999721 0.999721)" d="M877.314 738.457C879.172 738.913 882.426 739.387 883.829 740.707C885.375 742.162 885.04 743.609 885.056 745.545C882.523 745.697 879.718 745.443 877.708 743.812C876.703 741.555 876.936 740.944 877.314 738.457Z"/>
	<path fill="#B63837" transform="scale(0.999721 0.999721)" d="M802.348 709.7C804.674 710.589 806.801 711.258 808.639 713.01C809.462 715.072 809.118 715.497 808.576 717.586C806.091 716.989 803.494 716.681 801.601 714.854C800.995 712.6 801.575 711.856 802.348 709.7Z"/>
	<path fill="#B63837" transform="scale(0.999721 0.999721)" d="M754.105 256.088C755.182 256.302 755.857 256.528 756.715 257.202C757.748 258.014 757.499 257.98 757.669 259.18C756.516 261.424 754.471 262.534 752.447 263.923C751.22 263.799 750.416 263.02 749.471 262.298L749.317 260.818C750.409 258.567 752.139 257.511 754.105 256.088Z"/>
	<path fill="#B63837" transform="scale(0.999721 0.999721)" d="M800.878 229.241C801.852 229.451 802.275 229.987 803.014 230.625L802.873 232.274C801.149 234.551 798.884 235.722 796.456 237.103C795.073 235.627 794.422 235.311 794.166 233.259C795.568 231.187 798.654 230.264 800.878 229.241Z"/>
	<path fill="#B63837" transform="scale(0.999721 0.999721)" d="M765.181 249.036C765.681 249.249 765.879 249.309 766.369 249.653C767.789 250.654 768.013 251.21 768.129 252.874C766.819 255.055 765.007 255.924 762.874 257.159C761.984 256.861 762.215 257.031 761.569 256.516C760.299 255.503 760.16 255.478 759.93 253.853C761.172 251.591 763.114 250.468 765.181 249.036Z"/>
	<path fill="#B63837" transform="scale(0.999721 0.999721)" d="M741.774 263.412C742.483 263.341 743.241 263.233 743.959 263.26C745.62 263.324 746.059 263.498 747.112 264.761C746.555 267.068 744.827 268.194 743.103 269.672C741.095 270.004 740.801 270.243 738.936 269.259L738.631 267.617C739.224 265.48 740.064 264.773 741.774 263.412Z"/>
	<path fill="#B63837" transform="scale(0.999721 0.999721)" d="M777.548 698.605C779.913 699.294 782.215 699.751 784.124 701.388C785.01 703.653 784.46 704.232 783.739 706.494C781.391 705.663 778.965 705.041 777.106 703.319C776.312 701.09 776.752 700.759 777.548 698.605Z"/>
	<path fill="#B63837" transform="scale(0.999721 0.999721)" d="M788.297 235.768C789.438 236.172 790.193 236.885 791.092 237.661L791.195 239.152C789.749 241.253 787.387 242.213 785.191 243.391C783.708 242.956 783.219 242.496 782.189 241.418L782.309 239.986C783.899 237.939 786.062 236.977 788.297 235.768Z"/>
	<path fill="#B63837" transform="scale(0.999721 0.999721)" d="M890.606 742.127C892.871 742.933 895.163 743.48 896.837 745.289C897.193 747.298 896.748 747.81 895.951 749.641C893.497 749.039 890.632 748.904 888.907 746.909C888.846 744.62 889.45 744.051 890.606 742.127Z"/>
	<path fill="#B63837" transform="scale(0.999721 0.999721)" d="M789.546 704.145C792.022 704.874 794.464 705.38 796.462 707.093C797.251 709.318 796.962 709.789 796.336 712.111C793.875 711.507 791.143 710.811 789.287 709.038C788.44 706.79 788.779 706.47 789.546 704.145Z"/>
	<path fill="#B63837" transform="scale(0.999721 0.999721)" d="M701.281 290.992C702.211 291.112 703.021 291.167 703.841 291.656C705.201 292.466 705.131 292.687 705.494 294.142C704.662 296.417 703.323 297.459 701.552 298.99C700.751 298.942 700.116 298.892 699.397 298.499C698.043 297.76 698.012 297.629 697.552 296.241C698.211 293.802 699.528 292.681 701.281 290.992Z"/>
	<path fill="#B63837" transform="scale(0.999721 0.999721)" d="M813.7 715.409C816.398 715.956 819.089 716.264 821.375 717.888C822.639 720.026 822.288 720.222 821.795 722.558C821.24 722.674 821.105 722.733 820.459 722.69C818.629 722.568 815.996 721.828 814.758 720.37C813.218 718.556 813.518 717.649 813.7 715.409Z"/>
	<path fill="#B63837" transform="scale(0.999721 0.999721)" d="M812.727 222.605C813.35 222.949 813.86 223.268 814.348 223.795C815.408 224.942 815.391 224.95 815.328 226.438C813.62 228.455 810.769 229.246 808.375 230.237C806.954 229.961 806.665 229.576 805.6 228.642C805.755 228.053 805.802 227.733 806.05 227.212C807.295 224.602 810.185 223.493 812.727 222.605Z"/>
	<path fill="#B63837" transform="scale(0.999721 0.999721)" d="M852.555 729.634C855.071 730.251 857.502 730.696 859.687 732.157C860.65 734.285 860.367 734.951 860.056 737.213C857.485 736.952 854.054 736.584 852.24 734.613C851.58 732.368 851.921 731.823 852.555 729.634Z"/>
	<path fill="#B63837" transform="scale(0.999721 0.999721)" d="M826.983 720.059C829.643 720.801 832.791 721.272 834.849 723.194C835.584 725.334 835.069 725.574 834.13 727.553C833.424 727.719 833.34 727.784 832.501 727.721C830.836 727.598 828.351 726.496 827.303 725.149C825.913 723.362 826.573 722.07 826.983 720.059Z"/>
	<path fill="#B63837" transform="scale(0.999721 0.999721)" d="M839.965 725.15C842.448 725.778 845.252 726.125 847.141 727.95C847.907 730.242 847.382 730.836 846.632 733.075C844.017 732.348 841.262 731.904 839.263 729.967C838.725 727.755 839.174 727.228 839.965 725.15Z"/>
	<path fill="#B63837" transform="scale(0.999721 0.999721)" d="M864.524 734.307C867.163 734.514 870.583 734.837 872.528 736.728C873.27 738.924 872.87 739.317 872.15 741.451C871.471 741.577 871.399 741.62 870.597 741.592C868.815 741.53 866.326 741.02 865.19 739.5C863.88 737.749 864.336 736.329 864.524 734.307Z"/>
	<path fill="#B63837" transform="scale(0.999721 0.999721)" d="M824.996 216.269C826.437 216.412 827.083 216.815 828.273 217.568L828.294 218.906C826.421 221.26 823.462 222.556 820.869 223.983C819.688 223.549 818.855 222.956 817.825 222.256L817.573 220.846C819.395 218.549 822.4 217.512 824.996 216.269Z"/>
	<path fill="#B63837" transform="scale(0.999721 0.999721)" d="M838.781 208.762L840.859 208.524C840.882 210.383 841.096 212.86 839.743 214.311C838.508 215.636 834.233 217.443 832.414 217.414C831.301 217.396 831.194 216.845 830.475 216.072L830.544 214.461C832.363 211.949 835.761 210.848 838.31 209.092L838.781 208.762Z"/>
	<path fill="#B63837" transform="scale(0.999721 0.999721)" d="M849.334 203.606C851.664 202.638 853.686 201.549 856.268 201.849C857.421 202.482 858.624 203.043 859.578 203.963C857.438 205.509 855.059 206.988 853.125 208.779C852.913 208.811 852.702 208.841 852.49 208.876C847.51 209.693 847.118 212.2 842.229 209.435L846.63 208.548C848.464 206.961 848.613 205.858 849.334 203.606Z"/>
	<path fill="#0F0F0F" transform="scale(0.999721 0.999721)" d="M847.626 149.375C849.361 135.948 853.382 124.604 862.02 113.935C872.493 101 889.165 92.6819 905.741 91.0967C908.644 90.8191 911.141 90.5069 913.479 92.4553L913.454 94.8355C894.358 96.3833 878.581 100.958 865.651 116.082C856.488 126.8 850.951 140.857 851.685 155.039C838.546 151.539 825.658 151.914 813.586 158.851C803.618 164.578 795.861 173.735 792.855 184.931C791.061 191.612 791.564 197.528 792.93 204.213C808.145 204.82 834.879 205.863 849.334 203.606C848.613 205.858 848.464 206.961 846.63 208.548L842.229 209.435L840.859 208.524L838.781 208.762C825.199 209.49 810.637 209.154 797.046 208.658C794.164 208.553 791.687 208.273 789.731 205.912C786.374 201.862 786.895 194.863 787.55 189.98C789.253 177.3 796.288 166.365 806.464 158.746C818.667 149.61 832.806 147.238 847.626 149.375Z"/>
	<path fill="#0F0F0F" transform="scale(0.999721 0.999721)" d="M424.74 278.95C430.42 278.328 435.826 278.493 441.445 279.554C450.012 281.171 464.35 286.099 469.21 293.927C470.419 295.874 470.835 298.061 470.216 300.285C469.306 303.558 466.2 307.331 463.13 308.8C456.805 311.826 451.102 304.494 446.198 301.702C444.496 300.733 442.494 300.151 440.638 299.544C425.714 296.324 418.875 302.199 406.304 309.282C402.096 309.173 399.673 308.533 396.189 306.127C394.67 305.079 393.576 303.758 393.333 301.876C392.976 299.108 394.391 296.133 395.944 293.934C402.184 285.097 414.495 280.601 424.74 278.95Z"/>
	<path fill="#FDBD52" transform="scale(0.999721 0.999721)" d="M425.207 283.16C425.438 283.131 425.668 283.097 425.9 283.074C437.653 281.915 451.338 283.756 460.662 291.642C463.223 293.809 466.247 297.21 466.225 300.751C466.213 302.591 465.553 303.211 464.296 304.421C457.112 307.03 452.448 300.623 446.858 297.444C444.685 296.208 442.026 295.572 439.63 294.887C426.403 292.568 419.989 297.572 408.852 303.107C406.163 304.443 403.628 305.519 400.637 304.522C399.295 303.25 398.084 302.001 397.818 300.083C397.621 298.653 398.179 297.157 399.011 296.013C404.261 288.785 416.751 284.441 425.207 283.16Z"/>
	<path fill="#0F0F0F" transform="scale(0.999721 0.999721)" d="M429.193 304.686C434.102 304.606 438.973 304.846 443.357 307.269C448.58 310.156 452.105 315.162 453.7 320.856C455.51 327.317 454.967 334.71 451.565 340.567C447.871 346.928 442.611 349.826 435.699 351.6C430.662 351.879 426.296 351.692 421.712 349.373C416.656 346.815 413.034 342.375 411.287 337.009C409.213 330.636 409.661 323.139 412.744 317.16C416.326 310.215 422.012 307.029 429.193 304.686Z"/>
	<path fill="#FDBD52" transform="scale(0.999721 0.999721)" d="M430.731 308.457C434.409 308.274 437.672 308.59 441.015 310.342C445.593 312.741 448.742 317.028 450.09 321.96C451.59 327.451 450.885 333.637 447.976 338.552C444.797 343.923 440.677 346.019 434.806 347.598C430.428 347.666 426.822 347.539 422.896 345.288C418.547 342.795 415.559 338.701 414.352 333.851C412.97 328.296 413.959 322.055 417.032 317.223C420.327 312.041 424.91 309.812 430.731 308.457Z"/>
	<path fill="#0F0F0F" transform="scale(0.999721 0.999721)" d="M425.669 251.718C429.062 251.348 432.574 251.297 435.98 251.452C449.312 252.057 473.392 258.601 482.562 269.106C484.477 271.301 485.607 273.834 485.342 276.786Q485.294 277.303 485.196 277.812Q485.098 278.322 484.951 278.819Q484.804 279.317 484.609 279.798Q484.413 280.279 484.172 280.738Q483.931 281.198 483.646 281.631Q483.362 282.065 483.036 282.469Q482.71 282.873 482.347 283.243Q481.983 283.613 481.585 283.946C473.209 290.897 461.668 279.136 453.756 275.664C448.023 273.147 442.229 272.086 436.047 271.364C420.176 271.741 412.766 272.534 399.6 281.698C396.731 283.695 393.461 286.42 390.101 287.438C387.852 288.119 385.35 287.331 383.397 286.163Q382.973 285.909 382.578 285.61Q382.183 285.312 381.822 284.974Q381.461 284.635 381.138 284.26Q380.815 283.885 380.533 283.478Q380.252 283.07 380.016 282.636Q379.78 282.201 379.591 281.743Q379.402 281.285 379.263 280.81Q379.125 280.335 379.037 279.848C378.398 276.432 379.397 272.975 381.486 270.235C389.47 259.766 412.88 253.22 425.669 251.718Z"/>
	<path fill="#FDBD52" transform="scale(0.999721 0.999721)" d="M424.331 255.906C424.529 255.873 424.726 255.832 424.926 255.806C442.359 253.596 462.749 259.215 476.885 269.541C479.401 271.379 481.224 272.762 481.731 275.98C481.329 278.016 480.532 279.699 478.775 280.935C473.133 284.902 461.201 274.064 455.579 271.7C450.669 269.635 444.962 268.455 439.713 267.762C425.745 265.694 411.394 269.137 399.537 276.628C395.639 279.091 392.153 282.134 388.254 284.638C386.114 283.066 383.305 281.345 382.929 278.503C382.638 276.299 383.664 274.211 385.036 272.552C393.315 262.54 412.011 257.532 424.331 255.906Z"/>
	<path fill="#A35125" transform="scale(0.999721 0.999721)" d="M509.626 507.085L537.403 507.094L537.141 621.818L509.715 621.736L509.626 507.085Z"/>
	<path fill="#A35125" transform="scale(0.999721 0.999721)" d="M605.538 359.396L633.466 359.316L633.121 485.114C624.252 486.053 614.545 485.261 605.584 485.26L605.538 359.396Z"/>
	<path fill="#A35125" transform="scale(0.999721 0.999721)" d="M607.577 505.188C622.508 503.851 635.192 507.363 648.484 513.779C648.753 521.808 648.568 529.898 648.581 537.935C643.698 535.979 639.069 533.425 634.188 531.453C624.002 527.339 613.365 526.119 603.077 530.61C594.608 534.309 588.269 541.604 585.083 550.215Q584.735 551.161 584.435 552.124Q584.134 553.087 583.881 554.063Q583.629 555.039 583.425 556.026Q583.22 557.014 583.065 558.01Q582.91 559.007 582.804 560.009Q582.698 561.012 582.642 562.019Q582.586 563.026 582.579 564.034Q582.573 565.042 582.616 566.05Q582.659 567.057 582.752 568.061Q582.845 569.066 582.987 570.064Q583.13 571.062 583.321 572.052Q583.513 573.042 583.753 574.022Q583.993 575.001 584.281 575.967Q584.569 576.934 584.904 577.885Q585.24 578.835 585.622 579.769Q586.004 580.702 586.431 581.615C590.247 589.767 596.674 595.868 605.22 598.817C619.856 603.869 633.805 598.148 646.991 591.862C647.106 591.924 647.243 591.957 647.337 592.048C649.692 594.32 648.424 611.249 648.375 615.394C641.688 619.313 634.912 621.816 627.204 622.859C609.795 625.213 590.963 622.561 576.72 611.687C565.259 602.937 557.488 588.661 555.618 574.43C553.396 557.525 557.079 540.205 567.739 526.704C577.571 514.251 591.995 507.099 607.577 505.188Z"/>
	<path fill="#A35125" transform="scale(0.999721 0.999721)" d="M831.539 506.79C834.405 506.61 837.295 506.429 840.168 506.463C853.422 506.621 869.803 509.135 879.372 519.073C885.858 525.808 889.109 535.772 888.817 545.037Q888.782 545.957 888.702 546.874Q888.621 547.791 888.496 548.702Q888.37 549.614 888.199 550.518Q888.028 551.423 887.812 552.318Q887.597 553.212 887.337 554.095Q887.077 554.978 886.774 555.847Q886.471 556.716 886.125 557.569Q885.779 558.422 885.391 559.257Q885.003 560.091 884.574 560.906Q884.145 561.72 883.676 562.512Q883.207 563.304 882.7 564.071Q882.192 564.839 881.647 565.581Q881.102 566.322 880.521 567.036Q879.94 567.749 879.324 568.433Q878.708 569.117 878.059 569.769Q877.41 570.422 876.729 571.041C863.95 582.636 844.8 582.666 828.598 582L828.602 589.692L828.55 620.704L801.716 620.667L801.712 507.324C811.615 506.699 821.66 507.811 831.539 506.79Z"/>
	<path fill="#FDFAF1" transform="scale(0.999721 0.999721)" d="M828.513 527.596C837.078 527.923 848.416 526.542 855.246 532.926C858.487 535.956 859.706 540.163 859.877 544.474C860.091 549.832 858.508 553.563 854.955 557.405C846.571 562.188 837.787 562.057 828.402 562.407Q828.336 545.001 828.513 527.596Z"/>
	<path fill="#A35125" transform="scale(0.999721 0.999721)" d="M847.588 358.195C858.139 356.552 870.289 359.306 880.462 362.115L880.397 389.242C870.179 383.737 856.443 381.743 845.037 383.742C835.157 385.474 826.417 390.797 820.67 399.068C813.794 408.964 812.186 421.575 814.363 433.262C816.028 442.195 820.531 450.856 828.259 455.951C838.45 462.671 851.227 461.637 862.623 459.353L862.626 426.532L887.731 426.537L887.718 444.235L887.685 477.637C876.835 482.052 866.06 485.713 854.29 486.747C837.107 488.256 818.021 484.523 804.598 473.128C792.259 462.654 786.215 448.355 784.838 432.478C783.189 413.451 787.45 393.86 800.058 379.12C812.246 364.87 829.532 359.71 847.588 358.195Z"/>
	<path fill="#A35125" transform="scale(0.999721 0.999721)" d="M496.88 359.442C519.441 359.688 554.158 355.57 572.936 368.937Q573.668 369.449 574.374 369.998Q575.079 370.547 575.756 371.131Q576.432 371.715 577.078 372.333Q577.724 372.95 578.338 373.6Q578.951 374.25 579.531 374.931Q580.11 375.611 580.654 376.32Q581.199 377.029 581.706 377.765Q582.213 378.501 582.682 379.262Q583.151 380.023 583.581 380.807Q584.011 381.591 584.4 382.395Q584.789 383.2 585.136 384.024Q585.484 384.847 585.789 385.687Q586.094 386.527 586.356 387.382Q586.618 388.237 586.836 389.104Q587.054 389.971 587.228 390.847Q587.401 391.724 587.53 392.609C589.181 403.44 586.669 414.77 580.091 423.577C571.131 435.571 558.179 439.785 543.946 441.806L524.914 441.882L524.733 485.195C515.463 485.071 506.179 485.152 496.907 485.134L496.88 359.442Z"/>
	<path fill="#FDFAF1" transform="scale(0.999721 0.999721)" d="M524.7 381.867C533.748 381.905 546.091 380.78 553.427 387.086C556.94 390.106 558.928 394.495 559.236 399.085C559.641 405.122 557.517 409.712 553.659 414.189C544.932 420.599 535.077 419.958 524.783 419.484C524.493 406.967 524.718 394.391 524.7 381.867Z"/>
	<path fill="#A35125" transform="scale(0.999721 0.999721)" d="M664.512 507.372L686.805 507.224Q704.428 530.33 722.503 553.085Q740.992 530.706 758.458 507.518L780.979 507.586L780.875 620.598L754.191 620.627L754.252 592.197L754.384 551.87C745.483 561.986 737.34 573.004 728.705 583.378C724.547 582.502 720.267 581.994 716.066 581.347C707.282 571.551 699.668 560.757 690.657 551.127C690.238 574.354 690.526 597.643 690.484 620.877L664.491 620.803L664.512 507.372Z"/>
	<path fill="#FDFAF1" transform="scale(0.999721 0.999721)" d="M913.454 94.8355C908.225 108.006 913.922 156.205 911.191 174.633C913.522 179.288 911.505 185.791 911.504 190.886C911.506 193.288 912.13 202.692 910.992 204.07C904.642 205.059 864.064 205.671 859.578 203.963C858.624 203.043 857.421 202.482 856.268 201.849C853.686 201.549 851.664 202.638 849.334 203.606C834.879 205.863 808.145 204.82 792.93 204.213C791.564 197.528 791.061 191.612 792.855 184.931C795.861 173.735 803.618 164.578 813.586 158.851C825.658 151.914 838.546 151.539 851.685 155.039C850.951 140.857 856.488 126.8 865.651 116.082C878.581 100.958 894.358 96.3833 913.454 94.8355Z"/>
	<path fill="#B63837" transform="scale(0.999721 0.999721)" d="M878.184 191.736C879.079 192.034 879.817 192.732 880.568 193.296L880.573 194.755C878.838 196.678 876.803 197.395 874.476 198.383C873.022 197.516 872.595 197.525 872.022 195.878C873.436 193.752 875.96 192.851 878.184 191.736Z"/>
	<path fill="#B63837" transform="scale(0.999721 0.999721)" d="M863.589 197.328C865.152 197.259 866.194 197.497 867.668 198.002L868.218 199.261C867.122 201.409 865.55 202.179 863.559 203.371C863.325 203.353 863.09 203.348 862.857 203.317C861.135 203.086 860.407 203.022 859.368 201.641C860.134 199.533 861.844 198.592 863.589 197.328Z"/>
	<path fill="#B63837" transform="scale(0.999721 0.999721)" d="M890.287 186.336C890.537 186.31 890.786 186.281 891.036 186.259C892.852 186.103 894.242 186.337 895.598 187.519L895.201 188.945C893.072 191.255 891.064 191.746 888.129 192.549C886.378 192.553 885.124 192.595 883.551 191.768L883.594 190.819C885.388 188.686 887.861 187.592 890.287 186.336Z"/>
	<path fill="#B63837" transform="scale(0.999721 0.999721)" d="M911.191 174.633C913.522 179.288 911.505 185.791 911.504 190.886C910.992 188.349 911.14 185.744 911.154 183.166C907.861 184.145 901.105 188.49 898.212 187.914C897.531 186.581 897.631 186.101 897.685 184.639C900.386 180.463 906.858 181.581 910.952 179.492C910.584 177.717 910.811 176.37 911.191 174.633Z"/>
	<path fill="#A35125" transform="scale(0.999721 0.999721)" d="M657.925 359.416L680.296 359.326C686.363 367.898 694.033 375.887 700.772 383.981C713.552 399.331 726.132 414.887 739.353 429.861Q739.46 394.649 738.948 359.44L765.054 359.374C763.955 389.353 764.692 419.625 764.684 449.633C764.682 458.586 765.653 473.824 764.872 481.903C764.724 483.433 764.57 483.669 763.55 484.815L760.587 484.967L749.499 484.858Q728.222 457.916 705.703 432.004C698.757 423.922 692.276 415.252 684.673 407.776Q684.821 446.526 684.376 485.273C675.54 484.828 666.649 485.018 657.802 485.031L657.925 359.416Z"/>
	<path fill="#0F0F0F" transform="scale(0.999721 0.999721)" d="M1108.09 561.804C1113.04 553.841 1119.23 546.282 1128.79 543.973C1134.16 542.677 1139.45 543.681 1144.12 546.59C1147.82 548.903 1150.52 551.903 1152.85 555.566C1158.26 564.061 1161.98 574.256 1166.06 583.455Q1176.12 606.605 1187.08 629.343C1190.57 636.546 1195.08 646.704 1200.76 652.347C1206.14 657.686 1212.99 658.819 1218.86 662.753C1214.65 670.23 1198.24 676.159 1190.27 678.429C1185.9 679.671 1180.9 679.48 1176.8 680.909C1179.47 683.435 1180.88 687.079 1182.38 690.384Q1187.17 700.825 1191.15 711.599C1194.71 721.36 1221.42 799.974 1219.8 803.63C1218.73 806.059 1214.03 807.627 1211.7 808.666C1215.68 818.545 1213.8 837.183 1210.97 847.072C1206.93 861.178 1196.52 873.05 1183.7 879.987Q1181.84 880.993 1179.91 881.873Q1177.99 882.754 1176.01 883.505Q1174.03 884.256 1172.01 884.875Q1169.98 885.493 1167.92 885.976Q1165.86 886.459 1163.78 886.805Q1161.69 887.151 1159.58 887.357Q1157.48 887.564 1155.36 887.631Q1153.24 887.697 1151.13 887.624C1136.32 887.115 1121.75 881.571 1107.82 877.004C1098.24 873.866 1088.56 871.027 1079.02 867.771C1069.25 864.435 1059.54 860.627 1049.63 857.739C1047.81 861.879 1027.08 883.467 1022.86 888.212C1005.42 907.833 987.637 927.453 971.302 948.013C970.783 957.618 967.297 967.887 964.502 977.091C963.474 980.478 962.302 984.926 959.041 986.666C949.219 986.839 873.699 948.523 860.708 941.746C856.999 939.812 851.943 937.598 850.628 933.453C850.962 931.3 851.708 930.013 853.19 928.405C855.767 925.61 859.492 923.399 863.261 922.863C870.074 921.895 877.031 925.177 883.935 925.166C894.118 925.149 903.932 922.83 914.019 922.367C930.116 890.532 945.517 858.456 962.1 826.846C970.711 810.434 981.901 794.243 988.948 777.169C977.51 770.681 966.708 765.218 957.239 755.978C955.671 751.502 953.992 748.182 955.614 743.445C950.194 728.283 946.569 712.344 942.126 696.875C938.217 683.264 933.138 669.312 930.365 655.459C930.059 653.932 929.557 651.558 930.267 650.15C931.784 647.141 937.315 646.15 940.285 645.224C949.97 652.816 961.509 658.813 971.961 665.337C979.012 684.172 984.074 704.298 989.982 723.549L1001.36 723.833L1002.24 722.989C1002.51 721.011 1002.53 719.591 1004.03 718.166C1009.08 716.584 1065.74 730.694 1075.48 733.001C1078.85 728.651 1078.46 698.189 1079.97 689.837C1081.42 681.749 1084.53 674.067 1087.45 666.424C1086.68 666.118 1084.29 666.614 1083.26 666.612C1072.65 666.597 1062.76 660.174 1055.45 652.807C1052.86 650.191 1049.59 646.625 1049.75 642.696C1049.89 639.382 1052.98 639.405 1054.88 637.492C1055.01 637.356 1055.12 637.197 1055.25 637.05C1054.65 633.974 1052.66 631.184 1050.73 628.796C1050.26 624.492 1046.32 622.311 1043.67 619.08C1032.2 605.111 1035.42 589.652 1046.16 576.23C1055.17 564.98 1070.47 559.294 1084.48 557.842C1091.68 557.096 1102.27 556.013 1107.99 561.622C1108.04 561.67 1108.06 561.743 1108.09 561.804Z"/>
	<path fill="#B63837" transform="scale(0.999721 0.999721)" d="M952.118 943.513C954.294 944.396 958.004 945.485 959.418 947.354C960.151 948.324 959.721 949.134 959.55 950.278C959.334 950.317 959.119 950.365 958.901 950.396C956.76 950.705 954.476 950.007 952.819 948.684C951.673 946.48 951.831 946.02 952.118 943.513Z"/>
	<path fill="#9F4242" transform="scale(0.999721 0.999721)" d="M919.804 926.412C923.346 927.205 927.241 928.604 930.192 930.752C931.233 931.51 931.257 931.294 931.447 932.622C929.984 933.197 928.208 933.957 926.642 934.173C925.172 934.377 923.438 934.09 922.286 933.089C920.289 931.354 920.049 928.871 919.804 926.412Z"/>
	<path fill="#FDBD52" transform="scale(0.999721 0.999721)" d="M1011.23 749.33C1012.9 749.403 1014.84 749.341 1016.45 749.814C1017.85 750.225 1017.88 750.547 1018.51 751.762C1018.05 754.492 1016.98 757.02 1016.01 759.598L1015.65 760.265C1013.93 759.928 1013.26 759.396 1012.07 758.077C1010.25 756.061 1011.06 751.858 1011.23 749.33Z"/>
	<path fill="#FDBD52" transform="scale(0.999721 0.999721)" d="M1113.21 606.6C1115.8 606.724 1117.76 606.992 1119.6 608.991C1121.39 610.927 1122.08 613.75 1121.82 616.326C1121.5 619.499 1120 622.734 1117.39 624.632C1116.45 625.315 1115.53 625.756 1114.44 626.133C1115.3 621.647 1118.55 617.193 1117.74 612.455C1117.24 609.549 1115.52 608.185 1113.21 606.6Z"/>
	<path fill="#FDFAF1" transform="scale(0.999721 0.999721)" d="M1094.5 794.611C1097.23 795.004 1100.66 795.251 1103.18 796.39C1104.99 797.207 1105.36 797.838 1106.09 799.616C1105.88 801.755 1105.65 802.863 1104.37 804.607C1101.32 803.821 1096.74 803.218 1094.51 800.95C1093.36 798.773 1094.03 796.899 1094.5 794.611Z"/>
	<path fill="#FDFAF1" transform="scale(0.999721 0.999721)" d="M855.491 932.163C860.817 932.442 879.602 941.195 884.457 944.56C886.106 945.703 885.878 946.641 886.202 948.495C884.632 948.08 883.114 947.598 881.62 946.956C876.445 944.733 857.496 937.166 855.491 932.163Z"/>
	<path fill="#FDFAF1" transform="scale(0.999721 0.999721)" d="M916.536 925.091C916.944 925.188 917.269 925.645 917.57 925.934C917.207 927.374 916.676 928.987 916.543 930.463C916.314 933.008 918.468 934.564 920.018 936.358L919.234 937.086C914.979 937.335 910.834 937.269 906.578 937.048C905.66 937.133 904.926 936.97 904.023 936.814C904.337 936.207 904.48 935.985 904.702 935.401C905.556 933.158 903.767 930.465 902.801 928.476C907.19 926.094 912.131 929.305 916.193 925.435C916.31 925.323 916.422 925.205 916.536 925.091Z"/>
	<path fill="#FDFAF1" transform="scale(0.999721 0.999721)" d="M1003.86 749.776C1005.04 749.633 1005.63 749.592 1006.72 750.102C1007.56 753.799 1007.12 758.102 1007.61 761.982C1007.69 762.028 1007.78 762.073 1007.86 762.121C1013.38 765.381 1019.43 766.403 1025 769.298L1022.49 769.324C1014.84 767.073 1007.17 765.288 999.762 762.287C998.821 758.801 996.916 754.582 997.808 751.087C999.849 749.727 1001.48 749.925 1003.86 749.776Z"/>
	<path fill="#FDBD52" transform="scale(0.999721 0.999721)" d="M1098.94 658.731C1099.13 658.753 1099.32 658.758 1099.5 658.796C1101.15 659.137 1104.98 662.044 1105.95 663.482C1105.33 669.258 1104.03 676.608 1101.85 681.988L1100.26 682.564C1100.42 681.911 1100.44 681.951 1100.45 681.155C1100.57 676.42 1095.44 666.907 1092.03 663.617C1094.46 662.499 1097.25 660.809 1098.94 658.731Z"/>
	<path fill="#FDFAF1" transform="scale(0.999721 0.999721)" d="M959.339 746.815C966.226 749.346 982.559 760.07 987.936 765.036C988.07 766.377 988.29 767.568 988.626 768.874C990.175 770.145 990.123 770.389 992.221 770.261C993.097 769.223 993.857 768.437 994.957 767.617L996.684 767.944C995.917 769.775 995.636 771.279 993.935 772.41C988.266 772.711 981.898 768.283 977.219 765.426C969.238 760.554 961.665 756.425 959.339 746.815Z"/>
	<path fill="#FDFAF1" transform="scale(0.999721 0.999721)" d="M889.695 948.178C902.674 953.004 915.818 960.224 928.636 965.793C938.571 970.11 948.997 973.205 959.043 977.26C959.808 979.245 959.059 980.547 958.497 982.524C951.518 980.386 892.454 954.826 888.965 950.707L889.695 948.178Z"/>
	<path fill="#FDFAF1" transform="scale(0.999721 0.999721)" d="M861.259 927.642C868.435 926.794 875.387 928.48 882.536 929.022C887.608 929.406 892.76 928.98 897.832 928.702C898.727 930.643 901.932 935.636 901.766 937.451L899.87 937.606C895.208 938.103 892.535 938.853 888.759 941.733C879.77 936.975 869.886 933.753 861.042 928.761L861.259 927.642Z"/>
	<path fill="#9F4242" transform="scale(0.999721 0.999721)" d="M990.798 728.35C997.04 728.585 1003.5 729.679 1009.7 728.713C1014.58 731.177 1019.82 733.627 1023.69 737.585C1023.44 740.011 1021.54 743.376 1020.57 745.654C1017.06 746.131 1012.46 744.114 1008.69 744.163C1004.67 744.214 1000.3 745.662 996.177 746.028Q993.533 737.175 990.798 728.35Z"/>
	<path fill="#FDFAF1" transform="scale(0.999721 0.999721)" d="M937.308 649.481C942.184 650.373 962.945 665.089 968.911 669.002C975.992 696.315 985.694 722.914 992.038 750.447C992.734 753.467 994.645 759.78 993.099 762.253C991.849 761.152 991.145 760.516 990.508 758.95C987.973 752.726 986.599 745.668 984.764 739.183Q978.178 715.779 971.194 692.491C968.93 685.045 966.979 677.132 963.81 670.014C954.854 663.912 945.401 658.54 936.02 653.129L935.705 651.899L937.308 649.481Z"/>
	<path fill="#FDFAF1" transform="scale(0.999721 0.999721)" d="M999.852 768.281C1000.01 768.286 1000.17 768.288 1000.33 768.296C1008.82 768.753 1085.53 789.57 1089.51 793.903C1089.63 794.511 1089.81 795.168 1089.7 795.797C1089.29 798.056 1088.57 798.689 1086.81 799.864C1068 792.938 1047.25 788.73 1027.78 783.842C1018.49 781.509 1006.67 779.936 998.449 775.176L998.196 774.121C999.194 772.272 1000.01 770.874 999.89 768.72C999.882 768.573 999.865 768.427 999.852 768.281Z"/>
	<path fill="#FDFAF1" transform="scale(0.999721 0.999721)" d="M940.278 936.94L948.839 941.739C948.653 942.33 948.488 942.918 948.317 943.513C947.704 945.649 947.261 947.247 948.245 949.359C950.052 953.239 955.644 954.541 959.326 955.859C961.693 952.979 964.574 950.562 967.345 948.08C965.977 956.347 963.219 964.323 960.671 972.28C950.405 968.444 940.116 965.912 930.036 961.352C916.812 955.724 903.899 950.086 891.306 943.12C898.639 942.433 924.351 938.882 929.962 942.285C931.424 943.172 931.428 944.612 931.852 946.152L933.058 946.688C936.764 945.426 938.596 940.213 940.278 936.94Z"/>
	<path fill="#FDBD52" transform="scale(0.999721 0.999721)" d="M1090.16 671.33L1092.2 671.887C1095.33 675.709 1098.66 686.558 1099.1 691.4C1099.56 696.483 1092.82 737.694 1091.26 744.573C1090.97 745.804 1090.46 746.452 1089.66 747.386C1088.84 745.663 1087.09 743.307 1085.45 742.294C1084.3 741.583 1084.31 741.843 1083.08 742.092C1082.16 744.388 1084.08 746.608 1083.61 748.98C1083.55 749.238 1083.48 749.492 1083.42 749.748C1070.6 745.187 1056.84 741.588 1043.67 738.12C1038.2 736.679 1031.87 735.696 1026.65 733.682C1024.83 732.979 1023.1 731.581 1021.54 730.43C1018.21 728.207 1009.35 725.664 1007.72 722.665C1011.87 722.101 1018.48 724.942 1022.7 725.883C1034.62 728.544 1046.64 730.736 1058.52 733.591C1064.95 735.135 1071.38 737.546 1077.81 738.835C1078.87 739.048 1079.5 738.925 1080.5 738.584C1083.44 732.179 1082.51 709.666 1082.93 701.408C1083.49 690.365 1087.53 681.75 1090.16 671.33Z"/>
	<path fill="#FDFAF1" transform="scale(0.999721 0.999721)" d="M936.801 658.219C937.022 658.321 937.249 658.408 937.463 658.524C943.818 661.946 954.574 667.966 958.966 673.553C965.005 681.236 980.993 742.272 985.162 756.642C976.145 752.296 967.454 745.904 959.612 739.71C954.39 726.262 951.194 711.22 947.257 697.287C943.693 684.674 938.514 671.139 936.801 658.219Z"/>
	<path fill="#B63837" transform="scale(0.999721 0.999721)" d="M1059.48 639.514C1061.85 636.096 1049.06 617.99 1049 609.42C1048.97 605.73 1050.42 602.663 1053.06 600.113C1053.55 599.638 1054.11 599.183 1054.72 598.873C1055.44 598.504 1056.24 598.372 1057.04 598.25C1061.16 597.617 1069.14 607.725 1072.99 609.95C1080.73 614.412 1090.94 613.898 1099.56 614.161C1101.64 615.637 1101.37 618.7 1103.75 620.179C1106.72 617.401 1104.94 610.305 1108.63 607.862C1110.2 606.824 1111.4 606.157 1113.21 606.6C1115.52 608.185 1117.24 609.549 1117.74 612.455C1118.55 617.193 1115.3 621.647 1114.44 626.133L1113.99 626.746C1112.65 628.566 1111.61 629.221 1111.16 631.527C1111.89 632.55 1111.97 632.759 1113.31 632.92C1116.34 633.286 1121.98 631.747 1124.29 629.696C1124.86 629.192 1125.39 628.648 1125.88 628.073C1127.76 631.602 1132.35 639.454 1131.58 643.328C1131.36 643.467 1131.14 643.609 1130.92 643.746C1127.97 645.562 1124.19 646.516 1121.03 647.992C1114.59 650.992 1111.61 656.746 1106.92 661.595C1105.87 659.027 1103.98 657.536 1101.85 655.875C1105.67 651.574 1107.9 646.066 1108.42 640.325L1107.94 639.538C1105.01 641.502 1103.54 645.987 1101.67 648.967C1096.67 656.978 1088.05 663.576 1078.18 661.69C1071.38 660.39 1066.07 656.097 1060.68 652.054C1059.99 650.637 1058.43 649.58 1057.23 648.567C1056.28 646.828 1055.31 645.467 1055.51 643.434C1056.94 642.368 1058.04 641.329 1059.15 639.936L1059.48 639.514Z"/>
	<path fill="#9F4242" transform="scale(0.999721 0.999721)" d="M1059.48 639.514C1061.29 640.574 1062.21 641.164 1062.92 643.302C1063.37 644.66 1063.03 646.446 1062.26 647.618C1061.89 648.178 1061.13 648.754 1060.64 649.177C1059.63 648.781 1058.31 648.732 1057.23 648.567C1056.28 646.828 1055.31 645.467 1055.51 643.434C1056.94 642.368 1058.04 641.329 1059.15 639.936L1059.48 639.514Z"/>
	<path fill="#0F0F0F" transform="scale(0.999721 0.999721)" d="M1066.1 632.379C1068.5 629.959 1070.86 627.982 1074.27 627.194C1076.2 626.746 1077.38 626.62 1079.03 627.689L1078.45 628.826L1076.01 629.616L1073.06 630.663L1072.73 631.855C1074.55 634.362 1077.57 636.951 1078.26 639.917L1077.75 641.402L1075.38 642.463C1074.25 642.302 1073.84 642.008 1072.89 641.421C1071.08 638.883 1071.35 636.563 1070.9 633.604L1069.56 634.12L1069.92 633.585C1068.42 633.638 1067.74 633.356 1066.49 632.621C1066.36 632.542 1066.23 632.46 1066.1 632.379Z"/>
	<path fill="#9F4242" transform="scale(0.999721 0.999721)" d="M1064.9 640.786C1064.72 640.124 1064.55 639.463 1064.42 638.789C1063.86 635.966 1064.51 634.733 1066.1 632.379C1066.23 632.46 1066.36 632.542 1066.49 632.621C1067.74 633.356 1068.42 633.638 1069.92 633.585L1069.56 634.12L1070.9 633.604C1071.35 636.563 1071.08 638.883 1072.89 641.421C1073.84 642.008 1074.25 642.302 1075.38 642.463C1075.36 643.061 1075.28 643.438 1074.97 643.956C1073.73 645.995 1070.16 647.083 1067.87 647.608C1065.96 645.77 1067.25 643.425 1064.9 640.786Z"/>
	<path fill="#528E88" transform="scale(0.999721 0.999721)" d="M994.021 778.204C1002.96 781.799 1011.98 784.386 1021.25 786.939C992.169 831 964.963 876.999 942.417 924.789L939.481 931.185C932.948 927.54 926.613 923.897 919.858 920.647Q954.667 848.242 994.021 778.204Z"/>
	<path fill="#FDBD52" transform="scale(0.999721 0.999721)" d="M1131.93 647.713C1132.68 647.859 1134 647.928 1134.64 648.243C1137.26 649.528 1147.32 666.223 1151.61 670.202C1156.38 674.629 1171.3 679.327 1173.32 681.652L1173.41 682.154C1178.46 691.221 1182.68 701.585 1186.38 711.281C1190.02 720.814 1215.08 793.996 1214.75 798.487C1214.61 800.399 1213.55 801.942 1212.13 803.165C1200.98 812.771 1166.23 819.644 1151.4 818.289C1141.33 817.368 1116.78 813.566 1110.78 805.544C1109.8 804.237 1109.15 802.408 1109.54 800.772C1109.62 800.438 1110.3 798.336 1110.53 798.191C1112.61 796.914 1121.97 798.526 1126.27 795.754C1130.11 793.275 1132.99 786.42 1134.69 782.368C1141.07 767.182 1145.11 750.488 1150.22 734.81C1154.2 722.595 1159.5 710.274 1162.56 697.835C1163.07 695.782 1163.81 693.178 1162.67 691.261L1161.42 691.629C1154.85 699.41 1137.06 766.141 1130.35 782.126C1128.75 785.944 1126.08 791.759 1121.91 793.248C1107.45 798.418 1036.01 769.978 1020.28 762.42C1022.07 754.271 1026.82 747.065 1028.55 739.021C1038.66 740.581 1085.27 756.291 1088.84 755.662L1089.58 753.719C1090.97 753.079 1091.53 754.888 1093.33 754.999C1094.57 753.627 1095.08 752.386 1095.4 750.559C1096.48 744.496 1096.73 738.178 1097.57 732.057C1100.15 713.435 1104.09 686.744 1109.58 669.027C1114.13 654.357 1119.6 654.116 1131.93 647.713Z"/>
	<path fill="#528E88" transform="scale(0.999721 0.999721)" d="M1024.88 788.748C1030.67 788.393 1096.86 806.681 1106.32 809.78C1111.25 811.395 1115.87 813.894 1120.68 815.829C1128.94 819.148 1138.39 821.035 1147.22 821.96C1162.37 823.546 1195.57 820.078 1207.21 810.682C1207.29 810.802 1207.37 810.918 1207.44 811.04C1212.03 818.59 1209.39 834.299 1207.52 842.368C1204.49 855.475 1195.14 867.944 1183.66 874.9C1148.81 896.019 1105.83 868.911 1070.83 860.553L1070.04 860.366C1064.31 856.911 1054.76 854.643 1048.2 853.036C1047.47 855.719 1031.9 871.204 1028.79 874.606C1007.73 897.67 986.878 921.306 967.278 945.623C959.838 940.995 951.57 937.189 943.794 933.13C949.377 920.454 956.105 908.218 962.59 895.982Q982.074 859.465 1002.97 823.738C1007.72 815.614 1023.11 796.077 1024.88 788.748Z"/>
	<path fill="#0F0F0F" transform="scale(0.999721 0.999721)" d="M913.454 94.8355C914.658 92.4302 916.089 91.1405 918.385 89.8022C930.187 82.923 945.059 78.3129 957.757 73.188C975.559 66.0033 993.333 57.9413 1011.53 51.8241Q1017.35 49.8818 1023.41 48.8675C1027.07 48.2702 1033.71 53.3353 1036.42 55.4551C1046.65 63.4642 1056.11 72.7934 1065.93 81.3269C1076.12 90.1717 1087.12 98.6358 1096.76 108.038C1098.01 109.263 1099.27 110.601 1099.67 112.362C1099.72 112.574 1099.72 112.794 1099.74 113.009C1101.49 116.651 1101.49 129.827 1100.23 133.666C1100.05 134.227 1099.75 134.774 1099.45 135.281C1127.63 135.095 1155.37 133.539 1177.13 155.145C1189.4 167.332 1197.27 184.723 1197.32 202.121C1197.33 204.499 1197.34 206.82 1196.09 208.915C1211.44 209.767 1224.75 217.635 1234.9 228.946C1237.85 232.232 1243.82 239.889 1243.56 244.513C1243.55 244.699 1243.5 244.88 1243.46 245.064C1243.63 244.979 1243.81 244.896 1243.98 244.808C1249.33 242.065 1254.07 238.12 1259.44 235.247C1275.24 226.789 1295.42 224.983 1312.49 230.395C1326.37 234.794 1339.81 243.714 1346.54 256.972C1351.04 265.839 1351.89 275.468 1348.67 284.898C1345 295.678 1336.55 304.39 1326.36 309.284C1320.47 312.113 1314.34 313.67 1307.84 314.251C1290.29 315.82 1266.48 314.473 1248.31 314.398C1228.33 314.316 1207.66 315.46 1187.75 314.361C1183.72 314.138 1179.69 313.505 1175.87 312.134C1168.66 309.539 1165.46 305.844 1160.87 300.119C1152.34 300.223 1104.21 299.106 1099.88 301.489C1096.01 306.596 1094.18 313.048 1088.8 316.849C1082.99 320.945 993.334 355.079 984.156 357.515C981.146 356.839 977.986 356.246 975.319 354.628C969.206 350.921 917.144 310.824 914.905 307.507C912.956 304.62 912.111 300.627 911.745 297.195C910.8 288.317 911.414 278.762 911.41 269.811C911.402 249.48 911.845 229.101 911.495 208.777C893.011 208.414 870.912 210.193 853.125 208.779C855.059 206.988 857.438 205.509 859.578 203.963C864.064 205.671 904.642 205.059 910.992 204.07C912.13 202.692 911.506 193.288 911.504 190.886C911.505 185.791 913.522 179.288 911.191 174.633C913.922 156.205 908.225 108.006 913.454 94.8355Z"/>
	<path fill="#528E88" transform="scale(0.999721 0.999721)" d="M916.688 106.727C922.54 110.404 928.327 116.85 933.698 121.428C943.616 129.88 962.572 144.033 970.624 153.353L970.427 345.235C957.928 334.876 944.188 325.605 931.324 315.64C927.166 312.419 921.781 309.003 918.475 304.932C916.477 302.472 916.407 299.266 916.206 296.224C915.416 284.321 915.973 272.02 915.967 260.079L916.096 188.307L915.893 136.073C915.91 126.326 915.583 116.423 916.688 106.727Z"/>
	<path fill="#FDFAF1" transform="scale(0.999721 0.999721)" d="M1281.73 232.185C1284.47 231.867 1287.24 231.776 1290 231.7C1305.95 231.259 1322.76 236.153 1334.46 247.422C1341.31 254.015 1346.39 263.436 1346.51 273.094C1346.63 282.486 1342.43 291.373 1335.81 297.916Q1334.75 298.947 1333.62 299.902Q1332.49 300.857 1331.3 301.731Q1330.1 302.604 1328.85 303.392Q1327.6 304.18 1326.3 304.878Q1324.99 305.577 1323.64 306.182Q1322.29 306.788 1320.91 307.298Q1319.52 307.807 1318.1 308.219Q1316.68 308.63 1315.23 308.941C1302.95 311.677 1288.8 310.306 1276.19 310.265L1223.77 310.183C1211.38 310.184 1193.34 311.949 1181.54 309.534C1175.48 308.294 1168.72 305.306 1165.35 299.846C1163.25 296.447 1163.01 292.47 1164 288.666C1166.5 279.141 1174.66 271.201 1182.89 266.326C1199.74 256.349 1217.66 256.227 1236.03 261.025C1239.13 258.991 1241.49 254.168 1243.99 251.275C1253.48 240.279 1267.86 234.878 1281.73 232.185Z"/>
	<path fill="#FDFAF1" transform="scale(0.999721 0.999721)" d="M1117.77 139.031C1131.67 138.52 1146.66 141.033 1159.04 147.426C1173.82 155.058 1185.19 167.95 1190.21 183.886C1192.57 191.381 1195.37 204.779 1191.53 212.026Q1195.32 212.415 1199.1 212.944C1212.54 214.944 1226.83 224.117 1234.85 235C1237.38 238.44 1240.76 244.507 1240.14 248.857C1239.46 251.689 1236.19 254.307 1234.21 256.349C1220.92 250.165 1201.21 254.491 1187.9 258.803C1186.63 260.072 1184.19 261.051 1182.63 262.019C1174.98 266.758 1167.45 271.701 1163.28 279.99C1160.79 284.925 1161.1 291.472 1159.1 295.426C1158.97 295.672 1158.83 295.91 1158.7 296.152C1138.88 296.786 1118.92 296.289 1099.09 296.281C1099.46 295.668 1099.78 295.15 1099.92 294.436C1101.44 286.753 1100.37 255.013 1100.39 245.444L1100.46 179.443C1100.5 167.424 1100.94 155.305 1100.59 143.295C1100.54 141.748 1100.3 140.632 1099.52 139.292L1117.77 139.031Z"/>
	<path fill="#FDFAF1" transform="scale(0.999721 0.999721)" d="M1020.04 53.382C1022.46 53.2005 1024.72 53.4834 1026.98 54.4014C1032.4 56.597 1094.15 110.231 1095.82 114.197C1097.33 118.067 1096.67 277.138 1095.9 294.833C1095.78 297.611 1095.41 300.248 1094.31 302.821C1092.8 306.352 1089.88 310.92 1086.67 313.102C1078.82 318.432 1066.61 321.539 1057.72 324.99L988.64 351.837C987.057 352.14 985.429 352.477 983.819 352.577C981.489 352.723 978.698 352.23 976.95 350.571C975.237 348.945 975.15 346.535 974.978 344.329C974.184 334.17 974.704 323.68 974.702 313.482Q974.613 286.384 974.889 259.288L975.326 151.956C968.238 142.591 941.952 122.275 931.827 113.958C926.881 109.894 921.005 105.794 917.122 100.697C917.154 99.6863 917.217 98.6632 917.65 97.7314C918.826 95.1996 921.538 93.3239 923.932 92.0379C934.533 86.3445 946.835 82.3203 958.044 77.7366C978.52 69.3634 999.035 60.3188 1020.04 53.382Z"/>
	<path fill="#0F0F0F" transform="scale(0.999721 0.999721)" d="M1074.38 120.814C1076.91 120.475 1079.24 120.484 1081.66 121.432C1084.84 122.678 1087.2 125.396 1088.45 128.532C1090.69 134.13 1090.09 141.879 1087.7 147.34C1085.88 151.481 1082.82 154.772 1078.98 157.123C1072.93 160.835 1065.71 162.533 1059.13 165.104C1038.15 173.296 1016.95 180.951 995.862 188.856C994.149 189.56 992.17 189.885 990.344 189.514C988.458 189.13 987.023 188.218 985.981 186.582C982.562 181.209 983.5 170.467 984.888 164.531C985.774 160.746 987.527 156.792 990.581 154.27C995.37 150.316 1002.71 148.366 1008.48 146.168Q1027.44 138.91 1046.49 131.868C1055.27 128.676 1066.12 126.061 1073.94 121.105C1074.09 121.011 1074.23 120.911 1074.38 120.814Z"/>
	<path fill="#FDFAF1" transform="scale(0.999721 0.999721)" d="M1072.94 125.717C1075.38 125.286 1077.66 124.915 1080.04 125.817C1081.96 126.545 1083.34 127.861 1084.14 129.76C1086.02 134.224 1085.49 142.113 1083.47 146.507Q1083.23 147.022 1082.95 147.517Q1082.67 148.012 1082.35 148.485Q1082.04 148.958 1081.69 149.406Q1081.34 149.853 1080.95 150.273Q1080.57 150.693 1080.16 151.083Q1079.74 151.472 1079.3 151.83Q1078.86 152.187 1078.39 152.51Q1077.92 152.833 1077.43 153.12C1069.28 157.933 1058.81 160.875 1049.93 164.22Q1023.64 174.184 997.256 183.873C995.941 184.238 994.521 184.724 993.145 184.574C991.57 184.402 990.21 183.768 989.352 182.374C987.341 179.11 987.37 169.956 988.294 166.127C989.222 162.286 991.833 159.05 995.004 156.794C1000.16 153.124 1006.88 151.206 1012.75 148.996C1026.62 143.781 1061.99 132.514 1072.55 125.971C1072.68 125.889 1072.81 125.802 1072.94 125.717Z"/>
	<path fill="#0F0F0F" transform="scale(0.999721 0.999721)" d="M1073.1 167.039C1076.02 166.696 1079.75 166.941 1082.54 168.022Q1083.02 168.203 1083.47 168.432Q1083.93 168.66 1084.35 168.933Q1084.78 169.206 1085.18 169.522Q1085.58 169.837 1085.95 170.191Q1086.32 170.545 1086.64 170.934Q1086.97 171.323 1087.26 171.743Q1087.55 172.163 1087.79 172.61Q1088.03 173.058 1088.23 173.527C1090.46 178.725 1089.32 189 1087.05 194.179C1085.65 197.368 1083.31 200.315 1080.36 202.187C1071.62 207.725 1059.18 210.85 1049.46 214.449L996.566 234.313C993.606 235.213 990.621 235.75 987.792 234.063C985.687 232.808 984.614 230.616 984.076 228.301C981.666 217.943 985.169 207.091 990.612 198.389C997.352 194.876 1005.05 192.686 1012.18 189.994C1025.94 184.796 1039.66 179.468 1053.49 174.449C1059.63 172.223 1067.59 170.422 1073.1 167.039Z"/>
	<path fill="#FDFAF1" transform="scale(0.999721 0.999721)" d="M1071.45 171.944C1074.11 171.441 1076.78 170.885 1079.41 171.865C1081.78 172.747 1083.77 174.933 1084.74 177.234C1086.4 181.176 1085.85 185.955 1084.36 189.869C1082.91 193.72 1080.37 196.91 1076.89 199.132C1070.01 203.521 1060.98 205.493 1053.34 208.328C1035.07 215.11 1016.23 221.696 998.402 229.522C996.407 230.189 993.938 231.069 991.82 230.493C990.087 230.021 988.881 228.426 988.198 226.847C985.974 221.703 987.545 213.501 989.712 208.544C991.327 204.848 994.1 202.569 997.49 200.588C1004.76 196.338 1014.06 193.846 1021.95 190.906C1038.48 184.751 1055.15 178.684 1071.45 171.944Z"/>
	<path fill="#0F0F0F" transform="scale(0.999721 0.999721)" d="M1072.98 212.569C1075.64 212.428 1078.25 212.223 1080.82 213.068Q1081.4 213.264 1081.96 213.52Q1082.51 213.776 1083.04 214.088Q1083.57 214.4 1084.06 214.766Q1084.55 215.131 1085 215.546Q1085.45 215.961 1085.85 216.42Q1086.26 216.88 1086.61 217.379Q1086.97 217.878 1087.27 218.412Q1087.57 218.945 1087.81 219.507C1090.39 225.393 1089.49 234.649 1086.96 240.428C1085.57 243.614 1083.15 247.138 1080.2 249.061C1075.03 252.428 1059.45 256.839 1052.73 259.337C1034.46 266.139 1016.34 273.445 998.173 280.54C996.198 281.095 993.651 281.754 991.576 281.635C987.795 281.418 985.934 278.682 983.746 276.002C983.692 268.629 983.463 260.983 985.88 253.916C987.141 250.229 989.05 246.606 992.255 244.277C999.098 239.303 1009.97 236.825 1017.89 233.953C1028.9 229.965 1039.72 225.506 1050.65 221.341C1057.85 218.601 1065.66 216.232 1072.54 212.797C1072.69 212.722 1072.84 212.645 1072.98 212.569Z"/>
	<path fill="#FDFAF1" transform="scale(0.999721 0.999721)" d="M1074.52 216.771C1076.24 216.596 1077.65 216.615 1079.28 217.252C1081.44 218.099 1082.94 219.502 1083.74 221.704C1085.56 226.716 1085.01 234.858 1082.57 239.639C1081 242.704 1078.46 244.575 1075.51 246.153C1064.99 251.773 1047.45 257.088 1035.6 261.475C1022.52 266.315 1009.73 271.91 996.56 276.489C994.736 276.784 993.361 276.828 991.547 276.455C989.506 275.122 988.542 273.784 988.039 271.366C986.42 263.578 989.839 253.946 993.989 247.46C1003.49 242.477 1015.19 239.407 1025.3 235.611C1041.74 229.445 1057.97 222.588 1074.52 216.771Z"/>
	<path fill="#0F0F0F" transform="scale(0.999721 0.999721)" d="M1072.48 258.796C1075.5 258.436 1078.13 258.207 1081.08 259.204C1083.53 260.032 1085.78 261.562 1086.84 264.006C1089.97 271.199 1089.11 293.035 1085.78 300.245C1084.02 304.063 1081.29 306.63 1077.74 308.792C1068.99 314.113 1057.72 317.235 1048.13 320.852L997.245 339.908C995.966 340.328 994.623 340.794 993.268 340.841C989.382 340.977 987.079 338.279 984.543 335.77C982.92 325.498 982.918 310.36 985.915 300.422C986.883 297.215 988.538 292.977 991.353 290.966C996.437 287.335 1003.77 285.653 1009.58 283.442L1048.08 268.752C1055.96 265.755 1064.59 263.037 1072 259.058C1072.16 258.972 1072.32 258.883 1072.48 258.796Z"/>
	<path fill="#FDFAF1" transform="scale(0.999721 0.999721)" d="M1073.93 262.997C1075.05 262.832 1076.14 262.689 1077.27 262.816C1080.07 263.127 1081.62 264.685 1083.34 266.76C1085.28 273.064 1084.71 290.982 1082.11 297.028C1080.46 300.851 1077.72 303.88 1074.18 306.045C1066.85 310.53 1057.21 312.779 1049.12 315.785Q1021.8 325.873 994.589 336.256C992.621 335.886 990.313 334.813 989.175 333.094C986.217 328.627 987.52 309.165 988.887 303.925C989.783 300.488 991.513 296.933 994.378 294.726C999.791 290.556 1007.89 288.653 1014.31 286.271C1024.89 282.343 1035.31 278 1045.89 274.064C1054.77 270.758 1065.54 268.002 1073.58 263.216C1073.69 263.145 1073.81 263.07 1073.93 262.997Z"/>
	<path fill="#0F0F0F" transform="scale(0.999721 0.999721)" d="M1036.2 285.396C1038.88 284.925 1041.49 284.376 1043.99 285.786C1046.13 286.994 1047.48 289.05 1048.12 291.386C1049.3 295.672 1048.13 300.711 1045.86 304.47C1043.87 307.741 1041.57 309.875 1037.83 310.778C1037.13 311.057 1036.51 311.276 1035.74 311.24C1033.8 311.149 1031.55 310.291 1030.23 308.837C1028.14 306.541 1027.51 302.878 1027.64 299.882C1027.91 293.542 1031.95 289.532 1036.2 285.396Z"/>
	<path fill="#0F0F0F" transform="scale(0.999721 0.999721)" d="M1015.19 63.7577C1016.14 63.6353 1017.09 63.5263 1018.05 63.5278C1021.2 63.5328 1023.92 65.042 1026.45 66.7607C1038.77 75.1125 1054.43 91.0871 1066.39 101.387C1068.99 103.626 1072.51 105.265 1074.73 107.872C1075.87 109.204 1075.88 109.958 1075.63 111.607C1066.56 117.25 1054.16 120.652 1044.15 124.418C1028.7 130.229 1013.3 136.464 997.621 141.593C993.578 141.926 989.422 142.274 985.467 141.141C983.095 140.461 980.789 139.179 978.84 137.671C974.741 134.5 971.247 130.582 967.344 127.178C961.687 122.244 939.595 105.611 937.085 100.128C936.501 98.8538 936.574 97.7721 937.132 96.5048C937.695 95.2266 938.9 94.2882 940.086 93.6267C946.991 89.7728 955.778 87.2179 963.176 84.2745L1015.19 63.7577Z"/>
	<path fill="#FDFAF1" transform="scale(0.999721 0.999721)" d="M1017.72 67.4834C1018.86 67.6723 1020.03 67.902 1021.07 68.3964C1024.51 70.0201 1062.49 102.922 1066.8 107.209C1067.64 108.043 1067.93 108.728 1068.3 109.826C1063.75 113.717 1000.57 136.71 992.925 138.124C990.249 137.635 987.322 137.231 984.894 135.963C976.265 131.46 950.166 106.61 940.875 98.4484C963.438 87.6899 993.781 76.0243 1017.72 67.4834Z"/>
	<path fill="#0F0F0F" transform="scale(0.999721 0.999721)" d="M186.199 347.642C194.334 350.432 215.29 382.006 221.635 390.52Q227.38 387.417 233.592 385.41C248.556 380.563 267.39 379.44 281.736 386.853C291.785 392.045 299.786 401.126 303.219 411.951C307.193 424.481 304.814 434.995 298.856 446.311C300.828 448.206 302.642 450.258 304.487 452.275C302.035 454.868 299.488 456.979 296.618 459.096C293.718 469.79 290.248 477.684 280.884 484.157C275.893 487.607 264.626 488.088 261.459 491.496C267.303 496.821 276.474 498.059 282.565 503.851C294.346 515.052 296.965 535.448 305.648 549.034C312.033 545.068 318.572 540.615 325.282 537.257C327.56 536.117 332.321 536.2 333.822 534.909C342.108 527.782 344.752 509.015 354.14 502.475C359.708 502.127 398.023 503.762 401.314 506.173C404.547 508.541 405.449 518.27 405.969 522C403.203 525.752 393.584 539.502 393.492 543.655C393.433 546.274 395.9 547.758 395.23 550.792C393.174 560.1 384.75 565.195 380.172 572.82C377.291 577.618 371.9 593.21 367.892 595.501C363.4 598.069 335.656 589.173 328.854 587.862C320.886 594.369 312.794 600.051 302.434 601.678C305.039 608.416 323.4 658.395 322.511 662.508C321.959 665.064 319.713 665.964 317.627 667.133C323.381 687.709 330.25 708.119 336.463 728.585Q354.339 787.392 371.405 846.44C376.622 864.291 382.252 882.034 387.173 899.969Q382.795 901.678 378.503 903.595C379.784 907.089 381.025 911.453 383.416 914.364C392.12 924.96 416.551 916.529 428.934 923.224C432.27 925.027 434.55 927.519 435.647 931.185C436.325 933.454 436.76 936.528 435.634 938.619C429.302 941.439 421.449 942.693 414.718 944.483C395.231 949.666 375.503 954.06 356.175 959.812C352.954 941.948 355.043 929.735 348.704 911.303C345.267 911.937 341.856 912.932 338.467 913.794C335.448 907.884 333.406 901.045 331.02 894.824L316.554 857.115L279.242 763.236C274.654 751.737 270.578 739.969 265.605 728.638C264.064 746.551 269.421 765.287 267.22 783.271C266.049 792.849 244.222 839.298 239.381 850.516C230.461 871.188 222.245 892.375 212.831 912.801C210.916 914.24 209.545 913.953 207.248 914.037C205.626 915.031 205.352 915.276 204.65 917.044C200.114 928.457 233.696 942.498 238.258 953.499C240.112 957.969 238.541 963.18 236.494 967.336C236.105 968.125 235.377 969.641 234.411 969.809C231.39 970.334 162.304 943.91 158.095 940.788C156.745 934.52 172.41 911.193 175.154 902.366Q171.561 900.832 167.986 899.258C170.041 887.566 174.205 875.679 177.347 864.188Q186.26 832.638 194.108 800.806C196.351 792.075 200.317 782.789 200.72 773.806C201.232 762.369 198.55 750.088 196.899 738.792L188.669 683.351C184.994 682.438 181.148 681.642 178.349 678.926C177.002 675.224 182.933 648.813 183.822 642.887C172.543 632.136 151.886 616.674 143.421 605.83C141.123 602.886 139.219 599.614 138.7 595.856C138.261 592.674 138.81 589.62 139.903 586.639C145.835 570.462 156.108 554.386 164.125 539.101C170.972 526.046 179.812 505.658 188.515 494.336C194.582 486.444 205.012 486.002 213.965 484.792C216.303 484.476 219.396 483.785 220.798 481.693C222.203 479.595 221.045 479 219.341 477.65C208.101 468.748 199.94 462.045 196.623 447.352C193.15 431.976 198.648 419.194 206.658 406.452C199.784 406.117 163.632 403.079 159.713 399.849C159.541 399.071 159.383 398.37 159.424 397.567C159.775 390.775 180.752 352.734 186.199 347.642Z"/>
	<path fill="#D6625B" transform="scale(0.999721 0.999721)" d="M224.408 628.026C225.677 629.738 226.122 630.497 226.121 632.745C226.116 642.633 216.895 660.142 209.919 666.846C208.913 665.922 208.657 665.247 208.189 664.003C208.684 658.202 221.094 634.618 224.408 628.026Z"/>
	<path fill="#9F4242" transform="scale(0.999721 0.999721)" d="M180.024 903.939C186.926 907.229 194.482 909.48 201.699 912.006C201.263 913.541 200.759 915.017 200.198 916.511C198.032 917.803 196.252 917.412 193.779 917.397C190.788 917.993 187.691 919.431 184.677 919.608C181.63 919.786 179.113 919.512 176.827 917.435C175.249 912.833 178.167 908.089 180.024 903.939Z"/>
	<path fill="#FDBD52" transform="scale(0.999721 0.999721)" d="M281.198 509.709C286.172 513.845 298.168 543.39 300.95 550.801C300.597 552.775 299.576 553.121 298.062 554.37L290.417 558.812C287.207 540.942 288.058 527.194 281.198 509.709Z"/>
	<path fill="#FDFAF1" transform="scale(0.999721 0.999721)" d="M430.571 931.823C431.333 933.247 431.538 933.516 431.451 935.105C425.646 938.556 372.027 950.564 360.511 953.795C359.569 952.247 359.341 952.016 359.384 950.132C365.494 945.645 418.619 934.506 430.571 931.823Z"/>
	<path fill="#9F4242" transform="scale(0.999721 0.999721)" d="M372.872 905.055L373.764 905.364C375.773 908.244 376.667 911.908 377.742 915.225Q374.308 919.705 370.603 923.963C366.651 923.715 362.681 923.658 358.722 923.548C355.79 921.873 354.109 913.606 353.106 910.358C359.522 908.228 366.323 906.773 372.872 905.055Z"/>
	<path fill="#FDFAF1" transform="scale(0.999721 0.999721)" d="M165.009 932.494C180.403 941.9 199.372 947.783 216.274 954.051C221.882 956.131 228.782 957.806 233.795 960.949C234.167 962.518 233.492 963.636 232.874 965.036C219.441 960.902 206.101 955.393 192.998 950.304C183.171 946.487 172.146 942.861 162.997 937.632C162.723 935.876 164.175 933.987 165.009 932.494Z"/>
	<path fill="#FDFAF1" transform="scale(0.999721 0.999721)" d="M172.137 919.42L174.304 920.729C177.844 922.864 181.435 924.403 185.27 925.942C188.247 924.419 191.643 922.303 195.054 922.127C200.487 921.847 202.35 928.235 205.654 931.606C212.396 938.487 223.237 944.031 230.806 950.746C232.928 952.628 234.047 953.655 234.242 956.504C223.612 951.136 211.806 947.33 200.682 943.029C189.395 938.665 178.412 933.804 167.317 928.994L172.137 919.42Z"/>
	<path fill="#FDFAF1" transform="scale(0.999721 0.999721)" d="M380.757 919.269C383.886 920.46 386.66 922.243 389.975 922.925C400.192 925.024 419.704 922.603 427.738 926.636L427.362 927.513C418.31 931.357 406.686 932.878 397.03 935.171Q377.976 939.537 359.076 944.527C357.964 939.129 357.807 933.977 357.907 928.499C363.33 927.98 368.492 928.716 373.813 927.054C376.33 924.708 378.517 921.883 380.757 919.269Z"/>
	<path fill="#4E5454" transform="scale(0.999721 0.999721)" d="M355.889 506.673C366.208 505.531 385.868 508.724 397.362 509.427C398.853 513.086 399.846 516.616 400.681 520.477C396.742 529.162 390.85 537.111 386.62 545.715C379.209 560.789 373.377 576.819 365.12 591.459C352.991 589.601 340.784 585.626 328.94 582.427C327.21 581.878 326.094 581.54 324.858 580.176C323.934 577.496 325.232 574.346 325.912 571.676C337.454 574.141 349.302 576.743 360.506 580.473C364.245 574.8 393.484 520.129 394.54 516.299C394.832 515.238 394.896 515.152 394.227 514.203C390.275 508.597 366.685 510.676 359.188 508.849C357.181 508.36 356.985 508.411 355.889 506.673Z"/>
	<path fill="#FDBD52" transform="scale(0.999721 0.999721)" d="M330.481 540.769L331.594 541.783C332.103 549.444 320.463 562.541 319.797 573.967C319.475 579.483 319.8 582.649 323.453 586.797C318.207 590.41 310.993 595.732 304.617 596.601C302.345 596.911 301.183 596.437 299.449 595.018C292.979 581.57 291.317 578.424 290.583 563.277C304.27 557.604 316.175 544.429 330.481 540.769Z"/>
	<path fill="#FDFAF1" transform="scale(0.999721 0.999721)" d="M357.271 512.401C367.988 514.103 379.018 514.681 389.849 515.139C385.806 521.642 382.482 528.79 378.936 535.584Q369.107 554.35 359.494 573.229L358.353 574.084C354.353 575.072 333.495 568.348 328.255 566.934C337.142 548.85 346.09 529.149 357.271 512.401Z"/>
	<path fill="#FDFAF1" transform="scale(0.999721 0.999721)" d="M283.163 410.897C285.153 413.502 284.758 419.231 285.027 422.603C285.993 434.703 288.766 443.81 298.167 451.824L292.929 456.523C290.358 465.223 287.808 473.125 280.335 478.915C275.678 482.523 268.497 485.204 262.55 484.726C259.83 484.508 257.09 483.65 254.389 483.521C252.64 483.437 251.845 483.77 250.535 484.819L251 485.883C253.292 487.687 254.921 488.599 257.751 489.424C256.15 494.021 255.22 499.033 251.934 502.772C249.702 505.311 247.113 506.647 243.705 506.708C235.766 506.851 226.708 499.028 221.535 493.749C220.443 488.896 228.942 472.755 231.203 467.622C236.222 466.759 238.044 465.653 241.391 461.778L241.188 459.839C235.987 459.9 231.286 463.366 225.77 462.182C224.114 461.827 222.456 460.834 221.577 459.354C220.4 457.371 220.304 454.332 220.95 452.164C221.606 449.96 223.174 447.895 225.218 446.805C227.678 445.493 231.735 445.796 234.272 446.757C235.956 447.395 236.313 447.973 236.915 449.597C236.379 450.796 235.823 451.972 235.234 453.146L236.004 454.004C237.937 454.327 239.111 454.459 240.983 453.82C242.147 451.885 241.722 450.201 241.634 448.005C242.817 446.793 252.624 445.059 255.432 443.792C271.015 436.758 277.38 426.299 283.163 410.897Z"/>
	<path fill="#0F0F0F" transform="scale(0.999721 0.999721)" d="M263.949 460.522C268.427 461.408 266.447 464.113 268.93 466.767Q271.905 465.274 274.947 463.922L276.152 464.388C276.398 465.852 276.391 466.653 276.037 468.094C274.645 469.248 273.248 470.424 271.505 471.001C269.458 471.679 267.228 471.265 265.348 470.284C263.842 469.498 262.805 467.946 262.467 466.292C261.901 463.521 262.53 462.796 263.949 460.522Z"/>
	<path fill="#528E88" transform="scale(0.999721 0.999721)" d="M193.167 683.945C213.874 689.955 237.1 692.242 258.529 694.021C260.727 710.51 260.868 727.779 261.743 744.395C262.349 755.915 264.635 771.135 262.755 782.408C261.022 792.801 254.21 804.593 250.075 814.323L216.375 892.929L209.425 909.707C197.42 905.252 185.607 900.963 173.172 897.812C180.435 865.355 190.607 833.291 198.754 801.008C200.996 792.122 205.055 782.371 205.403 773.21C205.819 762.278 202.991 750.088 201.408 739.273Q197.517 711.575 193.167 683.945Z"/>
	<path fill="#528E88" transform="scale(0.999721 0.999721)" d="M313.504 669.647C317.586 673.936 372.063 871.246 382.459 897.426C368.549 900.691 354.743 904.764 341.031 908.78L338.297 901.676C333.852 891.905 330.383 881.269 326.515 871.221L301.493 806.548L278.538 748.987C274.166 738.11 268.835 726.897 265.64 715.642C263.627 708.551 263.806 700.644 262.293 693.344C279.658 686.257 296.638 677.847 313.504 669.647Z"/>
	<path fill="#FDBD52" transform="scale(0.999721 0.999721)" d="M209.737 489.07C210.628 489.011 213.755 488.839 214.387 489.333C216.141 490.703 217.338 494.321 218.581 496.27C221.516 500.873 227.914 505.483 232.756 507.95C237.738 510.489 243.974 512.072 249.419 510.059C255.621 507.767 257.682 502.726 260.215 497.146C262.059 497.823 263.942 498.494 265.705 499.365C273.54 503.234 277.471 511.238 280.256 519.114C285.897 535.069 284.47 563.602 288.69 581.603C290.735 590.328 296.072 598.03 299.265 606.376C306.197 624.497 312.265 643.05 318.32 661.482C317.987 661.703 317.656 661.927 317.315 662.134C309.226 667.05 265.703 688.384 258.612 689.365C246.019 691.107 196.704 680.313 182.48 676.787C184.608 666.804 185.999 656.675 188.202 646.693C191.419 649.937 201.697 657.911 203.317 661.384C204.33 663.554 203.188 665.893 204.754 668.023C205.74 669.364 207.773 670.678 209.456 670.814C211.177 670.953 212.791 670.048 214.032 668.907C222.329 661.277 230.169 641.574 230.309 630.427C228.636 622.718 201.826 597.422 195.472 589.292C198.83 582.497 219.656 548.766 218.246 543.042L216.707 542.361C216.178 542.658 215.587 542.865 215.121 543.254C214.019 544.176 192.889 584.703 189.828 590.016C199.705 601.844 211.304 612.219 220.907 624.271Q213.946 641.339 205.626 657.787C194.727 646.085 182.394 635.53 170.327 625.062C162.046 617.879 152.391 610.736 145.95 601.789C144.11 599.233 143.268 596.329 142.396 593.342C147.19 576.332 165.472 545.701 174.351 528.824C179.494 519.047 184.313 507.217 190.813 498.372C195.23 492.36 202.713 490.198 209.737 489.07Z"/>
</svg>
