<?xml version="1.0" encoding="utf-8" ?>
<svg xmlns="http://www.w3.org/2000/svg" xmlns:xlink="http://www.w3.org/1999/xlink" width="1434" height="1024">
	<path fill="#FCFCFB" transform="scale(0.999721 0.999721)" d="M0 0L1432.77 0C1433.55 1.35287 1433.84 2.273 1433.92 3.82991C1434.39 14.2948 1434 24.9358 1434 35.4235L1434 96.5893L1434.01 282.797L1434 835.994L1434 973.892C1434.01 983.184 1435.15 1015.65 1433.74 1021.9C1433.56 1022.7 1433.19 1023.31 1432.77 1024L0 1024L0 0Z"/>
	<path fill="#373636" transform="scale(0.999721 0.999721)" d="M1215.99 450.713C1231.51 449.41 1246.56 451.251 1260.5 458.606C1264.96 460.957 1281.99 472.74 1283.22 477.995C1283.45 479.007 1282.86 479.533 1282.39 480.41C1282.05 480.614 1280.93 481.451 1280.61 481.477C1278.36 481.656 1270.66 472.6 1268.46 470.535C1260.56 463.105 1247.9 458.603 1237.39 456.811C1233.45 455.976 1229.2 455.718 1225.18 455.799C1210.5 456.095 1194.94 461.764 1183.69 471.264C1181.02 473.521 1179 476.362 1176.51 478.792C1175.09 480.188 1174.23 480.506 1172.29 480.436L1171.11 479.057C1170.85 477.303 1170.78 476.478 1171.67 474.894C1173.11 472.324 1176.16 470.184 1178.43 468.35C1189.91 459.059 1201.74 453.899 1215.99 450.713Z"/>
	<path fill="#373636" transform="scale(0.999721 0.999721)" d="M1216.23 426.899C1233.6 425.779 1250.51 427.626 1266.44 435.035C1273.9 438.507 1298.32 453.048 1300.78 461.091C1301.18 462.386 1300.85 462.726 1300.27 463.855C1296.79 466.079 1294.22 461.565 1291.71 459.179C1275.95 444.163 1257.26 434.468 1235.31 432.538C1232.85 431.88 1229.68 432.045 1227.11 431.982C1207.31 431.501 1185.99 439.3 1170.41 451.313C1165.63 455 1160.78 462.993 1155 464.54C1153.29 463.972 1153.41 463.981 1152.55 462.384C1152.71 461.335 1152.89 460.534 1153.5 459.646C1155.52 456.746 1158.72 454.104 1161.33 451.708C1176.87 437.427 1195.68 430.125 1216.23 426.899Z"/>
	<path fill="#D24F2B" transform="scale(0.999721 0.999721)" d="M356.999 366.139C358.901 364.831 361.118 363.925 363.2 362.936C388.584 374.2 413.257 387.972 437.939 400.757C459.128 411.732 480.846 421.985 501.815 433.314L499.25 438.772C451.685 414.854 404.697 389.786 356.999 366.139Z"/>
	<path fill="#373636" transform="scale(0.999721 0.999721)" d="M1211.66 403.784Q1216.73 403.319 1221.81 403.232Q1226.9 403.146 1231.98 403.437Q1237.06 403.729 1242.11 404.398Q1247.15 405.066 1252.13 406.108Q1254.13 406.522 1256.12 407.003Q1258.11 407.485 1260.08 408.034Q1262.05 408.583 1264 409.198Q1265.95 409.814 1267.88 410.496Q1269.81 411.178 1271.71 411.925Q1273.62 412.672 1275.49 413.483Q1277.37 414.294 1279.22 415.169Q1281.07 416.044 1282.89 416.981Q1284.71 417.919 1286.49 418.917Q1288.28 419.916 1290.03 420.975Q1291.78 422.033 1293.49 423.151Q1295.2 424.269 1296.88 425.444Q1298.55 426.62 1300.19 427.851Q1301.82 429.083 1303.41 430.37Q1305 431.656 1306.55 432.996Q1308.09 434.336 1309.59 435.728C1312.11 438.047 1315.81 440.843 1317.49 443.762C1318.26 445.095 1318.07 445.385 1317.65 446.752C1316.36 447.583 1315.89 448.072 1314.36 447.512C1312.45 446.811 1300.39 434.792 1296.28 431.808C1280.35 420.251 1259.86 411.406 1240.12 409.765L1239.26 409.697C1239.11 409.661 1238.96 409.623 1238.81 409.59C1233.67 408.471 1227.6 408.574 1222.35 408.757C1197.85 409.611 1175.66 418.125 1155.78 432.306C1149.66 436.667 1145.02 442.891 1138.72 446.997C1136.9 446.942 1136.95 446.924 1135.59 445.7C1135.3 444.147 1135.21 443.878 1136.12 442.555C1139.02 438.367 1144.72 434.182 1148.74 431.004C1169.02 414.991 1186.39 408.175 1211.66 403.784Z"/>
	<path fill="#D24F2B" transform="scale(0.999721 0.999721)" d="M699.262 620.719C701.355 620.698 703.469 620.61 705.559 620.67C705.158 652.57 704.644 684.63 705.27 716.522C718.174 724.051 731.734 730.591 744.964 737.535L810.656 772.122C850.71 793.068 890.229 815.049 930.451 835.683L923.385 839.271C900.12 825.752 876.048 813.503 852.214 801.024L787.898 766.975C759.402 752.137 731.289 736.006 702.319 722.152C679.841 731.402 657.697 742.279 635.508 752.272L509.355 808.987C490.334 817.598 471.482 826.99 452.161 834.891C453.576 832.075 454.323 828.911 455.224 825.898C462.286 825.54 501.748 805.835 510.697 801.839L699.468 716.985L699.262 620.719Z"/>
	<path fill="#373636" transform="scale(0.999721 0.999721)" d="M930.451 835.683C939.156 831.706 963.601 816.524 972.158 819.821C977.91 822.037 983.576 825.671 989.009 828.615L1021.04 845.999C1047.56 860.4 1075.02 873.968 1100.98 889.299C1102.47 890.178 1103.58 890.902 1104.55 892.378C1106.05 895.356 1106.64 901.429 1105.67 904.686C1103.74 911.186 1097.71 914.542 1092.03 917.284C1061.87 931.852 1032.23 947.757 1002.44 963.098C990.91 969.033 975.11 978.675 963.145 982.496Q962.454 982.711 961.749 982.871Q961.044 983.032 960.328 983.136Q959.613 983.241 958.891 983.289Q958.169 983.337 957.446 983.328Q956.723 983.32 956.002 983.254Q955.282 983.189 954.569 983.068Q953.856 982.946 953.155 982.769Q952.453 982.592 951.768 982.361C942.679 979.279 925.062 967.871 915.822 962.805C887.727 947.402 857.431 932.244 830.375 915.381C828.168 914.005 824.885 912.248 823.774 909.798C821.762 905.357 822.147 898.18 823.522 893.614C825.574 891.016 828.341 889.194 831.154 887.507C843.884 879.868 857.918 873.559 871.182 866.825Q897.426 853.319 923.385 839.271L930.451 835.683Z"/>
	<path fill="#FCFCFB" transform="scale(0.999721 0.999721)" d="M1097.57 901.77L1099.33 902.109L1100.28 903.687L1099.91 904.977C1097.93 907.079 1095.62 908.384 1093.11 909.758C1083.62 914.952 1073.72 919.494 1064.07 924.384Q1037.53 938.147 1010.85 951.621C999.658 957.365 971.903 973.467 961.615 976.184C958.942 976.89 956.556 977.222 953.907 976.247C941.47 971.669 919.062 957.721 906.353 950.59C881.307 936.536 855.985 923.067 831.039 908.819C830.01 907.443 829.148 906.878 829.263 905.127C834.447 904.996 850.736 916.051 855.923 918.962C875.868 930.154 896.142 940.782 916.24 951.689C926.052 957.014 935.833 963.368 946.068 967.797C949.637 969.341 954.018 970.739 957.954 970.676C961.662 970.616 966.165 968.517 969.513 967.05C984.124 960.649 1091.42 907.615 1097.57 901.77Z"/>
	<path fill="#FCFCFB" transform="scale(0.999721 0.999721)" d="M967.234 824.511C968.888 824.801 970.607 825.249 972.122 825.985C987.602 833.501 1002.57 842.85 1017.76 851.032L1073.19 880.802C1080.48 884.731 1091.57 889.3 1097.55 894.652C1093.62 899.549 976.784 958.149 961.95 963.941C959.263 964.021 956.297 964.252 953.663 963.686C944.35 961.687 831.726 899.455 829.908 896.516C829.999 896.312 830.081 896.103 830.181 895.903C831.166 893.934 835.632 891.948 837.59 890.862C850.124 883.91 863.147 877.778 875.912 871.256L922.231 847.034C932.435 841.749 957.386 827.282 967.234 824.511Z"/>
	<path fill="#373636" transform="scale(0.999721 0.999721)" d="M899.117 900.075C906.249 900.006 935.349 915.422 941.371 920.249C943.561 922.004 945.098 923.656 945.387 926.511C942.562 933.552 928.418 938.456 921.746 941.694C920.83 941.915 919.913 942.068 918.969 941.96C913.402 941.325 880.977 923.02 877.823 918.365C876.88 916.973 876.164 915.465 876.729 913.783C878.071 909.787 894.56 902.046 899.117 900.075Z"/>
	<path fill="#FCFCFB" transform="scale(0.999721 0.999721)" d="M900.181 905.586C911.199 908.605 929.39 919.847 940.257 925.587C934.135 929.31 927.432 932.38 921.055 935.666C920.91 935.737 920.776 935.841 920.619 935.88C920.569 935.892 918.996 936.081 918.909 936.07C916.663 935.791 890.852 921.58 886.642 919.239C885.009 918.33 884.398 917.649 883.844 915.905C885.307 912.041 896.398 908.025 900.181 905.586Z"/>
	<path fill="#373636" transform="scale(0.999721 0.999721)" d="M966.35 833.4C968.132 833.479 969.304 833.861 970.888 834.631C992.757 845.258 1013.97 857.88 1035.34 869.523C1047.28 876.029 1060.72 881.787 1071.93 889.334C1073.91 890.663 1076.44 892.347 1076.92 894.796C1071.39 900 1051.12 908.687 1043.52 912.593Q1018.1 925.95 992.539 939.051C983.949 935.896 886.687 884.517 882.834 881.133C881.476 879.941 881.527 879.092 881.539 877.391C887.834 871.651 898.995 867.499 906.721 863.573C926.555 853.498 946.76 843.925 966.35 833.4Z"/>
	<path fill="#FCFCFB" transform="scale(0.999721 0.999721)" d="M966.294 840.45C966.48 840.42 966.663 840.369 966.852 840.36C968.629 840.277 970.523 841.129 972.107 841.87C993.49 851.872 1014.15 864.371 1034.89 875.651C1041.88 879.453 1062.19 888.894 1066.8 893.419C1063.32 897.377 1001.51 927.637 992.053 932.355C982.203 928.725 970.681 921.436 961.158 916.424L890.421 878.723C901.601 872.23 913.446 866.687 924.989 860.863C938.702 853.945 952.294 846.778 966.294 840.45Z"/>
	<path fill="#373636" transform="scale(0.999721 0.999721)" d="M212.691 633.471C210.837 621.725 210.077 609.207 216.084 598.454C220.749 590.104 228.444 585.297 237.5 582.802C253.032 578.523 270.247 580.111 284.267 588.246C291.837 592.639 300.624 600.412 302.772 609.283C303.902 613.952 302.587 617.097 300.263 621.002C300.358 634.332 302.209 655.955 298.94 668.496C296.901 676.319 292.986 680.837 286.049 684.819C292.486 686.317 299.376 687.688 304.643 691.946C314.495 699.91 317.419 714.771 321.851 726.047C328.2 742.199 336.588 763.395 349.194 775.798C354.113 780.639 359.889 783.953 365.768 787.469C366.335 786.599 366.914 785.772 367.593 784.986C372.377 779.444 466.267 732.033 472.86 731.662C477.018 733.163 478.975 737.595 481.109 741.174C479.404 751.655 475.12 762.406 471.902 772.556Q463.37 799.167 455.224 825.898C454.323 828.911 453.576 832.075 452.161 834.891C451.489 835.707 450.875 836.534 450.248 837.385C451.242 839.869 452.173 842.361 452.916 844.933C454.778 851.372 453.491 861.987 450.063 867.894C444.524 877.436 408.988 909.023 398.731 916.391C395.772 918.516 392.327 920.717 388.722 921.523C377.38 924.057 343.647 905.956 333.187 899.567C328.084 901.67 322.316 904.655 316.748 904.897C309.36 905.218 277.104 893.032 270.045 889.092C266.255 886.976 263.439 883.316 259.584 881.296C252.132 877.39 232.745 871.33 224.595 870.151C219.344 872.69 213.769 875.085 208.873 878.261C202.157 882.616 197.715 888.363 196.046 896.268C194.553 903.344 194.616 910.974 198.759 917.157C210.3 934.384 247.541 942.615 266.767 946.473C277.849 948.697 335.721 957.855 342.49 952.643C344.463 951.124 345.373 948.473 345.613 946.078C346.126 940.964 343.421 936.774 339.744 933.527C330.254 925.147 295.592 909.898 282.447 903.493C270.435 897.64 258.587 891.328 246.468 885.722C241.562 883.452 233.792 882.344 230.322 878.215L230.426 877.163C230.872 876.886 231.012 876.76 231.475 876.593C234.33 875.567 239.101 877.014 241.867 877.948C254.478 882.209 266.414 889.053 278.337 894.908C292.007 901.621 305.88 907.966 319.606 914.571C321.496 913.562 323.396 912.558 325.34 911.656C329.144 909.891 333.69 907.992 337.973 908.097C350.898 908.416 369.855 924.325 383.274 928.178C394.807 931.49 407.322 929.816 418.588 934.167C423.692 936.138 428.537 939.293 430.672 944.57C432.479 949.036 432.206 954.309 430.244 958.664C427.293 965.211 420.88 970.352 414.216 972.75C394.61 979.803 371.787 971.328 353.887 963.003C349.169 966.281 344.23 968.396 338.38 968.23C331.498 968.035 326.687 964.678 322.184 959.787C303.375 959.018 284.185 956.183 265.756 952.522C244.386 948.276 206.014 939.501 193.389 920.18C188.467 912.648 188.45 904.796 190.242 896.264C192.571 885.171 196.814 878.487 206.323 872.339C205.557 864.169 205.846 855.813 205.828 847.608C198.722 841.941 191.839 836.112 187.006 828.311C186.052 814.227 193.955 738.443 197.767 726.304C199.487 720.827 203.195 716.352 206.629 711.863C203.22 709.204 200.16 706.505 197.208 703.344C199.828 702.755 203.387 702.304 205.643 700.8C217.193 693.098 191.869 674.849 195.098 656.673C196.885 646.608 204.612 639.035 212.691 633.471Z"/>
	<path fill="#FCFCFB" transform="scale(0.999721 0.999721)" d="M274.79 859.066C275.962 859.273 277.293 859.92 277.96 860.942C278.716 862.1 278.832 862.974 278.454 864.293C277.821 866.501 275.958 867.587 274.135 868.739C273.448 868.879 272.608 868.859 271.918 868.901L270.837 867.897C270.754 867.28 270.677 866.965 270.703 866.374C270.832 863.42 272.858 861.078 274.79 859.066Z"/>
	<path fill="#FCFCFB" transform="scale(0.999721 0.999721)" d="M212.027 851.265C217.435 854.315 222.882 857.296 228.551 859.835C233.409 862.011 255.502 869.709 257.3 872.027L256.259 873.368L254.605 873.45C244.183 869.259 233.412 865.584 222.346 863.562L212.212 869.264L212.027 851.265Z"/>
	<path fill="#FCFCFB" transform="scale(0.999721 0.999721)" d="M237.994 689.907C238.241 690.402 238.187 690.184 238.239 690.757C238.297 691.402 238.354 692.055 238.395 692.701C238.455 693.648 238.442 694.642 238.745 695.555C240.893 702.028 255.262 706.636 260.825 708.983C259.989 711.974 259.308 716.243 257.213 718.571L255.941 718.477C249.009 713.652 235.122 705.894 230.659 699.126C231.033 695.749 235.671 692.146 237.994 689.907Z"/>
	<path fill="#FCFCFB" transform="scale(0.999721 0.999721)" d="M336.156 914.037C337.068 913.931 337.876 913.925 338.689 914.432C340.901 915.812 342.755 918.683 344.798 920.438C347.085 922.403 349.731 923.975 352.165 925.755C356.68 929.058 360.054 932.727 360.759 938.561C361.398 943.843 359.026 948.759 355.707 952.699C351.021 958.26 345.552 961.212 338.318 961.78L337.488 960.707C337.636 960.681 337.784 960.657 337.931 960.628C342.257 959.776 346.442 957.62 348.859 953.819C351.456 949.737 352.613 944.658 351.361 939.922C348.465 928.969 335.059 923.052 326.088 917.677C329.397 916.345 332.789 915.213 336.156 914.037Z"/>
	<path fill="#FCFCFB" transform="scale(0.999721 0.999721)" d="M307.81 790.293C314.78 795.06 326.577 808.322 333.381 814.824C330.384 816.518 327.192 817.98 324.12 819.54L308.207 827.908Q307.35 809.107 307.81 790.293Z"/>
	<path fill="#FCFCFB" transform="scale(0.999721 0.999721)" d="M380.134 937.005C389.755 940.73 401.151 939.512 410.353 943.546C413.599 944.969 416.844 947.429 418.071 950.886C418.89 953.191 418.503 955.637 417.409 957.78C414.653 963.177 409.949 965.482 404.46 967.311C390.945 969.69 378.263 965.856 365.831 960.957C367.806 959.989 369.577 958.957 371.268 957.545C377.922 951.986 379.327 945.292 380.134 937.005Z"/>
	<path fill="#FCFCFB" transform="scale(0.999721 0.999721)" d="M357.414 810.326C357.891 810.384 358.175 810.747 358.546 811.042C358.237 812.427 357.916 814.5 356.952 815.584C355.414 817.312 298.19 848.217 293.92 849.856C291.486 850.791 288.164 850.818 285.561 851.088C284.52 852.575 284.341 853.129 284.354 854.944C284.789 855.521 285.107 856.261 285.811 856.49C289.042 857.541 293.071 856.465 296.173 855.301C301.896 853.152 307.708 849.07 313.158 846.123C327.056 838.609 341.075 830.827 355.262 823.884L355.644 824.635C352.534 830.632 304.127 851.393 296.984 859.023C296.453 861.479 297.033 863.389 297.584 865.753C298.205 868.417 298.89 869.613 300.864 871.541L301.073 871.613C298.82 872.705 298.432 872.386 296.835 874.511C296.663 876.388 296.7 876.545 297.607 878.198C299.155 879.359 300.365 880.015 302.354 879.877C304.869 879.703 307.193 876.429 308.8 874.676C310.834 875.343 317.559 877.422 318.511 879.193C316.871 879.757 315.135 880.267 313.67 881.216C312.56 881.935 312.821 882.001 312.568 883.207C313.378 884.556 314.067 885.511 315.508 886.239C317.392 887.191 318.909 887.124 320.784 886.404C321.771 884.707 322.539 883.316 324.108 882.103C328.764 881.088 333.421 884.511 337.376 886.661C334.447 889.656 331.51 892.178 328.089 894.596C310.532 887.909 292.509 881.926 274.762 875.735C276.92 874.788 279.278 873.881 281.274 872.63C291.105 866.469 279.543 857.625 280.841 851.06C286.592 844.878 345.909 815.748 357.414 810.326Z"/>
	<path fill="#FCFCFB" transform="scale(0.999721 0.999721)" d="M443.439 843.114C444.25 843.193 444.936 843.512 445.696 843.793C446.173 844.468 446.642 845.183 446.925 845.966C448.892 851.426 446.158 860.248 443.93 865.313C440.403 873.336 397.094 911.699 389.009 914.664C380.293 917.861 365.174 908.647 357.216 904.925Q348.751 900.73 340.176 896.763C353.266 890.667 365.852 883.204 378.654 876.509L443.439 843.114Z"/>
	<path fill="#FCFCFB" transform="scale(0.999721 0.999721)" d="M285.26 602.179C285.538 602.593 285.655 602.746 285.907 603.242C289.026 609.37 291.847 616.31 293.197 623.055C295.201 633.066 295.559 659.365 292.258 668.748C290.654 673.309 287.558 677.214 283.031 679.16C273.207 683.384 261.949 678.189 252.911 674.291C258.201 682.368 263.543 684.206 272.408 686.744C272.457 690.09 273.053 694.406 272.312 697.649C271.425 701.529 268.62 702.81 265.445 704.623C258.282 702.239 250.722 698.757 244.755 694.141C244.365 678.469 242.949 673.807 233.618 661.016C231.271 662.14 228.711 663.292 226.049 663.218C222.97 663.133 219.845 661.235 217.868 658.958C214.851 655.483 213.108 649.951 213.622 645.365C213.912 642.775 214.765 641.189 216.821 639.637C224.553 637.107 227.337 646.399 233.238 648.37L234.222 647.426C235.067 644.743 234.832 642.576 234.537 639.848C237.075 639.179 239.621 638.497 242.11 637.661C259.707 631.75 276.891 618.969 285.26 602.179Z"/>
	<path fill="#373636" transform="scale(0.999721 0.999721)" d="M279.98 650.861C281.715 651.364 282.159 651.464 283.487 652.782C283.957 654.849 283.442 656.041 282.703 657.984C280.979 657.496 279.906 657.214 278.683 655.866C278.239 654.044 279.237 652.48 279.98 650.861Z"/>
	<path fill="#373636" transform="scale(0.999721 0.999721)" d="M252.69 636.272C253.636 636.376 254.658 636.466 255.563 636.77C257.253 637.338 257.924 638.539 258.585 640.077C258.712 642.246 258.264 643.403 257.22 645.287C256.988 645.259 256.755 645.242 256.525 645.204C254.341 644.842 253.127 644.357 251.816 642.553C251.27 640.154 251.946 638.524 252.69 636.272Z"/>
	<path fill="#373636" transform="scale(0.999721 0.999721)" d="M283.196 634.114C284.042 634.316 285.05 634.506 285.816 634.922C287.01 635.571 287.786 636.683 288.086 637.988C288.654 640.457 287.142 643.093 285.972 645.154C285.173 644.911 284.288 644.652 283.581 644.199C282.41 643.448 281.464 641.905 281.232 640.545C280.802 638.019 281.75 636.088 283.196 634.114Z"/>
	<path fill="#373636" transform="scale(0.999721 0.999721)" d="M289.069 621.222C290.807 621.821 291.911 622.462 292.935 623.946C291.937 626.906 284.264 628.261 281.29 630.041L280.609 630.454C279.619 630.545 278.508 630.313 277.515 630.207L276.825 629.204C276.966 628.916 277.096 628.622 277.247 628.339C279.2 624.663 285.313 622.489 289.069 621.222Z"/>
	<path fill="#373636" transform="scale(0.999721 0.999721)" d="M285.087 660.077C285.272 660.116 285.46 660.143 285.642 660.196C287.444 660.724 287.878 661.009 288.871 662.596C288.818 663.308 288.794 664.046 288.541 664.727C287.794 666.744 285.085 668.548 283.241 669.422C280.285 670.823 277.827 670.698 274.838 669.549C272.687 667.745 271.434 666.018 270.903 663.235C274.39 660.851 277.322 665.533 280.813 665.129C282.888 663.888 283.837 662.07 285.087 660.077Z"/>
	<path fill="#FCFCFB" transform="scale(0.999721 0.999721)" d="M278.052 688.317C286.287 689.936 297.316 693.1 303.295 699.215C308.65 704.692 310.633 713.349 313.121 720.361C319.766 739.084 330.568 765.716 344.9 779.736C350.423 785.139 356.99 788.986 363.554 792.954L361.344 801.972Q350.377 807.28 339.178 812.081Q324.287 797.352 309.13 782.897C312.123 756.257 320.697 754.701 308.186 727.232C305.21 720.696 302.441 713.748 298.458 707.753C297.148 707.696 297.078 707.755 295.971 708.473C293.788 714.695 306.728 739.639 309.754 746.265C304.18 774.387 298.631 802.52 302.779 831.303L292.048 837.06C290.131 797.199 285.832 756.939 276.967 717.996C272.914 714.2 270.735 710.587 268.456 705.52C272.252 708.278 277.232 714.294 281.425 715.558C282.922 715.43 283.578 715.233 284.775 714.298C286.345 713.072 287.954 712.011 289.625 710.933C292.003 706.318 279.879 696.792 278.236 691.948C277.94 691.078 278.101 689.294 278.052 688.317Z"/>
	<path fill="#FCFCFB" transform="scale(0.999721 0.999721)" d="M472.337 743.703L473.633 743.869C474.575 747.545 448.272 829.042 444.77 835.552L355.971 881.301L354.828 881.453C353.798 879.087 372.492 808.462 374.738 801.36C375.851 797.842 377.086 793.817 379.938 791.343C388.004 784.345 404.608 777.979 414.497 773.026L472.337 743.703Z"/>
	<path fill="#373636" transform="scale(0.999721 0.999721)" d="M447.904 768.769C449.314 766.965 449.548 766.496 451.676 765.762C453.403 766.191 453.347 766.123 454.331 767.601C454.017 769.499 453.818 769.73 452.281 770.85C452.133 770.958 451.974 771.049 451.82 771.148L447.904 768.769Z"/>
	<path fill="#373636" transform="scale(0.999721 0.999721)" d="M430.715 821.316L432.818 822.913C433.197 823.794 433.595 824.657 433.66 825.629C433.869 828.748 431.895 831.346 429.859 833.456C428.479 832.484 428.153 832.049 427.588 830.459C427.465 827.188 429.34 824.19 430.715 821.316Z"/>
	<path fill="#373636" transform="scale(0.999721 0.999721)" d="M371.795 849.208C373.483 850.161 373.779 850.259 374.728 852.046C374.999 855.778 373.27 858.528 371.221 861.478C370.176 861.127 369.628 860.721 368.812 859.984C368.147 856.015 370.15 852.694 371.795 849.208Z"/>
	<path fill="#373636" transform="scale(0.999721 0.999721)" d="M377.669 847.266C377.101 848.29 376.484 848.992 375.692 849.84L374.147 849.864C373.494 849.197 373.094 848.739 372.865 847.808C372.178 845.013 372.633 842.347 374.136 839.929C375.654 839.25 375.647 839.233 377.249 839.665C377.639 840.179 378.002 840.637 378.218 841.253C378.841 843.035 378.781 844.591 378.007 846.289C377.944 846.428 377.873 846.562 377.806 846.699L377.669 847.266Z"/>
	<path fill="#373636" transform="scale(0.999721 0.999721)" d="M414.264 817.602C415.215 818.047 416.224 818.833 416.706 819.753C418.237 822.682 415.55 828.021 414.48 830.975L413.373 830.909L412.095 829.375C410.963 824.851 412.292 821.604 414.264 817.602Z"/>
	<path fill="#373636" transform="scale(0.999721 0.999721)" d="M398.856 812.668C399.003 812.724 399.159 812.76 399.297 812.837C400.836 813.698 401.497 814.618 401.994 816.314C402.942 819.544 401.37 824.16 399.639 826.86C398.038 825.632 397.719 824.735 397.12 822.793C395.914 818.887 396.934 816.015 398.856 812.668Z"/>
	<path fill="#373636" transform="scale(0.999721 0.999721)" d="M377.806 846.699L379.895 845.659C381.33 846.546 382.066 847.561 382.475 849.231C383.001 851.377 382.538 853.898 381.18 855.655C380.176 856.956 379.177 857.327 377.637 857.736C376.651 856.855 376.17 856.514 376.07 855.073C375.886 852.414 378.061 849.852 377.669 847.266L377.806 846.699Z"/>
	<path fill="#373636" transform="scale(0.999721 0.999721)" d="M409.578 807.945C410.047 808.739 410.489 809.552 410.966 810.34C411.444 811.13 411.975 811.863 412.23 812.767C413.174 816.113 411.362 821.46 409.902 824.496C408.743 823.952 408.551 823.938 407.966 822.787C405.814 818.549 408.149 812.17 409.578 807.945Z"/>
	<path fill="#373636" transform="scale(0.999721 0.999721)" d="M388.749 795.076C390.644 795.078 390.928 795.018 392.59 796.097C394.075 799.515 392.186 803.43 391.085 806.759C389.279 807.071 389.1 807.173 387.359 806.352C385.745 803.493 387.936 798.063 388.749 795.076Z"/>
	<path fill="#373636" transform="scale(0.999721 0.999721)" d="M406.622 833.346L408.586 831.342C409.622 831.365 409.937 831.113 410.7 831.914C412.093 833.377 412.084 836.099 411.886 837.964C411.714 839.586 411.3 840.781 410.454 842.159C408.749 842.826 408.55 843.003 406.69 842.565C405.246 840.323 406.055 836.53 406.156 833.923L406.622 833.346Z"/>
	<path fill="#373636" transform="scale(0.999721 0.999721)" d="M391.085 806.759C392.552 805.228 393.23 804.224 395.341 803.577C397.364 805.501 397.47 809.837 398.037 812.622C396.986 814.13 396.35 815.159 394.614 815.866C393.046 815.161 392.985 814.97 392.386 813.337C391.941 812.125 391.877 810.908 391.737 809.638C391.623 808.604 391.397 807.745 391.085 806.759Z"/>
	<path fill="#373636" transform="scale(0.999721 0.999721)" d="M397.667 836.173L398.735 835.669C400.44 836.991 402.434 839.689 402.849 841.877C403.114 843.274 402.125 845.147 401.27 846.197C400.284 847.409 399.459 847.952 397.981 848.382C397.008 847.901 396.761 848.044 396.357 846.949C395.692 845.146 396.427 842.054 396.832 840.182L397.667 836.173Z"/>
	<path fill="#373636" transform="scale(0.999721 0.999721)" d="M434.747 785.489L437.055 787.147C437.461 788.067 437.847 788.933 437.941 789.948C438.274 793.553 436.12 796.808 434.028 799.513C432.914 798.672 432.144 797.998 431.734 796.615C430.653 792.972 432.907 788.523 434.747 785.489Z"/>
	<path fill="#373636" transform="scale(0.999721 0.999721)" d="M418.035 824.772C419.783 826.05 421.942 829.767 422.363 831.881C422.959 834.879 421.643 836.53 419.959 838.812L418.354 838.733C416.829 837.553 416.394 836.884 415.967 834.957C415.226 831.617 416.172 827.555 418.035 824.772Z"/>
	<path fill="#373636" transform="scale(0.999721 0.999721)" d="M444.025 814.952C443.723 813.583 443.227 812.692 442.486 811.532C441.921 810.649 442.03 808.911 442.073 807.865C442.147 806.093 442.632 805.173 443.88 803.965C445.56 803.452 446.34 803.557 448.003 804.081C448.298 805.679 448.676 807.359 448.682 808.991C448.691 811.337 447.946 814.838 446.266 816.478L443.929 814.774L444.025 814.952Z"/>
	<path fill="#373636" transform="scale(0.999721 0.999721)" d="M406.156 833.923C404.892 835.327 404.16 836.17 402.301 836.653C401.468 836.044 401.289 836.144 401.016 835.064C400.021 831.136 402.016 825.084 404.036 821.736L405.083 821.894C405.351 822.254 405.695 822.672 405.903 823.086C407.445 826.15 407.742 830.137 406.622 833.346L406.156 833.923Z"/>
	<path fill="#373636" transform="scale(0.999721 0.999721)" d="M448.003 804.081C446.96 798.819 445.335 794.405 448.022 789.362L449.873 788.13C451.861 790.433 452.872 792.771 452.763 795.871C452.662 798.709 451.357 801.249 449.264 803.147C448.635 803.717 448.614 803.7 448.003 804.081Z"/>
	<path fill="#373636" transform="scale(0.999721 0.999721)" d="M411.442 783.992C412.547 784.034 413.301 784.335 414.315 784.762C415.528 789.135 411.036 796.619 409.431 800.822C408.728 800.912 408.102 800.544 407.447 800.303L406.825 798.706C407.44 793.136 408.323 788.75 411.442 783.992Z"/>
	<path fill="#373636" transform="scale(0.999721 0.999721)" d="M440.273 770.136C441.359 770.261 442.426 770.499 443.498 770.71C444.933 773.915 440.69 783.061 439.811 786.861L438.979 786.904C438.116 786.161 437.684 785.642 437.299 784.541C435.482 779.342 438.081 774.749 440.273 770.136Z"/>
	<path fill="#373636" transform="scale(0.999721 0.999721)" d="M396.832 840.182C395.437 841.023 395.137 841.308 393.458 841.301C393.107 840.878 392.962 840.74 392.695 840.301C390.591 836.83 391.103 831.503 392.27 827.728C392.812 825.976 393.075 825.041 394.66 824.155C398.825 826.485 393.879 831.229 397.667 836.173L396.832 840.182Z"/>
	<path fill="#373636" transform="scale(0.999721 0.999721)" d="M458.761 765.855C458.973 765.967 459.196 766.061 459.398 766.191C465.31 770.024 455.437 775.149 456.965 783.204L457.12 784C456.468 786.058 455.312 786.814 453.636 788.094C452.263 786.471 451.355 783.507 451.339 781.396C451.327 779.648 452.053 778.401 453.265 777.205C456.891 773.628 454.525 770.15 458.761 765.855Z"/>
	<path fill="#373636" transform="scale(0.999721 0.999721)" d="M400.305 789.067C401.974 789.199 403.006 789.469 404.539 790.143C405.73 792.899 402.069 796.267 402.169 799.778C403.145 798.738 403.489 797.952 404.945 797.721C405.076 797.882 405.229 798.028 405.339 798.204C405.92 799.131 407.788 807.016 407.741 807.999C407.695 808.961 406.995 810.583 406.715 811.551C405.162 812.813 404.731 813.516 402.694 813.636C401.255 811.655 401.982 806.046 401.961 803.467C400.759 801.33 400.262 802.613 398.185 801.796C397.088 798.34 399.316 792.521 400.305 789.067Z"/>
	<path fill="#373636" transform="scale(0.999721 0.999721)" d="M432.636 772.876C433.748 773.106 434.463 773.519 435.422 774.117C437.11 779.117 429.328 789.271 427.76 794.055C426.846 796.843 427.475 799.436 426.309 802.438C424.973 802.669 424.786 802.421 423.551 801.801C423.017 800.824 422.45 799.834 422.383 798.695C422.061 793.3 429.091 777.158 432.636 772.876Z"/>
	<path fill="#373636" transform="scale(0.999721 0.999721)" d="M447.904 768.769L451.82 771.148L451.742 771.218C451.488 772.428 451.623 773.078 451.778 774.296C446.703 785.397 443.551 797.545 439.78 809.13C432.919 795.889 441.146 800.267 440.942 789.243L440.904 785.647C442.011 783.282 443.635 782.488 445.778 781.196C445.895 778.094 446.129 775.06 447.107 772.094C447.487 770.942 447.765 769.973 447.904 768.769Z"/>
	<path fill="#373636" transform="scale(0.999721 0.999721)" d="M429.865 796.663C433.307 799.251 431.928 803.345 433.718 806.62C435.714 810.273 440.169 813.194 442.472 816.932C443.701 818.927 444.533 821.17 443.796 823.501C443.246 825.239 442.095 826.961 440.419 827.728L439.297 826.975C437.795 824.046 437.907 820.97 437.295 817.791C437.18 817.908 437.093 818.061 436.95 818.14C436.655 818.304 436.32 818.385 436.005 818.507L436.152 819.184C435.494 820.164 435.379 820.421 434.329 820.92C431.867 817.984 432.677 813.77 430.82 810.614L428.816 812.554L427.941 812.419C427.67 811.905 427.488 811.654 427.434 811.008C427.105 807.087 427.761 799.838 429.865 796.663Z"/>
	<path fill="#373636" transform="scale(0.999721 0.999721)" d="M422.725 778.53C423.286 778.884 423.599 779.388 424.007 779.903C424.102 781.398 416.968 804.934 415.836 809.257C417.067 807.29 418.664 803.757 420.776 802.771L422.063 803.717C423.448 806.546 422.808 808.849 423.326 811.767C423.683 813.774 425.705 814.667 427.246 815.762C428.67 818.994 426.685 823.827 425.701 827.061C425.217 827.437 424.608 827.631 424.048 827.875L422.715 826.633C422.021 824.816 422.034 823.726 422.273 821.801C422.499 819.972 423.223 817.853 422.253 816.274C421.18 817.242 420.172 818.029 418.957 818.81C417.662 818.347 417.717 817.999 417.051 816.77C417.246 812.801 417.467 809.768 414.652 806.581C414.463 806.367 414.263 806.163 414.073 805.949C412.828 804.547 412.608 803.412 412.754 801.599C413.31 794.743 417.321 782.933 422.725 778.53Z"/>
	<path fill="#373636" transform="scale(0.999721 0.999721)" d="M385.367 806.474C388.464 809.015 386.966 813.227 392.605 818.907C393.394 821.94 390.327 828.259 389.117 831.231L387.753 831.409L386.632 830.363C385.714 826.488 386.933 821.691 387.414 817.738C386.727 817.711 385.602 820.389 382.604 820.984C382.11 823.988 382.842 828.759 383.595 831.723L386.329 832.537L385.715 832.221L386.721 833.439C387.224 836.136 386.404 838.835 385.862 841.485C386.897 840.265 387.332 839.755 388.928 839.28C390.433 840.737 391.331 843.508 391.482 845.583C391.677 848.279 391.657 851.329 389.824 853.465C384.237 853.326 387.028 846.297 384.977 844.657C384.018 843.89 382.911 844.258 381.635 843.039C381.211 840.439 381.295 838.086 381.462 835.482C379.934 834.838 380.065 834.812 378.533 835.432L377.671 835.059L376.243 829.511C377.592 826.426 379.975 823.849 381.196 820.783C383.136 815.912 382.514 811.977 385.367 806.474Z"/>
	<path fill="#FCFCFB" transform="scale(0.999721 0.999721)" d="M224.632 704.455C230.202 704.799 251.596 726.256 257.38 727.146C262.146 727.879 262.453 718.252 265.233 716.149C268.203 720.181 270.91 724.288 272.614 729.033C275.852 738.05 276.833 748.544 278.179 758.018Q281.936 783.524 284.204 809.206C285.09 819.446 285.377 829.74 286.48 839.958Q281.219 843.002 275.994 846.107C262.26 834.012 246.531 823.626 230.776 814.382C232.509 796.523 239.361 748.237 230.173 734.197C228.694 731.937 226.683 729.33 223.991 728.764C222.272 730.975 224.05 733.863 224.936 736.145C228.846 746.223 229.049 754.009 228.46 764.64C228.011 780.218 226.586 795.81 225.139 811.321Q223.372 810.837 221.587 810.426C218.134 809.645 212.812 809.249 209.723 811.184L209.809 813.308C210.258 813.924 211.084 814.951 211.823 815.249C212.941 815.698 215.707 815.36 217.076 815.536C221.62 816.118 225.93 818.542 229.891 820.698C245.71 829.311 260.218 841.181 274.311 852.352C268.778 856.721 266.144 860.345 263.57 866.929C241.168 860.829 205.623 845.866 192.518 825.696C194.926 795.322 197.038 763.938 202.477 733.951C204.987 720.114 213.549 712.161 224.632 704.455Z"/>
	<path fill="#373636" transform="scale(0.999721 0.999721)" d="M1035.36 449.985C1037.65 449.545 1039.75 449.141 1042.07 449.717C1044.35 450.282 1045.86 451.515 1046.97 453.582C1048.5 456.441 1049.8 548.977 1048.04 554.295C1053.81 556.351 1106.37 584.811 1109.28 587.289C1109.42 587.026 1109.58 586.769 1109.71 586.5C1110.93 583.964 1111.48 538.435 1110.03 534.534C1130.15 524.646 1149.98 514.198 1170.12 504.348C1178.35 500.324 1186.62 495.92 1195.09 492.449C1203.43 483.735 1207.39 477.139 1220.11 474.724Q1220.93 474.573 1221.75 474.463Q1222.57 474.353 1223.4 474.283Q1224.22 474.213 1225.05 474.184Q1225.88 474.155 1226.71 474.166Q1227.54 474.178 1228.37 474.23Q1229.2 474.282 1230.02 474.375Q1230.85 474.468 1231.67 474.601Q1232.48 474.734 1233.3 474.907Q1234.11 475.08 1234.91 475.293Q1235.71 475.505 1236.5 475.757Q1237.29 476.009 1238.07 476.299Q1238.85 476.589 1239.61 476.918Q1240.37 477.246 1241.12 477.611Q1241.86 477.976 1242.59 478.377Q1243.31 478.778 1244.02 479.214Q1244.73 479.651 1245.41 480.121Q1246.13 480.623 1246.82 481.16Q1247.51 481.697 1248.17 482.268Q1248.84 482.839 1249.47 483.442Q1250.1 484.045 1250.71 484.679Q1251.31 485.313 1251.88 485.976Q1252.45 486.639 1252.99 487.33Q1253.53 488.02 1254.03 488.737Q1254.53 489.454 1255 490.194Q1255.47 490.935 1255.9 491.698Q1256.32 492.461 1256.72 493.244Q1257.11 494.028 1257.46 494.829Q1257.81 495.631 1258.12 496.45Q1258.43 497.268 1258.7 498.101Q1258.97 498.933 1259.2 499.778Q1259.43 500.624 1259.61 501.479Q1259.8 502.334 1259.94 503.198C1261.37 511.475 1259.57 520.917 1254.68 527.809C1260.14 529.454 1325.16 562.625 1329.6 566.179C1332.31 568.285 1347.47 591.423 1348.01 594.916C1348.31 595.376 1348.34 595.372 1348.55 595.982C1350.14 600.593 1348.64 737.911 1348.63 753.135C1348.62 760.025 1349.81 799.862 1347.51 804.066C1345.16 807.257 1313.94 823.372 1308.86 825.223C1306.57 828.096 1277.01 843.329 1271.77 845.364C1270.21 843.208 1189.99 800.781 1185.17 799.188C1186.68 804.105 1186.37 847.09 1184.39 850.871C1183.16 852.853 1129.11 883.587 1123.52 885.594C1116.48 879.792 1102.74 874.505 1094.33 869.909Q1039.66 840.117 984.536 811.161C983.849 784.855 984.409 758.355 984.419 732.032L984.727 590.902Q998.669 583.07 1012.48 575.007C1017.53 572.086 1023.24 569.324 1027.85 565.806C1030.44 559.062 1029.21 548.23 1029.3 540.865L1030.37 487.652C1030.58 477.339 1029.78 465.532 1031.84 455.414C1032.27 453.29 1033.98 451.567 1035.36 449.985Z"/>
	<path fill="#FCFCFB" transform="scale(0.999721 0.999721)" d="M1036.8 455.535C1038.79 455.282 1039.71 455.08 1041.35 456.288C1041.72 457.181 1041.99 457.958 1042.1 458.927C1042.87 465.772 1042.45 472.998 1042.49 479.902L1042.68 518.264L1042.97 559.933C1043.03 565.458 1043.61 571.318 1043.35 576.798C1043.28 578.372 1043.23 578.606 1042.25 579.839L1039.93 579.558C1038.05 577.794 1035.93 577.061 1033.58 576.117C1035.88 571.462 1035.93 468.865 1036.8 455.535Z"/>
	<path fill="#FCFCFB" transform="scale(0.999721 0.999721)" d="M1325.23 572.584C1325.95 572.623 1326.68 572.662 1327.31 573.086C1329.99 574.907 1339.96 591.941 1340.18 594.905C1335.13 599.761 1287.46 625.129 1276.87 630.464C1274.15 631.834 1273.41 632.456 1270.46 631.474C1269.89 628.062 1257.34 612.329 1254.34 610.178C1258.15 609.128 1321.03 575.819 1325.23 572.584Z"/>
	<path fill="#D24F2B" transform="scale(0.999721 0.999721)" d="M1222.07 480.131C1229.48 479.561 1236.71 480.969 1242.81 485.388C1248.92 489.814 1252.87 496.758 1254.06 504.165C1255.3 511.939 1253.57 520.016 1248.82 526.345C1243.72 533.145 1236.53 536.498 1228.29 537.744C1222.92 538.364 1216.89 537.079 1212.11 534.555C1205.5 531.058 1200.88 524.989 1198.85 517.829C1196.65 510.106 1197.36 501.417 1201.38 494.403C1206.12 486.125 1213.18 482.503 1222.07 480.131Z"/>
	<path fill="#FCFCFB" transform="scale(0.999721 0.999721)" d="M1048.26 562.043C1048.93 562.016 1049.25 561.989 1049.94 562.023C1049.95 562.024 1173.72 627.725 1177.35 632.19C1175.67 634.601 1172.23 635.803 1169.64 637.019C1167.83 640.023 1160.03 643.169 1156.68 644.442C1155.45 643.005 1056.26 587.34 1048.07 584.283C1050.14 580.274 1049.66 566.494 1048.26 562.043Z"/>
	<path fill="#FCFCFB" transform="scale(0.999721 0.999721)" d="M1026.73 573.205L1027.98 574.448C1028.1 576.047 1028.02 578.136 1029.19 579.399C1032.46 582.953 1043.19 587.886 1047.77 590.479C1057.97 596.261 1148.13 644.59 1151.37 648.175C1148.81 651.589 1132.23 659.998 1127.53 662.125C1124.44 663.524 1123.34 663.443 1120.12 662.242C1117.69 659.512 1100.11 651.057 1095.62 648.575C1061.9 629.903 1027.73 611.802 994.358 592.519C1004.83 585.999 1017.04 580.706 1026.73 573.205Z"/>
	<path fill="#FCFCFB" transform="scale(0.999721 0.999721)" d="M1191.46 500.442C1191.85 500.629 1192.45 500.607 1192.62 501.002C1192.95 501.818 1190.7 513.932 1194.07 522.271Q1194.38 523.046 1194.74 523.804Q1195.09 524.562 1195.48 525.301Q1195.87 526.041 1196.3 526.76Q1196.73 527.479 1197.19 528.176Q1197.65 528.873 1198.15 529.546Q1198.64 530.219 1199.17 530.866Q1199.7 531.514 1200.26 532.134Q1200.82 532.754 1201.41 533.346Q1202 533.937 1202.62 534.499Q1203.24 535.06 1203.89 535.59Q1204.54 536.12 1205.21 536.616Q1205.88 537.113 1206.58 537.576Q1207.28 538.039 1207.99 538.466Q1208.71 538.894 1209.45 539.285Q1210.19 539.676 1210.95 540.03Q1211.71 540.383 1212.48 540.699C1221.12 544.273 1231.83 544.222 1240.46 540.549C1243.93 539.072 1249.1 536.151 1250.55 532.536C1256.79 534.276 1317.7 565.224 1320.45 568.066C1318.11 571.133 1263.9 599.194 1257.22 602.002C1255.79 604.003 1252.12 605.134 1249.89 605.985C1249.28 605.378 1124.92 537.912 1119.44 535.841C1132.63 531.343 1145.93 522.982 1158.45 516.668C1169.36 511.168 1180.83 506.419 1191.46 500.442Z"/>
	<path fill="#FCFCFB" transform="scale(0.999721 0.999721)" d="M1180.17 637.722L1180.8 638.32C1181.5 640.429 1180.3 843.158 1179.12 847.014C1176.78 850.313 1132.19 874.781 1126.3 876.807C1126.76 875.973 1127.08 875.354 1127.29 874.417C1128.58 868.685 1127.55 846.173 1127.55 838.784C1127.55 812.664 1128.72 785.216 1127.43 759.251C1127.35 757.77 1127.06 756.656 1126.27 755.393C1126.58 754.866 1126.76 754.589 1126.99 753.985C1128.2 750.726 1127.8 672.121 1126.61 669.184C1132.52 667.421 1160.23 651.563 1163.71 647.041C1163.99 647.543 1164.25 648.046 1164.45 648.588C1165.38 651.122 1165.23 732.323 1164.84 740.762C1164.79 742.007 1164.58 742.714 1164.06 743.828C1160.37 747.959 1153.74 747.857 1151.13 753.959C1151.3 754.548 1151.28 755.015 1151.81 755.386C1152.73 756.037 1154.15 756.516 1155.28 756.196C1158.05 755.408 1168.28 748.538 1169.98 745.967C1171.58 741.258 1171.19 657.615 1170.68 647.402C1170.62 646.031 1170.36 645.036 1169.76 643.796C1173.52 642.377 1176.84 639.927 1180.17 637.722Z"/>
	<path fill="#373636" transform="scale(0.999721 0.999721)" d="M1161.45 760.993C1162.52 760.754 1163.68 760.441 1164.78 760.374C1166.45 760.271 1167.07 760.834 1168.26 761.899C1169.04 767.348 1169.94 793.803 1167.66 797.606C1165 800.45 1159.88 802.44 1156.24 803.861C1156.12 803.918 1156.02 803.995 1155.89 804.031C1154.17 804.528 1154.07 804.321 1152.61 803.401C1149.95 797.264 1151.03 777.837 1151.88 770.707C1152.66 764.263 1156.5 765.029 1160.76 761.564C1160.99 761.376 1161.22 761.183 1161.45 760.993Z"/>
	<path fill="#FCFCFB" transform="scale(0.999721 0.999721)" d="M1340.02 602.001L1342.3 601.937C1342.65 602.57 1342.67 602.542 1342.9 603.366C1344.19 608.167 1342.95 640.681 1342.95 648.465C1342.93 697.273 1343.66 746.267 1342.9 795.058C1342.87 796.983 1342.83 798.563 1341.94 800.328C1339.86 803.241 1283.76 832.956 1277.36 835.429L1276.32 835.179C1274.64 826.252 1275.95 811.101 1275.94 801.499C1275.92 782.199 1278.37 643.731 1275.42 637.278C1281.18 635.901 1336.91 604.996 1340.02 602.001Z"/>
	<path fill="#373636" transform="scale(0.999721 0.999721)" d="M1302.69 665.738C1303.96 665.594 1304.81 665.57 1306.09 665.847C1307.04 666.798 1307.7 667.598 1308.06 668.93C1308.8 671.7 1308.46 676.462 1307.04 678.944C1304.04 683.26 1292.58 688.42 1287.55 690.256C1287.39 690.212 1287.22 690.204 1287.07 690.125C1282.52 687.692 1285.44 680.836 1283.55 676.797C1289.45 674.552 1297.74 669.657 1302.69 665.738Z"/>
	<path fill="#373636" transform="scale(0.999721 0.999721)" d="M1331.89 676.945C1333.74 676.68 1334.7 676.833 1336.38 677.643C1337.26 678.601 1337.92 679.409 1338.23 680.701C1338.91 683.426 1338.38 687.838 1337 690.271C1335.19 693.643 1322.53 699.29 1318.59 700.549C1317.99 700.995 1317.35 700.994 1316.63 701.121L1315.39 700.006C1314.74 698.013 1314.22 696.077 1314.26 693.961C1314.52 682.207 1324.84 683.903 1331.22 677.637C1331.45 677.412 1331.67 677.176 1331.89 676.945Z"/>
	<path fill="#373636" transform="scale(0.999721 0.999721)" d="M1302.06 693.054L1304.34 692.868C1306.15 693.725 1307.04 694.36 1307.66 696.373C1308.59 699.335 1307.88 704.278 1306.35 706.935C1304.72 709.609 1291.25 716.455 1287.84 717.81C1287.22 718.211 1286.6 718.099 1285.87 718.138C1282.52 714.237 1285.18 708.987 1283.25 704.486C1289.1 701.523 1297.27 697.357 1302.06 693.054Z"/>
	<path fill="#373636" transform="scale(0.999721 0.999721)" d="M1302.67 638.422C1303.83 638.336 1304.81 638.49 1305.95 638.67C1306.52 639.257 1307.31 639.857 1307.6 640.626C1308.79 643.732 1308.35 648.568 1307.04 651.574C1306.86 651.856 1306.59 652.339 1306.35 652.609C1303.46 655.852 1291.86 662.56 1287.64 662.6C1286.18 662.339 1285.77 661.856 1284.77 660.843C1283.88 658.116 1283.55 654.816 1284.15 651.987C1285.54 645.369 1297.02 642.111 1302.27 638.69L1302.67 638.422Z"/>
	<path fill="#373636" transform="scale(0.999721 0.999721)" d="M1332.7 649.629C1334.35 649.509 1335.1 649.547 1336.62 650.227C1337.25 651.019 1337.79 651.739 1338.09 652.73C1339.05 655.913 1338.33 661.388 1336.86 664.299C1334.24 667.167 1322.64 672.416 1318.76 674.154L1316.81 674.233C1312.85 670.982 1315.84 664.944 1313.91 660.482C1320.15 657.897 1326.95 653.263 1332.7 649.629Z"/>
	<path fill="#373636" transform="scale(0.999721 0.999721)" d="M1331.81 703.561C1332.51 703.396 1333.19 703.236 1333.92 703.23C1335.26 703.22 1336.04 703.492 1336.9 704.567C1339.19 707.423 1338.43 712.378 1337.9 715.736C1334.58 720.756 1324.31 725.645 1318.64 727.577C1317.77 727.984 1317.32 727.902 1316.38 727.867C1312.55 724.184 1315.3 718.763 1313.28 714.216C1319.27 710.76 1326.41 707.802 1331.81 703.561Z"/>
	<path fill="#373636" transform="scale(0.999721 0.999721)" d="M1332.81 622.313C1333.5 622.233 1334.42 622.051 1335.1 622.16C1336.54 622.391 1337.37 623.128 1338.04 624.392C1339.59 627.28 1338.31 633.604 1337.32 636.655C1334.53 639.813 1322.1 645.845 1317.86 647.092L1316.35 647.029C1312.62 643.656 1314.62 638.717 1312.85 634.383C1317.89 631.824 1328.9 626.008 1332.81 622.313Z"/>
	<path fill="#373636" transform="scale(0.999721 0.999721)" d="M1301.64 720.37C1303.86 719.981 1304.56 719.683 1306.71 720.501C1307.45 721.438 1308.16 722.343 1308.46 723.522C1309.14 726.098 1308.71 730.587 1307.48 732.936C1304.78 737.39 1293.39 742.705 1288.46 744.888C1286.92 745.602 1286.85 745.556 1285.18 745.198C1281.83 741.588 1284.57 735.751 1282.47 731.469C1287.84 729.457 1297.49 724.22 1301.64 720.37Z"/>
	<path fill="#373636" transform="scale(0.999721 0.999721)" d="M1306.93 770.1C1310.01 769.555 1312.76 769.091 1315.74 770.457C1318.19 771.581 1319.99 773.715 1320.83 776.256C1322.35 780.812 1321.24 786.14 1319.05 790.299C1316.86 794.459 1313.39 798.076 1308.85 799.519C1307.57 800.203 1306.7 800.335 1305.27 800.28C1302.91 800.189 1300.77 799.993 1299.14 798.057C1296.71 795.162 1296.56 790.583 1296.95 786.982C1297.73 779.853 1301.43 774.441 1306.93 770.1Z"/>
	<path fill="#FCFCFB" transform="scale(0.999721 0.999721)" d="M1307.07 776.401C1307.94 776.452 1308.2 776.504 1308.89 777.063C1309.46 777.515 1309.85 777.756 1310.53 778.066C1311.36 778.449 1312.28 778.783 1313.07 779.246C1314.33 779.977 1314.8 781.135 1315.14 782.49C1315.78 785.01 1314.84 786.873 1313.66 789.051C1312.16 790.13 1311.12 790.708 1309.31 791.109L1308.39 790.405C1307.34 791.028 1306.4 791.731 1305.13 791.75C1304.78 788.222 1303.24 784.992 1303.02 781.42L1306.03 780.271C1307.34 778.681 1307.1 778.391 1307.07 776.401Z"/>
	<path fill="#FCFCFB" transform="scale(0.999721 0.999721)" d="M1116.06 541.063C1118.89 541.535 1240.48 606.362 1248.46 611.81C1251.98 614.213 1269.15 637.151 1269.87 640.621C1271.84 644.788 1271.27 816.566 1270.1 835.036C1269.43 835.72 1269.63 835.417 1269.18 836.235C1269.08 836.421 1268.99 836.611 1268.89 836.8C1249.06 826.003 1229.19 815.125 1209.16 804.715C1201.54 800.757 1193.08 795.281 1184.88 792.836C1185.16 792.322 1185.26 792.188 1185.44 791.676C1186.17 789.589 1187.36 647.409 1186.75 633.047C1186.7 631.876 1186.31 631.093 1185.79 630.072C1183.77 626.994 1124.35 594.945 1115.38 590.824C1117.36 585.443 1116.88 548.383 1116.06 541.063Z"/>
	<path fill="#FCFCFB" transform="scale(0.999721 0.999721)" d="M990.815 597.904C999.466 601.585 1118.71 667.426 1120.63 669.338C1121 669.961 1121.04 669.969 1121.28 670.782C1122.72 675.776 1121.56 714.945 1121.57 723.061L1121.7 820.221C1121.71 837.471 1122.07 854.828 1121.62 872.07C1121.57 873.966 1121.46 875.303 1120.39 876.918C1077.44 853.11 1033.75 830.525 990.435 807.372C989.881 773.943 990.292 740.442 990.307 707.006C990.324 670.667 989.997 634.228 990.815 597.904Z"/>
	<path fill="#373636" transform="scale(0.999721 0.999721)" d="M999.798 617.861C999.939 617.876 1000.08 617.888 1000.22 617.906C1002.08 618.145 1003.75 618.754 1005.43 619.579C1014.19 623.886 1108.07 675.141 1110.18 677.834C1111.14 679.297 1111.13 680.583 1111.19 682.279C1111.57 693.054 1111.18 703.959 1111.15 714.751L1111.15 776.129L1111.23 825.331C1111.25 833.775 1111.68 842.458 1111.2 850.88C1111.06 853.23 1111.01 853.923 1109.41 855.629L1108.32 856.516C1107.34 856.601 1106.75 856.622 1105.83 856.192C1098.59 852.787 1091.5 848.522 1084.44 844.744Q1062.23 832.995 1040.25 820.813C1026.82 813.348 1012.33 806.5 999.602 797.945C998.806 786.923 999.32 775.568 999.33 764.507L999.395 704.329L999.357 649.725C999.349 639.184 998.859 628.359 999.798 617.861Z"/>
	<path fill="#FCFCFB" transform="scale(0.999721 0.999721)" d="M1005.37 626.343C1029.04 639.68 1052.99 652.603 1076.85 665.599C1083.08 668.99 1100.16 676.528 1104.56 681C1104.64 681.156 1104.74 681.307 1104.8 681.47C1105.87 684.02 1106.46 843.469 1104.66 848.161C1100.63 848.228 1016.53 801.177 1005.43 794.493L1005.37 626.343Z"/>
	<path fill="#373636" transform="scale(0.999721 0.999721)" d="M583.423 400.015C586.439 392.652 588.883 385.188 592.611 378.12Q593.664 376.165 594.798 374.256Q595.933 372.347 597.147 370.488Q598.362 368.63 599.655 366.824Q600.948 365.019 602.316 363.27Q603.684 361.521 605.125 359.832Q606.567 358.143 608.079 356.517Q609.59 354.891 611.17 353.331Q612.75 351.77 614.394 350.278Q616.039 348.787 617.745 347.366Q619.452 345.946 621.217 344.599Q622.982 343.252 624.803 341.982Q626.624 340.712 628.497 339.52Q630.371 338.328 632.293 337.217Q634.215 336.107 636.183 335.078Q638.151 334.05 640.16 333.107Q642.17 332.163 644.218 331.306Q645.429 330.799 646.653 330.322Q647.877 329.845 649.112 329.398Q650.347 328.951 651.592 328.536Q652.838 328.12 654.094 327.735Q655.349 327.35 656.614 326.997Q657.879 326.643 659.152 326.321Q660.425 325.999 661.706 325.708Q662.986 325.418 664.274 325.159Q665.562 324.9 666.855 324.674Q668.149 324.447 669.447 324.253Q670.746 324.058 672.049 323.896Q673.352 323.733 674.659 323.603Q675.966 323.474 677.276 323.376Q678.585 323.279 679.897 323.213Q681.208 323.148 682.521 323.116Q683.834 323.083 685.147 323.083Q686.461 323.083 687.773 323.116Q689.086 323.149 690.398 323.214Q691.709 323.279 693.019 323.377Q694.329 323.474 695.635 323.604Q696.942 323.734 698.245 323.897Q699.549 324.059 700.847 324.254Q702.146 324.448 703.44 324.675Q704.733 324.902 706.021 325.161Q707.308 325.419 708.589 325.71Q709.869 326 711.143 326.323Q712.416 326.645 713.68 326.999Q714.945 327.352 716.201 327.737Q717.456 328.122 718.702 328.538Q719.948 328.954 721.183 329.401Q722.418 329.847 723.641 330.325Q724.865 330.802 726.076 331.309C745.003 339.136 758.58 351.684 771.27 367.363C795.411 358.382 820.944 358.407 844.488 369.255Q845.578 369.758 846.656 370.288Q847.734 370.817 848.798 371.373Q849.862 371.929 850.913 372.512Q851.963 373.094 852.998 373.702Q854.034 374.31 855.054 374.943Q856.075 375.576 857.079 376.234Q858.083 376.893 859.071 377.575Q860.059 378.258 861.03 378.965Q862 379.672 862.953 380.403Q863.906 381.133 864.841 381.887Q865.776 382.641 866.692 383.418Q867.608 384.195 868.504 384.994Q869.4 385.793 870.277 386.614Q871.153 387.435 872.009 388.278Q872.865 389.12 873.7 389.983Q874.535 390.847 875.348 391.73Q876.161 392.614 876.953 393.517Q877.744 394.421 878.513 395.343Q879.282 396.266 880.028 397.207Q880.773 398.148 881.496 399.108Q882.218 400.067 882.917 401.044Q883.615 402.021 884.29 403.015Q884.964 404.009 885.613 405.019Q886.263 406.029 886.887 407.055Q887.512 408.081 888.111 409.122Q888.71 410.163 889.283 411.218Q889.856 412.274 890.403 413.343Q890.95 414.412 891.47 415.495Q891.991 416.577 892.484 417.672Q892.978 418.767 893.444 419.874Q893.911 420.981 894.35 422.099Q894.789 423.217 895.2 424.345C898.681 433.971 899.94 443.431 900.915 453.52C923.198 457.722 942.694 468.87 955.735 487.791Q956.33 488.655 956.904 489.534Q957.477 490.413 958.029 491.306Q958.58 492.198 959.109 493.105Q959.638 494.011 960.144 494.93Q960.651 495.849 961.134 496.781Q961.617 497.712 962.077 498.655Q962.537 499.599 962.973 500.553Q963.409 501.508 963.821 502.472Q964.234 503.438 964.622 504.412Q965.01 505.387 965.374 506.372Q965.737 507.356 966.076 508.349Q966.415 509.342 966.73 510.344Q967.044 511.345 967.333 512.354Q967.622 513.363 967.886 514.378Q968.15 515.394 968.389 516.416Q968.627 517.438 968.84 518.465Q969.054 519.493 969.241 520.525Q969.428 521.558 969.59 522.595Q969.751 523.632 969.887 524.672Q970.023 525.713 970.133 526.757Q970.242 527.8 970.326 528.847Q970.41 529.893 970.467 530.94Q970.525 531.988 970.557 533.037Q970.588 534.086 970.593 535.136Q970.599 536.185 970.578 537.234Q970.557 538.284 970.51 539.332Q970.463 540.38 970.39 541.427Q970.317 542.474 970.218 543.519Q970.119 544.564 969.994 545.606Q969.869 546.647 969.718 547.686Q969.567 548.724 969.39 549.759Q969.214 550.793 969.011 551.823Q968.821 552.814 968.606 553.8Q968.391 554.786 968.153 555.766Q967.914 556.746 967.651 557.72Q967.388 558.694 967.102 559.662Q966.815 560.629 966.505 561.589Q966.194 562.549 965.86 563.501Q965.526 564.453 965.169 565.397Q964.812 566.34 964.432 567.275Q964.052 568.209 963.648 569.134Q963.245 570.059 962.819 570.974Q962.394 571.889 961.946 572.793Q961.498 573.697 961.027 574.589Q960.557 575.482 960.065 576.363Q959.573 577.243 959.06 578.112Q958.546 578.98 958.011 579.836Q957.477 580.691 956.921 581.533Q956.366 582.376 955.79 583.204Q955.214 584.032 954.617 584.846Q954.021 585.66 953.405 586.458Q952.789 587.257 952.153 588.041Q951.518 588.824 950.863 589.592Q950.208 590.359 949.535 591.111Q948.862 591.862 948.17 592.596Q947.479 593.331 946.769 594.048Q946.06 594.765 945.333 595.465Q944.606 596.164 943.862 596.846Q943.118 597.527 942.358 598.19Q941.598 598.853 940.821 599.497Q940.045 600.141 939.253 600.766Q938.461 601.391 937.654 601.996Q936.846 602.601 936.025 603.186Q935.203 603.771 934.367 604.336C917.41 615.771 896.445 620.724 876.252 616.798C864.916 614.594 855.846 609.402 846.417 603.055C834.589 614.435 819.322 621.183 802.78 620.785Q801.223 620.742 799.671 620.623Q798.118 620.504 796.573 620.31Q795.028 620.116 793.495 619.846Q791.961 619.577 790.443 619.233Q788.924 618.889 787.424 618.472Q785.923 618.054 784.445 617.564Q782.967 617.074 781.515 616.512Q780.063 615.951 778.64 615.319Q777.216 614.687 775.825 613.987Q774.435 613.287 773.08 612.519Q771.724 611.752 770.408 610.919Q769.092 610.087 767.819 609.191Q766.545 608.296 765.316 607.339Q764.087 606.382 762.906 605.367Q761.726 604.351 760.596 603.279Q759.466 602.208 758.39 601.082Q755.983 598.526 753.825 595.756C741.392 609.491 727.866 619.656 708.581 620.614Q707.071 620.687 705.559 620.67C703.469 620.61 701.355 620.698 699.262 620.719C680.561 618.906 668.218 610.06 655.645 596.884C653.471 599.496 651.252 602.033 648.79 604.381C637.116 615.516 622.67 621.18 606.527 620.724C586.845 620.168 572.78 611.254 559.69 597.33C552.248 605.676 542.049 612.364 531.539 616.108C514.684 622.11 496.113 620.513 480.097 612.715Q478.537 611.952 477.018 611.112Q475.498 610.272 474.022 609.357Q472.546 608.442 471.118 607.454Q469.689 606.467 468.312 605.409Q466.935 604.352 465.612 603.227Q464.289 602.102 463.024 600.912Q461.759 599.722 460.555 598.471Q459.351 597.22 458.21 595.91Q457.07 594.6 455.997 593.235Q454.923 591.87 453.919 590.453Q452.915 589.036 451.983 587.57Q451.051 586.105 450.194 584.595Q449.336 583.084 448.555 581.533Q447.773 579.982 447.071 578.394Q446.368 576.806 445.745 575.185Q445.122 573.563 444.581 571.913Q444.009 570.218 443.521 568.496Q443.033 566.775 442.631 565.031Q442.229 563.287 441.914 561.526Q441.598 559.765 441.371 557.99Q441.143 556.215 441.003 554.431Q440.863 552.647 440.812 550.859Q440.761 549.07 440.798 547.281Q440.835 545.492 440.961 543.707Q441.087 541.922 441.3 540.146Q441.514 538.369 441.816 536.605Q442.117 534.841 442.505 533.095Q442.893 531.348 443.368 529.623Q443.842 527.897 444.401 526.198Q444.96 524.498 445.602 522.828Q446.244 521.158 446.969 519.521Q447.693 517.885 448.497 516.287C458.375 496.576 474.917 485.216 495.316 478.462C492.66 464.76 494.62 451.739 499.25 438.772L501.815 433.314C512.254 415.647 525.715 403.57 546.011 398.325C558.91 394.992 570.779 396.52 583.423 400.015Z"/>
	<path fill="#FCFCFB" transform="scale(0.999721 0.999721)" d="M676.1 329.457C682.848 328.471 690.868 328.987 697.562 329.826C728.808 333.747 750.879 350.477 769.514 374.701C781.216 369.513 793.009 366.738 805.858 366.803Q806.962 366.81 808.066 366.843Q809.17 366.877 810.273 366.938Q811.376 367 812.477 367.088Q813.578 367.176 814.676 367.292Q815.775 367.407 816.87 367.55Q817.965 367.693 819.056 367.862Q820.148 368.032 821.235 368.228Q822.322 368.425 823.403 368.648Q824.485 368.871 825.561 369.121Q826.637 369.371 827.706 369.648Q828.775 369.924 829.837 370.227Q830.9 370.53 831.954 370.859Q833.008 371.188 834.054 371.542Q835.1 371.897 836.137 372.278Q837.174 372.658 838.201 373.064Q839.228 373.471 840.245 373.902Q841.262 374.333 842.268 374.789Q843.274 375.246 844.268 375.727Q845.262 376.208 846.244 376.713Q847.227 377.219 848.196 377.748Q849.165 378.278 850.121 378.831Q851.077 379.384 852.019 379.961Q852.961 380.538 853.889 381.137Q854.816 381.737 855.729 382.36Q856.641 382.982 857.538 383.627Q858.435 384.272 859.315 384.939Q860.196 385.606 861.06 386.294Q861.924 386.983 862.77 387.692Q863.617 388.402 864.446 389.132Q865.275 389.862 866.085 390.612Q866.896 391.363 867.688 392.133Q868.479 392.903 869.252 393.693C886.195 411.174 895.021 433.904 894.77 458.208C909.744 461.029 923.032 465.028 935.26 474.605Q936.752 475.777 938.184 477.021Q939.617 478.265 940.986 479.579Q942.354 480.893 943.657 482.272Q944.959 483.652 946.191 485.095Q947.423 486.538 948.583 488.04Q949.742 489.542 950.826 491.099Q951.909 492.657 952.914 494.266Q953.92 495.875 954.844 497.532Q955.768 499.189 956.609 500.89Q957.45 502.591 958.206 504.331Q958.962 506.072 959.631 507.847Q960.3 509.623 960.88 511.43Q961.46 513.236 961.95 515.07Q962.44 516.903 962.839 518.758Q963.237 520.613 963.543 522.486Q963.85 524.359 964.063 526.244C966.399 546.383 961.069 567.322 948.345 583.215C935.755 598.939 917.816 609.574 897.679 611.719C877.617 613.855 861.862 607.526 846.574 595.029C840.38 600.765 834.047 605.964 826.334 609.551Q825.415 609.976 824.482 610.366Q823.548 610.757 822.6 611.113Q821.653 611.469 820.693 611.79Q819.733 612.11 818.762 612.396Q817.79 612.681 816.809 612.93Q815.828 613.179 814.839 613.391Q813.849 613.604 812.853 613.78Q811.856 613.956 810.853 614.095Q809.851 614.235 808.844 614.337Q807.837 614.439 806.827 614.504Q805.817 614.569 804.805 614.596Q803.793 614.624 802.781 614.614Q801.769 614.604 800.758 614.557Q799.747 614.51 798.739 614.426Q797.73 614.341 796.725 614.22Q795.72 614.098 794.721 613.94Q793.721 613.781 792.728 613.586Q791.735 613.391 790.75 613.159Q789.764 612.927 788.788 612.659Q787.812 612.391 786.847 612.088Q785.881 611.784 784.928 611.445Q783.974 611.105 783.034 610.731Q782.093 610.357 781.167 609.948Q780.241 609.54 779.331 609.097Q778.42 608.655 777.527 608.179Q776.634 607.703 775.758 607.195Q774.883 606.687 774.027 606.146Q773.171 605.606 772.336 605.034Q771.5 604.463 770.687 603.861Q769.873 603.259 769.082 602.627Q768.291 601.996 767.523 601.336Q766.756 600.675 766.014 599.987C762.935 597.092 757.451 588.857 753.651 587.788C752.112 587.355 751.237 588.617 750.41 589.717C743.246 599.247 736.724 604.957 726 610.194C718.505 613.33 710.378 615.079 702.237 614.745C679.452 613.809 670.148 602.415 655.984 586.891C652.496 590.052 649.697 594.133 646.572 597.675C638.773 606.516 627.382 612.422 615.732 614.09Q614.989 614.195 614.244 614.28Q613.498 614.364 612.751 614.428Q612.003 614.492 611.254 614.535Q610.505 614.579 609.755 614.601Q609.005 614.624 608.255 614.625Q607.505 614.627 606.755 614.608Q606.005 614.59 605.256 614.55Q604.506 614.51 603.759 614.45Q603.011 614.39 602.265 614.309Q601.519 614.228 600.776 614.127Q600.032 614.025 599.292 613.903Q598.552 613.781 597.815 613.639Q597.079 613.497 596.346 613.334Q595.614 613.172 594.886 612.989Q594.158 612.806 593.436 612.603Q592.714 612.401 591.997 612.178Q591.281 611.955 590.571 611.713Q589.861 611.47 589.158 611.208Q588.454 610.947 587.759 610.665Q587.063 610.384 586.376 610.084Q585.688 609.784 585.009 609.464Q584.33 609.145 583.66 608.807Q582.99 608.47 582.33 608.113Q581.669 607.757 581.019 607.383Q580.369 607.009 579.729 606.617Q579.089 606.225 578.461 605.815Q577.832 605.405 577.215 604.979Q576.598 604.552 575.993 604.108Q575.388 603.664 574.795 603.204Q574.203 602.744 573.623 602.268Q573.043 601.791 572.477 601.299Q571.911 600.807 571.358 600.299C567.481 596.727 564.472 591.99 560.296 588.816C556.27 590.656 552.356 595.811 549.014 598.809Q545.872 601.635 542.339 603.952Q538.806 606.269 534.963 608.025C520.221 614.885 504.193 615.317 488.965 609.745Q487.479 609.203 486.022 608.587Q484.565 607.971 483.141 607.283Q481.716 606.596 480.328 605.838Q478.939 605.081 477.59 604.255Q476.241 603.43 474.934 602.538Q473.628 601.646 472.367 600.69Q471.107 599.735 469.895 598.718Q468.684 597.7 467.524 596.624Q466.365 595.548 465.26 594.415Q464.156 593.283 463.109 592.096Q462.063 590.91 461.076 589.674Q460.09 588.437 459.166 587.153Q458.242 585.868 457.384 584.54Q456.525 583.211 455.733 581.841Q454.942 580.471 454.219 579.064Q453.497 577.657 452.845 576.215Q452.168 574.701 451.566 573.156Q450.964 571.611 450.439 570.039Q449.913 568.466 449.465 566.869Q449.017 565.273 448.648 563.656Q448.279 562.04 447.989 560.407Q447.7 558.774 447.49 557.129Q447.281 555.484 447.152 553.831Q447.024 552.178 446.976 550.521Q446.929 548.863 446.962 547.205Q446.996 545.547 447.111 543.893Q447.226 542.239 447.421 540.592Q447.617 538.946 447.893 537.31Q448.169 535.675 448.525 534.056Q448.881 532.436 449.315 530.836Q449.75 529.236 450.263 527.659Q450.775 526.082 451.364 524.532C457.348 508.947 469.562 495.676 484.94 489.005C489.572 486.996 495.012 486.152 499.461 483.96C499.851 483.768 501.233 483.019 501.413 482.66C502.045 481.404 500.243 464.428 500.246 461.921C500.252 456.751 501.23 452.177 502.723 447.253C507.546 431.345 517.991 417.832 532.747 409.993C551.066 400.26 568.26 401.659 587.364 407.649C593.511 392.171 596.557 380.309 607.382 366.661C624.685 344.842 648.691 332.633 676.1 329.457Z"/>
	<path fill="#D24F2B" transform="scale(0.999721 0.999721)" d="M581.688 462.254L650.034 462.271L650.215 482.306L628.109 482.201L628.105 522.856L628.135 546.281L603.062 546.182L603.113 482.446C595.923 482.234 588.714 482.234 581.521 482.139L581.688 462.254Z"/>
	<path fill="#D24F2B" transform="scale(0.999721 0.999721)" d="M710.605 461.18C718.354 460.917 725.313 462.13 732.698 464.339C733.026 472.348 732.817 480.445 732.843 488.465C729.767 486.748 726.649 484.934 723.353 483.678C716.812 481.186 709.787 480.665 703.31 483.645C698.089 486.046 694.283 490.448 692.383 495.844C690.054 502.461 690.336 510.553 693.446 516.871Q693.672 517.334 693.921 517.784Q694.17 518.235 694.441 518.672Q694.713 519.109 695.007 519.532Q695.3 519.955 695.615 520.362Q695.93 520.769 696.265 521.16Q696.601 521.55 696.955 521.923Q697.31 522.296 697.684 522.65Q698.057 523.004 698.448 523.339Q698.839 523.674 699.247 523.988Q699.654 524.302 700.078 524.595Q700.501 524.888 700.938 525.159Q701.376 525.43 701.827 525.678Q702.278 525.926 702.741 526.151Q703.204 526.376 703.677 526.577Q704.151 526.778 704.635 526.954Q705.118 527.131 705.61 527.282C715.499 530.415 724.894 526.098 733.471 521.509L733.664 537.045L733.785 544.589C727.839 546.499 721.608 547.871 715.375 548.323C702.736 549.24 689.207 546.574 679.447 538.052C671.189 530.84 666.505 520.554 665.778 509.678C664.971 497.615 668.001 484.834 676.241 475.701C685.208 465.762 697.606 461.902 710.605 461.18Z"/>
	<path fill="#D24F2B" transform="scale(0.999721 0.999721)" d="M756.017 462.327C772.729 462.255 802.6 459.289 816.659 468.282C822.634 472.104 826.626 477.801 828.007 484.777C829.528 492.462 828.189 501.002 823.735 507.519C818.291 515.482 810.313 518.591 801.188 520.355C794.374 521.038 787.545 520.688 780.714 520.493L780.649 546.384L755.93 546.367L756.017 462.327Z"/>
	<path fill="#FCFCFB" transform="scale(0.999721 0.999721)" d="M780.663 479.17C787.491 478.894 794.927 478.61 800.413 483.45C802.171 485.002 803.378 486.931 803.461 489.319C803.596 493.253 801.464 496.585 798.924 499.353C793.206 503.171 787.213 502.732 780.677 502.649C780.589 494.826 780.663 486.994 780.663 479.17Z"/>
	<path fill="#373636" transform="scale(0.999721 0.999721)" d="M356.999 366.139C324.552 382.84 292.77 400.861 260.378 417.706C250.491 422.848 240.738 429.844 230.332 433.753C226.011 435.376 219.272 436.348 214.743 435.273C204.474 432.836 161.456 407.962 149.023 401.35L121.645 386.727C116.315 383.914 110.552 381.367 105.583 377.946Q103.758 376.694 102.069 375.264Q100.38 373.834 98.8446 372.24Q97.3088 370.647 95.9419 368.906Q94.5749 367.166 93.3908 365.296C89.7898 359.522 87.6868 353.088 86.9501 346.337C85.3883 332.022 86.7959 316.333 86.7922 301.851L86.731 249.821C86.7179 236.859 85.4749 222.571 88.4411 209.934C91.4225 197.232 98.471 187.004 109.655 180.163C122.045 172.583 138.111 165.219 151.255 158.108L259.514 99.9354L337.842 57.6452C351.088 50.5465 364.79 41.9145 378.916 36.748C385.859 34.2085 395.696 34.3246 402.811 36.1764C411.132 38.3418 419.686 44.04 427.335 48.0503L476.847 74.2918C489.206 80.7647 506.223 87.8509 517.41 95.2824C521.344 97.8959 524.669 101.208 527.033 105.315C529.578 109.739 530.864 114.725 531.372 119.775C532.783 133.802 531.483 152.16 531.523 166.738C531.59 191.242 532.759 218.413 531.419 242.616C531.2 246.582 530.655 250.504 529.57 254.331C527.021 263.315 521.735 272.706 514.629 278.87C502.01 289.817 470.499 304.365 454.515 312.921L363.2 362.936C361.118 363.925 358.901 364.831 356.999 366.139Z"/>
	<path fill="#FCFCFB" transform="scale(0.999721 0.999721)" d="M367.513 210.031C368.942 215.933 367.8 233.657 367.785 241.067C350.345 251.155 332.392 260.357 314.531 269.67Q314.768 254.21 314.178 238.759C331.533 228.573 349.74 219.482 367.513 210.031Z"/>
	<path fill="#FCFCFB" transform="scale(0.999721 0.999721)" d="M307.259 242.297C309.969 246.624 308.669 267.28 308.692 273.386C289.751 284.213 270.367 294.227 251.102 304.46L250.635 304.395C249.241 301.745 249.69 280.054 250.622 276.476C251.215 274.203 252.337 272.549 254.151 271.073C259.179 266.985 266.396 264.075 272.161 261.028Q289.79 251.813 307.259 242.297Z"/>
	<path fill="#FCFCFB" transform="scale(0.999721 0.999721)" d="M110.77 225.951C125.985 232.48 140.663 241.419 155.292 249.228C174.539 259.503 194.203 269.186 213.062 280.157L212.978 307.402C178.892 289.09 144.568 271.297 110.736 252.503L110.77 225.951Z"/>
	<path fill="#FCFCFB" transform="scale(0.999721 0.999721)" d="M110.652 331.057C144.767 348.775 179.375 366.387 212.842 385.279C212.947 392.193 214.616 402.526 210.993 408.524C209.511 409.196 207.947 409.891 206.288 409.467C201.515 408.247 123.296 366.154 117.231 362.051C114.241 360.028 112.573 357.478 110.673 354.47C110.407 346.692 110.636 338.842 110.652 331.057Z"/>
	<path fill="#FCFCFB" transform="scale(0.999721 0.999721)" d="M110.663 259.406C122.268 264.517 133.64 272.001 144.865 278.031L213.127 314.399L213.2 342.935C210.018 342.757 122.438 294.28 110.637 288.07L110.663 259.406Z"/>
	<path fill="#FCFCFB" transform="scale(0.999721 0.999721)" d="M110.704 295.113C123.007 300.169 136.458 308.976 148.304 315.383C169.942 327.088 191.912 338.164 213.217 350.478Q213.287 364.11 213.099 377.741C209.245 377.883 124.93 331.24 110.652 324.434L110.704 295.113Z"/>
	<path fill="#FCFCFB" transform="scale(0.999721 0.999721)" d="M232.374 273.687C234.828 268.563 237.142 264.247 241.93 260.983C254.742 252.248 271.137 244.958 284.929 237.531L365.27 193.801L449.221 148.394C465.957 139.266 486.249 127.126 503.491 120.024C503.453 136.112 504.02 152.456 503.136 168.509C490.319 177.771 471.231 185.88 456.965 193.38Q415.27 215.462 373.838 238.032C373.892 229.041 375.66 210.413 372.453 202.504C371.544 201.908 371.694 201.736 370.535 201.971C364.851 203.122 308.862 234.537 298.829 239.948C283.118 248.421 266.993 256.367 251.504 265.22C250.035 266.059 248.478 267.027 247.522 268.462C246.2 270.448 245.301 272.977 244.399 275.189C240.408 275.332 235.951 275.746 232.374 273.687Z"/>
	<path fill="#373636" transform="scale(0.999721 0.999721)" d="M474.075 147.2C475.645 147.087 477.234 147.008 478.797 147.251C481.964 147.741 485.043 149.821 486.78 152.498C488.834 155.663 489.19 159.703 488.199 163.295C486.801 168.363 483.56 171.04 479.157 173.402C477.347 173.679 475.568 173.82 473.756 173.425C471.005 172.826 468.495 171.24 466.952 168.865C464.746 165.469 464.637 161.154 465.653 157.342C466.973 152.388 469.822 149.701 474.075 147.2Z"/>
	<path fill="#FCFCFB" transform="scale(0.999721 0.999721)" d="M475.449 153.228C477.607 153.232 479.733 153.461 481.329 155.083C482.477 156.249 482.982 157.757 482.898 159.38C482.712 162.99 480.783 165.315 478.297 167.659C475.879 167.652 473.811 167.472 472.084 165.583C470.984 164.38 470.559 163.037 470.667 161.419C470.915 157.689 472.884 155.616 475.449 153.228Z"/>
	<path fill="#373636" transform="scale(0.999721 0.999721)" d="M439.76 164.653C441.533 164.446 443.298 164.353 445.083 164.497C448.243 164.752 451.218 166.591 453.098 169.119C455.298 172.076 455.888 175.871 455.192 179.439C454.175 184.659 451.216 187.517 446.968 190.258C445.126 190.692 443.213 191.031 441.313 190.817C438.552 190.507 435.866 189.147 434.145 186.945C431.981 184.177 431.448 180.458 431.927 177.052C432.707 171.519 435.37 167.958 439.76 164.653Z"/>
	<path fill="#FCFCFB" transform="scale(0.999721 0.999721)" d="M442.021 170.594C444.205 170.556 446.037 170.621 447.698 172.217C449 173.468 449.494 175.142 449.401 176.915C449.212 180.526 447.582 182.519 445.117 184.896C443.365 185.045 441.267 185.237 439.718 184.203C438.275 183.241 437.527 181.773 437.386 180.063C437.075 176.301 439.565 173.106 442.021 170.594Z"/>
	<path fill="#373636" transform="scale(0.999721 0.999721)" d="M407.758 181.408C409.595 181.519 411.542 181.893 413.25 182.584C415.912 183.661 418.116 186.011 419.25 188.619C420.817 192.221 420.552 196.419 419.082 200.007C417.009 205.067 413.565 207.438 408.713 209.408C407.217 209.356 405.811 209.173 404.367 208.758C401.249 207.862 398.905 205.999 397.468 203.055C395.663 199.356 395.963 194.766 397.461 191.011C399.494 185.913 402.895 183.482 407.758 181.408Z"/>
	<path fill="#FCFCFB" transform="scale(0.999721 0.999721)" d="M407.083 188.249Q407.919 188.226 408.753 188.286C410.772 188.411 412.446 188.934 413.72 190.609C414.798 192.027 415.062 193.718 414.784 195.444C414.194 199.107 412.332 200.923 409.446 202.917C407.297 202.962 405.201 202.832 403.526 201.3C402.485 200.347 401.986 198.907 401.999 197.517C402.04 193.44 404.396 190.926 407.083 188.249Z"/>
	<path fill="#FCFCFB" transform="scale(0.999721 0.999721)" d="M226.277 288.826L226.353 367.7C226.344 381.856 227.209 396.651 226.042 410.742C225.677 415.139 224.866 419.897 223.081 423.962C222.15 426.084 220.448 427.698 218.222 428.398C215.349 429.301 212.832 428.276 210.27 427.008C189.718 416.842 169.55 405.392 149.275 394.653C137.552 388.443 114.332 377.905 104.971 369.756C99.7384 365.201 96.0486 358.847 93.8841 352.3C93.0315 349.722 92.706 347.13 92.5561 344.426C91.3367 322.423 92.4061 299.748 92.426 277.677C92.4429 258.905 91.2725 239.297 92.7509 220.612C93.2291 214.567 94.2959 207.438 97.0998 201.993Q97.6927 200.822 98.3611 199.693Q99.0295 198.564 99.7706 197.481Q100.512 196.398 101.322 195.366Q102.133 194.334 103.009 193.358Q103.886 192.381 104.824 191.464Q105.763 190.548 106.76 189.694Q107.757 188.841 108.807 188.055Q109.858 187.269 110.958 186.554C121.785 179.408 134.598 173.862 146.104 167.702L220.611 127.618L329.026 69.1256C342.558 61.8388 366.991 46.9298 379.942 42.9824C386.115 41.1007 394.342 40.3556 400.63 42.0146C411.384 44.8516 426.918 54.8879 437.396 60.4359L504 95.4417C496.751 98.0602 490.373 101.847 483.765 105.749C458.746 93.1231 434.147 79.2306 409.428 65.9801C400.963 61.4422 391.445 54.5372 382.416 51.5976C380.275 50.9004 378.159 51.4046 376.062 51.9808C366.065 54.7279 355.918 61.2536 346.708 66.0791Q316.155 82.2767 285.766 98.7796Q230.364 128.089 175.379 158.173C162.735 165.007 149.732 171.322 137.242 178.41C135.166 179.588 132.476 181.021 131.275 183.151C137.847 188.889 152.251 194.571 160.344 198.687C186.347 211.911 213.057 224.52 238.458 238.842C224.497 247.589 217.641 257.527 213.232 273.22C192.684 261.532 171.381 250.958 150.507 239.845C136.567 232.424 122.179 223.207 107.435 217.744C105.567 219.434 105.281 221.706 105.041 224.139C104.258 232.056 104.921 240.489 104.893 248.458L104.579 292.436L104.569 332.782C104.586 338.877 104.054 345.201 104.69 351.261C105.084 355.02 106.111 359.872 108.719 362.761C113.626 368.199 202.227 415.905 207.808 416.022C210.407 416.076 213.056 414.647 214.9 412.908C217.196 410.745 218.068 408.401 218.482 405.348C220.18 392.808 218.725 378.721 218.732 365.971C218.748 335.734 218.386 305.342 219.329 275.124C221.304 275.1 222.63 275.2 224.47 275.944C227.407 279.08 225.713 284.801 226.277 288.826Z"/>
	<path fill="#FCFCFB" transform="scale(0.999721 0.999721)" d="M377.273 57.3662C379.165 57.2325 380.707 57.457 382.442 58.2617C390.788 62.1342 398.885 67.2351 407.045 71.551C430.546 83.9823 453.848 96.7268 477.507 108.865L311.235 199.256L267.514 223.148C260.314 227.093 252.588 232.247 244.879 235.03C235.004 230.527 225.437 225.158 215.746 220.257Q178.938 201.828 142.544 182.595C165.023 170.964 187.112 158.39 209.385 146.349L297.273 99.3254Q321.564 86.1467 345.995 73.2325C356.287 67.7825 366.559 61.952 377.273 57.3662Z"/>
	<path fill="#D1D1D0" transform="scale(0.999721 0.999721)" d="M219.329 275.124Q219.981 271.016 221.338 267.084C223.832 259.79 228.7 252.833 234.913 248.23C243.683 241.734 254.875 236.966 264.473 231.714L329.162 196.492L440.38 136.208C458.849 126.158 477.141 115.087 495.997 105.829C501.485 103.135 508.303 99.8543 514.447 102.201C518.609 103.791 521.592 107.445 523.346 111.428C524.68 114.458 525.246 117.571 525.436 120.867C526.653 142.042 525.461 166.87 525.386 188.466C525.322 206.793 526.496 225.895 525.191 244.105Q524.942 247.691 524.156 251.198Q523.37 254.706 522.065 258.055C518.57 266.91 513.578 272.523 505.871 277.886C491.566 287.84 474.298 295.465 458.88 303.688L380.166 346.386Q324.907 377.042 268.962 406.427C255.315 413.631 241.758 422.451 227.642 428.523C229.753 423.959 231.498 419.134 232.057 414.113C233.807 398.42 232.388 380.418 232.38 364.521C232.366 334.25 232.757 303.956 232.374 273.687C235.951 275.746 240.408 275.332 244.399 275.189C244.32 284.38 242.644 304.557 245.582 312.588C246.878 313.248 247.183 313.055 248.606 312.637C254.04 311.043 259.926 306.764 264.913 304.017C273.463 299.307 282.135 294.8 290.747 290.204L436.908 210.804C452.245 202.512 467.863 194.669 483.308 186.57C490.656 182.717 499.031 179.153 505.611 174.122C506.747 173.253 507.832 172.468 508.483 171.152C509.978 168.129 510.288 121.853 508.709 118.027C508.028 116.377 506.84 114.869 505.117 114.251C503.303 113.6 501.441 113.994 499.707 114.687C493.413 117.201 487.136 121.145 481.123 124.325Q461.801 134.493 442.634 144.951L344.105 198.15C323.595 209.38 303.333 221.04 282.665 231.986C269.96 238.714 248.139 248.342 237.551 256.643C233.207 260.049 229.748 264.646 228.136 269.959C226.312 275.969 226.579 282.6 226.277 288.826C225.713 284.801 227.407 279.08 224.47 275.944C222.63 275.2 221.304 275.1 219.329 275.124Z"/>
	<path fill="#373636" transform="scale(0.999721 0.999721)" d="M502.844 185.485C503.572 185.494 504.324 185.542 505.041 185.667C506.459 185.915 508.217 186.896 508.974 188.171C510.528 190.789 510.392 247.27 509.981 254.598C509.788 258.049 509.324 261.566 508.296 264.876C507.293 268.105 503.38 270.598 500.616 272.311C491.589 277.906 481.582 282.345 472.222 287.399L408.954 321.525Q330.215 364.661 250.961 406.842C250.846 406.909 250.737 406.985 250.617 407.042C248.791 407.905 247.474 407.735 245.649 407.107C245.285 406.58 244.804 406.118 244.558 405.528C242.971 401.714 244.313 336.279 244.36 326.105C251.815 320.821 260.952 316.779 269.039 312.382L320.898 284.165Q411.327 233.82 502.844 185.485Z"/>
	<path fill="#FCFCFB" transform="scale(0.999721 0.999721)" d="M503.086 192.574L503.664 193.479C504.714 203.906 504.019 215.005 504.039 225.503C504.06 236.062 504.82 247.244 503.773 257.724C503.537 260.086 502.787 262.384 502.053 264.631L250.818 399.947L250.314 399.456C248.907 393.133 249.929 384.344 249.932 377.731L249.95 329.693L400.453 247.393C434.426 228.823 468.256 209.488 503.086 192.574Z"/>
</svg>
