<?xml version="1.0" encoding="utf-8" ?>
<svg xmlns="http://www.w3.org/2000/svg" xmlns:xlink="http://www.w3.org/1999/xlink" width="1434" height="1024">
	<path fill="#FCF7EB" transform="scale(0.999721 0.999721)" d="M0 0L1432.77 0C1433.55 1.35287 1433.84 2.273 1433.92 3.82991C1434.39 14.2948 1434 24.9358 1434 35.4235L1434 96.5893L1434.01 282.797L1434 835.994L1434 973.892C1434.01 983.184 1435.15 1015.65 1433.74 1021.9C1433.56 1022.7 1433.19 1023.31 1432.77 1024L0 1024L0 0Z"/>
	<path transform="scale(0.999721 0.999721)" d="M415.47 187.928C421.469 187.7 427.989 189.515 433.109 192.638Q433.722 193.004 434.315 193.4Q434.909 193.796 435.482 194.222Q436.055 194.648 436.605 195.102Q437.156 195.556 437.683 196.037Q438.21 196.519 438.713 197.026Q439.215 197.533 439.691 198.065Q440.167 198.597 440.615 199.152Q441.064 199.707 441.484 200.284Q441.904 200.862 442.295 201.459Q442.685 202.057 443.045 202.673Q443.405 203.29 443.733 203.924Q444.061 204.558 444.357 205.207Q444.653 205.857 444.916 206.521Q445.179 207.184 445.408 207.86Q445.637 208.537 445.831 209.223Q446.026 209.91 446.186 210.606C447.86 218.137 446.488 226.483 442.233 232.946C436.961 240.957 429.578 244.544 420.445 246.443C412.881 246.353 406.349 245.192 400.164 240.545Q399.567 240.093 398.993 239.611Q398.419 239.13 397.869 238.621Q397.319 238.112 396.796 237.576Q396.272 237.041 395.775 236.48Q395.278 235.919 394.81 235.335Q394.341 234.75 393.902 234.143Q393.463 233.536 393.055 232.908Q392.646 232.279 392.27 231.632Q391.893 230.984 391.548 230.319Q391.204 229.654 390.892 228.972Q390.581 228.291 390.304 227.595Q390.027 226.899 389.784 226.19Q389.542 225.481 389.335 224.761Q389.128 224.041 388.956 223.311Q388.785 222.582 388.65 221.845Q388.515 221.108 388.416 220.365Q388.328 219.653 388.276 218.938Q388.223 218.223 388.206 217.506Q388.189 216.789 388.207 216.073Q388.226 215.356 388.28 214.641Q388.334 213.926 388.423 213.214Q388.512 212.503 388.637 211.797Q388.761 211.091 388.92 210.392Q389.079 209.692 389.273 209.002Q389.467 208.312 389.694 207.632Q389.922 206.952 390.183 206.284Q390.444 205.616 390.738 204.962Q391.032 204.308 391.357 203.669Q391.683 203.031 392.04 202.409Q392.397 201.787 392.785 201.184Q393.172 200.581 393.589 199.997Q394.006 199.414 394.451 198.852C399.812 192.115 407.087 188.938 415.47 187.928Z"/>
	<path fill="#FCF7EB" transform="scale(0.999721 0.999721)" d="M416.833 192.107C421.866 192.573 426.659 193.498 431.052 196.131Q431.58 196.441 432.093 196.777Q432.605 197.113 433.099 197.474Q433.594 197.836 434.069 198.222Q434.545 198.608 435 199.017Q435.456 199.427 435.89 199.859Q436.324 200.291 436.736 200.744Q437.148 201.198 437.537 201.671Q437.925 202.145 438.289 202.637Q438.653 203.13 438.992 203.64Q439.331 204.151 439.643 204.678Q439.956 205.204 440.241 205.746Q440.527 206.288 440.785 206.844Q441.043 207.4 441.272 207.968Q441.502 208.536 441.702 209.115Q441.903 209.693 442.074 210.282Q442.245 210.87 442.386 211.466Q442.525 212.067 442.633 212.674Q442.742 213.281 442.82 213.893Q442.899 214.505 442.947 215.12Q442.995 215.735 443.012 216.352Q443.03 216.968 443.017 217.585Q443.004 218.202 442.96 218.817Q442.916 219.432 442.842 220.045Q442.768 220.657 442.663 221.265Q442.559 221.873 442.424 222.475Q442.29 223.077 442.126 223.671Q441.961 224.266 441.768 224.852Q441.575 225.438 441.352 226.013Q441.13 226.588 440.879 227.152Q440.629 227.716 440.351 228.266Q440.073 228.817 439.768 229.353Q439.462 229.889 439.131 230.409C434.718 237.303 428.1 240.843 420.282 242.52C413.086 242.539 407.005 240.971 401.382 236.234Q400.896 235.829 400.432 235.4Q399.967 234.971 399.523 234.52Q399.08 234.069 398.659 233.597Q398.239 233.124 397.842 232.632Q397.445 232.139 397.073 231.628Q396.701 231.117 396.355 230.587Q396.008 230.058 395.688 229.513Q395.368 228.967 395.076 228.406Q394.783 227.846 394.518 227.271Q394.253 226.697 394.017 226.11Q393.781 225.524 393.574 224.926Q393.367 224.328 393.19 223.721Q393.012 223.114 392.865 222.499Q392.718 221.884 392.601 221.262Q392.484 220.64 392.398 220.014Q392.312 219.387 392.257 218.757Q392.208 218.152 392.19 217.545Q392.171 216.938 392.183 216.33Q392.194 215.723 392.235 215.117Q392.277 214.511 392.348 213.908Q392.42 213.305 392.521 212.706Q392.622 212.107 392.752 211.514Q392.883 210.921 393.042 210.335Q393.202 209.749 393.391 209.172Q393.579 208.595 393.796 208.027Q394.013 207.46 394.257 206.904Q394.502 206.348 394.774 205.805Q395.045 205.262 395.344 204.733Q395.642 204.204 395.966 203.691Q396.29 203.177 396.639 202.68Q396.988 202.183 397.361 201.704Q397.735 201.225 398.131 200.765C403.061 195.049 409.488 192.734 416.833 192.107Z"/>
	<path fill="#424568" transform="scale(0.999721 0.999721)" d="M615.312 400.43C623.768 400.259 632.245 400.343 640.703 400.306L640.718 478.493L679.937 478.452L679.83 499.242Q647.576 498.782 615.32 499.001C614.979 466.154 615.283 433.279 615.312 400.43Z"/>
	<path fill="#424568" transform="scale(0.999721 0.999721)" d="M498.983 400.265C505.358 400.113 511.755 400.215 518.132 400.219C526.297 420.929 535.928 441.134 543.839 461.902C547.022 452.172 551.631 442.814 555.767 433.465Q562.971 417.181 569.339 400.553L597.412 400.652C592.811 411.34 587.459 421.83 582.627 432.435C572.841 454.771 562.277 476.835 552.212 499.059C546.311 499.504 540.125 499.173 534.193 499.188L490.014 400.569L498.983 400.265Z"/>
	<path fill="#424568" transform="scale(0.999721 0.999721)" d="M730.167 398.792C744.46 396.649 761.682 399.831 773.726 407.912C769.666 414.085 765.08 419.988 760.721 425.957C755.504 422.968 750.235 420.177 744.313 418.87C737.822 417.438 731.872 417.727 726.209 421.472C724.079 422.881 722.488 424.15 721.96 426.742C723.732 434.696 744.916 438.449 751.809 441.096C756.726 442.983 761.525 445.446 765.738 448.624C771.368 452.87 775.728 458.463 776.662 465.621C777.602 472.83 774.938 480.619 770.443 486.236C762.401 496.286 749.759 499.229 737.587 500.592C720.765 501.185 706.59 496.177 692.8 486.841C696.433 481.398 700.864 476.493 705.081 471.501C714.752 476.052 723.683 479.794 734.59 480.058C740.191 480.194 745.301 478.816 749.33 474.715C750.505 473.52 751.422 471.951 751.091 470.219C749.518 461.996 727.737 457.853 721.236 455.425C716.631 453.705 712.179 451.53 708.191 448.636C702.717 444.665 698.014 439.189 697.069 432.279C696.114 425.282 699.164 418.281 703.364 412.844C709.954 404.314 719.699 400.149 730.167 398.792Z"/>
	<path fill="#8FBB9D" transform="scale(0.999721 0.999721)" d="M1080.98 334.434L1083.57 334.204C1085.01 334.852 1085.38 335.027 1086.24 336.336C1089.29 341.007 1091.13 347.04 1092.98 352.275C1101.89 377.477 1106.67 402.876 1108.66 429.481C1109.08 435.138 1110 441.37 1108.92 446.962C1116.74 448.249 1123.78 451.231 1129.34 456.988Q1129.95 457.623 1130.52 458.287Q1131.1 458.952 1131.64 459.644Q1132.18 460.336 1132.68 461.054Q1133.19 461.772 1133.66 462.515Q1134.13 463.257 1134.56 464.022Q1134.99 464.787 1135.39 465.573Q1135.78 466.358 1136.13 467.162Q1136.49 467.967 1136.8 468.787Q1137.11 469.608 1137.39 470.443Q1137.66 471.279 1137.89 472.127Q1138.12 472.975 1138.31 473.833Q1138.49 474.691 1138.64 475.558Q1138.78 476.424 1138.88 477.297Q1138.99 478.17 1139.04 479.046Q1139.1 479.923 1139.12 480.802Q1139.13 481.68 1139.1 482.558Q1139.07 483.424 1138.99 484.288Q1138.91 485.151 1138.79 486.009Q1138.67 486.868 1138.5 487.719Q1138.34 488.57 1138.13 489.412Q1137.93 490.254 1137.68 491.084Q1137.43 491.914 1137.14 492.731Q1136.85 493.548 1136.52 494.349Q1136.18 495.15 1135.81 495.933Q1135.44 496.716 1135.03 497.48Q1134.62 498.243 1134.17 498.985Q1133.72 499.727 1133.24 500.445Q1132.75 501.164 1132.23 501.857Q1131.71 502.55 1131.16 503.215Q1130.6 503.881 1130.02 504.518Q1129.43 505.155 1128.81 505.762Q1128.19 506.368 1127.54 506.943Q1126.93 507.506 1126.29 508.037Q1125.65 508.569 1124.99 509.067Q1124.32 509.566 1123.63 510.031Q1122.94 510.496 1122.23 510.925Q1121.52 511.355 1120.79 511.748Q1120.05 512.142 1119.3 512.498Q1118.55 512.854 1117.78 513.172Q1117.02 513.49 1116.23 513.769Q1115.45 514.048 1114.65 514.288Q1113.86 514.527 1113.05 514.726Q1112.25 514.926 1111.43 515.084Q1110.61 515.243 1109.79 515.36Q1108.97 515.478 1108.14 515.554Q1107.31 515.63 1106.48 515.664Q1105.65 515.699 1104.82 515.691Q1103.99 515.684 1103.16 515.635C1093.24 515.105 1084.12 511.149 1077.48 503.686C1070.22 495.512 1069.22 487.075 1070.31 476.522C1070.53 474.345 1071.36 472.15 1071.42 469.995C1071.43 469.793 1071.41 469.591 1071.41 469.389C1061.48 464.797 1050.5 459.304 1039.91 456.558C1037.88 454.474 1032.85 453.074 1030.05 451.934C1021.91 448.606 984.397 435.533 981.351 429.808C981.687 428.029 981.596 428.007 983 426.892C985.05 426.604 986.59 426.787 988.558 427.464C997.57 430.563 1006.65 435.445 1015.56 439.103L1050.08 453.174C1057.72 456.248 1066.62 458.987 1073.51 463.447C1076.07 461.535 1078.12 458.939 1080.4 456.717C1086.35 450.909 1093.23 448.057 1101.43 447.238L1101.72 446.349C1106.79 430.861 1093.7 375.215 1088.17 358.463C1085.99 351.874 1082.15 345.797 1080.01 339.254C1079.36 337.289 1080.19 336.194 1080.98 334.434Z"/>
	<path fill="#FCF7EB" transform="scale(0.999721 0.999721)" d="M1101.44 453.514C1101.85 453.471 1102.27 453.422 1102.69 453.403C1110.63 453.037 1117.64 455.229 1123.57 460.631Q1124.08 461.086 1124.56 461.566Q1125.05 462.046 1125.51 462.549Q1125.97 463.053 1126.4 463.579Q1126.84 464.105 1127.25 464.652Q1127.66 465.199 1128.04 465.765Q1128.42 466.332 1128.77 466.917Q1129.12 467.502 1129.44 468.104Q1129.76 468.705 1130.06 469.322Q1130.35 469.94 1130.61 470.57Q1130.87 471.201 1131.1 471.844Q1131.32 472.488 1131.52 473.141Q1131.72 473.795 1131.88 474.458Q1132.04 475.12 1132.17 475.79Q1132.3 476.46 1132.4 477.136Q1132.5 477.812 1132.56 478.491Q1132.62 479.171 1132.65 479.853Q1132.68 480.552 1132.67 481.252Q1132.67 481.952 1132.63 482.651Q1132.59 483.35 1132.52 484.046Q1132.44 484.742 1132.34 485.433Q1132.23 486.125 1132.09 486.811Q1131.95 487.497 1131.78 488.175Q1131.6 488.853 1131.4 489.521Q1131.19 490.19 1130.95 490.848Q1130.71 491.506 1130.44 492.152Q1130.17 492.797 1129.87 493.429Q1129.57 494.061 1129.24 494.677Q1128.91 495.293 1128.55 495.893Q1128.18 496.492 1127.79 497.073Q1127.4 497.655 1126.99 498.216Q1126.57 498.778 1126.12 499.318Q1125.68 499.859 1125.21 500.377C1119.7 506.393 1112.71 508.801 1104.73 509.208C1099.15 509.343 1093.12 507.342 1088.45 504.338Q1087.87 503.968 1087.31 503.57Q1086.75 503.172 1086.21 502.747Q1085.67 502.321 1085.16 501.869Q1084.64 501.417 1084.14 500.94Q1083.65 500.462 1083.18 499.961Q1082.71 499.459 1082.27 498.935Q1081.82 498.41 1081.41 497.865Q1080.99 497.319 1080.6 496.753Q1080.21 496.186 1079.85 495.601Q1079.49 495.017 1079.16 494.414Q1078.83 493.812 1078.53 493.194Q1078.23 492.576 1077.96 491.944Q1077.69 491.312 1077.46 490.667Q1077.22 490.022 1077.01 489.366Q1076.81 488.71 1076.64 488.044Q1076.47 487.379 1076.33 486.706C1074.92 479.58 1076.26 471.971 1080.42 465.968C1085.55 458.551 1092.78 455.036 1101.44 453.514Z"/>
	<path transform="scale(0.999721 0.999721)" d="M413.518 119.434Q415.68 119.305 417.845 119.262Q420.01 119.219 422.174 119.262Q424.339 119.305 426.501 119.435Q428.663 119.564 430.817 119.78Q432.972 119.995 435.116 120.296Q437.261 120.597 439.391 120.983Q441.522 121.369 443.636 121.84Q445.749 122.311 447.843 122.865Q449.936 123.42 452.005 124.057Q454.075 124.695 456.117 125.414Q458.16 126.133 460.172 126.934Q462.185 127.734 464.163 128.613Q466.142 129.493 468.084 130.451Q470.027 131.408 471.929 132.443Q473.832 133.477 475.692 134.586Q477.552 135.696 479.366 136.878C497.83 149.01 517.734 171.385 522.269 193.429C508.059 198.743 493.987 204.707 480.039 210.68C476.89 208.519 474.708 199.007 472.61 195.245Q471.562 193.408 470.39 191.647Q469.217 189.886 467.927 188.211Q466.636 186.535 465.232 184.952Q463.829 183.37 462.32 181.888Q460.81 180.406 459.203 179.032Q457.595 177.658 455.896 176.398Q454.197 175.138 452.416 173.998Q450.634 172.858 448.778 171.844C429.822 161.682 411.196 163.181 391.407 169.245C386.37 155.537 382.287 141.491 377.137 127.825C387.66 122.074 401.656 120.268 413.518 119.434Z"/>
	<path fill="#FCF7EB" transform="scale(0.999721 0.999721)" d="M413.478 123.513C427.895 121.026 453.22 127.691 466.37 134.083Q467.477 134.612 468.57 135.169Q469.664 135.725 470.743 136.309Q471.822 136.892 472.887 137.502Q473.951 138.113 475 138.749Q476.049 139.385 477.082 140.048Q478.114 140.71 479.13 141.398Q480.146 142.086 481.145 142.799Q482.143 143.512 483.124 144.249Q484.105 144.987 485.066 145.749Q486.028 146.51 486.971 147.296Q487.914 148.081 488.836 148.89Q489.759 149.699 490.662 150.53Q491.564 151.361 492.445 152.215Q493.327 153.068 494.187 153.944Q495.047 154.819 495.885 155.715Q496.723 156.611 497.538 157.528Q498.354 158.445 499.146 159.382Q499.938 160.319 500.707 161.275Q501.476 162.232 502.221 163.207Q502.965 164.182 503.686 165.175Q504.406 166.169 505.101 167.18Q505.797 168.191 506.467 169.219Q507.137 170.247 507.781 171.291Q508.425 172.336 509.044 173.396Q509.662 174.456 510.253 175.531Q510.845 176.606 511.409 177.695Q511.974 178.785 512.511 179.888Q513.049 180.991 513.559 182.108Q514.068 183.224 514.55 184.352Q515.032 185.481 515.486 186.621Q515.939 187.761 516.364 188.912Q516.79 190.064 517.186 191.225C505.208 195.193 493.885 200.99 481.946 205.159C479.97 202.932 478.347 198.128 476.887 195.337Q476.306 194.203 475.681 193.093Q475.057 191.983 474.388 190.898Q473.72 189.814 473.01 188.756Q472.299 187.699 471.547 186.67Q470.796 185.642 470.004 184.644Q469.212 183.646 468.382 182.68Q467.551 181.714 466.683 180.782Q465.815 179.849 464.911 178.952Q464.007 178.055 463.068 177.194Q462.13 176.333 461.158 175.509Q460.186 174.686 459.182 173.902Q458.178 173.118 457.144 172.374Q456.11 171.63 455.048 170.927Q453.985 170.225 452.896 169.565Q451.806 168.905 450.692 168.288Q449.577 167.672 448.439 167.1C431.329 158.414 411.529 158.599 393.61 164.392C390.124 152.748 385.869 141.35 382.126 129.787C392.113 125.977 402.936 124.693 413.478 123.513Z"/>
	<path fill="#424568" transform="scale(0.999721 0.999721)" d="M818.984 400.276C819.835 400.324 820.569 400.477 821.4 400.659C827.248 407.499 831.707 417.223 836.276 425.042Q847.047 443.679 858.779 461.725C871.364 441.499 883.419 420.927 895.841 400.595L916.111 400.568Q915.717 449.823 916.042 499.077C907.85 499.253 899.352 499.618 891.188 499.006L891.254 466.999L891.358 444.097C882.59 459.942 873.012 475.401 863.811 491L852.537 490.988C843.885 475.002 833.74 459.752 824.77 443.909L824.774 499.304L800.668 499.28C801.163 466.343 800.917 433.37 800.918 400.429L818.984 400.276Z"/>
	<path fill="#8FBB9D" transform="scale(0.999721 0.999721)" d="M744.679 150.107C749.86 149.345 755.787 150.135 760.794 151.562C774.71 155.528 783.009 164.323 789.833 176.63C802.442 173.232 813.823 169.08 826.959 167.96C843.875 166.518 859.977 168.687 875.987 174.27C878.738 175.23 882.714 176.288 884.815 178.315C886.221 179.672 886.297 180.362 886.377 182.254C884.217 184.58 881.332 183.569 878.628 182.575C873.56 180.71 868.54 178.318 863.352 176.838C845.331 171.7 826.179 172.945 808.202 177.515C794.749 180.934 756.73 196.589 749.953 207.994L750.523 209.135C753.531 213.56 756.036 217.994 757.051 223.304Q757.187 223.999 757.288 224.699Q757.39 225.4 757.457 226.105Q757.524 226.81 757.556 227.517Q757.588 228.224 757.585 228.932Q757.582 229.64 757.545 230.347Q757.507 231.054 757.434 231.758Q757.362 232.463 757.255 233.163Q757.148 233.862 757.007 234.556Q756.865 235.25 756.69 235.936Q756.515 236.622 756.306 237.298Q756.097 237.975 755.855 238.64Q755.613 239.305 755.338 239.958Q755.064 240.61 754.758 241.249Q754.452 241.887 754.114 242.509Q753.777 243.132 753.41 243.737Q753.042 244.342 752.645 244.928C747.585 252.299 739.46 257.163 730.678 258.606C721.839 260.058 711.987 257.602 704.776 252.318C698.446 257.385 684.352 279.363 680.16 280.153C679.416 279.334 678.736 278.891 678.578 277.748C677.852 272.487 695.725 252.074 699.403 247.652C696.381 243.345 693.998 239.458 692.899 234.241C690.804 224.296 695.222 216.242 700.459 208.224Q699.982 206.369 699.741 204.469C698.075 192.008 703.279 178.272 710.794 168.505C719.301 157.45 731.076 151.861 744.679 150.107Z"/>
	<path fill="#FCF7EB" transform="scale(0.999721 0.999721)" d="M719.463 204.616C725.604 204.277 730.963 204.543 736.601 207.231Q737.174 207.501 737.733 207.8Q738.292 208.098 738.835 208.423Q739.379 208.748 739.906 209.099Q740.433 209.451 740.942 209.828Q741.451 210.205 741.941 210.606Q742.431 211.007 742.901 211.432Q743.371 211.857 743.82 212.305Q744.268 212.752 744.694 213.221Q745.12 213.69 745.523 214.179Q745.925 214.668 746.303 215.176Q746.681 215.685 747.034 216.211Q747.387 216.737 747.713 217.28Q748.04 217.823 748.339 218.381Q748.639 218.94 748.911 219.512Q749.182 220.084 749.426 220.669Q749.669 221.254 749.884 221.85C751.782 227.259 751.423 232.886 748.884 238.025C745.13 245.624 738.193 249.604 730.453 252.197C724.771 253.596 717.983 252.291 712.843 249.609C706.839 246.475 701.776 241.312 699.773 234.73C698.042 229.041 699.118 223.163 701.973 218.046C705.733 211.308 712.105 206.697 719.463 204.616Z"/>
	<path fill="#FCF7EB" transform="scale(0.999721 0.999721)" d="M745.073 156.417C749.256 156.09 753.597 156.377 757.665 157.419C769.538 160.458 778.227 168.302 784.424 178.621C769.864 185.596 757.229 193.519 744.346 203.218L743.485 202.919Q742.044 202.137 740.53 201.507C727.567 196.121 718.727 197.61 706.163 202.874C706.403 192.293 708.446 182.416 714.831 173.676C722.323 163.42 732.755 158.267 745.073 156.417Z"/>
	<path transform="scale(0.999721 0.999721)" d="M419.118 46.5315C439.614 43.6191 472.205 51.7149 491.343 59.3579C542.39 79.7436 571.945 115.818 593.159 165.227C583.434 171.199 559.651 179.292 547.997 184.038C545.182 178.674 543.108 172.745 540.504 167.24C527.43 141.211 507.962 119.505 481.605 106.548C445.586 88.8396 412.112 90.2231 374.811 102.904C369.996 88.2131 365.233 73.3469 359.45 59.008C378.234 50.7713 398.871 48.181 419.118 46.5315Z"/>
	<path fill="#FCF7EB" transform="scale(0.999721 0.999721)" d="M424.25 50.0261C445.963 50.1871 468.942 54.782 489.117 62.7985C537.719 82.1107 567.772 116.474 588.1 163.755C575.668 168.723 563.091 174.821 550.283 178.622Q545.828 168.792 541.119 159.081C529.038 136.389 508.329 115.697 485.515 103.892C450.783 85.9194 414.407 85.8482 377.745 97.5603C372.381 85.8986 369.309 73.0235 364.553 61.0489C384.571 54.528 403.316 51.5993 424.25 50.0261Z"/>
	<path fill="#8FBB9D" transform="scale(0.999721 0.999721)" d="M982.137 136.629C982.429 136.604 982.72 136.571 983.012 136.554C988.093 136.251 1007.96 141.354 1014.32 142.503C1036.35 146.485 1059.61 149.077 1081.3 154.394C1084.94 155.284 1089.8 157.339 1092.56 159.889C1093.92 161.151 1094.26 162.499 1094.22 164.329C1094.11 170.08 1091.51 177.287 1090.21 182.99Q1084.1 210.269 1077.37 237.402C1071.28 262.513 1066.58 287.981 1060.02 312.98C1059.34 315.567 1058.44 320.699 1056.4 322.351C1050.3 327.298 1037.91 323.096 1030.84 322.004C1025.71 319.49 1014.12 318.862 1008.27 317.93C991.96 315.331 975.683 312.173 959.412 309.296C949.805 307.598 938.607 306.661 929.497 303.319C924.294 301.411 919.768 298.102 917.432 292.927C915.507 288.663 915.317 283.883 915.862 279.299C917.208 267.981 921.043 256.523 923.917 245.496L934.914 201.588C938.004 189.416 940.549 172.792 945.042 161.503C949.846 149.432 970.742 141.657 982.137 136.629Z"/>
	<path fill="#FCF7EB" transform="scale(0.999721 0.999721)" d="M1084.62 162.836L1086.54 163.636C1086.84 164.216 1087.11 164.688 1087.11 165.358C1087.13 173.393 1077.63 206.438 1075.28 216.413C1067.82 248.134 1061.83 280.528 1053.27 311.95C1052.61 314.377 1051.94 316.489 1050.15 318.354L1049.4 317.456C1048.95 315.028 1081.05 173.676 1084.62 162.836Z"/>
	<path fill="#FCF7EB" transform="scale(0.999721 0.999721)" d="M984.643 143.585C992.514 145.497 1000.76 146.524 1008.75 147.947L1052.77 155.785C1060.98 157.194 1069.94 157.903 1077.9 160.322C1078.41 163.841 1042.95 315.035 1041.74 316.973C1034.54 315.618 1027.14 313.846 1019.84 313.301C1011.83 310.673 1001.96 310.265 993.589 308.73C978.816 306.022 964.103 303.142 949.292 300.626C943.102 299.574 936.852 298.071 930.576 297.711C927.067 294.668 924.452 291.702 921.952 287.776C921.968 283.526 922.616 279.342 923.467 275.187C927.935 253.38 934.478 231.691 939.854 210.054C943.412 195.734 947.453 172.772 953.012 159.752C960.672 153.168 974.792 146.017 984.643 143.585Z"/>
	<path fill="#8FBB9D" transform="scale(0.999721 0.999721)" d="M950.751 199.628C959.558 199.956 981.722 202.668 989.278 206.146C990.403 206.664 991.604 207.119 992.038 208.337C993.662 212.901 986.721 238.207 984.03 243.152C976.684 242.778 947.848 239.055 942.992 235.037C941.105 228.812 948.06 205.724 950.751 199.628Z"/>
	<path fill="#FCF7EB" transform="scale(0.999721 0.999721)" d="M955.14 207.218C962.539 207.198 979.247 209.318 986.115 211.939Q983.039 224.117 980.106 236.329C969.562 234.578 959.053 232.489 948.415 231.382C951.609 223.748 953.209 215.254 955.14 207.218Z"/>
	<path fill="#8FBB9D" transform="scale(0.999721 0.999721)" d="M1018.81 167.5Q1020.03 167.564 1021.25 167.676C1026.61 168.156 1057.37 172.161 1059.91 175.815C1060.53 176.701 1060.28 178.043 1060.11 179.075C1059.5 182.725 1053.28 207.082 1051.76 208.762C1051.31 209.267 1050.32 209.765 1049.74 210.17C1049.62 210.262 1049.52 210.386 1049.38 210.446C1045.72 212.033 1015.26 205.531 1009.13 204.431Q1009.15 203.59 1009.2 202.751C1009.54 196.326 1014.67 171.185 1018.81 167.5Z"/>
	<path fill="#FCF7EB" transform="scale(0.999721 0.999721)" d="M1021.79 173.988C1031.72 176.617 1042.33 176.584 1052.29 179.028C1052.52 179.983 1052.7 180.679 1052.66 181.67C1052.44 186.578 1049.71 200 1046.29 203.492C1043.83 204.724 1020.57 199.695 1015.98 199.129C1018.32 190.861 1019.98 182.389 1021.79 173.988Z"/>
	<path fill="#8FBB9D" transform="scale(0.999721 0.999721)" d="M1008.3 208.72C1012.99 208.448 1044.75 213.52 1048.07 215.714C1049.62 218.982 1049.11 222.937 1048.5 226.406C1047.34 233.073 1044.74 248.422 1039.22 252.247C1033.54 252.391 1021.62 249.442 1015.4 248.426C1011.42 247.776 1001.66 246.904 999.326 243.664C998.31 237.062 1004.58 214.356 1008.3 208.72Z"/>
	<path fill="#FCF7EB" transform="scale(0.999721 0.999721)" d="M1011.52 215.572C1020.92 216.009 1032.99 217.806 1041.76 221.014C1042.19 222.032 1042.49 222.827 1042.4 223.955C1042.01 228.672 1039.39 242.422 1035.61 245.503C1025.54 243.299 1015.32 241.704 1005.16 239.939C1007.35 231.842 1009.67 223.752 1011.52 215.572Z"/>
	<path fill="#8FBB9D" transform="scale(0.999721 0.999721)" d="M997.989 249.644C1007.98 250.742 1030.74 253.469 1038.76 258.9C1039.76 260.684 1039.7 261.333 1039.37 263.38C1038.53 268.468 1034.51 287.074 1032.79 290.832C1032.28 291.946 1031.63 292.486 1030.67 293.189C1029.94 294.031 1029.7 294.06 1028.6 294.117C1023.36 294.388 993.308 288.858 989.601 285.887C988.566 279.344 995.111 256.461 997.989 249.644Z"/>
	<path fill="#FCF7EB" transform="scale(0.999721 0.999721)" d="M1002.32 257.332Q1017.02 258.779 1031.35 262.373C1031.43 262.79 1031.53 263.204 1031.6 263.624C1032.28 267.76 1029.55 282.929 1026.97 286.315C1026.28 287.227 1024.96 287.031 1023.85 287.149C1017.95 284.101 1004.32 285.641 997.563 281.248C996.805 279.973 996.386 279.443 996.534 277.885C996.834 274.726 1001.26 261.684 1002.32 257.332Z"/>
	<path fill="#8FBB9D" transform="scale(0.999721 0.999721)" d="M961.639 157.505C961.759 157.521 961.88 157.535 962 157.552C968.438 158.472 999.156 162.467 1001.9 166.148C1003.08 173.612 997.398 194.86 993.707 201.407C993.491 201.462 993.276 201.527 993.057 201.572C987.506 202.722 958.175 197.221 953.234 194.135C952.482 193.073 952.389 192.393 952.404 191.083C952.474 184.975 956.471 166.699 958.942 160.92C959.521 159.567 960.586 158.502 961.639 157.505Z"/>
	<path fill="#FCF7EB" transform="scale(0.999721 0.999721)" d="M964.907 164.26C975.232 166.615 985.672 168.239 996.121 169.928Q993.139 182.627 989.625 195.19C983.685 194.086 963.702 192.53 960.353 188.773C958.303 182.788 962.89 170.33 964.907 164.26Z"/>
	<path fill="#8FBB9D" transform="scale(0.999721 0.999721)" d="M941.764 240.953C949.804 240.203 970.621 244.383 978.503 247.012C980.48 247.672 982.131 248.254 983.062 250.181C982.828 256.393 976.966 280.131 973.509 284.837C965.48 284.707 938.863 280.854 932.25 277.233C931.979 276.495 931.754 275.855 931.674 275.068C931.213 270.491 938.835 244.858 941.764 240.953Z"/>
	<path fill="#FCF7EB" transform="scale(0.999721 0.999721)" d="M945.697 247.37Q960.495 249.6 975.08 252.95L974.992 253.967C974.53 258.942 972.6 274.782 969.117 277.677C959.051 276.656 949.094 274.547 939.142 272.755C940.445 264.162 943.238 255.681 945.697 247.37Z"/>
	<path fill="#8FBB9D" transform="scale(0.999721 0.999721)" d="M474.607 610.954C488.772 609.558 503.619 613.427 514.797 622.364Q515.73 623.098 516.627 623.877Q517.523 624.655 518.381 625.477Q519.238 626.298 520.055 627.161Q520.871 628.023 521.644 628.924Q522.417 629.826 523.146 630.764Q523.874 631.702 524.556 632.674Q525.237 633.646 525.871 634.651Q526.504 635.656 527.087 636.69Q527.671 637.724 528.203 638.786Q528.736 639.847 529.216 640.934Q529.696 642.02 530.122 643.128Q530.548 644.237 530.92 645.365Q531.292 646.493 531.608 647.638Q531.924 648.782 532.184 649.941Q532.444 651.1 532.647 652.27Q532.85 653.44 532.996 654.619C551.7 655.796 570.896 654.856 589.656 654.866L691.462 654.938L963.007 655.194C971.402 655.216 1017.23 654.039 1020.37 655.484C1021.48 656.826 1021.85 657.079 1022.07 658.856C1017.64 663.767 993.818 661.746 986.416 661.717L616.503 661.743L562.23 661.685C553.251 661.668 543.775 660.894 534.872 661.914L534.007 662.019C533.201 675.762 529.048 684.659 520.27 695.009C525.953 700.94 534.325 706.233 540.832 711.43Q562.5 728.647 583.901 746.196C590.723 751.742 598.005 756.944 604.438 762.934C609.873 760.111 616.15 757.903 622.137 756.654Q623.507 756.381 624.888 756.176Q626.269 755.97 627.659 755.833Q629.049 755.695 630.443 755.625Q631.838 755.555 633.235 755.554Q634.631 755.552 636.026 755.619Q637.421 755.686 638.811 755.82Q640.201 755.955 641.583 756.157Q642.965 756.36 644.335 756.63Q645.705 756.899 647.061 757.235Q648.416 757.572 649.753 757.974Q651.091 758.376 652.407 758.843Q653.723 759.31 655.015 759.84Q656.307 760.371 657.571 760.964Q658.836 761.557 660.07 762.211Q661.304 762.865 662.504 763.579Q663.705 764.293 664.869 765.064C676.328 772.649 684.876 784.645 687.459 798.229C690.28 813.057 685.562 825.329 677.414 837.449C689.287 845.424 700.367 855.305 711.604 864.171C727.584 876.78 743.993 888.957 759.653 901.949C767.704 893.144 773.998 888.869 785.652 886.011C796.301 884.732 806.516 886.514 815.203 893.154C823.615 899.583 827.197 908.056 828.508 918.289C861.05 919.537 893.773 918.602 926.339 918.481L1083.33 918.742C1104.58 918.913 1126.38 917.377 1147.53 918.666C1150.14 918.825 1153.19 918.821 1155.25 920.604L1155.33 922.498C1155.01 922.955 1154.92 923.158 1154.54 923.514C1152.94 925.018 1149.85 925.266 1147.74 925.385C1138.43 925.905 1128.77 925.249 1119.42 925.261L1053.11 925.279C978.021 925.193 902.735 924.287 827.667 925.438C825.117 935.352 820.933 943.377 811.753 948.683C802.546 954.005 790.427 955.379 780.222 952.476C771.154 949.896 763.201 943.948 758.659 935.624C753.583 926.318 754.382 917.734 757.186 907.953C750.686 901.225 741.266 895.721 733.803 889.876C713.521 873.994 693.465 857.819 672.818 842.413C660.062 852.462 646.492 858.992 629.881 857.964C614.957 857.041 601.396 850.629 591.534 839.352C582.77 829.331 578.161 816.702 579.239 803.361C580.529 787.409 587.732 777.017 599.519 766.943C570.86 745.59 544.381 721.436 515.396 700.467C508.358 705.239 501.672 709.19 493.258 711.119C478.562 714.486 463.23 712.201 450.459 704.096C438.755 696.669 429.676 684.311 426.796 670.668C424.074 657.772 427.661 644.466 434.935 633.664C444.409 619.597 458.654 614.121 474.607 610.954Z"/>
	<path fill="#FCF7EB" transform="scale(0.999721 0.999721)" d="M785.512 892.635C793.772 891.774 801.594 892.301 808.782 896.842Q809.356 897.2 809.911 897.587Q810.466 897.973 811.002 898.386Q811.538 898.8 812.052 899.239Q812.567 899.678 813.059 900.142Q813.552 900.606 814.02 901.094Q814.489 901.582 814.933 902.092Q815.377 902.603 815.796 903.134Q816.214 903.666 816.606 904.218Q816.998 904.769 817.362 905.34Q817.726 905.91 818.061 906.498Q818.396 907.085 818.702 907.689Q819.008 908.292 819.284 908.91Q819.56 909.528 819.805 910.159Q820.05 910.789 820.264 911.431Q820.477 912.073 820.659 912.725Q820.841 913.377 820.99 914.037Q821.136 914.668 821.25 915.307Q821.364 915.945 821.446 916.588Q821.527 917.231 821.577 917.877Q821.626 918.523 821.643 919.171Q821.659 919.819 821.643 920.467Q821.627 921.115 821.579 921.761Q821.53 922.408 821.449 923.051Q821.368 923.694 821.254 924.332Q821.141 924.97 820.995 925.602Q820.85 926.233 820.673 926.857Q820.496 927.48 820.288 928.094Q820.08 928.708 819.841 929.31Q819.602 929.913 819.333 930.503Q819.064 931.092 818.766 931.668Q818.467 932.243 818.141 932.803Q817.814 933.363 817.459 933.905C811.869 942.442 803.813 945.327 794.273 947.438C787.846 947.134 782.746 946.889 776.907 943.812C770.088 940.218 764.478 934.196 762.281 926.716C760.349 920.133 761.428 912.995 764.756 907.046C769.411 898.728 776.688 895.145 785.512 892.635Z"/>
	<path fill="#FCF7EB" transform="scale(0.999721 0.999721)" d="M479.051 617.402C491.483 618.756 501.457 620.981 511.564 628.99C520.605 636.152 526.072 646.516 527.213 657.974C528.318 669.061 524.62 679.894 517.604 688.459C508.796 699.21 496.717 704.637 483.062 705.928C471.562 705.929 459.587 702.678 450.36 695.641C441.263 688.705 434.699 678.247 433.207 666.828C431.777 655.876 435.108 644.81 441.84 636.121C451.39 623.796 464.152 619.33 479.051 617.402Z"/>
	<path fill="#8FBB9D" transform="scale(0.999721 0.999721)" d="M476.679 635.471C483.494 634.818 490.499 636.196 496.323 639.885Q496.877 640.231 497.413 640.603Q497.948 640.976 498.465 641.376Q498.981 641.775 499.477 642.2Q499.972 642.625 500.446 643.074Q500.92 643.524 501.37 643.996Q501.82 644.469 502.246 644.964Q502.672 645.458 503.073 645.974Q503.474 646.489 503.848 647.024Q504.222 647.559 504.569 648.112Q504.916 648.665 505.234 649.235Q505.553 649.805 505.842 650.39Q506.132 650.976 506.392 651.575Q506.651 652.174 506.881 652.785Q507.11 653.396 507.308 654.018Q507.506 654.641 507.673 655.272Q507.839 655.903 507.974 656.542C509.365 663.271 507.707 670.348 503.828 675.973C498.677 683.445 491.281 686.702 482.642 688.326C476.42 688.785 469.384 687.071 464.089 683.767Q463.523 683.419 462.976 683.043Q462.428 682.667 461.9 682.264Q461.371 681.861 460.864 681.432Q460.356 681.004 459.871 680.55Q459.385 680.097 458.923 679.62Q458.46 679.143 458.022 678.644Q457.584 678.144 457.171 677.623Q456.759 677.103 456.372 676.562Q455.986 676.022 455.627 675.463Q455.268 674.904 454.937 674.327Q454.607 673.751 454.305 673.159Q454.004 672.567 453.732 671.961Q453.46 671.354 453.219 670.735Q452.978 670.116 452.768 669.486Q452.557 668.855 452.379 668.215Q452.2 667.575 452.054 666.927Q451.92 666.319 451.817 665.705Q451.714 665.09 451.64 664.472Q451.567 663.854 451.525 663.232Q451.482 662.611 451.471 661.988Q451.459 661.365 451.478 660.743Q451.496 660.12 451.546 659.5Q451.595 658.879 451.675 658.261Q451.755 657.644 451.866 657.031Q451.976 656.418 452.117 655.811Q452.257 655.204 452.427 654.605Q452.597 654.006 452.797 653.416Q452.996 652.826 453.224 652.247Q453.453 651.667 453.709 651.1Q453.966 650.532 454.25 649.978Q454.534 649.424 454.845 648.885Q455.157 648.345 455.494 647.822C460.556 640.085 468.026 637.309 476.679 635.471Z"/>
	<path fill="#FCF7EB" transform="scale(0.999721 0.999721)" d="M475.847 642.366C480.302 641.515 485.898 642.296 490.002 644.179Q490.442 644.379 490.871 644.6Q491.3 644.821 491.718 645.063Q492.136 645.305 492.542 645.567Q492.947 645.829 493.339 646.111Q493.731 646.393 494.109 646.694Q494.486 646.995 494.849 647.314Q495.211 647.633 495.557 647.97Q495.903 648.307 496.233 648.66Q496.562 649.013 496.873 649.382Q497.185 649.751 497.477 650.135Q497.77 650.519 498.044 650.917Q498.317 651.315 498.571 651.726Q498.824 652.137 499.058 652.56Q499.291 652.983 499.502 653.417Q499.714 653.851 499.905 654.295Q500.095 654.739 500.263 655.192Q500.425 655.62 500.565 656.056Q500.704 656.491 500.822 656.934Q500.939 657.376 501.034 657.824Q501.129 658.271 501.201 658.723Q501.273 659.175 501.323 659.63Q501.372 660.085 501.398 660.542Q501.423 660.998 501.426 661.456Q501.429 661.914 501.408 662.371Q501.388 662.828 501.344 663.283Q501.301 663.739 501.234 664.192Q501.167 664.644 501.078 665.093Q500.988 665.542 500.876 665.985Q500.763 666.429 500.629 666.866Q500.494 667.303 500.338 667.733Q500.181 668.163 500.003 668.585Q499.824 669.006 499.625 669.418C496.44 676.075 490.912 678.884 484.257 681.192C478.816 681.835 473.753 681.336 468.917 678.593C464.142 675.885 460.424 671.373 459.039 666.024Q458.922 665.58 458.828 665.131Q458.734 664.682 458.662 664.228Q458.591 663.775 458.542 663.318Q458.493 662.862 458.467 662.404Q458.442 661.945 458.439 661.486Q458.436 661.027 458.457 660.569Q458.477 660.11 458.52 659.653Q458.564 659.196 458.63 658.742Q458.696 658.288 458.785 657.838Q458.874 657.388 458.985 656.942Q459.097 656.497 459.23 656.058Q459.364 655.619 459.52 655.187Q459.675 654.755 459.852 654.332Q460.029 653.908 460.227 653.494Q460.425 653.08 460.644 652.677Q460.862 652.273 461.101 651.881C464.49 646.36 469.774 643.844 475.847 642.366Z"/>
	<path fill="#FCF7EB" transform="scale(0.999721 0.999721)" d="M629.981 762.336C640.492 761.118 652.684 765.007 661.323 770.854C671.162 777.513 678.531 787.758 680.716 799.536C682.739 810.439 679.87 821.589 673.549 830.617C664.821 843.082 652.685 848.485 638.193 851.132C626.464 852.285 612.974 848.573 603.63 841.459C594.153 834.243 587.72 823.722 586.226 811.844Q586.094 810.804 586.013 809.758Q585.933 808.713 585.905 807.665Q585.877 806.617 585.901 805.569Q585.925 804.52 586.002 803.475Q586.078 802.429 586.207 801.388Q586.336 800.348 586.516 799.315Q586.696 798.282 586.928 797.26Q587.16 796.237 587.443 795.227Q587.725 794.218 588.058 793.223Q588.391 792.229 588.772 791.253Q589.154 790.276 589.584 789.32Q590.015 788.364 590.492 787.43Q590.969 786.497 591.493 785.588Q592.016 784.68 592.584 783.799Q593.152 782.917 593.764 782.066Q594.375 781.214 595.028 780.394C603.875 769.158 616.042 763.941 629.981 762.336Z"/>
	<path fill="#8FBB9D" transform="scale(0.999721 0.999721)" d="M626.203 780.427C633.115 779.837 639.696 779.969 646.09 782.937C652.825 786.064 658.059 791.551 660.478 798.608C662.732 805.183 662.479 812.615 659.278 818.834C655.277 826.61 648.217 830.624 640.178 833.185Q638.929 833.441 637.664 833.6Q636.4 833.758 635.126 833.818Q633.853 833.878 632.579 833.839Q631.305 833.801 630.038 833.663Q628.77 833.525 627.518 833.29Q626.265 833.054 625.034 832.722Q623.803 832.39 622.602 831.964Q621.401 831.537 620.236 831.019C613.623 828.013 608.285 822.743 605.748 815.877Q605.522 815.263 605.326 814.639Q605.13 814.014 604.966 813.381Q604.802 812.747 604.669 812.107Q604.537 811.466 604.437 810.819Q604.336 810.173 604.268 809.522Q604.2 808.871 604.165 808.218Q604.129 807.564 604.126 806.91Q604.123 806.256 604.153 805.602Q604.183 804.948 604.245 804.297Q604.307 803.646 604.402 802.998Q604.496 802.351 604.623 801.709Q604.75 801.067 604.909 800.432Q605.067 799.797 605.257 799.171Q605.447 798.545 605.668 797.929Q605.889 797.313 606.14 796.709Q606.392 796.105 606.673 795.514C610.567 787.374 618.012 783.295 626.203 780.427Z"/>
	<path fill="#FCF7EB" transform="scale(0.999721 0.999721)" d="M627.583 787.375C632.076 786.857 636.468 786.777 640.776 788.304C646.245 790.243 650.877 794.03 653.34 799.35C655.433 803.869 655.821 809.188 654.035 813.873C651.526 820.453 645.861 823.61 639.825 826.401C634.217 826.926 628.924 827.034 623.602 824.925C618.533 822.916 614.15 819.199 611.99 814.118C610.061 809.582 609.949 804.191 611.969 799.666C614.994 792.892 621.026 789.91 627.583 787.375Z"/>
	<path transform="scale(0.999721 0.999721)" d="M1242.71 515.151C1247.24 514.878 1251.7 514.931 1256.19 515.621C1265.9 517.11 1274.2 521.881 1279.93 529.912C1283.9 535.467 1290.1 548.684 1288.94 555.661C1299.69 559.01 1315.64 564.328 1322.63 573.426C1323.99 575.195 1325.22 577.38 1324.73 579.694C1324.33 581.637 1322.8 583.104 1321.18 584.123C1308.97 591.787 1289.17 586.193 1276.27 582.977C1278.62 586.378 1280.81 603.459 1284.86 611.159C1290.05 621.011 1299.16 625.989 1305.71 634.429C1314.61 645.895 1330.46 690.232 1331.43 705.588C1332.56 723.426 1322.24 737.662 1312.09 751.235C1308.76 755.693 1305.56 760.419 1301.89 764.608C1307.54 775.195 1311.02 788.026 1315.41 799.255C1317.19 803.804 1320.4 809.211 1321.4 813.901C1321.57 814.712 1321.45 815.238 1321.31 816.04C1318.14 820.175 1303.1 827.102 1297.91 828.833C1297.98 828.977 1298.05 829.119 1298.12 829.265C1300.72 835.097 1303.84 907.745 1302.52 910.987C1301.62 913.195 1298.55 914.381 1296.51 915.277C1296.63 923.35 1297.15 948.495 1295.82 954.743C1297.99 956.436 1300.17 958.389 1301.85 960.585C1305.86 965.835 1306.78 976.892 1305.84 983.173C1305.4 986.074 1303.54 987.866 1301.23 989.511C1288.64 998.477 1263.19 1001.15 1248.1 998.482C1243.39 997.647 1237.85 995.977 1235.12 991.719C1233.48 989.171 1233.29 986.168 1233.93 983.269C1236.36 972.113 1247.15 969.77 1255.27 963.875C1259.04 961.135 1262.11 957.569 1266.09 955.102C1266.88 954.61 1267.66 954.099 1268.44 953.588C1268.24 947.718 1265.92 923.933 1262.46 920.577C1261 920.328 1259.05 920.171 1257.7 919.587C1256.37 919.013 1255.67 917.973 1255.19 916.646C1252.88 910.368 1252.6 902.096 1251.71 895.418L1246.46 856.509C1245.74 851.353 1245.56 845.027 1243.46 840.265L1233.84 840.416C1235.66 843.584 1227.43 908.64 1226.2 915.426C1224.11 917.416 1221.99 917.493 1219.76 918.918C1217.18 920.562 1216.87 945.615 1215.58 950.656C1215.52 950.869 1215.46 951.081 1215.4 951.294C1217.58 952.33 1219.89 953.705 1221.43 955.597C1225.35 960.424 1226.94 967.403 1226.44 973.495C1226.17 976.783 1225.78 979.458 1223.26 981.624C1223.14 981.927 1223.05 982.246 1222.9 982.535C1219.84 988.312 1203.64 990.925 1197.47 991.887C1187.57 993.431 1172.67 994.941 1163.35 991.003C1159.73 989.475 1156.42 986.703 1153.26 984.396C1153.96 980.748 1152.59 976.85 1153.89 973.272C1157.83 962.442 1183 960.305 1189.38 950.625C1190.23 949.337 1186.47 921.505 1185.76 918.643L1178.49 914.259C1178.98 903.817 1179.98 835.917 1177.6 830.515C1170.32 826.63 1162.57 823.206 1155.04 819.818C1155.53 819.246 1155.88 818.693 1156.17 817.994C1159.08 811.006 1160.05 801.798 1161.74 794.333C1165.02 779.815 1167.94 765.259 1171.01 750.699C1172.9 741.703 1175.27 732.583 1176.6 723.49C1176.83 721.927 1176.8 720.626 1176.23 719.124C1172.49 715.98 1140.94 707.326 1134.34 705.904C1126.2 709.582 1115.73 712.923 1107.03 714.771C1107.11 714.134 1107.15 714.014 1107.05 713.283C1106.4 708.969 1094.44 685.002 1091.19 682.389C1089.4 681.979 1087.38 681.614 1085.7 680.862C1082.5 679.43 1078.47 673.155 1077.47 669.818C1075.34 662.663 1079.36 662.067 1081.74 656.935C1081.84 656.702 1081.94 656.464 1082.05 656.229C1082.74 647.598 1066.73 622.934 1065.7 612.34C1065.6 611.328 1066 610.454 1066.68 609.716C1068.12 608.144 1070.22 607.073 1072.17 606.244C1077.21 604.094 1128.71 583.926 1131.67 583.753C1135.89 589.249 1165.76 665.408 1165.22 669.864C1169.18 667.005 1186.77 641.73 1191.62 636.042C1197.08 629.629 1207.6 623.015 1211.69 616.692C1209.9 614.672 1207.03 613.411 1204.98 611.53C1195.43 602.766 1189.39 591.361 1191.29 578.108C1191.65 575.621 1193.48 570.753 1192.78 568.528C1192.7 568.277 1192.6 568.031 1192.51 567.783C1188.88 563.302 1178.41 559.356 1173.17 555.538C1169.26 552.687 1163.94 548.614 1163.37 543.427C1163.07 540.746 1164.15 537.987 1165.96 536.026C1172.93 528.474 1199.42 531.235 1209.9 530.483C1212.67 528.789 1214.94 526.196 1217.55 524.257C1225.57 518.313 1233.04 516.42 1242.71 515.151Z"/>
	<path fill="#FCF7EB" transform="scale(0.999721 0.999721)" d="M1094.11 658.031C1095.67 657.759 1097.41 657.392 1098.98 657.668C1100.67 657.964 1102.94 658.875 1103.91 660.276C1103.88 660.523 1103.78 661.368 1103.68 661.572C1102.35 664.458 1090.21 666.232 1086.84 666.996C1085.45 667.701 1084.54 667.903 1082.99 667.978C1082.23 668.016 1082.13 667.663 1081.59 667.172C1081.2 665.351 1081.07 665.146 1081.82 663.345C1084.97 660.521 1090.16 659.379 1094.11 658.031Z"/>
	<path fill="#FCF7EB" transform="scale(0.999721 0.999721)" d="M1097.75 668.539C1100.93 668.141 1103.7 668.329 1106.81 669.022L1107.37 671.324C1103.47 675.36 1096.35 676.493 1091.06 677.357C1090.36 677.571 1089.59 677.847 1088.84 677.85C1086.99 677.856 1085.86 676.877 1084.7 675.59C1084.31 673.74 1084.3 673.803 1085.23 672.15C1088.51 669.906 1093.86 669.463 1097.75 668.539Z"/>
	<path fill="#C4CFCC" transform="scale(0.999721 0.999721)" d="M1190.65 955.008C1190.89 955 1191.12 954.98 1191.36 954.984C1193.5 955.02 1196.62 957.741 1198.02 959.203C1201.38 959.762 1204.81 959.82 1208.1 960.731C1204.57 962.988 1200.77 964.152 1196.75 965.205C1196.11 965.616 1195.55 965.976 1194.82 966.211C1192.13 967.081 1184.83 966.304 1182.61 964.583C1181.72 963.894 1181.87 963.507 1181.81 962.462C1182.89 960.077 1185.38 958.195 1187.65 956.994C1188.54 956.523 1189.41 956.13 1190.17 955.455C1190.33 955.309 1190.49 955.157 1190.65 955.008Z"/>
	<path fill="#C4CFCC" transform="scale(0.999721 0.999721)" d="M1299.61 982.324C1300.4 982.456 1300.97 982.781 1301.68 983.131C1301.23 984.7 1298.89 986.121 1297.52 986.954C1282.74 995.953 1258.24 996.27 1242.09 992.131L1240.29 990.338C1244.04 989.329 1249.52 991.126 1253.44 991.58C1264.95 992.913 1290.61 989.591 1299.61 982.324Z"/>
	<path fill="#C4CFCC" transform="scale(0.999721 0.999721)" d="M1185.39 985.509C1192.28 984.322 1199.09 984.153 1205.93 982.341C1208.54 981.647 1219.97 976.688 1221.49 976.932C1221.04 978.92 1218.94 980.491 1217.22 981.584C1209.65 986.408 1195 989.207 1185.98 988.234C1185.73 988.363 1185.48 988.521 1185.21 988.621C1175.82 992.109 1163.39 985.23 1154.93 981.918C1165.37 984.204 1174.69 985.5 1185.39 985.509Z"/>
	<path fill="#C2DBC9" transform="scale(0.999721 0.999721)" d="M1268.34 958.509L1270.55 958.846C1272.16 959.99 1272.92 960.882 1273.76 962.673C1278.48 963.53 1282.63 964.381 1287.46 963.854C1284.2 967.162 1280.28 968.857 1275.88 970.051C1275 970.63 1274.29 970.921 1273.27 971.171C1269.92 971.996 1263.47 973.082 1260.45 970.995C1259.38 970.256 1259.46 969.817 1259.28 968.629C1260.83 964.212 1264.81 961.343 1268.34 958.509Z"/>
	<path fill="#C4CFCC" transform="scale(0.999721 0.999721)" d="M1170.04 536.86L1172.19 537.202C1177.49 541.889 1184.06 545.479 1190.39 548.592C1193.46 550.099 1197.47 551.426 1200.02 553.668C1200.02 553.839 1200.05 554.01 1200.03 554.179C1199.74 556.542 1197.09 559.687 1195.49 561.299L1195.49 562.315L1194.57 563.058C1193.75 562.822 1193.06 562.613 1192.29 562.241C1185.73 559.076 1169.99 550.569 1168.14 543.111C1167.52 540.604 1168.77 538.903 1170.04 536.86Z"/>
	<path fill="#C2DBC9" transform="scale(0.999721 0.999721)" d="M1189.26 919.984C1196.87 918.554 1203.91 921.343 1212.96 919.24C1213.23 919.789 1213.47 920.338 1213.65 920.924C1215.02 925.483 1212.78 948.933 1210.84 952.913C1211.15 953.778 1211.14 954.277 1211.14 955.183L1210.07 956.129C1204.57 956.706 1199.91 954.739 1195.17 952.232C1195.22 951.624 1195.2 951.104 1195.07 950.508C1193.38 943.005 1192.56 925.489 1189.26 919.984Z"/>
	<path fill="#FCF7EB" transform="scale(0.999721 0.999721)" d="M1214.8 957.807L1217.4 957.856C1218.27 958.411 1218.98 958.876 1219.57 959.744C1221.27 962.259 1221.98 965.837 1221.38 968.806C1220.84 971.484 1218.8 973.055 1216.57 974.392C1202.14 983.027 1175.93 982.359 1160.34 978.488C1159.37 977.679 1158.94 977.102 1158.4 975.964C1158.48 974.918 1158.57 973.807 1159.12 972.886C1162.12 967.82 1172.22 966.097 1177.58 964.815C1178.48 965.326 1178.13 965.073 1178.93 965.744C1181.24 967.671 1183.66 970.094 1186.69 970.691C1193.9 972.11 1205.57 967.715 1211.29 963.424C1213.36 961.871 1214.47 960.371 1214.8 957.807Z"/>
	<path fill="#C2DBC9" transform="scale(0.999721 0.999721)" d="M1289.38 917.886C1290.23 917.998 1291.08 918.259 1291.91 918.469C1292.28 923.841 1292.66 956.125 1290.5 958.768C1288.88 959.682 1287.69 959.999 1285.82 960.072C1281.66 960.233 1276.6 959.282 1273.5 956.414C1274.29 952.984 1269.05 925.259 1267.25 921.682C1273.45 921.477 1284.11 921.113 1289.38 917.886Z"/>
	<path fill="#FCF7EB" transform="scale(0.999721 0.999721)" d="M1295.12 962.01C1296.09 961.988 1296.96 962.095 1297.93 962.2C1298.48 962.709 1298.87 963.058 1299.24 963.721C1300.88 966.644 1301.99 970.96 1301.02 974.22C1300.16 977.078 1297.94 979.041 1295.43 980.471C1280.51 988.942 1254.76 989.09 1238.83 984.735C1238.21 983.413 1238.26 982.113 1238.84 980.726C1241.22 974.998 1248.42 973.509 1253.36 971.078L1254.2 970.658C1255.91 972.14 1258.53 975.028 1260.68 975.654C1268.7 977.988 1281.04 973.543 1287.85 969.382C1290.66 967.66 1294.29 965.372 1295.12 962.01Z"/>
	<path fill="#424568" transform="scale(0.999721 0.999721)" d="M1203.56 555.772C1207.1 554.965 1212.39 556.876 1215.84 558.022C1216.11 560.192 1211.16 571.232 1211.09 576.903C1210.99 585.761 1215.09 597.124 1223.53 601.248C1226.42 602.657 1230.64 603.682 1232.85 605.976L1232.34 607.164C1230.08 608.782 1228.78 609.543 1225.92 609.706C1223.84 612.161 1219.62 612.449 1216.62 612.96C1210.43 610.043 1205.6 606.745 1201.57 601.067C1194.76 591.47 1194.13 577.68 1198.7 566.961C1200.02 563.861 1203.01 559.84 1203.46 556.602C1203.5 556.326 1203.52 556.048 1203.56 555.772Z"/>
	<path fill="#424568" transform="scale(0.999721 0.999721)" d="M1255.75 576.086C1260.34 576.19 1268.32 580.1 1272.64 582.144C1275.53 586.753 1275.31 600 1277.67 606.358C1280.04 612.77 1286.14 617.998 1287.84 624.343C1284.59 628.46 1276.57 630.526 1271.68 631.703C1270.99 632.023 1271.01 632.031 1270.15 632.308C1265.24 633.891 1251.3 636.452 1246.72 634.168C1248.25 630.403 1251.39 627.145 1253.18 623.369C1259.85 609.366 1261.05 590.673 1255.75 576.086Z"/>
	<path fill="#C2DBC9" transform="scale(0.999721 0.999721)" d="M1204.82 629.317L1205.63 630.444C1200.77 645.664 1194.95 660.584 1190.02 675.787C1187.75 682.77 1180.8 710.48 1178.21 714.476C1175.29 711.839 1146.29 704.934 1139.86 702.862C1148.62 700.654 1161.08 693.502 1169.85 694.956C1172.36 695.371 1175.04 695.793 1177.41 694.67L1177.47 693.493C1172.7 687.521 1171.61 680.479 1167.5 674.494C1171.27 672.287 1184.87 651.109 1188.88 646.086C1193.68 640.07 1198.94 634.301 1204.82 629.317Z"/>
	<path fill="#FCF7EB" transform="scale(0.999721 0.999721)" d="M1241.09 519.354C1248.98 518.779 1257.06 519.091 1264.39 522.362C1273.21 526.302 1278.33 533.958 1281.61 542.773C1283.62 548.148 1287.02 556.646 1284.46 562.215C1278.55 559.167 1271.1 557.182 1264.67 555.408C1262.88 553.871 1259.29 552.904 1257.11 552.042C1242.45 546.24 1228.64 539.173 1214.47 532.327C1215.01 532.007 1215.42 531.687 1215.88 531.251C1223.39 524.053 1230.94 521.035 1241.09 519.354Z"/>
	<defs>
		<linearGradient id="gradient_0" gradientUnits="userSpaceOnUse" x1="1251.4635" y1="622.79993" x2="1215.4523" y2="566.57861">
			<stop offset="0" stop-color="#BDDBC7"/>
			<stop offset="1" stop-color="#FFF1EF"/>
		</linearGradient>
	</defs>
	<path fill="url(#gradient_0)" transform="scale(0.999721 0.999721)" d="M1219.11 561.375C1220.88 561.15 1222.31 561.084 1223.92 561.961C1223.14 562.387 1222.84 562.436 1222.33 563.226C1220.16 566.633 1221.11 574.144 1222.05 577.901C1222.53 579.867 1222.98 580.994 1224.68 582.025C1228.98 579.64 1221.8 567.225 1224.82 562.533C1229.85 563.835 1246.47 569.856 1250.12 573.097C1254.02 581.835 1255.26 590.2 1254.43 599.739C1253.81 606.858 1252.15 620.452 1246.55 625.117C1246.49 625.448 1246.45 625.784 1246.37 626.11C1245.79 628.354 1243.1 631.24 1241 632.088C1235.32 634.377 1227.56 630.157 1222.28 628.182C1229.54 623.091 1235.6 610.57 1240.82 603.244C1241.9 601.728 1243.6 599.387 1243.28 597.464C1241.85 596.772 1241.5 597.067 1239.99 597.418C1239.58 598.032 1239.27 598.599 1238.95 599.272C1238.84 599.508 1238.74 599.747 1238.63 599.985Q1237.79 600.222 1236.92 600.356Q1236.06 600.489 1235.18 600.518Q1234.31 600.547 1233.44 600.471Q1232.57 600.395 1231.71 600.215C1226.65 599.176 1222.41 595.641 1219.75 591.311C1213.17 580.622 1216.45 572.479 1219.11 561.375Z"/>
	<path transform="scale(0.999721 0.999721)" d="M1230.22 583.089C1231.14 583.24 1231.88 583.61 1232.74 583.971L1233.27 585.297C1232.96 586.152 1232.68 586.721 1232.03 587.384C1229.6 589.859 1227.45 590.584 1224.03 590.601C1223.47 589.843 1223.09 589.06 1222.65 588.225L1223.1 587.252Q1224.71 586.869 1226.31 586.43C1228.55 585.795 1229.15 585.037 1230.22 583.089Z"/>
	<path fill="#FCF7EB" transform="scale(0.999721 0.999721)" d="M1115.83 593.879C1119.73 592.67 1126.29 590.813 1129.42 588.163C1132.07 592.159 1168.39 684.535 1167.95 688.021C1167.92 688.272 1167.83 688.512 1167.77 688.758C1159.43 692.461 1150.45 695.132 1141.88 698.308C1131.58 702.125 1120.5 707.366 1109.73 709.514C1109.78 707.113 1109.2 705.058 1107.45 703.311C1107.22 703.084 1106.98 702.869 1106.75 702.649C1114.13 700.83 1155.5 686.708 1158.39 682.329C1157.27 678.473 1154.52 674.276 1152.97 670.392C1149.18 660.932 1127.14 600.138 1121.82 596.823C1120.89 596.243 1119.92 596.151 1118.85 596.134C1119.24 596.579 1119.44 596.76 1119.73 597.328C1120.47 598.729 1120.42 599.513 1119.8 600.864C1108.99 606.201 1083.21 615.102 1071.29 618.387C1071.56 616.184 1070.7 613.755 1069.7 611.804C1085.29 606.996 1100.5 599.574 1115.83 593.879Z"/>
	<path fill="#FCF7EB" transform="scale(0.999721 0.999721)" d="M1184.96 535.463C1193.43 535.041 1203.26 533.622 1211.54 535.837C1219.8 538.043 1227.37 543.96 1235.05 547.691C1241.9 551.013 1281.59 567.549 1286.74 566.36C1288.49 565.202 1288.96 563.75 1289.75 561.893C1290.18 560.878 1290.16 561.037 1291.01 560.495C1299.69 563.745 1309.91 567.664 1316.98 573.735C1318.86 575.343 1319.58 576.401 1319.74 578.825C1318.34 580.645 1317.64 580.813 1315.48 581.691C1314.62 582.239 1314.82 582.206 1313.98 582.459C1291.52 589.203 1252.96 568.786 1232.07 560.305C1219.92 555.372 1207.34 551.348 1195.34 546.111C1188.48 543.118 1182.08 539.398 1175.45 535.962Q1180.21 535.784 1184.96 535.463Z"/>
	<path fill="#9A92BC" transform="scale(0.999721 0.999721)" d="M1181.88 832.434C1185.5 831.887 1220.17 839.48 1229.74 839.753C1229.99 840.27 1230.16 840.569 1230.31 841.157C1230.87 843.336 1224.89 897.836 1223.66 904.649C1223.43 905.962 1222.94 907.016 1222.21 908.129C1222.79 909.798 1222.77 910.553 1222.46 912.295C1221.52 913.332 1220.78 913.93 1219.43 914.369C1210.8 917.187 1194.03 917.158 1186.04 912.997C1185.27 912.597 1184.3 911.868 1183.88 911.088C1182.39 908.325 1182.65 860.734 1182.65 854.47C1182.66 848.079 1183.75 838.903 1182.03 832.897C1181.98 832.741 1181.93 832.588 1181.88 832.434Z"/>
	<path fill="#9A92BC" transform="scale(0.999721 0.999721)" d="M1292.99 830.336C1293.84 831.027 1294.1 831.306 1294.43 832.385C1296.3 838.543 1299.11 895.436 1298.87 905.131C1298.83 906.582 1298.53 907.861 1297.92 909.178C1297.75 909.418 1297.6 909.684 1297.4 909.898C1292 915.49 1272.06 917.486 1264.64 916.822C1261.05 916.502 1259.9 916.184 1257.59 913.388C1257.69 913.076 1257.8 912.767 1257.9 912.451C1258.74 909.581 1249.27 843.316 1247.34 839.985C1261.03 839.428 1280.36 835.947 1292.99 830.336Z"/>
	<path fill="#FCF7EB" transform="scale(0.999721 0.999721)" d="M1118.82 605.5C1119.9 605.36 1120.94 605.37 1122.02 605.364C1126.96 613.655 1151.75 677.077 1151.25 681.681C1148.85 683.965 1108.14 698.252 1103.74 698.714C1104.09 694.675 1100.13 690.003 1099.57 685.802C1100.88 685.732 1102.16 685.752 1103.36 685.181C1103.56 685.088 1103.73 684.958 1103.92 684.847C1104.18 683.847 1103.97 683.816 1103.58 682.91C1101.6 681.703 1099.94 681.762 1097.7 681.727L1096.75 681.716L1096.53 681.261C1100.49 678.131 1107.73 679.334 1110.85 674.707C1111.68 673.463 1111.75 671.942 1111.46 670.511C1111.01 668.237 1103.98 653.848 1102.51 652.996C1100.09 651.589 1090.14 655.084 1086.9 655.817C1086.92 655.614 1086.98 655.412 1086.98 655.206C1087.04 651.286 1075.61 625.239 1072.9 622.424C1078.44 621.499 1114.63 608.446 1118.82 605.5Z"/>
	<path fill="#C2DBC9" transform="scale(0.999721 0.999721)" d="M1211 626.515C1214.28 626.566 1224.01 632.927 1226.72 635.119C1226.75 635.257 1226.79 635.393 1226.82 635.531C1227.23 637.537 1219.98 682.21 1219.23 687.917C1215.16 719.061 1212.1 750.699 1209.61 782.006C1208.88 791.151 1207.97 827.905 1206.21 832.751C1199.47 830.605 1188.72 829.273 1181.39 827.563C1178.18 825.131 1165.21 820.222 1160.7 818.04C1162.54 815.196 1179.47 728.497 1182.72 716.22Q1189.14 691.829 1197.14 667.91C1200.2 658.95 1210.17 634.371 1211 626.515Z"/>
	<path fill="#C2DBC9" transform="scale(0.999721 0.999721)" d="M1291.34 628.617C1291.49 628.612 1291.63 628.591 1291.78 628.602C1295.35 628.89 1299.54 633.631 1301.57 636.323C1311.1 648.994 1329.68 697.493 1327.42 713.008C1324.95 729.957 1310.21 746.597 1300.14 759.933C1297.34 763.65 1294.71 768.529 1290.96 771.291C1289.36 767.767 1282.9 765.04 1280.01 762.152C1276.4 758.552 1274.4 753.44 1270.41 750.203C1275.27 744.394 1287.41 718.659 1289.85 710.55C1294.29 695.821 1282.54 678.697 1275.61 666.011C1274.27 663.564 1272.59 659.928 1269.72 659.089L1268.49 659.959C1267.37 665.031 1285.52 690.238 1286.48 700.637C1286.83 704.351 1286.18 708.079 1285.02 711.601C1283.12 717.365 1269.79 744.747 1266.28 748.793C1266.19 748.9 1266.09 749.003 1265.99 749.107C1268.36 751.064 1271.64 757.294 1272.19 760.295C1278.37 764.499 1284.98 775.026 1293.1 775.617C1294.1 775.69 1295.13 775.509 1295.88 774.827C1297.41 773.441 1297.61 770.395 1297.57 768.458C1298.06 768.872 1298.5 769.302 1298.92 769.794C1301.32 772.641 1316.11 811.255 1315.86 814.518C1315.56 814.981 1315.47 815.198 1314.99 815.586C1298.87 828.729 1259.17 835.549 1238.98 835.941Q1231.73 836.039 1224.51 835.362Q1217.29 834.684 1210.18 833.239C1210.28 833.116 1210.39 833.005 1210.46 832.872C1211.67 830.711 1212.24 799.717 1212.54 795.162Q1214.68 766.521 1217.93 737.985C1220.52 713.108 1223.36 688.392 1226.81 663.613C1227.69 657.264 1231.97 641.714 1230.48 636.223C1255.66 640.089 1267.62 639.937 1291.34 628.617Z"/>
	<path transform="scale(0.999721 0.999721)" d="M1250.41 740.672C1251.61 740.605 1252.43 740.284 1253.38 741.155C1256.56 744.058 1263.6 760.656 1268.75 766.643C1275.35 774.313 1285.3 782.269 1295.73 783.469C1298.35 783.771 1302.02 783.186 1304.22 784.74C1304.05 786.387 1303.73 786.343 1302.5 787.363C1301.95 787.698 1301.49 787.885 1300.83 787.917C1289.44 788.46 1279.3 782.824 1271.15 775.236C1264.06 768.628 1250.71 750.516 1250.41 740.672Z"/>
	<path transform="scale(0.999721 0.999721)" d="M356.564 240.253C365.528 240.087 371.356 242.963 377.744 249.175C396.206 267.13 405.829 297.573 406.155 322.886C406.294 333.664 405.381 349.038 397.342 357.041C395.343 359.031 393.147 360.253 390.375 360.695C381.864 362.051 371.664 360.81 363.011 360.684Q336.743 360.309 310.472 360.294C312.282 366.546 316.547 374.022 316.606 380.487C316.639 384.071 315.182 387.662 312.494 390.053C309.391 392.813 305.163 393.818 301.096 393.455C296.457 393.042 294.194 390.565 291.377 387.239C288.364 389.568 285.444 391.94 282.6 394.474C279.907 413.509 265.521 462.68 257.02 479.949C282.859 508.878 298.381 542.416 315.104 576.725C312.702 579.951 310.771 583.447 308.779 586.933C313.543 594.781 320.17 602.77 322.417 611.817C324.283 619.332 321.91 626.541 317.975 632.963C316.693 635.054 315.159 636.833 312.63 637.29C310.391 637.694 308.039 636.77 306.261 635.453C300.924 631.501 302.089 627.638 301.136 622.031C300.384 617.604 296.065 617.326 292.938 615C289.528 612.463 288.079 606.952 287.473 602.939Q281.438 605.672 275.485 608.579C286.289 669.74 299.985 730.401 310.668 791.612Q315.924 822.482 320.492 853.461C321.698 861.571 322.252 874.623 324.924 881.924C326.568 882.23 327.907 882.533 329.401 883.297C332.559 888.481 331.956 899.094 332.043 905.144C329.199 905.827 326.286 906.308 323.411 906.856C324.459 910.316 325.926 913.712 327.224 917.089C336.252 920.692 345.969 922.212 354.915 925.827C360.125 927.932 364.664 931.555 366.695 936.971C367.699 939.649 367.635 942.45 366.367 945.027C363.359 951.142 355.682 954.44 349.581 956.409C329.826 962.786 295.797 966.637 277.011 956.679C274.401 955.295 272.633 953.611 271.896 950.694C269.719 942.072 273.732 927.662 278.117 920.024C277.483 916.907 277.378 913.686 277.158 910.518C273.81 910.612 268.935 911.234 265.812 910.131C264.066 909.514 263.119 908.679 262.469 906.942C260.622 902.005 259.089 891.281 261.125 886.375C262.891 884.802 263.361 885.016 265.648 884.852L266.493 883.788C264.869 868.385 260.93 852.461 257.698 837.304C252.485 812.859 247.182 788.535 241.541 764.182C235.229 782.736 225.599 798.385 215.59 815.136Q200.806 840.388 184.495 864.681C182.519 867.522 176.379 874.35 176.574 877.549C177.896 878.567 178.993 879.268 179.599 880.898C177.965 887.48 169 896.124 164.066 900.789C160.847 897.928 156.957 895.737 153.329 893.431C152.57 895.378 152.076 897.461 151.504 899.471C157.212 905.71 174.503 925.154 178.104 931.611C179.415 933.962 180.115 936.204 180.013 938.927C179.879 942.485 178.661 946.454 175.813 948.773C171.473 952.305 161.139 951.962 155.739 951.32C129.939 948.25 105.121 930.667 89.3986 910.794C89.4618 910.649 89.5227 910.503 89.5883 910.359C93.5214 901.733 99.4923 889.29 107.372 883.863C109.754 882.223 112.821 881.286 115.521 880.291C116.556 878.316 117.823 876.717 119.245 875.017L107.178 869.63C110.263 863.426 113.925 855.137 118.337 849.894C120.89 846.861 122.305 849.893 125.386 849.616C134.08 836.662 141.143 822.307 148.565 808.599C162.154 783.5 175.489 762.636 182.271 734.399Q187.462 712.214 192.157 689.919C194.116 680.491 195.402 670.01 198.837 661.036L199.129 660.289C193.453 647.456 186.321 633.703 183.788 619.819C175.436 620.089 161.787 621.323 154.192 617.931C151.765 616.847 150.911 615.382 150.144 612.88C148.211 606.574 148.285 598.92 147.315 592.353C140.718 547.711 132.964 447.706 152.824 409.861C158.578 398.896 167.569 395.635 178.796 392.212Q178.39 385.998 177.752 379.803C170.781 377.229 164.106 375.116 156.741 374.05C152.466 368.096 147.681 365.829 143.188 360.732C142.031 359.42 141.082 357.625 140.809 355.879C140.339 352.876 141.713 349.301 141.745 346.199C141.789 341.911 140.315 337.38 140.833 333.125C141.42 328.302 146.456 324.839 149.998 322.143C151.184 319.202 152.325 316.019 154.117 313.383C155.205 311.785 156.523 310.449 158.284 309.601C162.431 307.602 167.751 307.754 172.131 306.141C175.336 304.961 177.297 302.309 180.905 301.708C190.143 300.167 202.078 303.673 209.599 309.072C212.5 311.154 215.17 313.887 216.659 317.178C218.141 320.45 217.25 324.567 218.166 328.076C220.274 336.148 224.897 342.677 226.168 351.359C227.187 358.321 226.722 366.091 222.252 371.854C217.64 377.801 210.669 379.698 203.54 380.566Q202.914 385.827 202.367 391.097C205.121 391.087 207.917 391.268 210.658 391.527C221.611 392.559 227.748 401.251 234.151 409.126C236.295 403.79 239.006 398.444 241.8 393.416C243.734 389.937 248.504 384.538 249.361 381.025C249.851 379.015 249.111 375.897 248.826 373.834C247.236 373.199 245.645 372.552 244.098 371.819C239.948 369.852 236.136 365.949 234.78 361.527C232.314 353.486 237.993 344.808 241.43 337.868C244.874 336.03 253.256 332.672 255.085 331.373C259.489 328.246 263.587 323.941 267.58 320.295Q279.239 309.609 291.083 299.129Q307.101 285.246 323.387 271.677C329.095 266.958 335.198 262.478 340.646 257.472C347.943 250.769 345.636 245.5 356.564 240.253Z"/>
	<path fill="#FCF7EB" transform="scale(0.999721 0.999721)" d="M321.044 923.754C323.071 923.661 325.198 923.235 326.941 924.443C326.441 926.821 324.187 928.675 322.599 930.51C320.44 930.619 318.427 930.834 316.581 929.688C317.015 927.461 319.524 925.393 321.044 923.754Z"/>
	<path fill="#C4CFCC" transform="scale(0.999721 0.999721)" d="M307.593 614.543C308.75 615.205 309.633 615.442 310.128 616.79C311.473 620.455 309.082 626.25 307.477 629.565L306.202 628.972C305.868 628.052 305.607 627.142 305.455 626.173C304.815 622.088 305.096 617.795 307.593 614.543Z"/>
	<path fill="#FCF7EB" transform="scale(0.999721 0.999721)" d="M153.419 908.656C154.494 909.527 155.091 910.326 155.858 911.455L155.366 912.628C152.07 914.459 147.349 914.757 143.64 915.397C142.427 914.467 141.395 913.537 140.328 912.443L140.372 911.302C143.628 909.341 148.871 909.754 152.686 908.836L153.419 908.656Z"/>
	<path fill="#C4CFCC" transform="scale(0.999721 0.999721)" d="M240.286 350.583L241.783 351.733C243.419 356.061 247.395 364.342 246.726 368.711C242.867 366.373 239.871 363.497 238.832 358.877C238.114 355.687 238.449 353.271 240.286 350.583Z"/>
	<path fill="#FCF7EB" transform="scale(0.999721 0.999721)" d="M206.058 404.614C213.739 409.403 220.459 423.137 225.502 430.731C223.23 429.211 221.043 427.493 218.836 425.877C212.417 421.636 204.392 418.586 198.561 413.65C201.249 413.558 202.482 413.933 204.745 412.393C206.007 409.916 205.929 407.335 206.058 404.614Z"/>
	<path fill="#FCF7EB" transform="scale(0.999721 0.999721)" d="M276.1 364.507C280.308 367.242 286.364 378.654 289.494 383.263L280.431 390.619C279.804 391.127 278.959 391.489 278.248 391.881C275.106 391.828 272.09 390.011 269.297 388.697C272.718 380.518 275.165 373.391 276.1 364.507Z"/>
	<path fill="#C4CFCC" transform="scale(0.999721 0.999721)" d="M304.974 908.744L307.283 908.859C308.802 910.659 308.708 913.403 308.953 915.673C301.22 919.95 295.771 920.09 287.407 921.474C287.214 921.506 287.025 921.554 286.834 921.595C285.49 921.154 284.301 920.703 283.057 920.009C281.032 917.448 280.783 913.502 280.236 910.337Q292.628 909.902 304.974 908.744Z"/>
	<path fill="#C4CFCC" transform="scale(0.999721 0.999721)" d="M122.684 878.036C127.451 878.754 142.736 887.308 146.208 890.797C147.583 892.178 147.681 892.778 147.709 894.692C146.189 896.552 145.661 896.475 143.285 897.063C132.245 895.802 125.269 891.163 117.05 884.075C118.656 881.773 120.653 879.947 122.684 878.036Z"/>
	<path fill="#FCF7EB" transform="scale(0.999721 0.999721)" d="M203.907 395.189C205.038 395.226 206.173 395.315 207.301 395.403C219.761 396.376 225.013 404.195 232.671 413.134L228.732 423.045C228.307 423.879 227.847 424.418 227.242 425.122C226.549 424.892 226.488 424.923 225.809 424.407C222.957 422.241 221.246 416.572 219.25 413.489C216.335 408.987 204.5 399.001 203.907 395.189Z"/>
	<path fill="#C4CFCC" transform="scale(0.999721 0.999721)" d="M305.152 590.21C305.877 590.593 306.112 590.89 306.609 591.565C313.287 600.635 319.805 610.491 317.781 622.304C317.115 626.192 315.542 630.171 312.259 632.548C311.517 630.523 313.646 625.077 314.24 622.751C314.57 619.874 314.614 616.237 313.296 613.579C312.845 612.67 311.981 611.753 310.996 611.466C306.52 610.16 303.106 612.8 299.295 614.864Q298.863 614.488 298.444 614.098C295.858 611.689 292.017 607.893 292.056 604.152C292.111 598.894 301.538 593.623 305.152 590.21Z"/>
	<path fill="#FCF7EB" transform="scale(0.999721 0.999721)" d="M278.589 360.004C287.659 359.908 296.719 360.442 305.787 360.243C308.059 366.749 311.705 373.956 312.284 380.865C312.523 383.712 311.473 384.64 309.706 386.609C307.793 388.265 305.273 389.895 302.634 389.692C295.316 389.129 283.618 366.236 278.589 360.004Z"/>
	<path fill="#FCF7EB" transform="scale(0.999721 0.999721)" d="M361.091 935.045C361.267 935.324 361.465 935.589 361.617 935.881C362.735 938.032 363.219 941.336 362.161 943.591C360.465 947.208 355.566 949.482 352.048 950.908C328.91 960.288 300.143 961.706 277.035 951.999C274.992 948.702 275.735 943.688 275.864 939.968Q280.037 941.678 284.344 943.014Q288.651 944.349 293.06 945.3Q297.468 946.251 301.943 946.809Q306.417 947.367 310.924 947.529C326.36 947.986 349.572 945.985 361.091 935.045Z"/>
	<path fill="#FCF7EB" transform="scale(0.999721 0.999721)" d="M120.964 853.07C128.569 856.371 135.924 861.655 143.181 865.802C153.37 871.625 163.839 876.901 174.05 882.673C171.354 886.793 168.059 890.353 164.78 894.005L164.384 894.198C160.183 894.565 121.308 871.177 112.939 867.65L120.964 853.07Z"/>
	<path fill="#C2DBC9" transform="scale(0.999721 0.999721)" d="M260.802 336.113C260.949 336.134 261.099 336.137 261.242 336.176C264.114 336.949 268.838 341.979 270.069 344.503C276.341 357.359 270.035 375.091 265.499 387.546C261.635 386.228 255.928 385.059 253.674 381.58C253.678 368.067 246.996 355.924 243.79 343.053L244.823 341.423C247.671 341.829 248.94 344.794 251.77 345.74L252.579 344.975C252.637 342.487 251.204 340.069 250.433 337.736C252.914 337.057 254.83 338.769 257.315 338.776C259.085 338.782 259.733 337.343 260.802 336.113Z"/>
	<path fill="#FCF7EB" transform="scale(0.999721 0.999721)" d="M315.045 887.109C318.777 886.606 322.698 886.713 326.467 886.615Q327.549 894.048 328.413 901.51C311.758 905.142 293.973 905.609 276.965 906.267L266.382 906.16C265.286 900.639 264.773 894.91 264.055 889.322C280.986 889.101 298.18 888.5 315.045 887.109Z"/>
	<path fill="#FCF7EB" transform="scale(0.999721 0.999721)" d="M101.322 898.363C105.139 901.444 108.132 906.715 111.468 910.426C122.654 922.87 140.246 933.129 156.676 935.729C160.452 936.327 174.904 935.838 176.17 936.494L176.685 938.123C175.795 941.56 174.511 944.389 171.4 946.295C165.528 947.425 160.566 947.683 154.607 946.799C132.526 943.525 107.536 928.151 94.3402 910.193C96.4045 905.998 98.7056 902.232 101.322 898.363Z"/>
	<path fill="#FCF7EB" transform="scale(0.999721 0.999721)" d="M111.067 885.712C118.231 886.844 124.667 895.936 132.208 899.039C137.382 901.167 144.216 899.06 149.01 901.387C150.323 902.025 150.374 902.477 150.852 903.754C148.379 907.693 138.281 905.877 133.985 908.42C133.82 909.063 133.542 909.544 133.768 910.187C134.808 913.15 138.107 917.338 141.025 918.587C145.877 920.664 155.234 917.097 159.909 915.56L165.116 921.554C167.665 924.587 170.256 927.55 172.313 930.95L171.392 931.952C166.887 932.89 161.147 932.228 156.625 931.454C133.693 927.531 116.783 912.006 103.699 893.773C105.965 890.671 108.109 888.189 111.067 885.712Z"/>
	<path fill="#FCF7EB" transform="scale(0.999721 0.999721)" d="M317.726 907.296L319.156 907.387C321.075 909.637 321.694 913.091 322.552 915.887C319.347 918.396 313.629 923.429 312.356 927.366C311.941 928.65 312.107 929.929 312.83 931.052C314.88 934.24 320.433 934.829 323.943 935.652C327.423 932.23 330.052 928.155 332.807 924.152C338.629 925.285 351.858 926.891 355.972 931.188C356.831 932.085 356.587 932.299 356.614 933.459C353.284 937.972 342.135 940.027 336.761 941.192C317.057 945.073 294.966 944.661 276.768 935.562C277.621 931.793 278.842 928.205 280.11 924.557C292.564 926.726 301.949 923.97 313.068 918.471C313.001 915.218 311.616 911.874 312.611 908.732C314.329 907.351 315.618 907.508 317.726 907.296Z"/>
	<path fill="#424568" transform="scale(0.999721 0.999721)" d="M181.912 305.485C182.554 305.468 183.191 305.469 183.833 305.464C190.981 305.409 199.178 307.201 205.324 310.995C211.751 314.962 213.778 320.32 215.528 327.4C213.796 326.604 212.056 325.818 210.27 325.153C204.444 322.987 197.929 321.485 192.059 324.41C183.304 328.774 180.342 339.474 177.652 348.067C173.133 350.79 168.396 354.109 166.988 359.53C166.04 363.179 167.077 366.326 168.954 369.447C171.803 371.799 175.18 373.763 178.262 375.817C171.46 372.927 166.202 371.208 158.683 371.123C154.037 361.281 148.622 361.792 145.61 356.095C143.72 352.521 145.969 348.256 147.195 344.797C145.638 342.027 144.324 339.29 144.686 335.991C145.255 330.795 149.556 327.706 153.408 324.835L153.555 324.37C158.886 307.95 165.411 314.349 176.286 308.539L181.912 305.485Z"/>
	<path fill="#C4CFCC" transform="scale(0.999721 0.999721)" d="M197.858 326.401C203.116 327.068 208.639 327.808 212.929 331.211C218.834 335.894 221.636 346.848 222.296 354.021C222.799 359.482 222.105 365.195 218.316 369.45C212.434 376.054 203.272 376.017 195.143 376.614L194.588 377.279C195.559 379.512 197.561 379.56 199.748 380.453C200.706 384.357 197.877 388.591 198.242 392.482C198.609 396.4 200.955 400.644 201.805 404.622C202.349 407.17 202.158 408.139 200.801 410.26C195.892 409.076 188.756 408.038 185.141 404.236C183.222 402.218 181.939 380.525 182.134 376.476C184.779 375.264 187.26 373.834 189.773 372.373L182.892 371.696C179 371.295 174.064 369.444 171.67 366.162C170.559 364.638 170.158 362.883 170.611 361.041C171.854 355.98 176.892 353.632 180.987 351.223C182.276 346.273 183.572 341.204 185.929 336.636C188.624 331.416 192.237 328.201 197.858 326.401Z"/>
	<path transform="scale(0.999721 0.999721)" d="M206.745 345.249C209.283 345.242 211.144 344.68 213.126 346.377C213.409 351.182 209.76 348.893 207.616 351.4C209.709 352.693 211.983 353.254 214.322 353.942L214.495 355.194C214.88 358.087 215.686 361.725 213.57 364.135C211.488 366.507 206.837 366.204 203.94 366.253C202.909 365.99 201.748 365.736 200.8 365.247C199.279 364.462 198.348 363.603 197.774 362.044C198.916 360.034 208.317 362.948 211.737 360.652C210.871 356.701 204.798 355.553 203.878 350.712C204.21 348.322 205.23 347.071 206.745 345.249Z"/>
	<path fill="#FCF7EB" transform="scale(0.999721 0.999721)" d="M208.77 473.126C216.568 477.295 224.931 480.211 233.25 483.137C233.59 489.77 234.103 496.833 236.545 503.07C240.362 512.818 263.424 544.406 262.086 551.579C261.316 555.71 255.399 559.313 252.224 561.778C242.817 568.196 233.119 571.172 222.067 573.192C216.275 551.757 205.186 493.455 208.77 473.126Z"/>
	<path fill="#FCF7EB" transform="scale(0.999721 0.999721)" d="M253.71 483.523C253.862 483.575 254.029 483.598 254.168 483.68C262.88 488.864 290.529 536.141 296.565 547.643C301.423 556.898 305.609 566.551 309.929 576.068C304.463 586.357 295.381 593.025 285.655 598.926L274.493 603.916Q269.065 581.23 264.382 558.378C265.896 555.673 266.71 553.078 267.546 550.114C257.569 526.898 239.502 510.699 237.643 485.368C243.504 485.66 248.124 485.441 253.71 483.523Z"/>
	<path fill="#FCF7EB" transform="scale(0.999721 0.999721)" d="M357.317 243.686C359.58 243.812 362.307 244.114 364.432 244.905C376.294 249.317 385.173 264.162 390.605 275.082C400.183 294.337 406.313 324.35 399.185 345.104C397.169 350.974 394.277 354.809 388.623 357.51C387.112 357.405 385.557 357.305 384.074 356.983C374.663 354.937 366.44 343.592 361.655 336.012C348.26 314.792 339.614 287.109 345.412 262.129C347.239 254.26 350.31 247.992 357.317 243.686Z"/>
	<path fill="#FCF7EB" transform="scale(0.999721 0.999721)" d="M340.078 263.318C341.311 265.638 339.185 281.792 339.55 286.162C341.678 311.644 355.494 340.529 374.684 357.255C350.02 356.194 325.249 356.096 300.559 355.887Q288.694 355.702 276.83 355.966C276.273 351.752 275.688 347.653 274 343.72C271.665 338.278 268.388 334.199 262.75 332.021C262.619 331.97 262.486 331.928 262.354 331.881C264.699 324.805 329.446 272.206 340.078 263.318Z"/>
	<path fill="#FCF7EB" transform="scale(0.999721 0.999721)" d="M249.814 387.126C259.338 389.4 269.597 392.766 277.903 398.005C276.16 410.139 260.515 464.885 254.583 474.697C252.895 477.489 250.705 480.322 247.328 480.996C233.995 483.657 182.925 456.702 171.508 448.99C162.645 442.506 156.448 435.65 151.182 426.018C152.012 422.54 153.235 418.98 154.669 415.706C158.448 407.076 163.659 401.962 172.383 398.573C183.014 411.941 200.001 418.951 213.97 428.117C219.113 431.492 223.632 435.549 228.331 439.491C232.653 424.596 240.71 399.244 249.814 387.126Z"/>
	<path fill="#FCF7EB" transform="scale(0.999721 0.999721)" d="M201.299 667.282C207.613 673.065 236.792 745.91 239.397 756.456C237.061 765.358 233.747 773.745 229.666 781.979C215.703 810.156 196.025 840.591 178.097 866.494C176.045 869.458 174.138 873.3 171.528 875.751L169.976 875.266C155.986 868.546 141.408 861.192 128.702 852.259C137.724 838.868 144.946 823.618 152.689 809.414C160.894 794.365 170.636 779.348 177.346 763.587C188.669 736.99 195.055 696.265 201.299 667.282Z"/>
	<path fill="#FCF7EB" transform="scale(0.999721 0.999721)" d="M149.295 432.549C153.742 436.154 156.765 442.318 161.231 446.266C173.644 457.24 189.53 463.864 204.301 470.991Q204.309 479.597 204.691 488.195Q205.073 496.792 205.829 505.365Q206.584 513.938 207.711 522.469Q208.839 531.001 210.336 539.476Q211.832 547.951 213.696 556.352Q215.56 564.754 217.787 573.067Q220.014 581.379 222.6 589.587Q225.187 597.795 228.127 605.883L217.635 609.513C197.382 614.929 174.92 618.769 154.243 613.499C153.172 601.036 150.636 588.597 149.288 576.133C144.185 528.941 141.106 479.577 149.295 432.549Z"/>
	<path fill="#FCF7EB" transform="scale(0.999721 0.999721)" d="M260.235 561.165C262.96 567.165 263.691 575.071 265.113 581.555Q270.926 607.798 276.177 634.16C292.401 715.023 310.402 800.42 320.361 882.141C304.061 884.596 287.425 883.053 271.267 885.309C269.829 875.752 267.881 866.254 266.088 856.758C261.226 833.191 256.414 809.674 250.964 786.237C246.447 766.818 241.935 747.895 234.615 729.28C220.541 693.488 197.739 655.708 187.495 619.457C197.159 618.708 226.197 614.168 232.866 607.449C233.196 606.114 224.492 580.614 223.444 576.706C237.662 574.346 248.752 569.886 260.235 561.165Z"/>
</svg>
